<svg xmlns="http://www.w3.org/2000/svg" width="321.428" height="293.887" viewBox="0 0 321.428 293.887">
  <g id="Grupo_16025" data-name="Grupo 16025" transform="translate(-812.5 -3252.686)">
    <g id="Grupo_12735" data-name="Grupo 12735" transform="translate(107.151 3)">
      <g id="Grupo_12842" data-name="Grupo 12842" transform="translate(693.896 3324.831)">
        <path id="Trazado_26265" data-name="Trazado 26265" d="M136.2,90.015c0-3.149-7.851-2.837-7.851-2.837H22.623S15.063,87,13.169,88.76c-1.647,1.53-1.661,4.17.2,5.259A14.668,14.668,0,0,1,20.291,106.3v94.683S19.2,218.242,34.129,218.242h85.833c14.926,0,13.837-17.258,13.837-17.258V106.3s.182-10.34.065-11.972a2.049,2.049,0,0,1,1.4-2.1A2.5,2.5,0,0,0,136.2,90.015Z" fill="#e4eef3" stroke="#bebebe" stroke-linecap="round" stroke-linejoin="round" stroke-width="1" opacity="0.5"/>
        <path id="Trazado_26266" data-name="Trazado 26266" d="M132.246,141.561H21.845v57.8S20.786,216.143,35.3,216.143h83.483c14.518,0,13.459-16.785,13.459-16.785Z" fill="#455aa0" opacity="0.8"/>
        <g id="Grupo_12841" data-name="Grupo 12841">
          <path id="Trazado_26267" data-name="Trazado 26267" d="M136.2,90.015c0-3.149-7.851-2.837-7.851-2.837H22.623S15.063,87,13.169,88.76c-1.647,1.53-1.661,4.17.2,5.259A14.668,14.668,0,0,1,20.291,106.3v94.683S19.2,218.242,34.129,218.242h85.833c14.926,0,13.837-17.258,13.837-17.258V106.3s.182-10.34.065-11.972a2.049,2.049,0,0,1,1.4-2.1A2.5,2.5,0,0,0,136.2,90.015Zm-16.76.533c-.467,1.866-4.665,2.176-4.665,2.176L57.4,94.746H95.8l.507,107.238c-1.554,8.085-10.535,8.278-10.535,8.278H36.724c-13.216,0-13.37-14.459-13.37-14.459v-89.4c-.311-6.531-2.333-10.261-4.821-12.283s-2.642-2.8-2.642-2.8c-1.244-3.111,3.421-2.954,3.421-2.954h96.237C120.213,88.372,119.436,90.548,119.436,90.548Z" fill="#c3ccd1" opacity="0.4" style="mix-blend-mode: multiply;isolation: isolate"/>
          <path id="Trazado_26268" data-name="Trazado 26268" d="M38.123,91.175H27.551s-4.975.467-3.265,2.954c0,0,5.6,4.664,6.22,9.328v91.419s1.086,11.751,11.037,11.751l6.84-.233V103.769S46.986,93.041,38.123,91.175Z" fill="#fff" opacity="0.7" style="mix-blend-mode: overlay;isolation: isolate"/>
          <path id="Trazado_26269" data-name="Trazado 26269" d="M23.354,195.8s.154,14.459,13.37,14.459H85.775s8.981-.193,10.535-8.278L95.8,94.746H57.4l57.369-2.022s4.2-.31,4.665-2.176c0,0,.777-2.176-3.887-2.176H19.312s-4.665-.157-3.421,2.954c0,0,.154.776,2.642,2.8s4.51,5.752,4.821,12.283Z" fill="none"/>
          <path id="Trazado_26270" data-name="Trazado 26270" d="M136.2,90.015c0-3.149-7.851-2.837-7.851-2.837h-11.19a1.722,1.722,0,0,0,.8.149c5.714.117,13.855-.2,14.343,2.449.816,4.431-10.145,4.081-10.145,4.081l.233,110.541c-2.332,12.245-13.876,11.544-13.876,11.544H33.3a15.294,15.294,0,0,1-11.778-6.879l.02.351c1.56,4.38,5.006,8.828,12.584,8.828h85.833c14.926,0,13.837-17.258,13.837-17.258V106.3s.182-10.34.065-11.972a2.049,2.049,0,0,1,1.4-2.1A2.5,2.5,0,0,0,136.2,90.015Z" fill="#b5bdc2" opacity="0.5" style="mix-blend-mode: multiply;isolation: isolate"/>
        </g>
      </g>
      <g id="Grupo_12722" data-name="Grupo 12722" transform="translate(266.896 3466.938) rotate(-30)">
        <g id="Grupo_12721" data-name="Grupo 12721" transform="translate(494.817 133.795)">
          <g id="Grupo_12718" data-name="Grupo 12718">
            <path id="Trazado_26075" data-name="Trazado 26075" d="M632.343,238.949l-1.1,1.9a21.566,21.566,0,0,1-29.477,7.83L474.276,174.71l22.75-39.209,127.486,73.971A21.566,21.566,0,0,1,632.343,238.949Z" transform="translate(-463.832 -124.656)" fill="#e3f3fa"/>
            <path id="Trazado_26076" data-name="Trazado 26076" d="M623.375,214.189a17.24,17.24,0,0,1-23.534,6.25L476.407,148.212l72.751.36,69.07,40.178a17.237,17.237,0,0,1,6.25,23.534Z" transform="translate(-459.727 -100.174)" fill="#455aa0"/>
            <path id="Trazado_26077" data-name="Trazado 26077" d="M506.552,138.072,478.5,186.416a4.18,4.18,0,1,1-7.23-4.2l28.049-48.348a4.182,4.182,0,0,1,7.233,4.2Z" transform="translate(-470.707 -131.795)" fill="#bdd3de"/>
          </g>
          <g id="Grupo_12719" data-name="Grupo 12719" transform="translate(16.689 42.013)" opacity="0.56" style="mix-blend-mode: screen;isolation: isolate">
            <path id="Trazado_26078" data-name="Trazado 26078" d="M478.78,146.153l-2.37,4.082,124.534,72.259a21.528,21.528,0,0,0,17.714,1.776,23.211,23.211,0,0,1-10.636-3.125Z" transform="translate(-476.41 -146.153)" fill="#e3f3fa"/>
          </g>
          <g id="Grupo_12720" data-name="Grupo 12720" transform="translate(20.703 23.307)">
            <path id="Trazado_26079" data-name="Trazado 26079" d="M524.346,171.862a4.348,4.348,0,1,0-1.58-5.943A4.349,4.349,0,0,0,524.346,171.862Z" transform="translate(-392.272 -93.549)" fill="#f4f4f4"/>
            <path id="Trazado_26080" data-name="Trazado 26080" d="M520.264,170.639a1.849,1.849,0,1,0-.67-2.528A1.847,1.847,0,0,0,520.264,170.639Z" transform="translate(-397.732 -86.927)" fill="#dedede"/>
            <path id="Trazado_26081" data-name="Trazado 26081" d="M523.815,174.586a1.847,1.847,0,1,0-.673-2.525A1.849,1.849,0,0,0,523.815,174.586Z" transform="translate(-390.896 -79.319)" fill="#dedede"/>
            <path id="Trazado_26082" data-name="Trazado 26082" d="M515,168.014a1.847,1.847,0,1,0-.67-2.525A1.849,1.849,0,0,0,515,168.014Z" transform="translate(-407.863 -91.977)" fill="#dedede"/>
            <path id="Trazado_26083" data-name="Trazado 26083" d="M518.46,165.839a1.848,1.848,0,1,0-.673-2.528A1.848,1.848,0,0,0,518.46,165.839Z" transform="translate(-401.21 -96.172)" fill="#f4f4f4"/>
            <path id="Trazado_26084" data-name="Trazado 26084" d="M509.372,166.806a1.847,1.847,0,1,0-.673-2.525A1.846,1.846,0,0,0,509.372,166.806Z" transform="translate(-418.714 -94.304)" fill="#dedede"/>
            <path id="Trazado_26085" data-name="Trazado 26085" d="M509.9,160.141a1.849,1.849,0,1,0-.673-2.525A1.848,1.848,0,0,0,509.9,160.141Z" transform="translate(-417.697 -107.145)" fill="#f4f4f4"/>
            <path id="Trazado_26086" data-name="Trazado 26086" d="M503.619,163.471a1.849,1.849,0,1,0-.67-2.528A1.847,1.847,0,0,0,503.619,163.471Z" transform="translate(-429.789 -100.731)" fill="#dedede"/>
            <path id="Trazado_26087" data-name="Trazado 26087" d="M501.281,160.352a1.847,1.847,0,1,0-.67-2.525A1.846,1.846,0,0,0,501.281,160.352Z" transform="translate(-434.294 -106.735)" fill="#dedede"/>
            <path id="Trazado_26088" data-name="Trazado 26088" d="M499.672,155.4a1.849,1.849,0,1,0-.673-2.525A1.848,1.848,0,0,0,499.672,155.4Z" transform="translate(-437.397 -116.278)" fill="#fcfcfc"/>
            <path id="Trazado_26089" data-name="Trazado 26089" d="M494.171,156.657a1.847,1.847,0,1,0-.67-2.525A1.849,1.849,0,0,0,494.171,156.657Z" transform="translate(-447.986 -113.852)" fill="#fcfcfc"/>
            <path id="Trazado_26090" data-name="Trazado 26090" d="M494.681,148.855a1.847,1.847,0,1,0-.67-2.525A1.85,1.85,0,0,0,494.681,148.855Z" transform="translate(-447.004 -128.879)" fill="#fff"/>
            <path id="Trazado_26091" data-name="Trazado 26091" d="M491.881,152.22a1.849,1.849,0,1,0-.67-2.525A1.849,1.849,0,0,0,491.881,152.22Z" transform="translate(-452.4 -122.401)" fill="#f4f4f4"/>
            <path id="Trazado_26092" data-name="Trazado 26092" d="M484.634,152.414a1.847,1.847,0,1,0-.673-2.525A1.847,1.847,0,0,0,484.634,152.414Z" transform="translate(-466.361 -122.024)" fill="#fcfcfc"/>
            <path id="Trazado_26093" data-name="Trazado 26093" d="M487.011,145.327a1.849,1.849,0,1,0-.673-2.528A1.848,1.848,0,0,0,487.011,145.327Z" transform="translate(-461.783 -135.68)" fill="#fff"/>
            <path id="Trazado_26094" data-name="Trazado 26094" d="M517.033,173.8a4.347,4.347,0,1,0-1.58-5.943A4.347,4.347,0,0,0,517.033,173.8Z" transform="translate(-406.355 -89.808)" fill="#dedede"/>
            <path id="Trazado_26095" data-name="Trazado 26095" d="M514.937,165.914a4.348,4.348,0,1,0-1.577-5.943A4.347,4.347,0,0,0,514.937,165.914Z" transform="translate(-410.391 -105.003)" fill="#f4f4f4"/>
            <path id="Trazado_26096" data-name="Trazado 26096" d="M507.231,167.961a4.348,4.348,0,1,0-1.58-5.943A4.347,4.347,0,0,0,507.231,167.961Z" transform="translate(-425.234 -101.06)" fill="#dedede"/>
            <path id="Trazado_26097" data-name="Trazado 26097" d="M505.479,161.36a4.347,4.347,0,1,0-1.58-5.943A4.347,4.347,0,0,0,505.479,161.36Z" transform="translate(-428.611 -113.774)" fill="#f4f4f4"/>
            <path id="Trazado_26098" data-name="Trazado 26098" d="M497.018,159.866a2.935,2.935,0,1,0-1.065-4.012A2.936,2.936,0,0,0,497.018,159.866Z" transform="translate(-443.547 -111.577)" fill="#d3d3d3"/>
            <path id="Trazado_26099" data-name="Trazado 26099" d="M497.11,156.914a4.348,4.348,0,1,0-1.577-5.943A4.347,4.347,0,0,0,497.11,156.914Z" transform="translate(-444.727 -122.337)" fill="#f4f4f4"/>
            <path id="Trazado_26100" data-name="Trazado 26100" d="M489.3,158.028a4.348,4.348,0,1,0-1.577-5.943A4.347,4.347,0,0,0,489.3,158.028Z" transform="translate(-459.772 -120.191)" fill="#d3d3d3"/>
            <path id="Trazado_26101" data-name="Trazado 26101" d="M489.5,152.96a4.348,4.348,0,1,0-1.58-5.946A4.35,4.35,0,0,0,489.5,152.96Z" transform="translate(-459.386 -129.958)" fill="#fff"/>
            <path id="Trazado_26102" data-name="Trazado 26102" d="M479.95,152.238a4.347,4.347,0,1,0-1.58-5.943A4.347,4.347,0,0,0,479.95,152.238Z" transform="translate(-477.782 -131.344)" fill="#fff"/>
            <path id="Trazado_26103" data-name="Trazado 26103" d="M482.489,147.871a4.348,4.348,0,1,0-1.58-5.943A4.347,4.347,0,0,0,482.489,147.871Z" transform="translate(-472.892 -139.76)" fill="#fff"/>
            <path id="Trazado_26104" data-name="Trazado 26104" d="M483.714,149.432a1.847,1.847,0,1,0-.67-2.525A1.849,1.849,0,0,0,483.714,149.432Z" transform="translate(-468.129 -127.768)" fill="#fff"/>
          </g>
          <path id="Trazado_26105" data-name="Trazado 26105" d="M489.717,133.873l-14.025,24.175,153.373,88.991.55-.951a21.566,21.566,0,0,0-7.83-29.477L494.3,142.639l2.651-4.568a4.182,4.182,0,0,0-7.233-4.2Z" transform="translate(-461.104 -131.795)" fill="#e6e7e8" style="mix-blend-mode: multiply;isolation: isolate"/>
        </g>
      </g>
      <path id="Trazado_26106" data-name="Trazado 26106" d="M444.789,2096H343.516" transform="translate(494 1313)" fill="none" stroke="#ff8f00" stroke-width="1"/>
      <ellipse id="Elipse_852" data-name="Elipse 852" cx="59" cy="10" rx="59" ry="10" transform="translate(711 3399)" fill="#9f9f9f"/>
      <ellipse id="Elipse_853" data-name="Elipse 853" cx="4" cy="1" rx="4" ry="1" transform="translate(721 3410)" fill="#fff"/>
      <ellipse id="Elipse_854" data-name="Elipse 854" cx="4" cy="1" rx="4" ry="1" transform="translate(733 3410)" fill="#fff"/>
      <ellipse id="Elipse_855" data-name="Elipse 855" cx="4" cy="1" rx="4" ry="1" transform="translate(744 3410)" fill="#fff"/>
      <ellipse id="Elipse_856" data-name="Elipse 856" cx="4" cy="1" rx="4" ry="1" transform="translate(756 3410)" fill="#fff"/>
      <ellipse id="Elipse_857" data-name="Elipse 857" cx="4" cy="1" rx="4" ry="1" transform="translate(767 3410)" fill="#fff"/>
      <ellipse id="Elipse_858" data-name="Elipse 858" cx="4" cy="1" rx="4" ry="1" transform="translate(779 3410)" fill="#fff"/>
      <ellipse id="Elipse_859" data-name="Elipse 859" cx="4" cy="1" rx="4" ry="1" transform="translate(790 3410)" fill="#fff"/>
      <ellipse id="Elipse_860" data-name="Elipse 860" cx="4" cy="1" rx="4" ry="1" transform="translate(802 3410)" fill="#fff"/>
      <ellipse id="Elipse_861" data-name="Elipse 861" cx="4" cy="1" rx="4" ry="1" transform="translate(727 3406)" fill="#fff"/>
      <ellipse id="Elipse_862" data-name="Elipse 862" cx="4" cy="1" rx="4" ry="1" transform="translate(739 3406)" fill="#fff"/>
      <ellipse id="Elipse_863" data-name="Elipse 863" cx="4" cy="1" rx="4" ry="1" transform="translate(750 3406)" fill="#fff"/>
      <ellipse id="Elipse_864" data-name="Elipse 864" cx="4" cy="1" rx="4" ry="1" transform="translate(762 3406)" fill="#fff"/>
      <ellipse id="Elipse_865" data-name="Elipse 865" cx="4" cy="1" rx="4" ry="1" transform="translate(773 3406)" fill="#fff"/>
      <ellipse id="Elipse_866" data-name="Elipse 866" cx="4" cy="1" rx="4" ry="1" transform="translate(785 3406)" fill="#fff"/>
      <ellipse id="Elipse_867" data-name="Elipse 867" cx="4" cy="1" rx="4" ry="1" transform="translate(796 3406)" fill="#fff"/>
      <ellipse id="Elipse_868" data-name="Elipse 868" cx="4" cy="1" rx="4" ry="1" transform="translate(808 3406)" fill="#fff"/>
      <ellipse id="Elipse_869" data-name="Elipse 869" cx="4" cy="1" rx="4" ry="1" transform="translate(733 3402)" fill="#fff"/>
      <ellipse id="Elipse_870" data-name="Elipse 870" cx="4" cy="1" rx="4" ry="1" transform="translate(745 3402)" fill="#fff"/>
      <ellipse id="Elipse_871" data-name="Elipse 871" cx="4" cy="1" rx="4" ry="1" transform="translate(756 3402)" fill="#fff"/>
      <ellipse id="Elipse_872" data-name="Elipse 872" cx="4" cy="1" rx="4" ry="1" transform="translate(768 3402)" fill="#fff"/>
      <ellipse id="Elipse_873" data-name="Elipse 873" cx="4" cy="1" rx="4" ry="1" transform="translate(779 3402)" fill="#fff"/>
      <ellipse id="Elipse_874" data-name="Elipse 874" cx="4" cy="1" rx="4" ry="1" transform="translate(791 3402)" fill="#fff"/>
      <ellipse id="Elipse_875" data-name="Elipse 875" cx="4" cy="1" rx="4" ry="1" transform="translate(802 3402)" fill="#fff"/>
      <ellipse id="Elipse_876" data-name="Elipse 876" cx="4" cy="1" rx="4" ry="1" transform="translate(814 3410)" fill="#fff"/>
      <ellipse id="Elipse_877" data-name="Elipse 877" cx="4" cy="1" rx="4" ry="1" transform="translate(716 3406)" fill="#fff"/>
      <ellipse id="Elipse_878" data-name="Elipse 878" cx="4" cy="1" rx="4" ry="1" transform="translate(750 3414)" fill="#fff"/>
      <ellipse id="Elipse_879" data-name="Elipse 879" cx="4" cy="1" rx="4" ry="1" transform="translate(762 3414)" fill="#fff"/>
      <ellipse id="Elipse_880" data-name="Elipse 880" cx="4" cy="1" rx="4" ry="1" transform="translate(773 3414)" fill="#fff"/>
      <ellipse id="Elipse_881" data-name="Elipse 881" cx="4" cy="1" rx="4" ry="1" transform="translate(738 3414)" fill="#fff"/>
      <ellipse id="Elipse_882" data-name="Elipse 882" cx="4" cy="1" rx="4" ry="1" transform="translate(785 3414)" fill="#fff"/>
      <ellipse id="Elipse_883" data-name="Elipse 883" cx="4" cy="1" rx="4" ry="1" transform="translate(797 3414)" fill="#fff"/>
    </g>
    <path id="Trazado_36678" data-name="Trazado 36678" d="M12.512-17.639v3.223H8.325V0H4.7V-14.417H.488v-3.223ZM25.586,0,24.3-3.638h-7.41L15.613,0H11.865l6.494-17.639h4.48L29.333,0ZM17.969-6.7H23.23l-2.625-7.483ZM52.2,0h-3.65l-1.16-13.293L42.92,0H40.552L36.084-13.293,34.912,0H31.25l1.477-17.639h5.225l3.76,11.072L45.52-17.639h5.225ZM56.03,0V-17.639h3.662V0ZM67.456-3.235h8.472V0H63.074V-2.893l8.362-11.523h-8.35v-3.223H75.769v2.893Z" transform="translate(1058 3419)" fill="#ff8f00"/>
  </g>
</svg>
