<svg xmlns="http://www.w3.org/2000/svg" width="797.362" height="158.979" viewBox="0 0 797.362 158.979">
  <g id="Grupo_16059" data-name="Grupo 16059" transform="translate(-548 -1356.765)">
    <path id="Unión_3" data-name="Unión 3" d="M-3314.04,1406.213l-46.041,61.7-19.919-8.9,52.68-70.592-52.68-70.592,19.918-8.9,46.041,61.7,46.041-61.7,19.919,8.9-52.68,70.593,52.68,70.592-19.919,8.9Z" transform="translate(4299.303 47.837)" fill="#1ec488"/>
    <path id="Trazado_33587" data-name="Trazado 33587" d="M32.959,0,29.414-9.873H10.752L7.236,0H1.758L16.963-41.25h6.27L38.438,0ZM12.422-14.5H27.773L20.1-35.977Z" transform="translate(858.763 1402)" fill="red"/>
    <path id="Trazado_33588" data-name="Trazado 33588" d="M9.375-4.775H33.4V0H2.871V-4.277l23.438-32.2H2.959V-41.25H32.637v4.336Z" transform="translate(858.763 1513)" fill="#2649bf"/>
    <path id="Trazado_33586" data-name="Trazado 33586" d="M17.095-20.625H19.7V0H16.934L5.815-16.685V0H3.237V-20.625H5.977L17.095-4.014Zm18.267-.059L32.08-16.89H30.337l3.677-4.775ZM34.482-14.4h2.534V0H34.585l-.059-1.9A4.5,4.5,0,0,1,32.739-.286a5.5,5.5,0,0,1-2.52.564,5.009,5.009,0,0,1-3.625-1.3A4.863,4.863,0,0,1,25.239-4.7v-9.7h2.534v9.126A3.417,3.417,0,0,0,28.66-2.7a3.137,3.137,0,0,0,2.263.85,3.445,3.445,0,0,0,2.556-1,4.057,4.057,0,0,0,1-2.944Zm22.412-.278a4.642,4.642,0,0,1,3.354,1.223,4.537,4.537,0,0,1,1.274,3.435V0H58.989V-9.36a3.254,3.254,0,0,0-.791-2.373,2.693,2.693,0,0,0-2.007-.806,2.844,2.844,0,0,0-2.2.908,3.905,3.905,0,0,0-.835,2.725V0H50.581V-9.258a3.4,3.4,0,0,0-.8-2.454,2.715,2.715,0,0,0-2.043-.828,2.817,2.817,0,0,0-2.19.93,4.04,4.04,0,0,0-.842,2.791V0H42.173V-14.4h2.534v1.86a4.374,4.374,0,0,1,1.648-1.582,4.7,4.7,0,0,1,2.292-.557,4.892,4.892,0,0,1,2.461.608,3.784,3.784,0,0,1,1.6,1.75,4.481,4.481,0,0,1,1.729-1.75A4.944,4.944,0,0,1,56.895-14.678ZM79.028-7.485,79-6.8H67.749a5.088,5.088,0,0,0,1.377,3.684,4.521,4.521,0,0,0,3.281,1.282,4.317,4.317,0,0,0,2.388-.688,4.467,4.467,0,0,0,1.641-1.9l2.285.483A6.5,6.5,0,0,1,76.26-.85,6.714,6.714,0,0,1,72.437.278a6.956,6.956,0,0,1-5.186-2.007,7.466,7.466,0,0,1-1.978-5.479,7.43,7.43,0,0,1,1.985-5.464,6.87,6.87,0,0,1,5.1-2.007A6.5,6.5,0,0,1,77.2-12.832,7.293,7.293,0,0,1,79.028-7.485Zm-6.665-5.244a4.491,4.491,0,0,0-3,1.018,4.664,4.664,0,0,0-1.516,2.966h8.628a4.278,4.278,0,0,0-1.26-2.966A4.068,4.068,0,0,0,72.363-12.729Zm13.11.864A4.353,4.353,0,0,1,87.261-13.8a5.382,5.382,0,0,1,2.769-.762v2.388A4.744,4.744,0,0,0,86.682-11.1a4.467,4.467,0,0,0-1.15,3.413V0H83V-14.4h2.476ZM98.892.278A7.59,7.59,0,0,1,95.2-.615,6.506,6.506,0,0,1,92.6-3.23a8.032,8.032,0,0,1-.959-3.977,7.336,7.336,0,0,1,2.043-5.427,7.054,7.054,0,0,1,5.208-2.043,7.047,7.047,0,0,1,5.215,2.043,7.35,7.35,0,0,1,2.036,5.427A7.355,7.355,0,0,1,104.1-1.765,7.054,7.054,0,0,1,98.892.278Zm-.015-2.109a4.423,4.423,0,0,0,3.406-1.479,5.544,5.544,0,0,0,1.355-3.9,5.523,5.523,0,0,0-1.355-3.882,4.423,4.423,0,0,0-3.406-1.479A4.362,4.362,0,0,0,95.5-11.089a5.559,5.559,0,0,0-1.34,3.882,5.581,5.581,0,0,0,1.34,3.9A4.362,4.362,0,0,0,98.877-1.831Zm33.75-12.847a4.642,4.642,0,0,1,3.354,1.223,4.537,4.537,0,0,1,1.274,3.435V0h-2.534V-9.36a3.254,3.254,0,0,0-.791-2.373,2.693,2.693,0,0,0-2.007-.806,2.844,2.844,0,0,0-2.2.908,3.905,3.905,0,0,0-.835,2.725V0h-2.578V-9.258a3.4,3.4,0,0,0-.8-2.454,2.715,2.715,0,0,0-2.043-.828,2.817,2.817,0,0,0-2.19.93,4.04,4.04,0,0,0-.842,2.791V0h-2.534V-14.4h2.534v1.86a4.374,4.374,0,0,1,1.648-1.582,4.7,4.7,0,0,1,2.292-.557,4.892,4.892,0,0,1,2.461.608,3.784,3.784,0,0,1,1.6,1.75,4.481,4.481,0,0,1,1.729-1.75A4.944,4.944,0,0,1,132.627-14.678Zm13.9-2.212,3.677-4.775,1.348.981-3.281,3.794ZM145.488.278a4.9,4.9,0,0,1-3.157-.989,3.551,3.551,0,0,1-1.238-2.952,4.194,4.194,0,0,1,.4-1.882,3.318,3.318,0,0,1,1.172-1.311,7.03,7.03,0,0,1,1.692-.813,15.64,15.64,0,0,1,2.19-.52l2.329-.381q1.274-.234,1.274-1.333a2.516,2.516,0,0,0-.9-2.146,3.671,3.671,0,0,0-2.278-.681,3.739,3.739,0,0,0-2.256.659,2.759,2.759,0,0,0-1.069,2.021l-2.285-.483a4.4,4.4,0,0,1,1.8-3.083,6.732,6.732,0,0,1,3.926-1.033,7.962,7.962,0,0,1,2.087.256,5.673,5.673,0,0,1,1.743.806,3.613,3.613,0,0,1,1.245,1.553,5.777,5.777,0,0,1,.447,2.366v5.947a2.433,2.433,0,0,0,.33,1.5,1.423,1.423,0,0,0,1.135.388h.234V0h-1.26q-2.329,0-2.725-1.948h-.117A5.5,5.5,0,0,1,145.488.278Zm.586-2.051a3.842,3.842,0,0,0,3.091-1.392,5.729,5.729,0,0,0,1.172-3.809l-3.809.732a5.127,5.127,0,0,0-2.234.8,1.857,1.857,0,0,0-.725,1.575,1.835,1.835,0,0,0,.7,1.582A2.974,2.974,0,0,0,146.074-1.772ZM162.437.278a6.826,6.826,0,0,1-3.882-1.04,4.3,4.3,0,0,1-1.89-2.959l2.212-.63a3.085,3.085,0,0,0,1.179,2,3.825,3.825,0,0,0,2.366.71,4.721,4.721,0,0,0,1.384-.19,2.219,2.219,0,0,0,1.062-.71,1.9,1.9,0,0,0,.425-1.311,1.912,1.912,0,0,0-.117-.593,2.543,2.543,0,0,0-.234-.476,1.451,1.451,0,0,0-.41-.4,5.408,5.408,0,0,0-.5-.308,5.112,5.112,0,0,0-.652-.271q-.432-.154-.7-.234t-.806-.234q-.542-.154-.835-.242a15.62,15.62,0,0,1-1.494-.527,6.553,6.553,0,0,1-1.216-.7,2.8,2.8,0,0,1-.945-1.135,3.841,3.841,0,0,1-.315-1.611,3.724,3.724,0,0,1,.7-2.3,3.956,3.956,0,0,1,1.824-1.355,7.29,7.29,0,0,1,2.556-.417,6.257,6.257,0,0,1,3.508.938,4,4,0,0,1,1.75,2.813l-2.08.527a2.758,2.758,0,0,0-1.1-1.824,3.5,3.5,0,0,0-2.065-.608,3.565,3.565,0,0,0-1.934.505,1.7,1.7,0,0,0-.806,1.545,1.538,1.538,0,0,0,.212.8,2.535,2.535,0,0,0,.432.564,2.656,2.656,0,0,0,.791.432q.571.227.85.308t1.055.271q.146.044.22.059.85.22,1.384.388a8.508,8.508,0,0,1,1.245.527,4.139,4.139,0,0,1,1.121.784,3.631,3.631,0,0,1,.7,1.113,3.93,3.93,0,0,1,.293,1.553,4.194,4.194,0,0,1-.432,1.941,3.38,3.38,0,0,1-1.179,1.326,5.7,5.7,0,0,1-1.677.725A7.991,7.991,0,0,1,162.437.278Zm10.576-18.062a1.649,1.649,0,0,1-1.208-.505A1.649,1.649,0,0,1,171.3-19.5a1.625,1.625,0,0,1,.505-1.2,1.661,1.661,0,0,1,1.208-.5,1.644,1.644,0,0,1,1.194.5,1.625,1.625,0,0,1,.505,1.2,1.649,1.649,0,0,1-.505,1.208A1.632,1.632,0,0,1,173.013-17.783ZM171.724,0V-14.4h2.549V0Zm13.682.264A6.935,6.935,0,0,1,180.249-1.8a7.368,7.368,0,0,1-2.036-5.405,7.383,7.383,0,0,1,2.029-5.405,6.929,6.929,0,0,1,5.164-2.065,6.986,6.986,0,0,1,4.167,1.26A6.358,6.358,0,0,1,192-9.917l-2.373.381A4.383,4.383,0,0,0,188-11.777a4.427,4.427,0,0,0-2.607-.791,4.257,4.257,0,0,0-3.333,1.479,5.636,5.636,0,0,0-1.311,3.882,5.608,5.608,0,0,0,1.311,3.875,4.266,4.266,0,0,0,3.333,1.472A4.427,4.427,0,0,0,188-2.651a4.383,4.383,0,0,0,1.626-2.241L192-4.5A6.365,6.365,0,0,1,189.558-1,6.975,6.975,0,0,1,185.405.264ZM201.8.278a7.59,7.59,0,0,1-3.691-.894,6.506,6.506,0,0,1-2.6-2.615,8.032,8.032,0,0,1-.959-3.977,7.336,7.336,0,0,1,2.043-5.427,7.054,7.054,0,0,1,5.208-2.043,7.047,7.047,0,0,1,5.215,2.043,7.35,7.35,0,0,1,2.036,5.427A7.355,7.355,0,0,1,207-1.765,7.054,7.054,0,0,1,201.8.278Zm-.015-2.109a4.423,4.423,0,0,0,3.406-1.479,5.544,5.544,0,0,0,1.355-3.9,5.523,5.523,0,0,0-1.355-3.882,4.423,4.423,0,0,0-3.406-1.479,4.362,4.362,0,0,0-3.376,1.479,5.559,5.559,0,0,0-1.34,3.882,5.581,5.581,0,0,0,1.34,3.9A4.362,4.362,0,0,0,201.782-1.831Z" transform="translate(544.763 1386)" fill="#082143"/>
    <path id="Trazado_33585" data-name="Trazado 33585" d="M17.095-20.625H19.7V0H16.934L5.815-16.685V0H3.237V-20.625H5.977L17.095-4.014Zm18.267-.059L32.08-16.89H30.337l3.677-4.775ZM34.482-14.4h2.534V0H34.585l-.059-1.9A4.5,4.5,0,0,1,32.739-.286a5.5,5.5,0,0,1-2.52.564,5.009,5.009,0,0,1-3.625-1.3A4.863,4.863,0,0,1,25.239-4.7v-9.7h2.534v9.126A3.417,3.417,0,0,0,28.66-2.7a3.137,3.137,0,0,0,2.263.85,3.445,3.445,0,0,0,2.556-1,4.057,4.057,0,0,0,1-2.944Zm22.412-.278a4.642,4.642,0,0,1,3.354,1.223,4.537,4.537,0,0,1,1.274,3.435V0H58.989V-9.36a3.254,3.254,0,0,0-.791-2.373,2.693,2.693,0,0,0-2.007-.806,2.844,2.844,0,0,0-2.2.908,3.905,3.905,0,0,0-.835,2.725V0H50.581V-9.258a3.4,3.4,0,0,0-.8-2.454,2.715,2.715,0,0,0-2.043-.828,2.817,2.817,0,0,0-2.19.93,4.04,4.04,0,0,0-.842,2.791V0H42.173V-14.4h2.534v1.86a4.374,4.374,0,0,1,1.648-1.582,4.7,4.7,0,0,1,2.292-.557,4.892,4.892,0,0,1,2.461.608,3.784,3.784,0,0,1,1.6,1.75,4.481,4.481,0,0,1,1.729-1.75A4.944,4.944,0,0,1,56.895-14.678ZM79.028-7.485,79-6.8H67.749a5.088,5.088,0,0,0,1.377,3.684,4.521,4.521,0,0,0,3.281,1.282,4.317,4.317,0,0,0,2.388-.688,4.467,4.467,0,0,0,1.641-1.9l2.285.483A6.5,6.5,0,0,1,76.26-.85,6.714,6.714,0,0,1,72.437.278a6.956,6.956,0,0,1-5.186-2.007,7.466,7.466,0,0,1-1.978-5.479,7.43,7.43,0,0,1,1.985-5.464,6.87,6.87,0,0,1,5.1-2.007A6.5,6.5,0,0,1,77.2-12.832,7.293,7.293,0,0,1,79.028-7.485Zm-6.665-5.244a4.491,4.491,0,0,0-3,1.018,4.664,4.664,0,0,0-1.516,2.966h8.628a4.278,4.278,0,0,0-1.26-2.966A4.068,4.068,0,0,0,72.363-12.729Zm13.11.864A4.353,4.353,0,0,1,87.261-13.8a5.382,5.382,0,0,1,2.769-.762v2.388A4.744,4.744,0,0,0,86.682-11.1a4.467,4.467,0,0,0-1.15,3.413V0H83V-14.4h2.476ZM98.892.278A7.59,7.59,0,0,1,95.2-.615,6.506,6.506,0,0,1,92.6-3.23a8.032,8.032,0,0,1-.959-3.977,7.336,7.336,0,0,1,2.043-5.427,7.054,7.054,0,0,1,5.208-2.043,7.047,7.047,0,0,1,5.215,2.043,7.35,7.35,0,0,1,2.036,5.427A7.355,7.355,0,0,1,104.1-1.765,7.054,7.054,0,0,1,98.892.278Zm-.015-2.109a4.423,4.423,0,0,0,3.406-1.479,5.544,5.544,0,0,0,1.355-3.9,5.523,5.523,0,0,0-1.355-3.882,4.423,4.423,0,0,0-3.406-1.479A4.362,4.362,0,0,0,95.5-11.089a5.559,5.559,0,0,0-1.34,3.882,5.581,5.581,0,0,0,1.34,3.9A4.362,4.362,0,0,0,98.877-1.831ZM121.23.278a4.9,4.9,0,0,1-3.157-.989,3.551,3.551,0,0,1-1.238-2.952,4.194,4.194,0,0,1,.4-1.882A3.318,3.318,0,0,1,118.4-6.855a7.03,7.03,0,0,1,1.692-.813,15.64,15.64,0,0,1,2.19-.52l2.329-.381q1.274-.234,1.274-1.333a2.516,2.516,0,0,0-.9-2.146,3.671,3.671,0,0,0-2.278-.681,3.739,3.739,0,0,0-2.256.659,2.759,2.759,0,0,0-1.069,2.021l-2.285-.483a4.4,4.4,0,0,1,1.8-3.083,6.732,6.732,0,0,1,3.926-1.033,7.962,7.962,0,0,1,2.087.256,5.673,5.673,0,0,1,1.743.806,3.613,3.613,0,0,1,1.245,1.553,5.777,5.777,0,0,1,.447,2.366v5.947a2.433,2.433,0,0,0,.33,1.5,1.423,1.423,0,0,0,1.135.388h.234V0h-1.26q-2.329,0-2.725-1.948h-.117A5.5,5.5,0,0,1,121.23.278Zm.586-2.051a3.842,3.842,0,0,0,3.091-1.392,5.729,5.729,0,0,0,1.172-3.809l-3.809.732a5.127,5.127,0,0,0-2.234.8,1.857,1.857,0,0,0-.725,1.575,1.835,1.835,0,0,0,.7,1.582A2.974,2.974,0,0,0,121.816-1.772ZM138.135,0a3.785,3.785,0,0,1-2.812-1.033A3.907,3.907,0,0,1,134.3-3.911v-8.467h-2.944V-14.4h1.084a2.081,2.081,0,0,0,1.589-.505,2.487,2.487,0,0,0,.461-1.692V-19.2h2.358v4.8h3.311v2.021h-3.311v8.2a2.183,2.183,0,0,0,.549,1.589,1.923,1.923,0,0,0,1.443.564h1.318V0ZM148.74-16.875l3.677-4.775,1.348.981-3.281,3.794ZM149.707.278a7.59,7.59,0,0,1-3.691-.894,6.506,6.506,0,0,1-2.6-2.615,8.032,8.032,0,0,1-.959-3.977,7.336,7.336,0,0,1,2.043-5.427,7.054,7.054,0,0,1,5.208-2.043,7.047,7.047,0,0,1,5.215,2.043,7.35,7.35,0,0,1,2.036,5.427,7.355,7.355,0,0,1-2.043,5.442A7.054,7.054,0,0,1,149.707.278Zm-.015-2.109A4.423,4.423,0,0,0,153.1-3.311a5.544,5.544,0,0,0,1.355-3.9,5.523,5.523,0,0,0-1.355-3.882,4.423,4.423,0,0,0-3.406-1.479,4.362,4.362,0,0,0-3.376,1.479,5.559,5.559,0,0,0-1.34,3.882,5.581,5.581,0,0,0,1.34,3.9A4.362,4.362,0,0,0,149.692-1.831Zm25.957-12.847A4.642,4.642,0,0,1,179-13.455a4.537,4.537,0,0,1,1.274,3.435V0h-2.534V-9.36a3.254,3.254,0,0,0-.791-2.373,2.693,2.693,0,0,0-2.007-.806,2.844,2.844,0,0,0-2.2.908,3.905,3.905,0,0,0-.835,2.725V0h-2.578V-9.258a3.4,3.4,0,0,0-.8-2.454,2.715,2.715,0,0,0-2.043-.828,2.817,2.817,0,0,0-2.19.93,4.04,4.04,0,0,0-.842,2.791V0h-2.534V-14.4h2.534v1.86a4.374,4.374,0,0,1,1.648-1.582,4.7,4.7,0,0,1,2.292-.557,4.892,4.892,0,0,1,2.461.608,3.784,3.784,0,0,1,1.6,1.75,4.481,4.481,0,0,1,1.729-1.75A4.944,4.944,0,0,1,175.649-14.678Zm10.825-3.105a1.649,1.649,0,0,1-1.208-.505,1.649,1.649,0,0,1-.505-1.208,1.625,1.625,0,0,1,.505-1.2,1.661,1.661,0,0,1,1.208-.5,1.644,1.644,0,0,1,1.194.5,1.625,1.625,0,0,1,.505,1.2,1.649,1.649,0,0,1-.505,1.208A1.632,1.632,0,0,1,186.475-17.783ZM185.186,0V-14.4h2.549V0Zm13.682.264A6.935,6.935,0,0,1,193.711-1.8a7.368,7.368,0,0,1-2.036-5.405,7.383,7.383,0,0,1,2.029-5.405,6.929,6.929,0,0,1,5.164-2.065,6.986,6.986,0,0,1,4.167,1.26,6.358,6.358,0,0,1,2.424,3.5l-2.373.381a4.383,4.383,0,0,0-1.626-2.241,4.427,4.427,0,0,0-2.607-.791,4.257,4.257,0,0,0-3.333,1.479,5.636,5.636,0,0,0-1.311,3.882,5.608,5.608,0,0,0,1.311,3.875,4.266,4.266,0,0,0,3.333,1.472,4.427,4.427,0,0,0,2.607-.791,4.383,4.383,0,0,0,1.626-2.241l2.373.4A6.365,6.365,0,0,1,203.02-1,6.975,6.975,0,0,1,198.867.264Zm16.392.015a7.59,7.59,0,0,1-3.691-.894,6.506,6.506,0,0,1-2.6-2.615,8.032,8.032,0,0,1-.959-3.977,7.336,7.336,0,0,1,2.043-5.427,7.054,7.054,0,0,1,5.208-2.043,7.047,7.047,0,0,1,5.215,2.043,7.35,7.35,0,0,1,2.036,5.427,7.355,7.355,0,0,1-2.043,5.442A7.054,7.054,0,0,1,215.259.278Zm-.015-2.109a4.423,4.423,0,0,0,3.406-1.479A5.544,5.544,0,0,0,220-7.207a5.523,5.523,0,0,0-1.355-3.882,4.423,4.423,0,0,0-3.406-1.479,4.362,4.362,0,0,0-3.376,1.479,5.559,5.559,0,0,0-1.34,3.882,5.581,5.581,0,0,0,1.34,3.9A4.362,4.362,0,0,0,215.244-1.831Z" transform="translate(544.763 1507)" fill="#082143"/>
    <path id="Trazado_33583" data-name="Trazado 33583" d="M4126.414,99h71.7" transform="translate(-3351.237 1283)" fill="none" stroke="#082143" stroke-width="2"/>
    <path id="Trazado_33584" data-name="Trazado 33584" d="M4126.414,99h71.7" transform="translate(-3351.237 1401)" fill="none" stroke="#082143" stroke-width="2"/>
    <path id="Trazado_37056" data-name="Trazado 37056" d="M3.631-6.018A5.1,5.1,0,0,0,4.38-3.44Q5.637-1.587,8.811-1.587a7.842,7.842,0,0,0,2.59-.406,2.878,2.878,0,0,0,2.26-2.818,2.433,2.433,0,0,0-.952-2.171,9.614,9.614,0,0,0-3.021-1.1L7.16-8.658a11.44,11.44,0,0,1-3.5-1.231,3.9,3.9,0,0,1-1.777-3.491,5.376,5.376,0,0,1,1.739-4.126,6.978,6.978,0,0,1,4.926-1.612A8.555,8.555,0,0,1,13.527-17.7a5.109,5.109,0,0,1,2.05,4.526H13.2a4.673,4.673,0,0,0-.812-2.3q-1.155-1.46-3.923-1.46A4.538,4.538,0,0,0,5.256-16a2.94,2.94,0,0,0-.978,2.184,2.132,2.132,0,0,0,1.143,2.006,16.767,16.767,0,0,0,3.39,1.016l2.615.6a8.013,8.013,0,0,1,2.92,1.181,4.421,4.421,0,0,1,1.777,3.8A4.738,4.738,0,0,1,13.87-.787,10.092,10.092,0,0,1,8.633.546,7.831,7.831,0,0,1,3.187-1.231a6,6,0,0,1-1.93-4.786Zm15.387-7.516h2.323V0H19.018Zm0-5.116h2.323v2.59H19.018ZM24.794-13.6h2.26v1.93a7.6,7.6,0,0,1,1.473-1.46,4.429,4.429,0,0,1,2.564-.774,4.036,4.036,0,0,1,2.615.8,4.18,4.18,0,0,1,1.016,1.346,4.939,4.939,0,0,1,1.79-1.619,4.993,4.993,0,0,1,2.311-.527,3.778,3.778,0,0,1,3.732,1.98,6.474,6.474,0,0,1,.533,2.869V0H40.714V-9.445a2.2,2.2,0,0,0-.679-1.866,2.688,2.688,0,0,0-1.657-.508,3.289,3.289,0,0,0-2.317.9,3.958,3.958,0,0,0-.971,3.009V0H32.767V-8.874a4.611,4.611,0,0,0-.33-2.019,2.013,2.013,0,0,0-1.942-.952,3.352,3.352,0,0,0-2.355,1q-1.06,1-1.06,3.631V0H24.794Zm21.48-5.116H48.5v6.767a5.067,5.067,0,0,1,1.79-1.492,5.033,5.033,0,0,1,2.26-.514,5.3,5.3,0,0,1,4.12,1.746,7.436,7.436,0,0,1,1.581,5.148A8.829,8.829,0,0,1,56.685-1.7,5.065,5.065,0,0,1,52.355.432,4.436,4.436,0,0,1,49.74-.317a6.316,6.316,0,0,1-1.358-1.422V0H46.274ZM52.216-1.587A3.053,3.053,0,0,0,54.99-3.06a7.251,7.251,0,0,0,.92-3.885,6.376,6.376,0,0,0-.92-3.555,3.031,3.031,0,0,0-2.71-1.409,3.781,3.781,0,0,0-2.736,1.155,5.188,5.188,0,0,0-1.174,3.809,8.417,8.417,0,0,0,.482,3.11A3.333,3.333,0,0,0,52.216-1.587Zm14.092.114a3.151,3.151,0,0,0,3.117-1.72,8.57,8.57,0,0,0,.844-3.828,6.815,6.815,0,0,0-.609-3.1A3.428,3.428,0,0,0,66.333-12a3.28,3.28,0,0,0-3.047,1.6,7.415,7.415,0,0,0-.952,3.859,6.449,6.449,0,0,0,.952,3.618A3.354,3.354,0,0,0,66.308-1.473ZM66.4-13.99a6.157,6.157,0,0,1,4.443,1.752,6.841,6.841,0,0,1,1.815,5.154,8.843,8.843,0,0,1-1.6,5.434A5.786,5.786,0,0,1,66.092.5a5.6,5.6,0,0,1-4.456-1.9,7.5,7.5,0,0,1-1.65-5.1,8.11,8.11,0,0,1,1.739-5.459A5.837,5.837,0,0,1,66.4-13.99Zm9.039-4.659h2.285V0H75.436ZM86.544-1.473a3.151,3.151,0,0,0,3.117-1.72A8.57,8.57,0,0,0,90.5-7.021a6.815,6.815,0,0,0-.609-3.1A3.428,3.428,0,0,0,86.569-12a3.28,3.28,0,0,0-3.047,1.6,7.415,7.415,0,0,0-.952,3.859,6.449,6.449,0,0,0,.952,3.618A3.354,3.354,0,0,0,86.544-1.473Zm.089-12.518a6.157,6.157,0,0,1,4.443,1.752,6.841,6.841,0,0,1,1.815,5.154,8.843,8.843,0,0,1-1.6,5.434A5.786,5.786,0,0,1,86.328.5a5.6,5.6,0,0,1-4.456-1.9,7.5,7.5,0,0,1-1.65-5.1,8.11,8.11,0,0,1,1.739-5.459A5.837,5.837,0,0,1,86.633-13.99ZM104.3-6.614a7.743,7.743,0,0,0,.5,2.958,3.146,3.146,0,0,0,3.136,2.12,3.281,3.281,0,0,0,3.288-2.234,8.527,8.527,0,0,0,.5-3.148,7.013,7.013,0,0,0-.546-2.945,3.3,3.3,0,0,0-3.263-2.019,3.2,3.2,0,0,0-2.545,1.289A6.2,6.2,0,0,0,104.3-6.614Zm3.377-7.287a4.664,4.664,0,0,1,2.844.851,5.044,5.044,0,0,1,1.219,1.346V-13.6h2.171V5.421h-2.3V-1.562a4.1,4.1,0,0,1-1.581,1.454,5.3,5.3,0,0,1-2.52.54,5.376,5.376,0,0,1-3.885-1.7,7.014,7.014,0,0,1-1.714-5.18,8.554,8.554,0,0,1,1.606-5.357A5.006,5.006,0,0,1,107.682-13.9Zm11.9.3V-4.57a3.806,3.806,0,0,0,.33,1.7A2.3,2.3,0,0,0,122.18-1.65a3.212,3.212,0,0,0,3.25-2.133,8.462,8.462,0,0,0,.47-3.136V-13.6h2.285V0h-2.158l.025-2.006a4.61,4.61,0,0,1-1.1,1.308A4.86,4.86,0,0,1,121.773.368q-2.907,0-3.961-1.942a5.785,5.785,0,0,1-.571-2.78V-13.6Zm12.9.063H134.8V0h-2.323Zm4.05-5.535-3.39,3.669h-1.752l2.323-3.669Zm2.45,5.472h2.26v1.93a7.6,7.6,0,0,1,1.473-1.46,4.429,4.429,0,0,1,2.564-.774,4.036,4.036,0,0,1,2.615.8,4.181,4.181,0,0,1,1.016,1.346,4.939,4.939,0,0,1,1.79-1.619A4.993,4.993,0,0,1,153-13.9a3.778,3.778,0,0,1,3.732,1.98,6.474,6.474,0,0,1,.533,2.869V0H154.9V-9.445a2.2,2.2,0,0,0-.679-1.866,2.688,2.688,0,0,0-1.657-.508,3.289,3.289,0,0,0-2.317.9,3.958,3.958,0,0,0-.971,3.009V0h-2.323V-8.874a4.611,4.611,0,0,0-.33-2.019,2.013,2.013,0,0,0-1.942-.952,3.352,3.352,0,0,0-2.355,1q-1.06,1-1.06,3.631V0h-2.285Zm21.658.063h2.323V0h-2.323Zm0-5.116h2.323v2.59h-2.323Zm11.02,4.659a5.928,5.928,0,0,1,3.739,1.117,5.352,5.352,0,0,1,1.733,3.847H174.9a4.1,4.1,0,0,0-.927-2.088,2.927,2.927,0,0,0-2.323-.832,3.21,3.21,0,0,0-3.123,2.133,8.472,8.472,0,0,0-.609,3.415,6.426,6.426,0,0,0,.863,3.44,2.961,2.961,0,0,0,2.717,1.4,2.971,2.971,0,0,0,2.253-.87,4.782,4.782,0,0,0,1.149-2.38h2.222a5.963,5.963,0,0,1-1.9,3.955,5.941,5.941,0,0,1-3.9,1.25,5.2,5.2,0,0,1-4.253-1.949,7.459,7.459,0,0,1-1.587-4.869A8.2,8.2,0,0,1,167.223-12,5.62,5.62,0,0,1,171.653-13.99ZM184.806-1.473a3.151,3.151,0,0,0,3.117-1.72,8.57,8.57,0,0,0,.844-3.828,6.815,6.815,0,0,0-.609-3.1A3.428,3.428,0,0,0,184.831-12a3.28,3.28,0,0,0-3.047,1.6,7.415,7.415,0,0,0-.952,3.859,6.449,6.449,0,0,0,.952,3.618A3.354,3.354,0,0,0,184.806-1.473Zm.089-12.518a6.157,6.157,0,0,1,4.443,1.752,6.841,6.841,0,0,1,1.815,5.154,8.843,8.843,0,0,1-1.6,5.434A5.786,5.786,0,0,1,184.59.5a5.6,5.6,0,0,1-4.456-1.9,7.5,7.5,0,0,1-1.65-5.1,8.11,8.11,0,0,1,1.739-5.459A5.837,5.837,0,0,1,184.895-13.99ZM202.541-6.64a6.74,6.74,0,0,0,.927,3.656,3.247,3.247,0,0,0,2.971,1.473,3.129,3.129,0,0,0,2.609-1.365,6.445,6.445,0,0,0,1.022-3.917,5.791,5.791,0,0,0-1.054-3.815,3.287,3.287,0,0,0-2.6-1.238,3.436,3.436,0,0,0-2.8,1.32A6.047,6.047,0,0,0,202.541-6.64Zm3.44-7.2a4.837,4.837,0,0,1,2.615.66,6.143,6.143,0,0,1,1.384,1.333v-6.868h2.2V0H210.12V-1.892a4.944,4.944,0,0,1-1.892,1.815,5.414,5.414,0,0,1-2.5.559,5.065,5.065,0,0,1-3.936-1.911,7.47,7.47,0,0,1-1.663-5.084,8.777,8.777,0,0,1,1.517-5.148A4.967,4.967,0,0,1,205.981-13.838Zm15.234-.063a6.2,6.2,0,0,1,2.806.679,5.174,5.174,0,0,1,2.069,1.758,6.066,6.066,0,0,1,.914,2.4,15.7,15.7,0,0,1,.2,3h-9.966a5.815,5.815,0,0,0,.978,3.32,3.273,3.273,0,0,0,2.831,1.25,3.66,3.66,0,0,0,2.856-1.181,3.98,3.98,0,0,0,.863-1.587h2.247a4.733,4.733,0,0,1-.59,1.669,5.937,5.937,0,0,1-1.124,1.5A5.325,5.325,0,0,1,222.727.279a7.829,7.829,0,0,1-1.866.2,5.726,5.726,0,0,1-4.3-1.847,7.187,7.187,0,0,1-1.765-5.173,7.815,7.815,0,0,1,1.777-5.319A5.863,5.863,0,0,1,221.216-13.9Zm3.644,6.018a5.92,5.92,0,0,0-.647-2.374,3.318,3.318,0,0,0-3.136-1.65,3.476,3.476,0,0,0-2.641,1.136,4.292,4.292,0,0,0-1.13,2.888Zm5.218-10.766h2.285V0h-2.285ZM7.338,16.1a6.2,6.2,0,0,1,2.806.679,5.174,5.174,0,0,1,2.069,1.758,6.066,6.066,0,0,1,.914,2.4,15.7,15.7,0,0,1,.2,3H3.364a5.815,5.815,0,0,0,.978,3.32A3.273,3.273,0,0,0,7.173,28.5a3.66,3.66,0,0,0,2.856-1.181,3.98,3.98,0,0,0,.863-1.587H13.14a4.733,4.733,0,0,1-.59,1.669,5.938,5.938,0,0,1-1.124,1.5,5.325,5.325,0,0,1-2.577,1.371,7.829,7.829,0,0,1-1.866.2,5.726,5.726,0,0,1-4.3-1.847A7.187,7.187,0,0,1,.914,23.462a7.815,7.815,0,0,1,1.777-5.319A5.863,5.863,0,0,1,7.338,16.1Zm3.644,6.018a5.92,5.92,0,0,0-.647-2.374A3.318,3.318,0,0,0,7.2,18.092a3.476,3.476,0,0,0-2.641,1.136,4.292,4.292,0,0,0-1.13,2.888ZM16.2,11.351h2.285V30H16.2ZM27.574,16.1a6.2,6.2,0,0,1,2.806.679,5.174,5.174,0,0,1,2.069,1.758,6.066,6.066,0,0,1,.914,2.4,15.7,15.7,0,0,1,.2,3H23.6a5.815,5.815,0,0,0,.978,3.32,3.273,3.273,0,0,0,2.831,1.25,3.66,3.66,0,0,0,2.856-1.181,3.98,3.98,0,0,0,.863-1.587h2.247a4.733,4.733,0,0,1-.59,1.669,5.938,5.938,0,0,1-1.124,1.5,5.325,5.325,0,0,1-2.577,1.371,7.829,7.829,0,0,1-1.866.2,5.726,5.726,0,0,1-4.3-1.847,7.187,7.187,0,0,1-1.765-5.173,7.815,7.815,0,0,1,1.777-5.319A5.863,5.863,0,0,1,27.574,16.1Zm3.644,6.018a5.92,5.92,0,0,0-.647-2.374,3.318,3.318,0,0,0-3.136-1.65,3.476,3.476,0,0,0-2.641,1.136,4.292,4.292,0,0,0-1.13,2.888ZM36.372,16.4h2.26v1.93a7.6,7.6,0,0,1,1.473-1.46,4.429,4.429,0,0,1,2.564-.774,4.036,4.036,0,0,1,2.615.8A4.181,4.181,0,0,1,46.3,18.244a4.939,4.939,0,0,1,1.79-1.619A4.993,4.993,0,0,1,50.4,16.1a3.778,3.778,0,0,1,3.732,1.98,6.474,6.474,0,0,1,.533,2.869V30H52.292V20.555a2.2,2.2,0,0,0-.679-1.866,2.688,2.688,0,0,0-1.657-.508,3.289,3.289,0,0,0-2.317.9,3.958,3.958,0,0,0-.971,3.009V30H44.345V21.126a4.611,4.611,0,0,0-.33-2.019,2.013,2.013,0,0,0-1.942-.952,3.352,3.352,0,0,0-2.355,1q-1.06,1-1.06,3.631V30H36.372Zm27.32-.3a6.2,6.2,0,0,1,2.806.679,5.174,5.174,0,0,1,2.069,1.758,6.066,6.066,0,0,1,.914,2.4,15.7,15.7,0,0,1,.2,3H59.719a5.815,5.815,0,0,0,.978,3.32,3.273,3.273,0,0,0,2.831,1.25,3.66,3.66,0,0,0,2.856-1.181,3.98,3.98,0,0,0,.863-1.587h2.247A4.732,4.732,0,0,1,68.9,27.4a5.938,5.938,0,0,1-1.124,1.5A5.325,5.325,0,0,1,65.2,30.279a7.829,7.829,0,0,1-1.866.2,5.726,5.726,0,0,1-4.3-1.847,7.187,7.187,0,0,1-1.765-5.173,7.815,7.815,0,0,1,1.777-5.319A5.863,5.863,0,0,1,63.692,16.1Zm3.644,6.018a5.92,5.92,0,0,0-.647-2.374,3.318,3.318,0,0,0-3.136-1.65,3.476,3.476,0,0,0-2.641,1.136,4.292,4.292,0,0,0-1.13,2.888ZM72.49,16.4h2.171v1.93a6.089,6.089,0,0,1,2.044-1.714,5.451,5.451,0,0,1,2.4-.521q2.895,0,3.91,2.019a7.168,7.168,0,0,1,.559,3.161V30H81.25V21.431a4.64,4.64,0,0,0-.368-2.006,2.232,2.232,0,0,0-2.209-1.27,4.5,4.5,0,0,0-1.333.165,3.433,3.433,0,0,0-1.65,1.117,3.363,3.363,0,0,0-.743,1.39,9.357,9.357,0,0,0-.171,2.05V30H72.49Zm14.917-3.8h2.311v3.8h2.171V18.27H89.718v8.874a.96.96,0,0,0,.482.952,2.051,2.051,0,0,0,.889.14q.165,0,.355-.006t.444-.032V30a5.1,5.1,0,0,1-.819.165,7.785,7.785,0,0,1-.92.051,2.481,2.481,0,0,1-2.171-.819,3.639,3.639,0,0,1-.571-2.126v-9H85.566V16.4h1.841Zm12.162,15.92a3.151,3.151,0,0,0,3.117-1.72,8.57,8.57,0,0,0,.844-3.828,6.815,6.815,0,0,0-.609-3.1A3.428,3.428,0,0,0,99.595,18a3.28,3.28,0,0,0-3.047,1.6,7.415,7.415,0,0,0-.952,3.859,6.449,6.449,0,0,0,.952,3.618A3.354,3.354,0,0,0,99.569,28.527Zm.089-12.518a6.157,6.157,0,0,1,4.443,1.752,6.841,6.841,0,0,1,1.815,5.154,8.843,8.843,0,0,1-1.6,5.434A5.786,5.786,0,0,1,99.354,30.5,5.6,5.6,0,0,1,94.9,28.6a7.5,7.5,0,0,1-1.65-5.1,8.11,8.11,0,0,1,1.739-5.459A5.837,5.837,0,0,1,99.658,16.01Z" transform="translate(1113 1430)" fill="#00223d"/>
    <path id="Trazado_37055" data-name="Trazado 37055" d="M4126.414,99h71.7" transform="translate(-3107.237 1337.255)" fill="none" stroke="#082143" stroke-width="2"/>
  </g>
</svg>
