<svg xmlns="http://www.w3.org/2000/svg" xmlns:xlink="http://www.w3.org/1999/xlink" width="989" height="693.92" viewBox="0 0 989 693.92">
  <defs>
    <linearGradient id="linear-gradient" x1="0.5" x2="0.5" y2="1" gradientUnits="objectBoundingBox">
      <stop offset="0" stop-color="#1a5741"/>
      <stop offset="1" stop-color="#792a2a" stop-opacity="0"/>
    </linearGradient>
    <linearGradient id="linear-gradient-2" x1="0.5" x2="0.5" y2="1" gradientUnits="objectBoundingBox">
      <stop offset="0" stop-color="#1ec488"/>
      <stop offset="1" stop-color="#434343" stop-opacity="0"/>
    </linearGradient>
  </defs>
  <g id="Grupo_16137" data-name="Grupo 16137" transform="translate(-473 -1146.344)">
    <g id="Grupo_15317" data-name="Grupo 15317" transform="translate(164 -143)">
      <path id="Trazado_33646" data-name="Trazado 33646" d="M-735.385-300.363h11.4v11.4h-11.4v-11.4Z" transform="translate(1433.147 1601.216)" fill="#fdfb37" fill-rule="evenodd"/>
      <path id="Trazado_33647" data-name="Trazado 33647" d="M-735.385-157.213h11.4v11.4h-11.4v-11.4Z" transform="translate(1433.147 1469.576)" fill="#fdfb37" fill-rule="evenodd"/>
      <path id="Trazado_33648" data-name="Trazado 33648" d="M-735.385-14.063h11.4v11.4h-11.4v-11.4Z" transform="translate(1433.147 1337.936)" fill="#fdfb37" fill-rule="evenodd"/>
      <path id="Trazado_33649" data-name="Trazado 33649" d="M-735.385,129.086h11.4v11.4h-11.4v-11.4Z" transform="translate(1433.147 1206.296)" fill="#fdfb37" fill-rule="evenodd"/>
      <path id="Trazado_33650" data-name="Trazado 33650" d="M-735.385,272.235h11.4v11.4h-11.4v-11.4Z" transform="translate(1433.147 1074.656)" fill="#fdfb37" fill-rule="evenodd"/>
      <path id="Trazado_33651" data-name="Trazado 33651" d="M-735.385,415.386h11.4v11.4h-11.4v-11.4Z" transform="translate(1433.147 943.015)" fill="#fdfb37" fill-rule="evenodd"/>
      <path id="Trazado_33652" data-name="Trazado 33652" d="M1411.806-300.416h11.4v11.4h-11.4v-11.4Z" transform="translate(-541.406 1601.266)" fill="#6afb6c" fill-rule="evenodd"/>
      <path id="Trazado_33653" data-name="Trazado 33653" d="M1411.806-157.267h11.4v11.4h-11.4v-11.4Z" transform="translate(-541.406 1469.626)" fill="#6afb6c" fill-rule="evenodd"/>
      <path id="Trazado_33654" data-name="Trazado 33654" d="M1411.806-14.117h11.4v11.4h-11.4v-11.4Z" transform="translate(-541.406 1337.985)" fill="#6afb6c" fill-rule="evenodd"/>
      <path id="Trazado_33655" data-name="Trazado 33655" d="M1411.806,129.032h11.4v11.4h-11.4v-11.4Z" transform="translate(-541.406 1206.345)" fill="#6afb6c" fill-rule="evenodd"/>
      <path id="Trazado_33656" data-name="Trazado 33656" d="M1411.806,272.182h11.4v11.4h-11.4v-11.4Z" transform="translate(-541.406 1074.705)" fill="#6afb6c" fill-rule="evenodd"/>
      <path id="Trazado_33657" data-name="Trazado 33657" d="M839.261-157.213h11.4v11.4h-11.4v-11.4Z" transform="translate(-14.895 1469.576)" fill="#3ad5d2" fill-rule="evenodd"/>
      <path id="Trazado_33658" data-name="Trazado 33658" d="M1268.71,415.386h11.4v11.4h-11.4v-11.4Z" transform="translate(-409.816 943.015)" fill="#3ad5d2" fill-rule="evenodd"/>
      <path id="Trazado_33659" data-name="Trazado 33659" d="M1125.56,415.386h11.4v11.4h-11.4v-11.4Z" transform="translate(-278.175 943.015)" fill="#3ad5d2" fill-rule="evenodd"/>
      <path id="Trazado_33660" data-name="Trazado 33660" d="M1125.56,272.235h11.4v11.4h-11.4v-11.4Z" transform="translate(-278.175 1074.656)" fill="#3ad5d2" fill-rule="evenodd"/>
      <path id="Trazado_33661" data-name="Trazado 33661" d="M839.261,415.386h11.4v11.4h-11.4v-11.4Z" transform="translate(-14.895 943.015)" fill="#3ad5d2" fill-rule="evenodd"/>
      <path id="Trazado_33662" data-name="Trazado 33662" d="M982.41,129.086h11.4v11.4h-11.4v-11.4Z" transform="translate(-146.535 1206.296)" fill="#3ad5d2" fill-rule="evenodd"/>
      <path id="Trazado_33663" data-name="Trazado 33663" d="M982.41,272.235h11.4v11.4h-11.4v-11.4Z" transform="translate(-146.535 1074.656)" fill="#3ad5d2" fill-rule="evenodd"/>
      <path id="Trazado_33664" data-name="Trazado 33664" d="M839.261-14.063h11.4v11.4h-11.4v-11.4Z" transform="translate(-14.895 1337.936)" fill="#3ad5d2" fill-rule="evenodd"/>
      <path id="Trazado_33665" data-name="Trazado 33665" d="M839.261,129.086h11.4v11.4h-11.4v-11.4Z" transform="translate(-14.895 1206.296)" fill="#3ad5d2" fill-rule="evenodd"/>
      <path id="Trazado_33666" data-name="Trazado 33666" d="M839.261,272.235h11.4v11.4h-11.4v-11.4Z" transform="translate(-14.895 1074.656)" fill="#3ad5d2" fill-rule="evenodd"/>
      <path id="Trazado_33667" data-name="Trazado 33667" d="M982.41,415.386h11.4v11.4h-11.4v-11.4Z" transform="translate(-146.535 943.015)" fill="#3ad5d2" fill-rule="evenodd"/>
      <path id="Trazado_33668" data-name="Trazado 33668" d="M-878.535-443.512h11.4v11.4h-11.4v-11.4Z" transform="translate(1564.787 1732.856)" fill="#fea929" fill-rule="evenodd"/>
      <path id="Trazado_33669" data-name="Trazado 33669" d="M982.41-300.363h11.4v11.4h-11.4v-11.4Z" transform="translate(-146.535 1601.216)" fill="#6afb6c" fill-rule="evenodd"/>
      <path id="Trazado_33670" data-name="Trazado 33670" d="M1125.56-300.363h11.4v11.4h-11.4v-11.4Z" transform="translate(-278.175 1601.216)" fill="#6afb6c" fill-rule="evenodd"/>
      <path id="Trazado_33671" data-name="Trazado 33671" d="M1268.71-300.363h11.4v11.4h-11.4v-11.4Z" transform="translate(-409.816 1601.216)" fill="#6afb6c" fill-rule="evenodd"/>
      <path id="Trazado_33672" data-name="Trazado 33672" d="M1125.56-157.213h11.4v11.4h-11.4v-11.4Z" transform="translate(-278.175 1469.576)" fill="#6afb6c" fill-rule="evenodd"/>
      <path id="Trazado_33673" data-name="Trazado 33673" d="M1268.71-157.213h11.4v11.4h-11.4v-11.4Z" transform="translate(-409.816 1469.576)" fill="#6afb6c" fill-rule="evenodd"/>
      <path id="Trazado_33674" data-name="Trazado 33674" d="M1268.71-14.063h11.4v11.4h-11.4v-11.4Z" transform="translate(-409.816 1337.936)" fill="#6afb6c" fill-rule="evenodd"/>
      <path id="Trazado_33675" data-name="Trazado 33675" d="M1268.71,129.086h11.4v11.4h-11.4v-11.4Z" transform="translate(-409.816 1206.296)" fill="#6afb6c" fill-rule="evenodd"/>
      <path id="Trazado_33676" data-name="Trazado 33676" d="M1125.56-14.063h11.4v11.4h-11.4v-11.4Z" transform="translate(-278.175 1337.936)" fill="#6afb6c" fill-rule="evenodd"/>
      <path id="Trazado_33677" data-name="Trazado 33677" d="M1125.56,129.086h11.4v11.4h-11.4v-11.4Z" transform="translate(-278.175 1206.296)" fill="#3ad5d2" fill-rule="evenodd"/>
      <path id="Trazado_33678" data-name="Trazado 33678" d="M839.261-300.363h11.4v11.4h-11.4v-11.4Z" transform="translate(-14.895 1601.216)" fill="#6afb6c" fill-rule="evenodd"/>
      <path id="Trazado_33679" data-name="Trazado 33679" d="M982.41-14.063h11.4v11.4h-11.4v-11.4Z" transform="translate(-146.535 1337.936)" fill="#3ad5d2" fill-rule="evenodd"/>
      <path id="Trazado_33680" data-name="Trazado 33680" d="M982.41-157.213h11.4v11.4h-11.4v-11.4Z" transform="translate(-146.535 1469.576)" fill="#6afb6c" fill-rule="evenodd"/>
      <path id="Trazado_33681" data-name="Trazado 33681" d="M1268.71,272.235h11.4v11.4h-11.4v-11.4Z" transform="translate(-409.816 1074.656)" fill="#3ad5d2" fill-rule="evenodd"/>
      <path id="Trazado_33682" data-name="Trazado 33682" d="M-878.535-300.363h11.4v11.4h-11.4v-11.4Z" transform="translate(1564.787 1601.216)" fill="#fea929" fill-rule="evenodd"/>
      <path id="Trazado_33683" data-name="Trazado 33683" d="M-878.535-157.213h11.4v11.4h-11.4v-11.4Z" transform="translate(1564.787 1469.576)" fill="#fea929" fill-rule="evenodd"/>
      <path id="Trazado_33684" data-name="Trazado 33684" d="M-878.535-14.063h11.4v11.4h-11.4v-11.4Z" transform="translate(1564.787 1337.936)" fill="#fea929" fill-rule="evenodd"/>
      <path id="Trazado_33685" data-name="Trazado 33685" d="M-878.535,129.086h11.4v11.4h-11.4v-11.4Z" transform="translate(1564.787 1206.296)" fill="#fea929" fill-rule="evenodd"/>
      <path id="Trazado_33686" data-name="Trazado 33686" d="M-878.535,272.235h11.4v11.4h-11.4v-11.4Z" transform="translate(1564.787 1074.656)" fill="#fea929" fill-rule="evenodd"/>
      <path id="Trazado_33687" data-name="Trazado 33687" d="M-878.535,415.386h11.4v11.4h-11.4v-11.4Z" transform="translate(1564.787 943.015)" fill="#fea929" fill-rule="evenodd"/>
      <path id="Trazado_33688" data-name="Trazado 33688" d="M696.111,129.086h11.4v11.4h-11.4v-11.4Z" transform="translate(116.745 1206.296)" fill="#fb678b" fill-rule="evenodd"/>
      <path id="Trazado_33689" data-name="Trazado 33689" d="M696.111,272.235h11.4v11.4h-11.4v-11.4Z" transform="translate(116.745 1074.656)" fill="#fb678b" fill-rule="evenodd"/>
      <path id="Trazado_33690" data-name="Trazado 33690" d="M266.663,272.235h11.4v11.4h-11.4v-11.4Z" transform="translate(511.665 1074.656)" fill="#fb678b" fill-rule="evenodd"/>
      <path id="Trazado_33691" data-name="Trazado 33691" d="M552.962,415.386h11.4v11.4h-11.4v-11.4Z" transform="translate(248.385 943.015)" fill="#fb678b" fill-rule="evenodd"/>
      <path id="Trazado_33692" data-name="Trazado 33692" d="M696.111,415.386h11.4v11.4h-11.4v-11.4Z" transform="translate(116.745 943.015)" fill="#fb678b" fill-rule="evenodd"/>
      <path id="Trazado_33693" data-name="Trazado 33693" d="M266.663,415.386h11.4v11.4h-11.4v-11.4Z" transform="translate(511.665 943.015)" fill="#fb678b" fill-rule="evenodd"/>
      <path id="Trazado_33694" data-name="Trazado 33694" d="M409.813,415.386h11.4v11.4h-11.4v-11.4Z" transform="translate(380.025 943.015)" fill="#fb678b" fill-rule="evenodd"/>
      <path id="Trazado_33695" data-name="Trazado 33695" d="M552.962,272.235h11.4v11.4h-11.4v-11.4Z" transform="translate(248.385 1074.656)" fill="#fb678b" fill-rule="evenodd"/>
      <path id="Trazado_33696" data-name="Trazado 33696" d="M409.813,272.235h11.4v11.4h-11.4v-11.4Z" transform="translate(380.025 1074.656)" fill="#fb678b" fill-rule="evenodd"/>
      <path id="Trazado_33697" data-name="Trazado 33697" d="M552.962,129.086h11.4v11.4h-11.4v-11.4Z" transform="translate(248.385 1206.296)" fill="#fb678b" fill-rule="evenodd"/>
      <path id="Trazado_33698" data-name="Trazado 33698" d="M409.813,129.086h11.4v11.4h-11.4v-11.4Z" transform="translate(380.025 1206.296)" fill="#fb678b" fill-rule="evenodd"/>
      <path id="Trazado_33699" data-name="Trazado 33699" d="M266.663,129.086h11.4v11.4h-11.4v-11.4Z" transform="translate(511.665 1206.296)" fill="#fb678b" fill-rule="evenodd"/>
      <path id="Trazado_33700" data-name="Trazado 33700" d="M696.111-14.063h11.4v11.4h-11.4v-11.4Z" transform="translate(116.745 1337.936)" fill="#fb678b" fill-rule="evenodd"/>
      <path id="Trazado_33701" data-name="Trazado 33701" d="M552.962-14.063h11.4v11.4h-11.4v-11.4Z" transform="translate(248.385 1337.936)" fill="#fb678b" fill-rule="evenodd"/>
      <path id="Trazado_33702" data-name="Trazado 33702" d="M409.813-14.063h11.4v11.4h-11.4v-11.4Z" transform="translate(380.025 1337.936)" fill="#fb678b" fill-rule="evenodd"/>
      <path id="Trazado_33703" data-name="Trazado 33703" d="M266.663-14.063h11.4v11.4h-11.4v-11.4Z" transform="translate(511.665 1337.936)" fill="#fb678b" fill-rule="evenodd"/>
      <path id="Trazado_33704" data-name="Trazado 33704" d="M-162.787,272.235h11.4v11.4h-11.4v-11.4Z" transform="translate(906.586 1074.656)" fill="#fb678b" fill-rule="evenodd"/>
      <path id="Trazado_33705" data-name="Trazado 33705" d="M123.513,415.386h11.4v11.4h-11.4v-11.4Z" transform="translate(643.306 943.015)" fill="#fb678b" fill-rule="evenodd"/>
      <path id="Trazado_33706" data-name="Trazado 33706" d="M-162.787,415.386h11.4v11.4h-11.4v-11.4Z" transform="translate(906.586 943.015)" fill="#fb678b" fill-rule="evenodd"/>
      <path id="Trazado_33707" data-name="Trazado 33707" d="M-19.637,415.386h11.4v11.4h-11.4v-11.4Z" transform="translate(774.946 943.015)" fill="#fb678b" fill-rule="evenodd"/>
      <path id="Trazado_33708" data-name="Trazado 33708" d="M123.513,272.235h11.4v11.4h-11.4v-11.4Z" transform="translate(643.306 1074.656)" fill="#fb678b" fill-rule="evenodd"/>
      <path id="Trazado_33709" data-name="Trazado 33709" d="M-19.637,272.235h11.4v11.4h-11.4v-11.4Z" transform="translate(774.946 1074.656)" fill="#fb678b" fill-rule="evenodd"/>
      <path id="Trazado_33710" data-name="Trazado 33710" d="M123.513,129.086h11.4v11.4h-11.4v-11.4Z" transform="translate(643.306 1206.296)" fill="#fb678b" fill-rule="evenodd"/>
      <path id="Trazado_33711" data-name="Trazado 33711" d="M-19.637,129.086h11.4v11.4h-11.4v-11.4Z" transform="translate(774.946 1206.296)" fill="#fb678b" fill-rule="evenodd"/>
      <path id="Trazado_33712" data-name="Trazado 33712" d="M-162.787,129.086h11.4v11.4h-11.4v-11.4Z" transform="translate(906.586 1206.296)" fill="#fb678b" fill-rule="evenodd"/>
      <path id="Trazado_33713" data-name="Trazado 33713" d="M123.513-14.063h11.4v11.4h-11.4v-11.4Z" transform="translate(643.306 1337.936)" fill="#fb678b" fill-rule="evenodd"/>
      <path id="Trazado_33714" data-name="Trazado 33714" d="M-19.637-14.063h11.4v11.4h-11.4v-11.4Z" transform="translate(774.946 1337.936)" fill="#fb678b" fill-rule="evenodd"/>
      <path id="Trazado_33715" data-name="Trazado 33715" d="M-162.787-14.063h11.4v11.4h-11.4v-11.4Z" transform="translate(906.586 1337.936)" fill="#fb678b" fill-rule="evenodd"/>
      <path id="Trazado_33716" data-name="Trazado 33716" d="M-305.936,415.386h11.4v11.4h-11.4v-11.4Z" transform="translate(1038.226 943.015)" fill="#fb678b" fill-rule="evenodd"/>
      <path id="Trazado_33717" data-name="Trazado 33717" d="M-449.086,415.386h11.4v11.4h-11.4v-11.4Z" transform="translate(1169.867 943.015)" fill="#fb678b" fill-rule="evenodd"/>
      <path id="Trazado_33718" data-name="Trazado 33718" d="M-305.936,272.235h11.4v11.4h-11.4v-11.4Z" transform="translate(1038.226 1074.656)" fill="#fb678b" fill-rule="evenodd"/>
      <path id="Trazado_33719" data-name="Trazado 33719" d="M-449.086,272.235h11.4v11.4h-11.4v-11.4Z" transform="translate(1169.867 1074.656)" fill="#fb678b" fill-rule="evenodd"/>
      <path id="Trazado_33720" data-name="Trazado 33720" d="M-305.936,129.086h11.4v11.4h-11.4v-11.4Z" transform="translate(1038.226 1206.296)" fill="#fb678b" fill-rule="evenodd"/>
      <path id="Trazado_33721" data-name="Trazado 33721" d="M-449.086,129.086h11.4v11.4h-11.4v-11.4Z" transform="translate(1169.867 1206.296)" fill="#fb678b" fill-rule="evenodd"/>
      <path id="Trazado_33722" data-name="Trazado 33722" d="M-592.235,129.086h11.4v11.4h-11.4v-11.4Z" transform="translate(1301.507 1206.296)" fill="#fb678b" fill-rule="evenodd"/>
      <path id="Trazado_33723" data-name="Trazado 33723" d="M-305.936-14.063h11.4v11.4h-11.4v-11.4Z" transform="translate(1038.226 1337.936)" fill="#fb678b" fill-rule="evenodd"/>
      <path id="Trazado_33724" data-name="Trazado 33724" d="M-449.086-14.063h11.4v11.4h-11.4v-11.4Z" transform="translate(1169.867 1337.936)" fill="#fb678b" fill-rule="evenodd"/>
      <path id="Trazado_33725" data-name="Trazado 33725" d="M-592.235-14.063h11.4v11.4h-11.4v-11.4Z" transform="translate(1301.507 1337.936)" fill="#fb678b" fill-rule="evenodd"/>
      <path id="Trazado_33726" data-name="Trazado 33726" d="M1555.009-443.512h11.4v11.4h-11.4v-11.4Z" transform="translate(-673.096 1732.856)" fill="#44f3ef" fill-rule="evenodd"/>
      <path id="Trazado_33727" data-name="Trazado 33727" d="M1555.009-300.363h11.4v11.4h-11.4v-11.4Z" transform="translate(-673.096 1601.216)" fill="#44f3ef" fill-rule="evenodd"/>
      <path id="Trazado_33728" data-name="Trazado 33728" d="M1555.009-157.213h11.4v11.4h-11.4v-11.4Z" transform="translate(-673.096 1469.576)" fill="#44f3ef" fill-rule="evenodd"/>
      <path id="Trazado_33729" data-name="Trazado 33729" d="M1555.009-14.063h11.4v11.4h-11.4v-11.4Z" transform="translate(-673.096 1337.936)" fill="#44f3ef" fill-rule="evenodd"/>
      <path id="Trazado_33730" data-name="Trazado 33730" d="M1555.009,129.086h11.4v11.4h-11.4v-11.4Z" transform="translate(-673.096 1206.296)" fill="#44f3ef" fill-rule="evenodd"/>
      <path id="Trazado_33731" data-name="Trazado 33731" d="M1555.009,272.235h11.4v11.4h-11.4v-11.4Z" transform="translate(-673.096 1074.656)" fill="#44f3ef" fill-rule="evenodd"/>
      <path id="Trazado_33732" data-name="Trazado 33732" d="M1411.859,632.235h11.4v11.4h-11.4v-11.4Z" transform="translate(-541.456 743.6)" fill="#fb678b" fill-rule="evenodd"/>
      <path id="Trazado_33733" data-name="Trazado 33733" d="M1268.71,632.235h11.4v11.4h-11.4v-11.4Z" transform="translate(-409.816 743.6)" fill="#feaa6a" fill-rule="evenodd"/>
      <path id="Trazado_33734" data-name="Trazado 33734" d="M1125.56,632.235h11.4v11.4h-11.4v-11.4Z" transform="translate(-278.175 743.6)" fill="#feaa6a" fill-rule="evenodd"/>
      <path id="Trazado_33735" data-name="Trazado 33735" d="M982.41,632.235h11.4v11.4h-11.4v-11.4Z" transform="translate(-146.535 743.6)" fill="#feaa6a" fill-rule="evenodd"/>
      <path id="Trazado_33736" data-name="Trazado 33736" d="M839.261,632.235h11.4v11.4h-11.4v-11.4Z" transform="translate(-14.895 743.6)" fill="#feaa6a" fill-rule="evenodd"/>
      <path id="Trazado_33737" data-name="Trazado 33737" d="M696.111,632.235h11.4v11.4h-11.4v-11.4Z" transform="translate(116.745 743.6)" fill="#feaa6a" fill-rule="evenodd"/>
      <path id="Trazado_33738" data-name="Trazado 33738" d="M552.962,632.235h11.4v11.4h-11.4v-11.4Z" transform="translate(248.385 743.6)" fill="#feaa6a" fill-rule="evenodd"/>
      <path id="Trazado_33739" data-name="Trazado 33739" d="M409.813,632.235h11.4v11.4h-11.4v-11.4Z" transform="translate(380.025 743.6)" fill="#feaa6a" fill-rule="evenodd"/>
      <path id="Trazado_33740" data-name="Trazado 33740" d="M266.663,632.235h11.4v11.4h-11.4v-11.4Z" transform="translate(511.665 743.6)" fill="#feaa6a" fill-rule="evenodd"/>
      <path id="Trazado_33741" data-name="Trazado 33741" d="M123.513,632.235h11.4v11.4h-11.4v-11.4Z" transform="translate(643.306 743.6)" fill="#feaa6a" fill-rule="evenodd"/>
      <path id="Trazado_33742" data-name="Trazado 33742" d="M-19.637,632.235h11.4v11.4h-11.4v-11.4Z" transform="translate(774.946 743.6)" fill="#feaa6a" fill-rule="evenodd"/>
      <path id="Trazado_33743" data-name="Trazado 33743" d="M-162.787,632.235h11.4v11.4h-11.4v-11.4Z" transform="translate(906.586 743.6)" fill="#feaa6a" fill-rule="evenodd"/>
      <path id="Trazado_33744" data-name="Trazado 33744" d="M-305.936,632.235h11.4v11.4h-11.4v-11.4Z" transform="translate(1038.226 743.6)" fill="#feaa6a" fill-rule="evenodd"/>
      <path id="Trazado_33745" data-name="Trazado 33745" d="M-449.086,632.235h11.4v11.4h-11.4v-11.4Z" transform="translate(1169.867 743.6)" fill="#fb678b" fill-rule="evenodd"/>
      <path id="Trazado_33746" data-name="Trazado 33746" d="M-592.235,632.235h11.4v11.4h-11.4v-11.4Z" transform="translate(1301.507 743.6)" fill="#2ca9e0" fill-rule="evenodd"/>
      <path id="Trazado_33747" data-name="Trazado 33747" d="M1411.859,775.386h11.4v11.4h-11.4v-11.4Z" transform="translate(-541.456 611.959)" fill="#fb678b" fill-rule="evenodd"/>
      <path id="Trazado_33748" data-name="Trazado 33748" d="M1268.71,775.386h11.4v11.4h-11.4v-11.4Z" transform="translate(-409.816 611.959)" fill="#eecadb" fill-rule="evenodd"/>
      <path id="Trazado_33749" data-name="Trazado 33749" d="M1125.56,775.386h11.4v11.4h-11.4v-11.4Z" transform="translate(-278.175 611.959)" fill="#eecadb" fill-rule="evenodd"/>
      <path id="Trazado_33750" data-name="Trazado 33750" d="M982.41,775.386h11.4v11.4h-11.4v-11.4Z" transform="translate(-146.535 611.959)" fill="#eecadb" fill-rule="evenodd"/>
      <path id="Trazado_33751" data-name="Trazado 33751" d="M839.261,775.386h11.4v11.4h-11.4v-11.4Z" transform="translate(-14.895 611.959)" fill="#eecadb" fill-rule="evenodd"/>
      <path id="Trazado_33752" data-name="Trazado 33752" d="M696.111,775.386h11.4v11.4h-11.4v-11.4Z" transform="translate(116.745 611.959)" fill="#eecadb" fill-rule="evenodd"/>
      <path id="Trazado_33753" data-name="Trazado 33753" d="M552.962,775.386h11.4v11.4h-11.4v-11.4Z" transform="translate(248.385 611.959)" fill="#eecadb" fill-rule="evenodd"/>
      <path id="Trazado_33754" data-name="Trazado 33754" d="M409.813,775.386h11.4v11.4h-11.4v-11.4Z" transform="translate(380.025 611.959)" fill="#eecadb" fill-rule="evenodd"/>
      <path id="Trazado_33755" data-name="Trazado 33755" d="M266.663,775.386h11.4v11.4h-11.4v-11.4Z" transform="translate(511.665 611.959)" fill="#eecadb" fill-rule="evenodd"/>
      <path id="Trazado_33756" data-name="Trazado 33756" d="M123.513,775.386h11.4v11.4h-11.4v-11.4Z" transform="translate(643.306 611.959)" fill="#eecadb" fill-rule="evenodd"/>
      <path id="Trazado_33757" data-name="Trazado 33757" d="M-19.637,775.386h11.4v11.4h-11.4v-11.4Z" transform="translate(774.946 611.959)" fill="#eecadb" fill-rule="evenodd"/>
      <path id="Trazado_33758" data-name="Trazado 33758" d="M-162.787,775.386h11.4v11.4h-11.4v-11.4Z" transform="translate(906.586 611.959)" fill="#eecadb" fill-rule="evenodd"/>
      <path id="Trazado_33759" data-name="Trazado 33759" d="M-305.936,775.386h11.4v11.4h-11.4v-11.4Z" transform="translate(1038.226 611.959)" fill="#eecadb" fill-rule="evenodd"/>
      <path id="Trazado_33760" data-name="Trazado 33760" d="M-449.086,775.386h11.4v11.4h-11.4v-11.4Z" transform="translate(1169.867 611.959)" fill="#fb678b" fill-rule="evenodd"/>
      <path id="Trazado_33761" data-name="Trazado 33761" d="M-592.235,775.386h11.4v11.4h-11.4v-11.4Z" transform="translate(1301.507 611.959)" fill="#2ca9e0" fill-rule="evenodd"/>
      <path id="Trazado_33762" data-name="Trazado 33762" d="M-592.235,129.086h11.4v11.4h-11.4v-11.4Z" transform="translate(1301.507 1229.367)" fill="#94c024" fill-rule="evenodd"/>
      <path id="Trazado_33763" data-name="Trazado 33763" d="M-592.235-14.063h11.4v11.4h-11.4v-11.4Z" transform="translate(1301.507 1361.007)" fill="#94c024" fill-rule="evenodd"/>
      <path id="Trazado_33764" data-name="Trazado 33764" d="M-592.235-14.063h11.4l-5.624,5.846-5.771,5.549v-11.4Z" transform="translate(1301.507 1361.007)" fill="#2ca9e0" fill-rule="evenodd"/>
      <path id="Trazado_33765" data-name="Trazado 33765" d="M-592.235-14.063h11.4l-5.624,5.846-5.771,5.549v-11.4Z" transform="translate(1301.507 1372.642)" fill="#2ca9e0" fill-rule="evenodd"/>
    </g>
    <path id="Trazado_33776" data-name="Trazado 33776" d="M6198.316-148.949H5958.391v67.69" transform="translate(-5370 1337)" fill="none" stroke="#082143" stroke-width="2"/>
    <path id="Trazado_33777" data-name="Trazado 33777" d="M5958.391-148.949h239.926V-89" transform="translate(-4879 1337)" fill="none" stroke="#082143" stroke-width="2"/>
    <path id="Trazado_36855" data-name="Trazado 36855" d="M26,0H202a26,26,0,0,1,0,52H26A26,26,0,0,1,26,0Z" transform="translate(473 1248)" fill="#c1ffe9"/>
    <path id="Trazado_36856" data-name="Trazado 36856" d="M9.912.244A9.537,9.537,0,0,1,6.39-.4,8.257,8.257,0,0,1,3.583-2.2,8.088,8.088,0,0,1,1.74-5.054a10.114,10.114,0,0,1-.665-3.723,10.083,10.083,0,0,1,.684-3.766,8.2,8.2,0,0,1,1.88-2.881A8.406,8.406,0,0,1,6.5-17.236a9.846,9.846,0,0,1,3.595-.647,9.613,9.613,0,0,1,4.584,1.08,7.857,7.857,0,0,1,3.18,3.07l-3.21,1.709a4.706,4.706,0,0,0-1.862-2A5.339,5.339,0,0,0,10.1-14.7a5.115,5.115,0,0,0-3.851,1.55,5.914,5.914,0,0,0-1.5,4.285A6.1,6.1,0,0,0,6.238-4.553a5.173,5.173,0,0,0,3.992,1.611,5.9,5.9,0,0,0,2.148-.378,4.286,4.286,0,0,0,1.709-1.227,4.444,4.444,0,0,0,.977-2.094H10.242V-9.583H18.53V0H15.649V-2.441A6.435,6.435,0,0,1,9.912.244ZM31.641,0l-4.59-7.764H25.989V0H22.327V-17.639h6.4a7.4,7.4,0,0,1,2.563.409,4.432,4.432,0,0,1,1.776,1.135,4.862,4.862,0,0,1,1,1.666,6.1,6.1,0,0,1,.336,2.063,4.307,4.307,0,0,1-.964,2.9,4.86,4.86,0,0,1-2.771,1.52L35.974,0ZM25.989-14.6v4.211h2.161q2.747,0,2.747-2.1a1.912,1.912,0,0,0-.671-1.55,3.192,3.192,0,0,0-2.075-.562ZM45.19.244A9.128,9.128,0,0,1,42.474-.14,6.393,6.393,0,0,1,40.3-1.294a5.163,5.163,0,0,1-1.471-2.014,7.259,7.259,0,0,1-.531-2.869V-17.639h3.662V-6.677a3.834,3.834,0,0,0,.885,2.8,3.164,3.164,0,0,0,2.35.891,3.194,3.194,0,0,0,2.362-.9,3.8,3.8,0,0,0,.9-2.789V-17.639h3.662V-6.177a7.259,7.259,0,0,1-.531,2.869A5.135,5.135,0,0,1,50.1-1.294,6.46,6.46,0,0,1,47.919-.14,9.172,9.172,0,0,1,45.19.244ZM63.647-17.639A5.308,5.308,0,0,1,67.712-16a5.711,5.711,0,0,1,1.538,4.059A5.571,5.571,0,0,1,67.725-7.9a5.4,5.4,0,0,1-4.077,1.581H59.973V0H56.311V-17.639Zm-.61,8.252a2.691,2.691,0,0,0,2.014-.69,2.623,2.623,0,0,0,.671-1.91,2.6,2.6,0,0,0-.677-1.886,2.667,2.667,0,0,0-2.008-.7H59.973v5.188ZM80.139.244a9.588,9.588,0,0,1-4.633-1.1,8.008,8.008,0,0,1-3.217-3.18,9.563,9.563,0,0,1-1.172-4.785,9.555,9.555,0,0,1,1.172-4.791,7.978,7.978,0,0,1,3.217-3.168,9.631,9.631,0,0,1,4.633-1.1,9.6,9.6,0,0,1,4.626,1.1,7.989,7.989,0,0,1,3.21,3.168,9.555,9.555,0,0,1,1.172,4.791,9.563,9.563,0,0,1-1.172,4.785A8.008,8.008,0,0,1,84.76-.861,9.563,9.563,0,0,1,80.139.244Zm-3.857-4.9a5.181,5.181,0,0,0,3.857,1.538A5.17,5.17,0,0,0,84-4.657,5.7,5.7,0,0,0,85.51-8.826,5.66,5.66,0,0,0,84-12.976a5.181,5.181,0,0,0-3.857-1.538,5.181,5.181,0,0,0-3.857,1.538,5.66,5.66,0,0,0-1.514,4.15A5.719,5.719,0,0,0,76.282-4.651Zm22,4.9a8.522,8.522,0,0,1-4.9-1.349A5.41,5.41,0,0,1,91-4.883l3.784-.867a3.213,3.213,0,0,0,1.166,2.228,3.868,3.868,0,0,0,2.472.775,3.193,3.193,0,0,0,1.929-.543,1.832,1.832,0,0,0,.732-1.605,1.712,1.712,0,0,0-.623-1.306A4.068,4.068,0,0,0,99.225-7q-.616-.238-1.984-.653-.183-.061-.269-.085-.7-.22-1.123-.366t-1.056-.409a7.032,7.032,0,0,1-1.025-.513,7.508,7.508,0,0,1-.848-.635,3.325,3.325,0,0,1-.708-.812,4.312,4.312,0,0,1-.427-1.013,4.471,4.471,0,0,1-.171-1.257,4.722,4.722,0,0,1,.824-2.777,5.046,5.046,0,0,1,2.222-1.77,8.086,8.086,0,0,1,3.18-.592,10.045,10.045,0,0,1,2.3.256,8.06,8.06,0,0,1,2.057.787,5.038,5.038,0,0,1,1.642,1.453,5.462,5.462,0,0,1,.934,2.142l-3.54.879a2.868,2.868,0,0,0-3.174-2.527,3.475,3.475,0,0,0-1.965.513,1.737,1.737,0,0,0-.769,1.55q0,.964,1.282,1.563a19.1,19.1,0,0,0,2.454.842q.72.22,1.172.366t1.135.427a7.889,7.889,0,0,1,1.111.543,8.22,8.22,0,0,1,.928.677,3.649,3.649,0,0,1,.787.879,4.752,4.752,0,0,1,.482,1.093,4.566,4.566,0,0,1,.2,1.361,5.348,5.348,0,0,1-.354,1.99,4.33,4.33,0,0,1-.97,1.5,5.636,5.636,0,0,1-1.459,1.031,7.077,7.077,0,0,1-1.794.61A10.32,10.32,0,0,1,98.279.244Z" transform="translate(534 1282)" fill="#082143"/>
    <path id="Trazado_36858" data-name="Trazado 36858" d="M26,0H202a26,26,0,0,1,0,52H26A26,26,0,0,1,26,0Z" transform="translate(1205 1248)" fill="#c1ffe9"/>
    <path id="Trazado_33778" data-name="Trazado 33778" d="M6330-63.5V35" transform="translate(-5370 1337)" fill="none" stroke="#082143" stroke-width="2"/>
    <path id="Trazado_33779" data-name="Trazado 33779" d="M5958.391,403.531V121.8H6693.4V403.531" transform="translate(-5370 1311)" fill="none" stroke="#082143" stroke-width="2"/>
    <path id="Trazado_36859" data-name="Trazado 36859" d="M40.5,0h147a40.5,40.5,0,0,1,0,81H40.5a40.5,40.5,0,0,1,0-81Z" transform="translate(473 1509)" fill="#c1ffe9"/>
    <path id="Trazado_36864" data-name="Trazado 36864" d="M-43.689-17.639v3.223h-4.187V0H-51.5V-14.417h-4.211v-3.223ZM-30.615,0-31.9-3.638h-7.41L-40.588,0h-3.748l6.494-17.639h4.48L-26.868,0Zm-7.617-6.7h5.261L-35.6-14.185ZM-4,0h-3.65l-1.16-13.293L-13.281,0h-2.368l-4.468-13.293L-21.289,0h-3.662l1.477-17.639h5.225l3.76,11.072,3.809-11.072h5.225ZM11.633,0,10.352-3.638H2.942L1.66,0H-2.087L4.407-17.639h4.48L15.381,0ZM4.016-6.7H9.277L6.653-14.185ZM24.475-21.24a.831.831,0,0,0-.763.464,2.441,2.441,0,0,0-.262,1.208H21.606a3.551,3.551,0,0,1,.757-2.35,2.528,2.528,0,0,1,2.051-.909,2.619,2.619,0,0,1,2.051.891l.275.317q.2.232.3.323a1.291,1.291,0,0,0,.287.189.83.83,0,0,0,.385.1q.952,0,.952-1.648H30.53a3.59,3.59,0,0,1-.739,2.338,2.53,2.53,0,0,1-2.081.909,2.5,2.5,0,0,1-1.233-.262,3.078,3.078,0,0,1-.842-.714q-.037-.037-.146-.177t-.146-.189q-.037-.049-.134-.153a.841.841,0,0,0-.159-.14l-.159-.1a.563.563,0,0,0-.2-.079A1.227,1.227,0,0,0,24.475-21.24Zm5.6,3.6h3.65V0H29.492L21.68-12.61V0H18.03V-17.639h4.187L30.078-5.1ZM46.106.244a9.588,9.588,0,0,1-4.633-1.1,8.008,8.008,0,0,1-3.217-3.18,9.563,9.563,0,0,1-1.172-4.785,9.555,9.555,0,0,1,1.172-4.791,7.978,7.978,0,0,1,3.217-3.168,9.631,9.631,0,0,1,4.633-1.1,9.6,9.6,0,0,1,4.626,1.1,7.989,7.989,0,0,1,3.21,3.168,9.555,9.555,0,0,1,1.172,4.791,9.563,9.563,0,0,1-1.172,4.785,8.008,8.008,0,0,1-3.217,3.18A9.563,9.563,0,0,1,46.106.244Zm-3.857-4.9a5.181,5.181,0,0,0,3.857,1.538,5.17,5.17,0,0,0,3.857-1.544,5.7,5.7,0,0,0,1.514-4.169,5.66,5.66,0,0,0-1.514-4.15,5.181,5.181,0,0,0-3.857-1.538,5.181,5.181,0,0,0-3.857,1.538,5.66,5.66,0,0,0-1.514,4.15A5.719,5.719,0,0,0,42.249-4.651ZM-46.35,31l-1.282-3.638h-7.41L-56.323,31h-3.748l6.494-17.639h4.48L-42.6,31Zm-7.617-6.7h5.261l-2.625-7.483Zm22.742-10.937v3.223h-4.187V31h-3.625V16.583H-43.25V13.361Zm8.875-1.648,3.2-4.492,1.733,1.233-2.771,3.259Zm1.086,19.531a9.588,9.588,0,0,1-4.633-1.1,8.008,8.008,0,0,1-3.217-3.18,9.563,9.563,0,0,1-1.172-4.785,9.555,9.555,0,0,1,1.172-4.791A7.978,7.978,0,0,1-25.9,14.215a9.631,9.631,0,0,1,4.633-1.1,9.6,9.6,0,0,1,4.626,1.1,7.989,7.989,0,0,1,3.21,3.168,9.555,9.555,0,0,1,1.172,4.791,9.563,9.563,0,0,1-1.172,4.785,8.008,8.008,0,0,1-3.217,3.18A9.563,9.563,0,0,1-21.265,31.244Zm-3.857-4.9a5.181,5.181,0,0,0,3.857,1.538,5.17,5.17,0,0,0,3.857-1.544,5.7,5.7,0,0,0,1.514-4.169,5.66,5.66,0,0,0-1.514-4.15,5.181,5.181,0,0,0-3.857-1.538,5.181,5.181,0,0,0-3.857,1.538,5.66,5.66,0,0,0-1.514,4.15A5.719,5.719,0,0,0-25.122,26.349ZM11.328,31H7.678L6.519,17.707,2.051,31H-.317L-4.785,17.707-5.957,31H-9.619l1.477-17.639h5.225L.842,24.433,4.651,13.361H9.875Zm3.833,0V13.361h3.662V31Zm16.028.244a9.846,9.846,0,0,1-3.595-.647,8.454,8.454,0,0,1-2.863-1.807,8.144,8.144,0,0,1-1.88-2.869,10,10,0,0,1-.684-3.748,9.555,9.555,0,0,1,1.172-4.791,7.978,7.978,0,0,1,3.217-3.168,9.631,9.631,0,0,1,4.633-1.1,9.36,9.36,0,0,1,5.176,1.428,7.818,7.818,0,0,1,3.162,3.931l-3.418,1.245a4.832,4.832,0,0,0-1.892-2.38,5.4,5.4,0,0,0-3.027-.854,5.181,5.181,0,0,0-3.857,1.538,5.66,5.66,0,0,0-1.514,4.15,5.668,5.668,0,0,0,1.52,4.156,5.175,5.175,0,0,0,3.851,1.544,5.384,5.384,0,0,0,3.021-.861,4.854,4.854,0,0,0,1.9-2.386l3.418,1.245a7.85,7.85,0,0,1-3.162,3.937A9.33,9.33,0,0,1,31.189,31.244Zm19.153,0a9.588,9.588,0,0,1-4.633-1.1,8.008,8.008,0,0,1-3.217-3.18,9.563,9.563,0,0,1-1.172-4.785,9.555,9.555,0,0,1,1.172-4.791,7.978,7.978,0,0,1,3.217-3.168,10.3,10.3,0,0,1,9.259,0,7.989,7.989,0,0,1,3.21,3.168,9.555,9.555,0,0,1,1.172,4.791,9.563,9.563,0,0,1-1.172,4.785,8.008,8.008,0,0,1-3.217,3.18A9.563,9.563,0,0,1,50.342,31.244Zm-3.857-4.9a5.6,5.6,0,0,0,7.715-.006,5.7,5.7,0,0,0,1.514-4.169,5.66,5.66,0,0,0-1.514-4.15,5.606,5.606,0,0,0-7.715,0,5.66,5.66,0,0,0-1.514,4.15A5.719,5.719,0,0,0,46.484,26.349Z" transform="translate(588 1543)" fill="#082143"/>
    <path id="Trazado_36860" data-name="Trazado 36860" d="M40.5,0h147a40.5,40.5,0,0,1,0,81H40.5a40.5,40.5,0,0,1,0-81Z" transform="translate(1234 1509)" fill="#c1ffe9"/>
    <path id="Trazado_36865" data-name="Trazado 36865" d="M-47.418-14.417h-6.543v4h5.8v3.186h-5.8v3.992h6.543V0H-57.648V-17.639h10.229Zm7.434,11.182h5.53V0h-9.192V-17.639h3.662Zm18.555-11.182h-6.543v4h5.8v3.186h-5.8v3.992h6.543V0H-31.659V-17.639h10.229ZM-10.516.244A9.846,9.846,0,0,1-14.111-.4a8.454,8.454,0,0,1-2.863-1.807,8.144,8.144,0,0,1-1.88-2.869,10,10,0,0,1-.684-3.748,9.555,9.555,0,0,1,1.172-4.791,7.978,7.978,0,0,1,3.217-3.168,9.631,9.631,0,0,1,4.633-1.1,9.36,9.36,0,0,1,5.176,1.428,7.818,7.818,0,0,1,3.162,3.931L-5.6-11.279a4.832,4.832,0,0,0-1.892-2.38,5.4,5.4,0,0,0-3.027-.854,5.181,5.181,0,0,0-3.857,1.538,5.66,5.66,0,0,0-1.514,4.15,5.668,5.668,0,0,0,1.52,4.156,5.175,5.175,0,0,0,3.851,1.544A5.384,5.384,0,0,0-7.5-3.986,4.854,4.854,0,0,0-5.6-6.372l3.418,1.245A7.85,7.85,0,0,1-5.341-1.19,9.33,9.33,0,0,1-10.516.244Zm21.57-17.883v3.223H6.866V0H3.241V-14.417H-.97v-3.223ZM23.138,0l-4.59-7.764H17.487V0H13.824V-17.639h6.4a7.4,7.4,0,0,1,2.563.409,4.432,4.432,0,0,1,1.776,1.135,4.862,4.862,0,0,1,1,1.666,6.1,6.1,0,0,1,.336,2.063,4.307,4.307,0,0,1-.964,2.9,4.86,4.86,0,0,1-2.771,1.52L27.472,0ZM17.487-14.6v4.211h2.161q2.747,0,2.747-2.1a1.912,1.912,0,0,0-.671-1.55,3.192,3.192,0,0,0-2.075-.562ZM37.518.244a9.588,9.588,0,0,1-4.633-1.1,8.008,8.008,0,0,1-3.217-3.18A9.563,9.563,0,0,1,28.5-8.826a9.555,9.555,0,0,1,1.172-4.791,7.978,7.978,0,0,1,3.217-3.168,9.631,9.631,0,0,1,4.633-1.1,9.6,9.6,0,0,1,4.626,1.1,7.989,7.989,0,0,1,3.21,3.168,9.555,9.555,0,0,1,1.172,4.791,9.563,9.563,0,0,1-1.172,4.785,8.008,8.008,0,0,1-3.217,3.18A9.563,9.563,0,0,1,37.518.244Zm-3.857-4.9a5.181,5.181,0,0,0,3.857,1.538,5.17,5.17,0,0,0,3.857-1.544,5.7,5.7,0,0,0,1.514-4.169,5.66,5.66,0,0,0-1.514-4.15,5.181,5.181,0,0,0-3.857-1.538,5.181,5.181,0,0,0-3.857,1.538,5.66,5.66,0,0,0-1.514,4.15A5.719,5.719,0,0,0,33.661-4.651ZM49.4-5.029V-7.971h8.752v2.942ZM-71.32,13.361h3.65V31h-4.236l-7.812-12.61V31h-3.65V13.361h4.187L-71.32,25.9Zm18.445,3.223h-6.543v4h5.8v3.186h-5.8v3.992h6.543V31H-63.1V13.361h10.229Zm10.73,14.661a9.537,9.537,0,0,1-3.522-.641,8.257,8.257,0,0,1-2.808-1.8,8.088,8.088,0,0,1-1.843-2.856,10.114,10.114,0,0,1-.665-3.723,10.083,10.083,0,0,1,.684-3.766,8.2,8.2,0,0,1,1.88-2.881,8.406,8.406,0,0,1,2.863-1.813,9.846,9.846,0,0,1,3.595-.647,9.613,9.613,0,0,1,4.584,1.08,7.857,7.857,0,0,1,3.18,3.07l-3.21,1.709a4.706,4.706,0,0,0-1.862-2,5.339,5.339,0,0,0-2.692-.671,5.115,5.115,0,0,0-3.851,1.55,5.914,5.914,0,0,0-1.5,4.285,6.1,6.1,0,0,0,1.489,4.309,5.173,5.173,0,0,0,3.992,1.611,5.9,5.9,0,0,0,2.148-.378,4.286,4.286,0,0,0,1.709-1.227,4.444,4.444,0,0,0,.977-2.094h-4.822V21.417h8.289V31h-2.881V28.559A6.435,6.435,0,0,1-42.145,31.244ZM-17.926,31l-1.282-3.638h-7.41L-27.9,31h-3.748l6.494-17.639h4.48L-14.178,31Zm-7.617-6.7h5.261l-2.625-7.483ZM-2.8,13.361v3.223H-6.989V31h-3.625V16.583h-4.211V13.361ZM-.031,31V13.361H3.632V31ZM19.4,13.361H23.3L16.779,31H12.75L6.268,13.361H10.15l4.626,13.367ZM25.946,31V13.361h3.662V31Zm8.215,0V13.361h6.384a9.953,9.953,0,0,1,3.68.635,6.779,6.779,0,0,1,2.637,1.8,7.833,7.833,0,0,1,1.563,2.777,11.466,11.466,0,0,1,.531,3.6,11.508,11.508,0,0,1-.531,3.613,7.833,7.833,0,0,1-1.562,2.777,6.779,6.779,0,0,1-2.637,1.8,9.953,9.953,0,0,1-3.68.635Zm3.662-3.235h2.539a4.333,4.333,0,0,0,3.564-1.434A6.429,6.429,0,0,0,45.1,22.174a6.429,6.429,0,0,0-1.172-4.156,4.333,4.333,0,0,0-3.564-1.434H37.823ZM63.312,31,62.03,27.362H54.62L53.339,31H49.591l6.494-17.639h4.48L67.059,31Zm-7.617-6.7h5.261l-2.625-7.483ZM69.708,31V13.361h6.384a9.953,9.953,0,0,1,3.68.635,6.779,6.779,0,0,1,2.637,1.8,7.833,7.833,0,0,1,1.563,2.777,11.466,11.466,0,0,1,.531,3.6,11.508,11.508,0,0,1-.531,3.613,7.833,7.833,0,0,1-1.562,2.777,6.779,6.779,0,0,1-2.637,1.8,9.953,9.953,0,0,1-3.68.635Zm3.662-3.235h2.539a4.333,4.333,0,0,0,3.564-1.434,6.429,6.429,0,0,0,1.172-4.156,6.429,6.429,0,0,0-1.172-4.156,4.333,4.333,0,0,0-3.564-1.434H73.37Z" transform="translate(1349 1543)" fill="#082143"/>
    <g id="Grupo_15318" data-name="Grupo 15318" transform="translate(12.866 29)">
      <path id="Trazado_37036" data-name="Trazado 37036" d="M3.208,0H.967V-10.8H3.208ZM7.375,0H5.134V-10.8H7.375Z" transform="translate(473 1309)" fill="#082143"/>
      <path id="Trazado_37035" data-name="Trazado 37035" d="M3.208,0H.967V-10.8H3.208ZM7.375,0H5.134V-10.8H7.375Zm4.167,0H9.3V-10.8h2.241Z" transform="translate(501 1309)" fill="#082143"/>
      <path id="Trazado_37034" data-name="Trazado 37034" d="M3.208,0H.967V-10.8H3.208Zm8.423-10.8h2.344L10.291,0H8.159L4.512-10.8h2.41L9.265-2.6Z" transform="translate(534 1309)" fill="#082143"/>
      <path id="Trazado_37033" data-name="Trazado 37033" d="M7.463-10.8H9.807L6.123,0H3.992L.344-10.8h2.41L5.1-2.6Z" transform="translate(569 1309)" fill="#082143"/>
      <path id="Trazado_37032" data-name="Trazado 37032" d="M7.463-10.8H9.807L6.123,0H3.992L.344-10.8h2.41L5.1-2.6ZM13.213,0H10.972V-10.8h2.241Z" transform="translate(598 1309)" fill="#082143"/>
      <path id="Trazado_37031" data-name="Trazado 37031" d="M7.463-10.8H9.807L6.123,0H3.992L.344-10.8h2.41L5.1-2.6ZM13.213,0H10.972V-10.8h2.241ZM17.38,0H15.139V-10.8H17.38Z" transform="translate(632 1309)" fill="#082143"/>
      <path id="Trazado_37030" data-name="Trazado 37030" d="M7.463-10.8H9.807L6.123,0H3.992L.344-10.8h2.41L5.1-2.6ZM13.213,0H10.972V-10.8h2.241ZM17.38,0H15.139V-10.8H17.38Zm4.167,0H19.307V-10.8h2.241Z" transform="translate(671 1309)" fill="#082143"/>
      <path id="Trazado_37158" data-name="Trazado 37158" d="M3.375,0H1.134V-10.8H3.375Z" transform="translate(459 1309)" fill="#082143"/>
    </g>
    <g id="Grupo_15319" data-name="Grupo 15319" transform="translate(5 29)">
      <text id="_1" data-name="1" transform="translate(1212 1309)" fill="#082143" font-size="15" font-family="Helvetica-Bold, Helvetica" font-weight="700"><tspan x="0" y="0">1</tspan></text>
      <text id="_2" data-name="2" transform="translate(1245 1309)" fill="#082143" font-size="15" font-family="Helvetica-Bold, Helvetica" font-weight="700"><tspan x="0" y="0">2</tspan></text>
      <text id="_3" data-name="3" transform="translate(1278 1309)" fill="#082143" font-size="15" font-family="Helvetica-Bold, Helvetica" font-weight="700"><tspan x="0" y="0">3</tspan></text>
      <text id="_4" data-name="4" transform="translate(1311 1309)" fill="#082143" font-size="15" font-family="Helvetica-Bold, Helvetica" font-weight="700"><tspan x="0" y="0">4</tspan></text>
      <text id="_5" data-name="5" transform="translate(1344 1309)" fill="#082143" font-size="15" font-family="Helvetica-Bold, Helvetica" font-weight="700"><tspan x="0" y="0">5</tspan></text>
      <text id="_5-2" data-name="5" transform="translate(1377 1309)" fill="#082143" font-size="15" font-family="Helvetica-Bold, Helvetica" font-weight="700"><tspan x="0" y="0">5</tspan></text>
      <text id="_7" data-name="7" transform="translate(1410 1309)" fill="#082143" font-size="15" font-family="Helvetica-Bold, Helvetica" font-weight="700"><tspan x="0" y="0">7</tspan></text>
    </g>
    <path id="Trazado_33780" data-name="Trazado 33780" d="M6210,95.8V377.531" transform="translate(-5370 1337)" fill="none" stroke="#082143" stroke-width="2"/>
    <path id="Trazado_33781" data-name="Trazado 33781" d="M6210,95.8V377.531" transform="translate(-5112 1337)" fill="none" stroke="#082143" stroke-width="2"/>
    <path id="Trazado_28315" data-name="Trazado 28315" d="M1937.734,3414.312h12.6v10.337h11.416v21.918h101.369V3424.65h54.768v-10.337h11.461v72.376h-145.1v13.228h-46.51Z" transform="translate(-1450.234 -1659.652)" fill="#bdbef7"/>
    <path id="Trazado_33782" data-name="Trazado 33782" d="M1937.734,3414.312h12.6v10.337h11.416v21.918h101.369V3424.65h54.768v-10.337h11.461v72.376h-145.1v13.228h-46.51Z" transform="translate(-1193.234 -1663.652)" fill="#f8c07b"/>
    <path id="Trazado_33783" data-name="Trazado 33783" d="M1937.734,3414.312h12.6v10.337h11.416v21.918h101.369V3424.65h54.768v-10.337h11.461v72.376h-145.1v13.228h-46.51Z" transform="translate(-936.234 -1667.652)" fill="#f3d2db"/>
    <path id="Trazado_33784" data-name="Trazado 33784" d="M1937.734,3414.312h12.6v10.337h11.416v21.918h101.369V3424.65h54.768v-10.337h11.461v72.376h-145.1v13.228h-46.51Z" transform="translate(-679.234 -1667.652)" fill="#c6df9e"/>
    <path id="Trazado_36874" data-name="Trazado 36874" d="M8.16,0l-3-5.271H3.32V0H1.834V-11.687H5.711a3.491,3.491,0,0,1,2.619.926,3.268,3.268,0,0,1,.9,2.378A3.05,3.05,0,0,1,8.546-6.35,3.061,3.061,0,0,1,6.641-5.329L9.895,0ZM3.32-10.384v3.943H5.512a2.448,2.448,0,0,0,1.71-.527A1.85,1.85,0,0,0,7.794-8.4a1.883,1.883,0,0,0-.577-1.444,2.413,2.413,0,0,0-1.706-.54ZM13.422.158A2.777,2.777,0,0,1,11.634-.4a2.012,2.012,0,0,1-.7-1.673,2.377,2.377,0,0,1,.224-1.067,1.88,1.88,0,0,1,.664-.743,3.983,3.983,0,0,1,.959-.461A8.863,8.863,0,0,1,14.02-4.64l1.32-.216q.722-.133.722-.755a1.426,1.426,0,0,0-.51-1.216,2.08,2.08,0,0,0-1.291-.386,2.119,2.119,0,0,0-1.278.374,1.563,1.563,0,0,0-.606,1.146l-1.295-.274A2.492,2.492,0,0,1,12.1-7.716,3.815,3.815,0,0,1,14.327-8.3a4.512,4.512,0,0,1,1.183.145A3.215,3.215,0,0,1,16.5-7.7a2.047,2.047,0,0,1,.706.88,3.274,3.274,0,0,1,.253,1.341v3.37a1.379,1.379,0,0,0,.187.851.806.806,0,0,0,.643.22h.133V0h-.714a1.362,1.362,0,0,1-1.544-1.1H16.1A3.118,3.118,0,0,1,13.422.158ZM13.754-1a2.177,2.177,0,0,0,1.751-.789,3.247,3.247,0,0,0,.664-2.158l-2.158.415a2.905,2.905,0,0,0-1.266.452,1.052,1.052,0,0,0-.411.892,1.04,1.04,0,0,0,.394.9A1.685,1.685,0,0,0,13.754-1ZM26.305-12.75h1.436V0H26.355l-.033-1.585A3,3,0,0,1,25.16-.3a3.238,3.238,0,0,1-1.727.473,3.668,3.668,0,0,1-1.478-.3A3.7,3.7,0,0,1,20.74-.975a3.929,3.929,0,0,1-.822-1.349,4.934,4.934,0,0,1-.3-1.751,4.291,4.291,0,0,1,1.108-3.063,3.577,3.577,0,0,1,2.71-1.179,3.252,3.252,0,0,1,1.706.461,3.019,3.019,0,0,1,1.166,1.249ZM23.732-1.071a2.443,2.443,0,0,0,1.9-.859A3.1,3.1,0,0,0,26.4-4.076a3.1,3.1,0,0,0-.772-2.142,2.442,2.442,0,0,0-1.893-.863,2.5,2.5,0,0,0-1.909.834,3.069,3.069,0,0,0-.772,2.171,3.069,3.069,0,0,0,.772,2.171A2.5,2.5,0,0,0,23.732-1.071Zm7.662-9.006a.934.934,0,0,1-.685-.286.934.934,0,0,1-.286-.685.921.921,0,0,1,.286-.681.941.941,0,0,1,.685-.282.932.932,0,0,1,.677.282.921.921,0,0,1,.286.681.934.934,0,0,1-.286.685A.925.925,0,0,1,31.394-10.077ZM30.663,0V-8.16h1.444V0Zm7.8.158a4.3,4.3,0,0,1-2.092-.506A3.687,3.687,0,0,1,34.9-1.83a4.551,4.551,0,0,1-.544-2.254,4.157,4.157,0,0,1,1.158-3.075,4,4,0,0,1,2.951-1.158,3.993,3.993,0,0,1,2.955,1.158,4.165,4.165,0,0,1,1.154,3.075A4.168,4.168,0,0,1,41.417-1,4,4,0,0,1,38.466.158Zm-.008-1.2a2.506,2.506,0,0,0,1.93-.838,3.141,3.141,0,0,0,.768-2.208,3.13,3.13,0,0,0-.768-2.2,2.506,2.506,0,0,0-1.93-.838,2.472,2.472,0,0,0-1.913.838,3.15,3.15,0,0,0-.76,2.2,3.162,3.162,0,0,0,.76,2.208A2.472,2.472,0,0,0,38.458-1.038ZM51.125.158A2.777,2.777,0,0,1,49.336-.4a2.012,2.012,0,0,1-.7-1.673,2.377,2.377,0,0,1,.224-1.067,1.88,1.88,0,0,1,.664-.743,3.983,3.983,0,0,1,.959-.461,8.863,8.863,0,0,1,1.241-.295l1.32-.216q.722-.133.722-.755a1.426,1.426,0,0,0-.51-1.216,2.08,2.08,0,0,0-1.291-.386,2.119,2.119,0,0,0-1.278.374,1.563,1.563,0,0,0-.606,1.146l-1.295-.274A2.492,2.492,0,0,1,49.8-7.716,3.815,3.815,0,0,1,52.029-8.3a4.512,4.512,0,0,1,1.183.145A3.215,3.215,0,0,1,54.2-7.7a2.047,2.047,0,0,1,.706.88,3.274,3.274,0,0,1,.253,1.341v3.37a1.379,1.379,0,0,0,.187.851.806.806,0,0,0,.643.22h.133V0h-.714a1.362,1.362,0,0,1-1.544-1.1H53.8A3.118,3.118,0,0,1,51.125.158ZM51.457-1a2.177,2.177,0,0,0,1.751-.789,3.247,3.247,0,0,0,.664-2.158l-2.158.415a2.905,2.905,0,0,0-1.266.452,1.052,1.052,0,0,0-.411.892,1.04,1.04,0,0,0,.394.9A1.685,1.685,0,0,0,51.457-1ZM60.7,0A2.145,2.145,0,0,1,59.11-.585a2.214,2.214,0,0,1-.581-1.631v-4.8H56.86V-8.16h.614a1.179,1.179,0,0,0,.9-.286,1.409,1.409,0,0,0,.261-.959v-1.478h1.336V-8.16h1.876v1.146H59.973v4.648a1.237,1.237,0,0,0,.311.9,1.09,1.09,0,0,0,.818.32h.747V0Zm6.01-9.562L68.8-12.269l.764.556L67.7-9.562Zm.548,9.72a4.3,4.3,0,0,1-2.092-.506A3.687,3.687,0,0,1,63.7-1.83a4.551,4.551,0,0,1-.544-2.254A4.157,4.157,0,0,1,64.31-7.159a4,4,0,0,1,2.951-1.158,3.993,3.993,0,0,1,2.955,1.158A4.165,4.165,0,0,1,71.37-4.084,4.168,4.168,0,0,1,70.212-1,4,4,0,0,1,67.261.158Zm-.008-1.2a2.506,2.506,0,0,0,1.93-.838,3.141,3.141,0,0,0,.768-2.208,3.13,3.13,0,0,0-.768-2.2,2.506,2.506,0,0,0-1.93-.838,2.472,2.472,0,0,0-1.913.838,3.15,3.15,0,0,0-.76,2.2,3.162,3.162,0,0,0,.76,2.208A2.472,2.472,0,0,0,67.253-1.038Zm14.709-7.28a2.63,2.63,0,0,1,1.9.693,2.571,2.571,0,0,1,.722,1.947V0H83.149V-5.3A1.844,1.844,0,0,0,82.7-6.649a1.526,1.526,0,0,0-1.137-.457,1.611,1.611,0,0,0-1.245.515,2.213,2.213,0,0,0-.473,1.544V0H78.384V-5.246a1.929,1.929,0,0,0-.452-1.39,1.539,1.539,0,0,0-1.158-.469,1.6,1.6,0,0,0-1.241.527A2.289,2.289,0,0,0,75.056-5V0H73.62V-8.16h1.436v1.054A2.479,2.479,0,0,1,75.99-8a2.663,2.663,0,0,1,1.3-.315,2.772,2.772,0,0,1,1.395.344,2.145,2.145,0,0,1,.9.992,2.539,2.539,0,0,1,.979-.992A2.8,2.8,0,0,1,81.962-8.317Zm6.134-1.76a.934.934,0,0,1-.685-.286.934.934,0,0,1-.286-.685.921.921,0,0,1,.286-.681.941.941,0,0,1,.685-.282.932.932,0,0,1,.677.282.921.921,0,0,1,.286.681.934.934,0,0,1-.286.685A.925.925,0,0,1,88.1-10.077ZM87.366,0V-8.16H88.81V0Zm7.753.149A3.93,3.93,0,0,1,92.2-1.021a4.175,4.175,0,0,1-1.154-3.063,4.183,4.183,0,0,1,1.15-3.063,3.927,3.927,0,0,1,2.926-1.17A3.959,3.959,0,0,1,97.48-7.6,3.6,3.6,0,0,1,98.854-5.62L97.509-5.4a2.483,2.483,0,0,0-.921-1.27,2.509,2.509,0,0,0-1.478-.448,2.412,2.412,0,0,0-1.888.838,3.194,3.194,0,0,0-.743,2.2,3.178,3.178,0,0,0,.743,2.2,2.418,2.418,0,0,0,1.888.834A2.509,2.509,0,0,0,96.588-1.5a2.483,2.483,0,0,0,.921-1.27l1.345.224a3.607,3.607,0,0,1-1.382,1.98A3.953,3.953,0,0,1,95.119.149Zm9.289.008a4.3,4.3,0,0,1-2.092-.506,3.687,3.687,0,0,1-1.473-1.482,4.551,4.551,0,0,1-.544-2.254,4.157,4.157,0,0,1,1.158-3.075,4,4,0,0,1,2.951-1.158,3.993,3.993,0,0,1,2.955,1.158,4.165,4.165,0,0,1,1.154,3.075A4.168,4.168,0,0,1,107.358-1,4,4,0,0,1,104.407.158Zm-.008-1.2a2.506,2.506,0,0,0,1.93-.838,3.141,3.141,0,0,0,.768-2.208,3.13,3.13,0,0,0-.768-2.2,2.506,2.506,0,0,0-1.93-.838,2.472,2.472,0,0,0-1.913.838,3.15,3.15,0,0,0-.76,2.2,3.162,3.162,0,0,0,.76,2.208A2.472,2.472,0,0,0,104.4-1.038Z" transform="translate(525 1809)" fill="#082143"/>
    <path id="Trazado_36872" data-name="Trazado 36872" d="M9.338,0l-1-2.8H3.046L2.05,0H.5L4.806-11.687H6.583L10.891,0ZM3.52-4.109h4.35L5.694-10.193ZM13.273-9.87a4.693,4.693,0,0,1,.087-.95,3.083,3.083,0,0,1,.232-.718,1.706,1.706,0,0,1,.386-.519,2.271,2.271,0,0,1,.5-.353,2.493,2.493,0,0,1,.618-.208,5.8,5.8,0,0,1,.7-.1q.344-.029.793-.029v1.2h-.311q-.1,0-.3.017a1.915,1.915,0,0,0-.3.042q-.1.025-.257.083a.657.657,0,0,0-.245.141q-.083.083-.191.212a.867.867,0,0,0-.162.3,2.857,2.857,0,0,0-.091.4,3.178,3.178,0,0,0-.037.51V-8.16h1.893v1.146H14.7V0H13.273V-7.014H11.7V-8.16h1.577Zm5.711-.208a.934.934,0,0,1-.685-.286.934.934,0,0,1-.286-.685.921.921,0,0,1,.286-.681.941.941,0,0,1,.685-.282.932.932,0,0,1,.677.282.921.921,0,0,1,.286.681.934.934,0,0,1-.286.685A.925.925,0,0,1,18.984-10.077ZM18.253,0V-8.16H19.7V0Zm8.218-8.317a2.838,2.838,0,0,1,2.054.739A2.756,2.756,0,0,1,29.293-5.5V0H27.857V-5.171a1.929,1.929,0,0,0-.5-1.461,1.781,1.781,0,0,0-1.278-.473,1.974,1.974,0,0,0-1.453.56,2.274,2.274,0,0,0-.573,1.664V0H22.62V-8.16h1.436v1.046A2.725,2.725,0,0,1,26.471-8.317Zm6.325-1.76a.934.934,0,0,1-.685-.286.934.934,0,0,1-.286-.685.921.921,0,0,1,.286-.681.941.941,0,0,1,.685-.282.932.932,0,0,1,.677.282.921.921,0,0,1,.286.681.934.934,0,0,1-.286.685A.925.925,0,0,1,32.8-10.077ZM32.066,0V-8.16H33.51V0ZM42.458-12.75h1.436V0H42.508l-.033-1.585A3,3,0,0,1,41.313-.3a3.238,3.238,0,0,1-1.727.473,3.668,3.668,0,0,1-1.478-.3,3.7,3.7,0,0,1-1.216-.847,3.929,3.929,0,0,1-.822-1.349,4.934,4.934,0,0,1-.3-1.751,4.291,4.291,0,0,1,1.108-3.063,3.577,3.577,0,0,1,2.71-1.179,3.252,3.252,0,0,1,1.706.461,3.019,3.019,0,0,1,1.166,1.249ZM39.885-1.071a2.443,2.443,0,0,0,1.9-.859,3.1,3.1,0,0,0,.768-2.146,3.1,3.1,0,0,0-.772-2.142,2.442,2.442,0,0,0-1.893-.863,2.5,2.5,0,0,0-1.909.834A3.069,3.069,0,0,0,37.2-4.076a3.069,3.069,0,0,0,.772,2.171A2.5,2.5,0,0,0,39.885-1.071ZM48.7.158A2.777,2.777,0,0,1,46.912-.4a2.012,2.012,0,0,1-.7-1.673,2.377,2.377,0,0,1,.224-1.067,1.88,1.88,0,0,1,.664-.743,3.983,3.983,0,0,1,.959-.461A8.863,8.863,0,0,1,49.3-4.64l1.32-.216q.722-.133.722-.755a1.426,1.426,0,0,0-.51-1.216,2.08,2.08,0,0,0-1.291-.386,2.119,2.119,0,0,0-1.278.374,1.563,1.563,0,0,0-.606,1.146L46.36-5.968a2.492,2.492,0,0,1,1.021-1.747A3.815,3.815,0,0,1,49.605-8.3a4.512,4.512,0,0,1,1.183.145,3.215,3.215,0,0,1,.988.457,2.047,2.047,0,0,1,.706.88,3.274,3.274,0,0,1,.253,1.341v3.37a1.379,1.379,0,0,0,.187.851.806.806,0,0,0,.643.22H53.7V0h-.714A1.362,1.362,0,0,1,51.44-1.1h-.066A3.118,3.118,0,0,1,48.7.158ZM49.033-1a2.177,2.177,0,0,0,1.751-.789,3.247,3.247,0,0,0,.664-2.158l-2.158.415a2.905,2.905,0,0,0-1.266.452,1.052,1.052,0,0,0-.411.892,1.04,1.04,0,0,0,.394.9A1.685,1.685,0,0,0,49.033-1ZM61.583-12.75H63.02V0H61.633L61.6-1.585A3,3,0,0,1,60.438-.3a3.238,3.238,0,0,1-1.727.473,3.668,3.668,0,0,1-1.478-.3,3.7,3.7,0,0,1-1.216-.847A3.929,3.929,0,0,1,55.2-2.324a4.934,4.934,0,0,1-.3-1.751A4.291,4.291,0,0,1,56-7.139a3.577,3.577,0,0,1,2.71-1.179,3.252,3.252,0,0,1,1.706.461,3.019,3.019,0,0,1,1.166,1.249ZM59.01-1.071a2.443,2.443,0,0,0,1.9-.859,3.1,3.1,0,0,0,.768-2.146A3.1,3.1,0,0,0,60.9-6.217a2.442,2.442,0,0,0-1.893-.863,2.5,2.5,0,0,0-1.909.834,3.069,3.069,0,0,0-.772,2.171A3.069,3.069,0,0,0,57.1-1.905,2.5,2.5,0,0,0,59.01-1.071ZM77.5-4.242l-.017.39H71.1a2.883,2.883,0,0,0,.78,2.088,2.562,2.562,0,0,0,1.859.726,2.447,2.447,0,0,0,1.353-.39,2.532,2.532,0,0,0,.93-1.079l1.295.274A3.681,3.681,0,0,1,75.927-.481a3.8,3.8,0,0,1-2.167.639A3.942,3.942,0,0,1,70.822-.979a4.231,4.231,0,0,1-1.121-3.1,4.21,4.21,0,0,1,1.125-3.1,3.893,3.893,0,0,1,2.893-1.137,3.684,3.684,0,0,1,2.743,1.046A4.133,4.133,0,0,1,77.5-4.242ZM73.719-7.213a2.545,2.545,0,0,0-1.7.577,2.643,2.643,0,0,0-.859,1.681h4.889a2.424,2.424,0,0,0-.714-1.681A2.305,2.305,0,0,0,73.719-7.213ZM79.746,0V-12.75H81.2V0ZM91.259-4.242l-.017.39H84.867a2.883,2.883,0,0,0,.78,2.088,2.562,2.562,0,0,0,1.859.726,2.447,2.447,0,0,0,1.353-.39,2.532,2.532,0,0,0,.93-1.079l1.295.274A3.681,3.681,0,0,1,89.69-.481a3.8,3.8,0,0,1-2.167.639A3.942,3.942,0,0,1,84.585-.979a4.231,4.231,0,0,1-1.121-3.1,4.21,4.21,0,0,1,1.125-3.1,3.893,3.893,0,0,1,2.893-1.137,3.684,3.684,0,0,1,2.743,1.046A4.133,4.133,0,0,1,91.259-4.242ZM87.482-7.213a2.545,2.545,0,0,0-1.7.577,2.643,2.643,0,0,0-.859,1.681h4.889A2.424,2.424,0,0,0,89.1-6.636,2.305,2.305,0,0,0,87.482-7.213ZM96.9.149a3.93,3.93,0,0,1-2.922-1.17,4.175,4.175,0,0,1-1.154-3.063,4.183,4.183,0,0,1,1.15-3.063A3.927,3.927,0,0,1,96.9-8.317a3.959,3.959,0,0,1,2.362.714A3.6,3.6,0,0,1,100.63-5.62L99.286-5.4a2.483,2.483,0,0,0-.921-1.27,2.509,2.509,0,0,0-1.478-.448A2.412,2.412,0,0,0,95-6.284a3.194,3.194,0,0,0-.743,2.2A3.178,3.178,0,0,0,95-1.888a2.418,2.418,0,0,0,1.888.834A2.509,2.509,0,0,0,98.364-1.5a2.483,2.483,0,0,0,.921-1.27l1.345.224a3.607,3.607,0,0,1-1.382,1.98A3.953,3.953,0,0,1,96.9.149ZM105.354,0a2.145,2.145,0,0,1-1.594-.585,2.214,2.214,0,0,1-.581-1.631v-4.8H101.51V-8.16h.614a1.179,1.179,0,0,0,.9-.286,1.409,1.409,0,0,0,.261-.959v-1.478h1.336V-8.16H106.5v1.146h-1.876v4.648a1.237,1.237,0,0,0,.311.9,1.09,1.09,0,0,0,.818.32h.747V0Zm4.624-6.724a2.467,2.467,0,0,1,1.013-1.1,3.05,3.05,0,0,1,1.569-.432V-6.9a2.688,2.688,0,0,0-1.9.606,2.531,2.531,0,0,0-.652,1.934V0h-1.436V-8.16h1.4Zm7.056-2.839,2.083-2.706.764.556-1.859,2.15Zm.548,9.72a4.3,4.3,0,0,1-2.092-.506,3.687,3.687,0,0,1-1.473-1.482,4.551,4.551,0,0,1-.544-2.254,4.157,4.157,0,0,1,1.158-3.075,4,4,0,0,1,2.951-1.158,3.993,3.993,0,0,1,2.955,1.158,4.165,4.165,0,0,1,1.154,3.075A4.168,4.168,0,0,1,120.531-1,4,4,0,0,1,117.581.158Zm-.008-1.2a2.506,2.506,0,0,0,1.93-.838,3.141,3.141,0,0,0,.768-2.208,3.13,3.13,0,0,0-.768-2.2,2.506,2.506,0,0,0-1.93-.838,2.472,2.472,0,0,0-1.913.838,3.15,3.15,0,0,0-.76,2.2,3.162,3.162,0,0,0,.76,2.208A2.472,2.472,0,0,0,117.572-1.038Zm10.218-7.28a2.838,2.838,0,0,1,2.054.739,2.756,2.756,0,0,1,.768,2.083V0h-1.436V-5.171a1.929,1.929,0,0,0-.5-1.461,1.781,1.781,0,0,0-1.278-.473,1.974,1.974,0,0,0-1.453.56,2.274,2.274,0,0,0-.573,1.664V0h-1.436V-8.16h1.436v1.046A2.725,2.725,0,0,1,127.791-8.317Zm6.325-1.76a.934.934,0,0,1-.685-.286.934.934,0,0,1-.286-.685.921.921,0,0,1,.286-.681.941.941,0,0,1,.685-.282.932.932,0,0,1,.677.282.921.921,0,0,1,.286.681.934.934,0,0,1-.286.685A.925.925,0,0,1,134.116-10.077ZM133.385,0V-8.16h1.444V0Zm7.753.149a3.93,3.93,0,0,1-2.922-1.17,4.175,4.175,0,0,1-1.154-3.063,4.183,4.183,0,0,1,1.15-3.063,3.927,3.927,0,0,1,2.926-1.17A3.959,3.959,0,0,1,143.5-7.6a3.6,3.6,0,0,1,1.374,1.984l-1.345.216a2.483,2.483,0,0,0-.921-1.27,2.509,2.509,0,0,0-1.478-.448,2.412,2.412,0,0,0-1.888.838,3.194,3.194,0,0,0-.743,2.2,3.178,3.178,0,0,0,.743,2.2,2.418,2.418,0,0,0,1.888.834,2.509,2.509,0,0,0,1.478-.448,2.483,2.483,0,0,0,.921-1.27l1.345.224a3.607,3.607,0,0,1-1.382,1.98A3.953,3.953,0,0,1,141.138.149Zm7.736.008a2.777,2.777,0,0,1-1.789-.56,2.012,2.012,0,0,1-.7-1.673,2.377,2.377,0,0,1,.224-1.067,1.88,1.88,0,0,1,.664-.743,3.983,3.983,0,0,1,.959-.461,8.863,8.863,0,0,1,1.241-.295l1.32-.216q.722-.133.722-.755A1.426,1.426,0,0,0,151-6.827a2.08,2.08,0,0,0-1.291-.386,2.119,2.119,0,0,0-1.278.374,1.563,1.563,0,0,0-.606,1.146l-1.295-.274a2.492,2.492,0,0,1,1.021-1.747,3.815,3.815,0,0,1,2.225-.585,4.512,4.512,0,0,1,1.183.145,3.215,3.215,0,0,1,.988.457,2.047,2.047,0,0,1,.706.88,3.274,3.274,0,0,1,.253,1.341v3.37a1.379,1.379,0,0,0,.187.851.806.806,0,0,0,.643.22h.133V0h-.714a1.362,1.362,0,0,1-1.544-1.1h-.066A3.118,3.118,0,0,1,148.875.158ZM149.207-1a2.177,2.177,0,0,0,1.751-.789,3.247,3.247,0,0,0,.664-2.158l-2.158.415a2.905,2.905,0,0,0-1.266.452,1.052,1.052,0,0,0-.411.892,1.04,1.04,0,0,0,.394.9A1.685,1.685,0,0,0,149.207-1Z" transform="translate(768 1805)" fill="#082143"/>
    <path id="Trazado_36871" data-name="Trazado 36871" d="M8.1-10.334H3.354v3.827H7.537v1.336H3.354v3.818H8.1V0H1.834V-11.687H8.1ZM10.575,0V-12.75h1.453V0ZM22.088-4.242l-.017.39H15.7a2.883,2.883,0,0,0,.78,2.088,2.562,2.562,0,0,0,1.859.726,2.447,2.447,0,0,0,1.353-.39,2.532,2.532,0,0,0,.93-1.079l1.295.274A3.681,3.681,0,0,1,20.52-.481a3.8,3.8,0,0,1-2.167.639A3.942,3.942,0,0,1,15.415-.979a4.231,4.231,0,0,1-1.121-3.1,4.21,4.21,0,0,1,1.125-3.1,3.893,3.893,0,0,1,2.893-1.137,3.684,3.684,0,0,1,2.743,1.046A4.133,4.133,0,0,1,22.088-4.242ZM18.312-7.213a2.545,2.545,0,0,0-1.7.577,2.643,2.643,0,0,0-.859,1.681h4.889a2.424,2.424,0,0,0-.714-1.681A2.305,2.305,0,0,0,18.312-7.213ZM27.725.149A3.93,3.93,0,0,1,24.8-1.021a4.175,4.175,0,0,1-1.154-3.063A4.183,4.183,0,0,1,24.8-7.147a3.927,3.927,0,0,1,2.926-1.17,3.959,3.959,0,0,1,2.362.714A3.6,3.6,0,0,1,31.46-5.62L30.115-5.4a2.483,2.483,0,0,0-.921-1.27,2.509,2.509,0,0,0-1.478-.448,2.412,2.412,0,0,0-1.888.838,3.194,3.194,0,0,0-.743,2.2,3.178,3.178,0,0,0,.743,2.2,2.418,2.418,0,0,0,1.888.834A2.509,2.509,0,0,0,29.194-1.5a2.483,2.483,0,0,0,.921-1.27l1.345.224a3.607,3.607,0,0,1-1.382,1.98A3.953,3.953,0,0,1,27.725.149ZM36.183,0a2.145,2.145,0,0,1-1.594-.585,2.214,2.214,0,0,1-.581-1.631v-4.8H32.34V-8.16h.614a1.179,1.179,0,0,0,.9-.286,1.409,1.409,0,0,0,.261-.959v-1.478h1.336V-8.16h1.876v1.146H35.453v4.648a1.237,1.237,0,0,0,.311.9,1.09,1.09,0,0,0,.818.32h.747V0Zm4.624-6.724a2.467,2.467,0,0,1,1.013-1.1,3.05,3.05,0,0,1,1.569-.432V-6.9a2.688,2.688,0,0,0-1.9.606,2.531,2.531,0,0,0-.652,1.934V0H39.4V-8.16h1.4ZM48.41.158a4.3,4.3,0,0,1-2.092-.506A3.687,3.687,0,0,1,44.845-1.83,4.551,4.551,0,0,1,44.3-4.084a4.157,4.157,0,0,1,1.158-3.075A4,4,0,0,1,48.41-8.317a3.993,3.993,0,0,1,2.955,1.158,4.165,4.165,0,0,1,1.154,3.075A4.168,4.168,0,0,1,51.361-1,4,4,0,0,1,48.41.158Zm-.008-1.2a2.506,2.506,0,0,0,1.93-.838A3.141,3.141,0,0,0,51.1-4.084a3.13,3.13,0,0,0-.768-2.2,2.506,2.506,0,0,0-1.93-.838,2.472,2.472,0,0,0-1.913.838,3.15,3.15,0,0,0-.76,2.2,3.162,3.162,0,0,0,.76,2.208A2.472,2.472,0,0,0,48.4-1.038ZM58.62-8.317a2.838,2.838,0,0,1,2.054.739A2.756,2.756,0,0,1,61.442-5.5V0H60.006V-5.171a1.929,1.929,0,0,0-.5-1.461,1.781,1.781,0,0,0-1.278-.473,1.974,1.974,0,0,0-1.453.56A2.274,2.274,0,0,0,56.2-4.881V0H54.769V-8.16H56.2v1.046A2.725,2.725,0,0,1,58.62-8.317ZM71.354-4.242l-.017.39H64.962a2.883,2.883,0,0,0,.78,2.088,2.562,2.562,0,0,0,1.859.726,2.447,2.447,0,0,0,1.353-.39,2.532,2.532,0,0,0,.93-1.079l1.295.274A3.681,3.681,0,0,1,69.785-.481a3.8,3.8,0,0,1-2.167.639A3.942,3.942,0,0,1,64.68-.979a4.231,4.231,0,0,1-1.121-3.1,4.21,4.21,0,0,1,1.125-3.1,3.893,3.893,0,0,1,2.893-1.137A3.684,3.684,0,0,1,70.32-7.271,4.133,4.133,0,0,1,71.354-4.242ZM67.577-7.213a2.545,2.545,0,0,0-1.7.577,2.643,2.643,0,0,0-.859,1.681h4.889A2.424,2.424,0,0,0,69.2-6.636,2.305,2.305,0,0,0,67.577-7.213ZM79.513-8.16h1.395V-.415a4.445,4.445,0,0,1-1.054,3.179,3.832,3.832,0,0,1-2.922,1.112,3.857,3.857,0,0,1-3.959-2.5L74.159.8A2.7,2.7,0,0,0,76.89,2.681a2.342,2.342,0,0,0,1.913-.8,3.392,3.392,0,0,0,.66-2.225V-1.851A2.876,2.876,0,0,1,78.3-.677a3.381,3.381,0,0,1-1.7.444,3.5,3.5,0,0,1-2.64-1.15,4.054,4.054,0,0,1-1.087-2.9,4.017,4.017,0,0,1,1.092-2.893,3.533,3.533,0,0,1,2.652-1.141,3.3,3.3,0,0,1,1.71.457,2.939,2.939,0,0,1,1.154,1.2Zm-2.59,6.707a2.469,2.469,0,0,0,1.88-.838,2.833,2.833,0,0,0,.776-1.992,2.852,2.852,0,0,0-.772-2,2.465,2.465,0,0,0-1.884-.838,2.486,2.486,0,0,0-1.88.813,2.836,2.836,0,0,0-.768,2.025,2.813,2.813,0,0,0,.776,2.013A2.488,2.488,0,0,0,76.923-1.453ZM85.714.158A2.777,2.777,0,0,1,83.925-.4a2.012,2.012,0,0,1-.7-1.673,2.377,2.377,0,0,1,.224-1.067,1.88,1.88,0,0,1,.664-.743,3.984,3.984,0,0,1,.959-.461,8.863,8.863,0,0,1,1.241-.295l1.32-.216q.722-.133.722-.755a1.426,1.426,0,0,0-.51-1.216,2.08,2.08,0,0,0-1.291-.386,2.119,2.119,0,0,0-1.278.374,1.563,1.563,0,0,0-.606,1.146l-1.295-.274a2.492,2.492,0,0,1,1.021-1.747A3.815,3.815,0,0,1,86.619-8.3a4.512,4.512,0,0,1,1.183.145,3.215,3.215,0,0,1,.988.457,2.047,2.047,0,0,1,.706.88,3.274,3.274,0,0,1,.253,1.341v3.37a1.379,1.379,0,0,0,.187.851.806.806,0,0,0,.643.22h.133V0H90a1.362,1.362,0,0,1-1.544-1.1h-.066A3.118,3.118,0,0,1,85.714.158ZM86.046-1A2.177,2.177,0,0,0,87.8-1.793a3.247,3.247,0,0,0,.664-2.158L86.3-3.536a2.905,2.905,0,0,0-1.266.452,1.052,1.052,0,0,0-.411.892,1.04,1.04,0,0,0,.394.9A1.685,1.685,0,0,0,86.046-1Zm9.247,1A2.145,2.145,0,0,1,93.7-.585a2.214,2.214,0,0,1-.581-1.631v-4.8H91.45V-8.16h.614a1.179,1.179,0,0,0,.9-.286,1.409,1.409,0,0,0,.261-.959v-1.478h1.336V-8.16h1.876v1.146H94.563v4.648a1.237,1.237,0,0,0,.311.9,1.09,1.09,0,0,0,.818.32h.747V0Zm3.951-10.077a.934.934,0,0,1-.685-.286.934.934,0,0,1-.286-.685.921.921,0,0,1,.286-.681.941.941,0,0,1,.685-.282.932.932,0,0,1,.677.282.921.921,0,0,1,.286.681.934.934,0,0,1-.286.685A.925.925,0,0,1,99.244-10.077ZM98.514,0V-8.16h1.444V0Zm9.455-8.16H109.5L106.184,0h-1.22l-3.3-8.16h1.527l2.391,6.491Zm3.968-1.917a.934.934,0,0,1-.685-.286.934.934,0,0,1-.286-.685.921.921,0,0,1,.286-.681.941.941,0,0,1,.685-.282.932.932,0,0,1,.677.282.921.921,0,0,1,.286.681.934.934,0,0,1-.286.685A.925.925,0,0,1,111.936-10.077ZM111.206,0V-8.16h1.444V0ZM121.6-12.75h1.436V0h-1.386l-.033-1.585A3,3,0,0,1,120.453-.3a3.238,3.238,0,0,1-1.727.473,3.668,3.668,0,0,1-1.478-.3,3.7,3.7,0,0,1-1.216-.847,3.929,3.929,0,0,1-.822-1.349,4.934,4.934,0,0,1-.3-1.751,4.291,4.291,0,0,1,1.108-3.063,3.577,3.577,0,0,1,2.71-1.179,3.252,3.252,0,0,1,1.706.461A3.019,3.019,0,0,1,121.6-6.607ZM119.025-1.071a2.443,2.443,0,0,0,1.9-.859,3.1,3.1,0,0,0,.768-2.146,3.1,3.1,0,0,0-.772-2.142,2.442,2.442,0,0,0-1.893-.863,2.5,2.5,0,0,0-1.909.834,3.069,3.069,0,0,0-.772,2.171,3.069,3.069,0,0,0,.772,2.171A2.5,2.5,0,0,0,119.025-1.071ZM127.84.158a2.777,2.777,0,0,1-1.789-.56,2.012,2.012,0,0,1-.7-1.673,2.377,2.377,0,0,1,.224-1.067,1.88,1.88,0,0,1,.664-.743,3.984,3.984,0,0,1,.959-.461,8.863,8.863,0,0,1,1.241-.295l1.32-.216q.722-.133.722-.755a1.426,1.426,0,0,0-.51-1.216,2.08,2.08,0,0,0-1.291-.386,2.119,2.119,0,0,0-1.278.374,1.563,1.563,0,0,0-.606,1.146L125.5-5.968a2.492,2.492,0,0,1,1.021-1.747,3.815,3.815,0,0,1,2.225-.585,4.512,4.512,0,0,1,1.183.145,3.215,3.215,0,0,1,.988.457,2.047,2.047,0,0,1,.706.88,3.274,3.274,0,0,1,.253,1.341v3.37a1.379,1.379,0,0,0,.187.851.806.806,0,0,0,.643.22h.133V0h-.714a1.362,1.362,0,0,1-1.544-1.1h-.066A3.118,3.118,0,0,1,127.84.158ZM128.172-1a2.177,2.177,0,0,0,1.751-.789,3.247,3.247,0,0,0,.664-2.158l-2.158.415a2.905,2.905,0,0,0-1.266.452,1.052,1.052,0,0,0-.411.892,1.04,1.04,0,0,0,.394.9A1.685,1.685,0,0,0,128.172-1ZM140.723-12.75h1.436V0h-1.386l-.033-1.585A3,3,0,0,1,139.578-.3a3.238,3.238,0,0,1-1.727.473,3.668,3.668,0,0,1-1.478-.3,3.7,3.7,0,0,1-1.216-.847,3.929,3.929,0,0,1-.822-1.349,4.934,4.934,0,0,1-.3-1.751,4.291,4.291,0,0,1,1.108-3.063,3.577,3.577,0,0,1,2.71-1.179,3.252,3.252,0,0,1,1.706.461,3.019,3.019,0,0,1,1.166,1.249ZM138.15-1.071a2.443,2.443,0,0,0,1.9-.859,3.1,3.1,0,0,0,.768-2.146,3.1,3.1,0,0,0-.772-2.142,2.442,2.442,0,0,0-1.893-.863,2.5,2.5,0,0,0-1.909.834,3.069,3.069,0,0,0-.772,2.171,3.069,3.069,0,0,0,.772,2.171A2.5,2.5,0,0,0,138.15-1.071Z" transform="translate(1285 1801)" fill="#082143"/>
    <path id="Trazado_36870" data-name="Trazado 36870" d="M3.08,37V7.169H0L5.5,0,11,7.169H7.7V37Z" transform="translate(1262 1772)" fill="url(#linear-gradient)"/>
    <path id="Trazado_36875" data-name="Trazado 36875" d="M3.238,85.134V7.171H0L5.783,0l5.783,7.171H8.1V85.134Z" transform="translate(1441.664 1805.851) rotate(90)" fill="url(#linear-gradient-2)"/>
    <path id="Trazado_36861" data-name="Trazado 36861" d="M40.5,0h147a40.5,40.5,0,0,1,0,81H40.5a40.5,40.5,0,0,1,0-81Z" transform="translate(726 1509)" fill="#c1ffe9"/>
    <path id="Trazado_36866" data-name="Trazado 36866" d="M-47.009,0l-1.282-3.638H-55.7L-56.982,0H-60.73l6.494-17.639h4.48L-43.262,0Zm-7.617-6.7h5.261l-2.625-7.483Zm24.414-7.715h-6.714v4h5.8v3.186h-5.8V0h-3.687V-17.639h10.4ZM-27.087,0V-17.639h3.662V0ZM-6.824-17.639h3.65V0H-7.41l-7.812-12.61V0h-3.65V-17.639h4.187L-6.824-5.1ZM1.392,0V-17.639H5.054V0ZM9.607,0V-17.639h6.384a9.953,9.953,0,0,1,3.68.635,6.779,6.779,0,0,1,2.637,1.8,7.833,7.833,0,0,1,1.563,2.777,11.466,11.466,0,0,1,.531,3.6,11.508,11.508,0,0,1-.531,3.613,7.833,7.833,0,0,1-1.562,2.777,6.779,6.779,0,0,1-2.637,1.8A9.953,9.953,0,0,1,15.991,0Zm3.662-3.235h2.539a4.333,4.333,0,0,0,3.564-1.434,6.429,6.429,0,0,0,1.172-4.156,6.429,6.429,0,0,0-1.172-4.156,4.333,4.333,0,0,0-3.564-1.434H13.269ZM38.757,0,37.476-3.638h-7.41L28.784,0H25.037l6.494-17.639h4.48L42.5,0ZM31.14-6.7H36.4l-2.625-7.483ZM45.154,0V-17.639h6.384a9.953,9.953,0,0,1,3.68.635,6.779,6.779,0,0,1,2.637,1.8,7.833,7.833,0,0,1,1.563,2.777,11.466,11.466,0,0,1,.531,3.6,11.508,11.508,0,0,1-.531,3.613,7.833,7.833,0,0,1-1.562,2.777,6.779,6.779,0,0,1-2.637,1.8A9.953,9.953,0,0,1,51.538,0Zm3.662-3.235h2.539a4.333,4.333,0,0,0,3.564-1.434,6.429,6.429,0,0,0,1.172-4.156,6.429,6.429,0,0,0-1.172-4.156,4.333,4.333,0,0,0-3.564-1.434H48.816ZM-74.176,16.583h-6.543v4h5.8v3.186h-5.8v3.992h6.543V31H-84.406V13.361h10.229Zm7.434,11.182h5.53V31H-70.4V13.361h3.662Zm18.555-11.182H-54.73v4h5.8v3.186h-5.8v3.992h6.543V31H-58.417V13.361h10.229Zm10.913,14.661a9.846,9.846,0,0,1-3.595-.647,8.454,8.454,0,0,1-2.863-1.807,8.144,8.144,0,0,1-1.88-2.869,10,10,0,0,1-.684-3.748,9.555,9.555,0,0,1,1.172-4.791,7.978,7.978,0,0,1,3.217-3.168,9.631,9.631,0,0,1,4.633-1.1A9.36,9.36,0,0,1-32.1,14.545a7.818,7.818,0,0,1,3.162,3.931l-3.418,1.245a4.832,4.832,0,0,0-1.892-2.38,5.4,5.4,0,0,0-3.027-.854,5.181,5.181,0,0,0-3.857,1.538,5.66,5.66,0,0,0-1.514,4.15,5.668,5.668,0,0,0,1.52,4.156,5.175,5.175,0,0,0,3.851,1.544,5.384,5.384,0,0,0,3.021-.861,4.854,4.854,0,0,0,1.9-2.386l3.418,1.245A7.85,7.85,0,0,1-32.1,29.81,9.33,9.33,0,0,1-37.274,31.244ZM-15.7,13.361v3.223h-4.187V31h-3.625V16.583h-4.211V13.361ZM-3.619,31l-4.59-7.764H-9.271V31h-3.662V13.361h6.4a7.4,7.4,0,0,1,2.563.409A4.432,4.432,0,0,1-2.2,14.905a4.862,4.862,0,0,1,1,1.666,6.1,6.1,0,0,1,.336,2.063,4.307,4.307,0,0,1-.964,2.9A4.86,4.86,0,0,1-4.6,23.053L.714,31ZM-9.271,16.4v4.211h2.161q2.747,0,2.747-2.1a1.912,1.912,0,0,0-.671-1.55A3.192,3.192,0,0,0-7.111,16.4ZM9.674,11.713l3.2-4.492,1.733,1.233-2.771,3.259ZM10.76,31.244a9.588,9.588,0,0,1-4.633-1.1,8.008,8.008,0,0,1-3.217-3.18A9.563,9.563,0,0,1,1.74,22.174a9.555,9.555,0,0,1,1.172-4.791,7.978,7.978,0,0,1,3.217-3.168,9.631,9.631,0,0,1,4.633-1.1,9.6,9.6,0,0,1,4.626,1.1,7.989,7.989,0,0,1,3.21,3.168,9.555,9.555,0,0,1,1.172,4.791A9.563,9.563,0,0,1,18.6,26.959a8.008,8.008,0,0,1-3.217,3.18A9.563,9.563,0,0,1,10.76,31.244ZM6.9,26.349a5.181,5.181,0,0,0,3.857,1.538,5.17,5.17,0,0,0,3.857-1.544,5.7,5.7,0,0,0,1.514-4.169,5.66,5.66,0,0,0-1.514-4.15,5.181,5.181,0,0,0-3.857-1.538A5.181,5.181,0,0,0,6.9,18.024a5.66,5.66,0,0,0-1.514,4.15A5.719,5.719,0,0,0,6.9,26.349ZM35.187,13.361h3.65V31H34.6L26.788,18.39V31h-3.65V13.361h4.187L35.187,25.9ZM43.4,31V13.361h3.662V31Zm16.028.244a9.846,9.846,0,0,1-3.595-.647,8.454,8.454,0,0,1-2.863-1.807,8.144,8.144,0,0,1-1.88-2.869,10,10,0,0,1-.684-3.748,9.555,9.555,0,0,1,1.172-4.791A7.978,7.978,0,0,1,54.8,14.215a9.631,9.631,0,0,1,4.633-1.1,9.36,9.36,0,0,1,5.176,1.428,7.818,7.818,0,0,1,3.162,3.931l-3.418,1.245a4.832,4.832,0,0,0-1.892-2.38,5.4,5.4,0,0,0-3.027-.854,5.181,5.181,0,0,0-3.857,1.538,5.66,5.66,0,0,0-1.514,4.15,5.668,5.668,0,0,0,1.52,4.156,5.175,5.175,0,0,0,3.851,1.544,5.384,5.384,0,0,0,3.021-.861,4.854,4.854,0,0,0,1.9-2.386l3.418,1.245a7.85,7.85,0,0,1-3.162,3.937A9.33,9.33,0,0,1,59.43,31.244ZM82.574,31l-1.282-3.638h-7.41L72.6,31H68.854l6.494-17.639h4.48L86.322,31Zm-7.617-6.7h5.261l-2.625-7.483Z" transform="translate(841 1543)" fill="#082143"/>
    <path id="Trazado_36862" data-name="Trazado 36862" d="M40.5,0h147a40.5,40.5,0,0,1,0,81H40.5a40.5,40.5,0,0,1,0-81Z" transform="translate(984 1509)" fill="#c1ffe9"/>
    <path id="Trazado_36867" data-name="Trazado 36867" d="M-60.583-17.639A5.308,5.308,0,0,1-56.519-16a5.711,5.711,0,0,1,1.538,4.059A5.571,5.571,0,0,1-56.506-7.9a5.4,5.4,0,0,1-4.077,1.581h-3.674V0H-67.92V-17.639Zm-.61,8.252a2.691,2.691,0,0,0,2.014-.69,2.623,2.623,0,0,0,.671-1.91,2.6,2.6,0,0,0-.677-1.886,2.667,2.667,0,0,0-2.008-.7h-3.064v5.188Zm17.1,9.631a9.588,9.588,0,0,1-4.633-1.1,8.008,8.008,0,0,1-3.217-3.18,9.563,9.563,0,0,1-1.172-4.785,9.555,9.555,0,0,1,1.172-4.791,7.978,7.978,0,0,1,3.217-3.168,9.631,9.631,0,0,1,4.633-1.1,9.6,9.6,0,0,1,4.626,1.1,7.989,7.989,0,0,1,3.21,3.168,9.555,9.555,0,0,1,1.172,4.791,9.563,9.563,0,0,1-1.172,4.785,8.008,8.008,0,0,1-3.217,3.18A9.563,9.563,0,0,1-44.092.244Zm-3.857-4.9a5.181,5.181,0,0,0,3.857,1.538,5.17,5.17,0,0,0,3.857-1.544,5.7,5.7,0,0,0,1.514-4.169,5.66,5.66,0,0,0-1.514-4.15,5.181,5.181,0,0,0-3.857-1.538,5.181,5.181,0,0,0-3.857,1.538,5.66,5.66,0,0,0-1.514,4.15A5.719,5.719,0,0,0-47.949-4.651Zm25.842-12.988v3.223h-4.187V0h-3.625V-14.417h-4.211v-3.223Zm13,3.223h-6.543v4h5.8v3.186h-5.8v3.992h6.543V0H-19.336V-17.639H-9.106Zm15.82-3.223h3.65V0H6.128L-1.685-12.61V0h-3.65V-17.639h4.187L6.714-5.1ZM22.742.244A9.846,9.846,0,0,1,19.147-.4a8.454,8.454,0,0,1-2.863-1.807A8.144,8.144,0,0,1,14.4-5.078a10,10,0,0,1-.684-3.748,9.555,9.555,0,0,1,1.172-4.791,7.978,7.978,0,0,1,3.217-3.168,9.631,9.631,0,0,1,4.633-1.1,9.36,9.36,0,0,1,5.176,1.428,7.818,7.818,0,0,1,3.162,3.931l-3.418,1.245a4.832,4.832,0,0,0-1.892-2.38,5.4,5.4,0,0,0-3.027-.854,5.181,5.181,0,0,0-3.857,1.538,5.66,5.66,0,0,0-1.514,4.15,5.668,5.668,0,0,0,1.52,4.156,5.175,5.175,0,0,0,3.851,1.544,5.384,5.384,0,0,0,3.021-.861,4.854,4.854,0,0,0,1.9-2.386l3.418,1.245A7.85,7.85,0,0,1,27.917-1.19,9.33,9.33,0,0,1,22.742.244ZM34.082,0V-17.639h3.662V0ZM54.1,0,52.82-3.638H45.41L44.128,0H40.381l6.494-17.639h4.48L57.849,0ZM46.484-6.7h5.261l-2.625-7.483ZM64.16-3.235h5.53V0H60.5V-17.639H64.16ZM-76.251,31V13.361h3.662V31Zm16.028.244a9.588,9.588,0,0,1-4.633-1.1,8.008,8.008,0,0,1-3.217-3.18,9.563,9.563,0,0,1-1.172-4.785,9.555,9.555,0,0,1,1.172-4.791,7.978,7.978,0,0,1,3.217-3.168,9.631,9.631,0,0,1,4.633-1.1,9.6,9.6,0,0,1,4.626,1.1,7.989,7.989,0,0,1,3.21,3.168,9.555,9.555,0,0,1,1.172,4.791,9.563,9.563,0,0,1-1.172,4.785,8.008,8.008,0,0,1-3.217,3.18A9.563,9.563,0,0,1-60.223,31.244Zm-3.857-4.9a5.181,5.181,0,0,0,3.857,1.538,5.17,5.17,0,0,0,3.857-1.544,5.7,5.7,0,0,0,1.514-4.169,5.66,5.66,0,0,0-1.514-4.15,5.181,5.181,0,0,0-3.857-1.538,5.181,5.181,0,0,0-3.857,1.538,5.66,5.66,0,0,0-1.514,4.15A5.719,5.719,0,0,0-64.081,26.349ZM-35.8,13.361h3.65V31h-4.236L-44.2,18.39V31h-3.65V13.361h4.187L-35.8,25.9ZM-27.582,31V13.361h3.662V31Zm11.426-3.235h8.472V31H-20.538V28.107l8.362-11.523h-8.35V13.361H-7.843v2.893ZM7.477,31,6.2,27.362h-7.41L-2.5,31H-6.244L.25,13.361H4.73L11.224,31ZM-.14,24.3H5.121L2.5,16.815Zm20.947,6.946a9.846,9.846,0,0,1-3.595-.647,8.454,8.454,0,0,1-2.863-1.807,8.144,8.144,0,0,1-1.88-2.869,10,10,0,0,1-.684-3.748,9.555,9.555,0,0,1,1.172-4.791,7.978,7.978,0,0,1,3.217-3.168,9.631,9.631,0,0,1,4.633-1.1,9.36,9.36,0,0,1,5.176,1.428,7.818,7.818,0,0,1,3.162,3.931l-3.418,1.245a4.832,4.832,0,0,0-1.892-2.38,5.4,5.4,0,0,0-3.027-.854,5.181,5.181,0,0,0-3.857,1.538,5.66,5.66,0,0,0-1.514,4.15,5.668,5.668,0,0,0,1.52,4.156,5.175,5.175,0,0,0,3.851,1.544,5.384,5.384,0,0,0,3.021-.861,4.854,4.854,0,0,0,1.9-2.386l3.418,1.245a7.85,7.85,0,0,1-3.162,3.937A9.33,9.33,0,0,1,20.807,31.244ZM32.147,31V13.361h3.662V31ZM47.089,11.713l3.2-4.492L52.02,8.454l-2.771,3.259Zm1.086,19.531a9.588,9.588,0,0,1-4.633-1.1,8.008,8.008,0,0,1-3.217-3.18,9.563,9.563,0,0,1-1.172-4.785,9.555,9.555,0,0,1,1.172-4.791,7.978,7.978,0,0,1,3.217-3.168,10.3,10.3,0,0,1,9.259,0,7.989,7.989,0,0,1,3.21,3.168,9.555,9.555,0,0,1,1.172,4.791,9.563,9.563,0,0,1-1.172,4.785,8.008,8.008,0,0,1-3.217,3.18A9.563,9.563,0,0,1,48.175,31.244Zm-3.857-4.9a5.6,5.6,0,0,0,7.715-.006,5.7,5.7,0,0,0,1.514-4.169,5.66,5.66,0,0,0-1.514-4.15,5.606,5.606,0,0,0-7.715,0,5.66,5.66,0,0,0-1.514,4.15A5.719,5.719,0,0,0,44.318,26.349ZM72.6,13.361h3.65V31H72.015L64.2,18.39V31h-3.65V13.361H64.74L72.6,25.9Z" transform="translate(1099 1543)" fill="#082143"/>
    <path id="Trazado_36868" data-name="Trazado 36868" d="M9.338,0l-1-2.8H3.046L2.05,0H.5L4.806-11.687H6.583L10.891,0ZM3.52-4.109h4.35L5.694-10.193ZM17.93-8.16h1.436V0H17.988l-.033-1.079a2.547,2.547,0,0,1-1.013.917,3.115,3.115,0,0,1-1.428.32A2.838,2.838,0,0,1,13.46-.581a2.756,2.756,0,0,1-.768-2.083v-5.5h1.436v5.171a1.936,1.936,0,0,0,.5,1.461,1.778,1.778,0,0,0,1.282.481,1.952,1.952,0,0,0,1.448-.564,2.3,2.3,0,0,0,.569-1.668Zm12.7-.158a2.63,2.63,0,0,1,1.9.693,2.571,2.571,0,0,1,.722,1.947V0H31.817V-5.3a1.844,1.844,0,0,0-.448-1.345,1.526,1.526,0,0,0-1.137-.457,1.611,1.611,0,0,0-1.245.515,2.213,2.213,0,0,0-.473,1.544V0H27.052V-5.246a1.929,1.929,0,0,0-.452-1.39,1.539,1.539,0,0,0-1.158-.469,1.6,1.6,0,0,0-1.241.527A2.289,2.289,0,0,0,23.724-5V0H22.288V-8.16h1.436v1.054a2.479,2.479,0,0,1,.934-.9,2.663,2.663,0,0,1,1.3-.315,2.772,2.772,0,0,1,1.395.344,2.145,2.145,0,0,1,.9.992,2.539,2.539,0,0,1,.979-.992A2.8,2.8,0,0,1,30.63-8.317ZM43.172-4.242l-.017.39H36.781a2.883,2.883,0,0,0,.78,2.088,2.562,2.562,0,0,0,1.859.726,2.447,2.447,0,0,0,1.353-.39,2.532,2.532,0,0,0,.93-1.079L43-2.233A3.681,3.681,0,0,1,41.6-.481a3.8,3.8,0,0,1-2.167.639A3.942,3.942,0,0,1,36.5-.979a4.231,4.231,0,0,1-1.121-3.1A4.21,4.21,0,0,1,36.5-7.18,3.893,3.893,0,0,1,39.4-8.317a3.684,3.684,0,0,1,2.743,1.046A4.133,4.133,0,0,1,43.172-4.242ZM39.4-7.213a2.545,2.545,0,0,0-1.7.577,2.643,2.643,0,0,0-.859,1.681h4.889a2.424,2.424,0,0,0-.714-1.681A2.305,2.305,0,0,0,39.4-7.213Zm9.878-1.1a2.838,2.838,0,0,1,2.054.739A2.756,2.756,0,0,1,52.1-5.5V0H50.66V-5.171a1.929,1.929,0,0,0-.5-1.461,1.781,1.781,0,0,0-1.278-.473,1.974,1.974,0,0,0-1.453.56,2.274,2.274,0,0,0-.573,1.664V0H45.422V-8.16h1.436v1.046A2.725,2.725,0,0,1,49.273-8.317ZM57.475,0a2.145,2.145,0,0,1-1.594-.585A2.214,2.214,0,0,1,55.3-2.216v-4.8H53.631V-8.16h.614a1.179,1.179,0,0,0,.9-.286,1.409,1.409,0,0,0,.261-.959v-1.478h1.336V-8.16H58.62v1.146H56.744v4.648a1.237,1.237,0,0,0,.311.9,1.09,1.09,0,0,0,.818.32h.747V0ZM62.48.158A2.777,2.777,0,0,1,60.691-.4a2.012,2.012,0,0,1-.7-1.673,2.377,2.377,0,0,1,.224-1.067,1.88,1.88,0,0,1,.664-.743,3.983,3.983,0,0,1,.959-.461,8.863,8.863,0,0,1,1.241-.295l1.32-.216q.722-.133.722-.755a1.426,1.426,0,0,0-.51-1.216,2.08,2.08,0,0,0-1.291-.386,2.119,2.119,0,0,0-1.278.374,1.563,1.563,0,0,0-.606,1.146l-1.295-.274A2.492,2.492,0,0,1,61.16-7.716,3.815,3.815,0,0,1,63.385-8.3a4.512,4.512,0,0,1,1.183.145,3.215,3.215,0,0,1,.988.457,2.047,2.047,0,0,1,.706.88,3.274,3.274,0,0,1,.253,1.341v3.37a1.379,1.379,0,0,0,.187.851.806.806,0,0,0,.643.22h.133V0h-.714a1.362,1.362,0,0,1-1.544-1.1h-.066A3.118,3.118,0,0,1,62.48.158ZM62.812-1a2.177,2.177,0,0,0,1.751-.789,3.247,3.247,0,0,0,.664-2.158l-2.158.415a2.905,2.905,0,0,0-1.266.452,1.052,1.052,0,0,0-.411.892,1.04,1.04,0,0,0,.394.9A1.685,1.685,0,0,0,62.812-1Z" transform="translate(799 1740)" fill="#082143"/>
    <path id="Trazado_36869" data-name="Trazado 36869" d="M1.834,0V-11.687H5.6a5.589,5.589,0,0,1,2.976.755,4.608,4.608,0,0,1,1.826,2.054A7.217,7.217,0,0,1,11-5.852a7.655,7.655,0,0,1-.344,2.362A5.35,5.35,0,0,1,9.646-1.644a4.424,4.424,0,0,1-1.7,1.212A6.036,6.036,0,0,1,5.6,0ZM3.32-1.353H5.553a3.559,3.559,0,0,0,2.918-1.2,5.053,5.053,0,0,0,.984-3.3,5.011,5.011,0,0,0-.988-3.287,3.562,3.562,0,0,0-2.914-1.2H3.32Zm10.924-8.724a.934.934,0,0,1-.685-.286.934.934,0,0,1-.286-.685.921.921,0,0,1,.286-.681.941.941,0,0,1,.685-.282.932.932,0,0,1,.677.282.921.921,0,0,1,.286.681.934.934,0,0,1-.286.685A.925.925,0,0,1,14.244-10.077ZM13.514,0V-8.16h1.444V0Zm6.948.158a3.868,3.868,0,0,1-2.2-.589,2.438,2.438,0,0,1-1.071-1.677l1.253-.357a1.748,1.748,0,0,0,.668,1.133,2.168,2.168,0,0,0,1.341.4,2.675,2.675,0,0,0,.784-.108,1.257,1.257,0,0,0,.6-.4,1.079,1.079,0,0,0,.241-.743,1.084,1.084,0,0,0-.066-.336,1.441,1.441,0,0,0-.133-.27.822.822,0,0,0-.232-.224,3.065,3.065,0,0,0-.282-.174A2.9,2.9,0,0,0,21-3.341q-.245-.087-.394-.133t-.457-.133q-.307-.087-.473-.137a8.851,8.851,0,0,1-.847-.3,3.713,3.713,0,0,1-.689-.394A1.586,1.586,0,0,1,17.6-5.08a2.177,2.177,0,0,1-.178-.913,2.11,2.11,0,0,1,.4-1.3,2.242,2.242,0,0,1,1.033-.768A4.131,4.131,0,0,1,20.3-8.3a3.545,3.545,0,0,1,1.988.531,2.267,2.267,0,0,1,.992,1.594l-1.179.3a1.563,1.563,0,0,0-.623-1.033,1.982,1.982,0,0,0-1.17-.344,2.02,2.02,0,0,0-1.1.286.962.962,0,0,0-.457.876.872.872,0,0,0,.12.452,1.437,1.437,0,0,0,.245.32,1.505,1.505,0,0,0,.448.245q.324.129.481.174t.6.154q.083.025.125.033.481.125.784.22a4.821,4.821,0,0,1,.706.3,2.346,2.346,0,0,1,.635.444,2.057,2.057,0,0,1,.4.631,2.227,2.227,0,0,1,.166.88,2.376,2.376,0,0,1-.245,1.1,1.915,1.915,0,0,1-.668.751,3.232,3.232,0,0,1-.95.411A4.528,4.528,0,0,1,20.461.158Zm13.6-8.475a2.63,2.63,0,0,1,1.9.693,2.571,2.571,0,0,1,.722,1.947V0H35.253V-5.3a1.844,1.844,0,0,0-.448-1.345,1.526,1.526,0,0,0-1.137-.457,1.611,1.611,0,0,0-1.245.515,2.213,2.213,0,0,0-.473,1.544V0H30.489V-5.246a1.929,1.929,0,0,0-.452-1.39,1.539,1.539,0,0,0-1.158-.469,1.6,1.6,0,0,0-1.241.527A2.289,2.289,0,0,0,27.16-5V0H25.724V-8.16H27.16v1.054a2.479,2.479,0,0,1,.934-.9,2.663,2.663,0,0,1,1.3-.315,2.772,2.772,0,0,1,1.395.344,2.145,2.145,0,0,1,.9.992,2.539,2.539,0,0,1,.979-.992A2.8,2.8,0,0,1,34.066-8.317Zm6.134-1.76a.934.934,0,0,1-.685-.286.934.934,0,0,1-.286-.685.921.921,0,0,1,.286-.681.941.941,0,0,1,.685-.282.932.932,0,0,1,.677.282.921.921,0,0,1,.286.681.934.934,0,0,1-.286.685A.925.925,0,0,1,40.2-10.077ZM39.47,0V-8.16h1.444V0Zm8.218-8.317a2.838,2.838,0,0,1,2.054.739A2.756,2.756,0,0,1,50.51-5.5V0H49.074V-5.171a1.929,1.929,0,0,0-.5-1.461A1.781,1.781,0,0,0,47.3-7.105a1.974,1.974,0,0,0-1.453.56,2.274,2.274,0,0,0-.573,1.664V0H43.836V-8.16h1.436v1.046A2.725,2.725,0,0,1,47.688-8.317Zm10.675.158H59.8V0H58.421l-.033-1.079a2.547,2.547,0,0,1-1.013.917,3.115,3.115,0,0,1-1.428.32,2.838,2.838,0,0,1-2.054-.739,2.756,2.756,0,0,1-.768-2.083v-5.5h1.436v5.171a1.936,1.936,0,0,0,.5,1.461,1.778,1.778,0,0,0,1.282.481,1.952,1.952,0,0,0,1.448-.564,2.3,2.3,0,0,0,.569-1.668Zm9.388,0H69.27l-4.723,12H63.061L64.7-.2,61.525-8.16h1.594l2.3,6.35ZM77.812-4.242l-.017.39H71.42a2.883,2.883,0,0,0,.78,2.088,2.562,2.562,0,0,0,1.859.726,2.447,2.447,0,0,0,1.353-.39,2.532,2.532,0,0,0,.93-1.079l1.295.274A3.681,3.681,0,0,1,76.243-.481a3.8,3.8,0,0,1-2.167.639A3.942,3.942,0,0,1,71.138-.979a4.231,4.231,0,0,1-1.121-3.1,4.21,4.21,0,0,1,1.125-3.1,3.893,3.893,0,0,1,2.893-1.137,3.684,3.684,0,0,1,2.743,1.046A4.133,4.133,0,0,1,77.812-4.242ZM74.035-7.213a2.545,2.545,0,0,0-1.7.577,2.643,2.643,0,0,0-.859,1.681h4.889a2.424,2.424,0,0,0-.714-1.681A2.305,2.305,0,0,0,74.035-7.213Z" transform="translate(540 1740)" fill="#082143"/>
    <path id="Trazado_36873" data-name="Trazado 36873" d="M1.834,0V-11.687H3.32V0Zm8.1.158A4.3,4.3,0,0,1,7.844-.349,3.687,3.687,0,0,1,6.371-1.83a4.551,4.551,0,0,1-.544-2.254A4.157,4.157,0,0,1,6.985-7.159,4,4,0,0,1,9.936-8.317a3.993,3.993,0,0,1,2.955,1.158,4.165,4.165,0,0,1,1.154,3.075A4.168,4.168,0,0,1,12.887-1,4,4,0,0,1,9.936.158Zm-.008-1.2a2.506,2.506,0,0,0,1.93-.838,3.141,3.141,0,0,0,.768-2.208,3.13,3.13,0,0,0-.768-2.2,2.506,2.506,0,0,0-1.93-.838,2.472,2.472,0,0,0-1.913.838,3.15,3.15,0,0,0-.76,2.2,3.162,3.162,0,0,0,.76,2.208A2.472,2.472,0,0,0,9.928-1.038Zm10.218-7.28a2.838,2.838,0,0,1,2.054.739A2.756,2.756,0,0,1,22.968-5.5V0H21.532V-5.171a1.929,1.929,0,0,0-.5-1.461,1.781,1.781,0,0,0-1.278-.473,1.974,1.974,0,0,0-1.453.56,2.274,2.274,0,0,0-.573,1.664V0H16.294V-8.16H17.73v1.046A2.725,2.725,0,0,1,20.146-8.317Zm6.325-1.76a.934.934,0,0,1-.685-.286.934.934,0,0,1-.286-.685.921.921,0,0,1,.286-.681.941.941,0,0,1,.685-.282.932.932,0,0,1,.677.282.921.921,0,0,1,.286.681.934.934,0,0,1-.286.685A.925.925,0,0,1,26.471-10.077ZM25.741,0V-8.16h1.444V0Zm5.5-1.162h4.35V0H29.078l4.3-6.989H29.327V-8.16h6.25ZM39.171.158A2.777,2.777,0,0,1,37.383-.4a2.012,2.012,0,0,1-.7-1.673,2.377,2.377,0,0,1,.224-1.067,1.88,1.88,0,0,1,.664-.743,3.983,3.983,0,0,1,.959-.461,8.863,8.863,0,0,1,1.241-.295l1.32-.216q.722-.133.722-.755a1.426,1.426,0,0,0-.51-1.216,2.08,2.08,0,0,0-1.291-.386,2.119,2.119,0,0,0-1.278.374,1.563,1.563,0,0,0-.606,1.146l-1.295-.274a2.492,2.492,0,0,1,1.021-1.747A3.815,3.815,0,0,1,40.076-8.3a4.512,4.512,0,0,1,1.183.145,3.215,3.215,0,0,1,.988.457,2.047,2.047,0,0,1,.706.88,3.274,3.274,0,0,1,.253,1.341v3.37a1.379,1.379,0,0,0,.187.851.806.806,0,0,0,.643.22h.133V0h-.714a1.362,1.362,0,0,1-1.544-1.1h-.066A3.118,3.118,0,0,1,39.171.158ZM39.5-1a2.177,2.177,0,0,0,1.751-.789,3.247,3.247,0,0,0,.664-2.158l-2.158.415a2.905,2.905,0,0,0-1.266.452,1.052,1.052,0,0,0-.411.892,1.04,1.04,0,0,0,.394.9A1.685,1.685,0,0,0,39.5-1ZM49.415.149a3.93,3.93,0,0,1-2.922-1.17,4.175,4.175,0,0,1-1.154-3.063,4.183,4.183,0,0,1,1.15-3.063,3.927,3.927,0,0,1,2.926-1.17,3.959,3.959,0,0,1,2.362.714A3.6,3.6,0,0,1,53.15-5.62L51.805-5.4a2.483,2.483,0,0,0-.921-1.27,2.509,2.509,0,0,0-1.478-.448,2.412,2.412,0,0,0-1.888.838,3.194,3.194,0,0,0-.743,2.2,3.178,3.178,0,0,0,.743,2.2,2.418,2.418,0,0,0,1.888.834A2.509,2.509,0,0,0,50.884-1.5a2.483,2.483,0,0,0,.921-1.27l1.345.224a3.607,3.607,0,0,1-1.382,1.98A3.953,3.953,0,0,1,49.415.149ZM56-10.077a.934.934,0,0,1-.685-.286.934.934,0,0,1-.286-.685.921.921,0,0,1,.286-.681A.941.941,0,0,1,56-12.011a.932.932,0,0,1,.677.282.921.921,0,0,1,.286.681.934.934,0,0,1-.286.685A.925.925,0,0,1,56-10.077ZM55.267,0V-8.16h1.444V0Zm7.255-9.562L64.6-12.269l.764.556-1.859,2.15Zm.548,9.72a4.3,4.3,0,0,1-2.092-.506A3.687,3.687,0,0,1,59.5-1.83a4.551,4.551,0,0,1-.544-2.254,4.157,4.157,0,0,1,1.158-3.075,4,4,0,0,1,2.951-1.158,3.993,3.993,0,0,1,2.955,1.158,4.165,4.165,0,0,1,1.154,3.075A4.168,4.168,0,0,1,66.02-1,4,4,0,0,1,63.069.158Zm-.008-1.2a2.506,2.506,0,0,0,1.93-.838,3.141,3.141,0,0,0,.768-2.208,3.13,3.13,0,0,0-.768-2.2,2.506,2.506,0,0,0-1.93-.838,2.472,2.472,0,0,0-1.913.838,3.15,3.15,0,0,0-.76,2.2,3.162,3.162,0,0,0,.76,2.208A2.472,2.472,0,0,0,63.061-1.038Zm10.218-7.28a2.838,2.838,0,0,1,2.054.739A2.756,2.756,0,0,1,76.1-5.5V0H74.666V-5.171a1.929,1.929,0,0,0-.5-1.461,1.781,1.781,0,0,0-1.278-.473,1.974,1.974,0,0,0-1.453.56,2.274,2.274,0,0,0-.573,1.664V0H69.428V-8.16h1.436v1.046A2.725,2.725,0,0,1,73.279-8.317Z" transform="translate(1061 1805)" fill="#082143"/>
    <path id="Trazado_37028" data-name="Trazado 37028" d="M9.619-17.639A5.308,5.308,0,0,1,13.684-16a5.711,5.711,0,0,1,1.538,4.059A5.571,5.571,0,0,1,13.7-7.9,5.4,5.4,0,0,1,9.619-6.323H5.945V0H2.283V-17.639Zm-.61,8.252a2.691,2.691,0,0,0,2.014-.69,2.623,2.623,0,0,0,.671-1.91,2.6,2.6,0,0,0-.677-1.886,2.667,2.667,0,0,0-2.008-.7H5.945v5.188ZM27.612,0l-4.59-7.764H21.96V0H18.3V-17.639h6.4a7.4,7.4,0,0,1,2.563.409,4.432,4.432,0,0,1,1.776,1.135,4.862,4.862,0,0,1,1,1.666,6.1,6.1,0,0,1,.336,2.063,4.307,4.307,0,0,1-.964,2.9,4.86,4.86,0,0,1-2.771,1.52L31.946,0ZM21.96-14.6v4.211h2.161q2.747,0,2.747-2.1a1.912,1.912,0,0,0-.671-1.55,3.192,3.192,0,0,0-2.075-.562ZM41.992.244a9.588,9.588,0,0,1-4.633-1.1,8.008,8.008,0,0,1-3.217-3.18,9.563,9.563,0,0,1-1.172-4.785,9.555,9.555,0,0,1,1.172-4.791,7.978,7.978,0,0,1,3.217-3.168,9.631,9.631,0,0,1,4.633-1.1,9.6,9.6,0,0,1,4.626,1.1,7.989,7.989,0,0,1,3.21,3.168A9.555,9.555,0,0,1,51-8.826a9.563,9.563,0,0,1-1.172,4.785,8.008,8.008,0,0,1-3.217,3.18A9.563,9.563,0,0,1,41.992.244Zm-3.857-4.9a5.181,5.181,0,0,0,3.857,1.538A5.17,5.17,0,0,0,45.85-4.657a5.7,5.7,0,0,0,1.514-4.169,5.66,5.66,0,0,0-1.514-4.15,5.181,5.181,0,0,0-3.857-1.538,5.181,5.181,0,0,0-3.857,1.538,5.66,5.66,0,0,0-1.514,4.15A5.719,5.719,0,0,0,38.135-4.651ZM61.707-17.639A5.308,5.308,0,0,1,65.771-16a5.711,5.711,0,0,1,1.538,4.059A5.571,5.571,0,0,1,65.784-7.9a5.4,5.4,0,0,1-4.077,1.581H58.032V0H54.37V-17.639ZM61.1-9.387a2.691,2.691,0,0,0,2.014-.69,2.623,2.623,0,0,0,.671-1.91,2.6,2.6,0,0,0-.677-1.886,2.667,2.667,0,0,0-2.008-.7H58.032v5.188ZM70.386,0V-17.639h3.662V0ZM88.831-14.417H82.288v4h5.8v3.186h-5.8v3.992h6.543V0H78.6V-17.639H88.831ZM92.6,0V-17.639h6.384a9.953,9.953,0,0,1,3.68.635,6.779,6.779,0,0,1,2.637,1.8,7.833,7.833,0,0,1,1.563,2.777,11.466,11.466,0,0,1,.531,3.6,11.508,11.508,0,0,1-.531,3.613A7.833,7.833,0,0,1,105.3-2.435a6.779,6.779,0,0,1-2.637,1.8A9.953,9.953,0,0,1,98.987,0Zm3.662-3.235H98.8a4.333,4.333,0,0,0,3.564-1.434,6.429,6.429,0,0,0,1.172-4.156,6.429,6.429,0,0,0-1.172-4.156A4.333,4.333,0,0,0,98.8-14.417H96.265ZM121.753,0l-1.282-3.638h-7.41L111.78,0h-3.748l6.494-17.639h4.48L125.5,0Zm-7.617-6.7H119.4l-2.625-7.483ZM128.149,0V-17.639h6.384a9.953,9.953,0,0,1,3.68.635,6.779,6.779,0,0,1,2.637,1.8,7.833,7.833,0,0,1,1.563,2.777,11.466,11.466,0,0,1,.531,3.6,11.508,11.508,0,0,1-.531,3.613,7.833,7.833,0,0,1-1.562,2.777,6.779,6.779,0,0,1-2.637,1.8,9.953,9.953,0,0,1-3.68.635Zm3.662-3.235h2.539a4.333,4.333,0,0,0,3.564-1.434,6.429,6.429,0,0,0,1.172-4.156,6.429,6.429,0,0,0-1.172-4.156,4.333,4.333,0,0,0-3.564-1.434h-2.539ZM156.6-14.417h-6.543v4h5.8v3.186h-5.8v3.992H156.6V0H146.375V-17.639H156.6ZM166.235.244a8.522,8.522,0,0,1-4.9-1.349,5.41,5.41,0,0,1-2.38-3.778l3.784-.867a3.213,3.213,0,0,0,1.166,2.228,3.868,3.868,0,0,0,2.472.775,3.193,3.193,0,0,0,1.929-.543,1.832,1.832,0,0,0,.732-1.605A1.712,1.712,0,0,0,168.42-6.2a4.068,4.068,0,0,0-1.239-.8q-.616-.238-1.984-.653-.183-.061-.269-.085-.7-.22-1.123-.366t-1.056-.409a7.031,7.031,0,0,1-1.025-.513,7.508,7.508,0,0,1-.848-.635,3.325,3.325,0,0,1-.708-.812,4.312,4.312,0,0,1-.427-1.013,4.471,4.471,0,0,1-.171-1.257,4.722,4.722,0,0,1,.824-2.777,5.046,5.046,0,0,1,2.222-1.77,8.086,8.086,0,0,1,3.18-.592,10.045,10.045,0,0,1,2.3.256,8.06,8.06,0,0,1,2.057.787,5.039,5.039,0,0,1,1.642,1.453,5.462,5.462,0,0,1,.934,2.142l-3.54.879a2.868,2.868,0,0,0-3.174-2.527,3.475,3.475,0,0,0-1.965.513,1.737,1.737,0,0,0-.769,1.55q0,.964,1.282,1.563a19.1,19.1,0,0,0,2.454.842q.72.22,1.172.366t1.135.427a7.889,7.889,0,0,1,1.111.543,8.22,8.22,0,0,1,.928.677,3.648,3.648,0,0,1,.787.879,4.752,4.752,0,0,1,.482,1.093,4.566,4.566,0,0,1,.2,1.361,5.348,5.348,0,0,1-.354,1.99,4.33,4.33,0,0,1-.97,1.5,5.635,5.635,0,0,1-1.459,1.031,7.077,7.077,0,0,1-1.794.61A10.32,10.32,0,0,1,166.235.244Zm23.8-17.883A5.308,5.308,0,0,1,194.1-16a5.711,5.711,0,0,1,1.538,4.059A5.571,5.571,0,0,1,194.116-7.9a5.4,5.4,0,0,1-4.077,1.581h-3.674V0H182.7V-17.639Zm-.61,8.252a2.691,2.691,0,0,0,2.014-.69,2.623,2.623,0,0,0,.671-1.91,2.6,2.6,0,0,0-.677-1.886,2.667,2.667,0,0,0-2.008-.7h-3.064v5.188Zm19.519-5.029H202.4v4h5.8v3.186h-5.8v3.992h6.543V0H198.718V-17.639h10.229ZM222.034,0l-4.59-7.764h-1.062V0H212.72V-17.639h6.4a7.4,7.4,0,0,1,2.563.409,4.432,4.432,0,0,1,1.776,1.135,4.862,4.862,0,0,1,1,1.666,6.094,6.094,0,0,1,.336,2.063,4.307,4.307,0,0,1-.964,2.9,4.86,4.86,0,0,1-2.771,1.52L226.367,0Zm-5.652-14.6v4.211h2.161q2.747,0,2.747-2.1a1.912,1.912,0,0,0-.671-1.55,3.192,3.192,0,0,0-2.075-.562ZM229.053,0V-17.639h3.662V0Zm14.941-19.287,3.2-4.492,1.733,1.233-2.771,3.259ZM245.081.244a9.588,9.588,0,0,1-4.633-1.1,8.009,8.009,0,0,1-3.217-3.18,9.563,9.563,0,0,1-1.172-4.785,9.555,9.555,0,0,1,1.172-4.791,7.978,7.978,0,0,1,3.217-3.168,9.631,9.631,0,0,1,4.633-1.1,9.6,9.6,0,0,1,4.626,1.1,7.988,7.988,0,0,1,3.21,3.168,9.555,9.555,0,0,1,1.172,4.791,9.563,9.563,0,0,1-1.172,4.785A8.009,8.009,0,0,1,249.7-.861,9.563,9.563,0,0,1,245.081.244Zm-3.857-4.9a5.181,5.181,0,0,0,3.857,1.538,5.17,5.17,0,0,0,3.857-1.544,5.7,5.7,0,0,0,1.514-4.169,5.66,5.66,0,0,0-1.514-4.15,5.181,5.181,0,0,0-3.857-1.538,5.181,5.181,0,0,0-3.857,1.538,5.66,5.66,0,0,0-1.514,4.15A5.719,5.719,0,0,0,241.223-4.651ZM257.458,0V-17.639h6.384a9.953,9.953,0,0,1,3.68.635,6.779,6.779,0,0,1,2.637,1.8,7.833,7.833,0,0,1,1.563,2.777,11.466,11.466,0,0,1,.531,3.6,11.508,11.508,0,0,1-.531,3.613,7.833,7.833,0,0,1-1.562,2.777,6.779,6.779,0,0,1-2.637,1.8,9.953,9.953,0,0,1-3.68.635Zm3.662-3.235h2.539a4.333,4.333,0,0,0,3.564-1.434A6.429,6.429,0,0,0,268.4-8.826a6.429,6.429,0,0,0-1.172-4.156,4.333,4.333,0,0,0-3.564-1.434h-2.539ZM275.684,0V-17.639h3.662V0Zm16.028.244A9.846,9.846,0,0,1,288.116-.4a8.454,8.454,0,0,1-2.863-1.807,8.144,8.144,0,0,1-1.88-2.869,10,10,0,0,1-.684-3.748,9.555,9.555,0,0,1,1.172-4.791,7.978,7.978,0,0,1,3.217-3.168,9.631,9.631,0,0,1,4.633-1.1,9.36,9.36,0,0,1,5.176,1.428,7.818,7.818,0,0,1,3.162,3.931l-3.418,1.245a4.832,4.832,0,0,0-1.892-2.38,5.4,5.4,0,0,0-3.027-.854,5.181,5.181,0,0,0-3.857,1.538,5.66,5.66,0,0,0-1.514,4.15,5.668,5.668,0,0,0,1.52,4.156,5.175,5.175,0,0,0,3.851,1.544,5.384,5.384,0,0,0,3.021-.861,4.854,4.854,0,0,0,1.9-2.386l3.418,1.245a7.85,7.85,0,0,1-3.162,3.937A9.33,9.33,0,0,1,291.711.244ZM314.856,0l-1.282-3.638h-7.41L304.883,0h-3.748l6.494-17.639h4.48L318.6,0Zm-7.617-6.7H312.5l-2.625-7.483ZM327.112.244a8.522,8.522,0,0,1-4.9-1.349,5.41,5.41,0,0,1-2.38-3.778l3.784-.867a3.213,3.213,0,0,0,1.166,2.228,3.868,3.868,0,0,0,2.472.775,3.193,3.193,0,0,0,1.929-.543,1.832,1.832,0,0,0,.732-1.605A1.712,1.712,0,0,0,329.3-6.2a4.068,4.068,0,0,0-1.239-.8q-.616-.238-1.984-.653-.183-.061-.269-.085-.7-.22-1.123-.366t-1.056-.409a7.033,7.033,0,0,1-1.025-.513,7.508,7.508,0,0,1-.848-.635,3.325,3.325,0,0,1-.708-.812,4.312,4.312,0,0,1-.427-1.013,4.472,4.472,0,0,1-.171-1.257,4.722,4.722,0,0,1,.824-2.777,5.046,5.046,0,0,1,2.222-1.77,8.086,8.086,0,0,1,3.18-.592,10.045,10.045,0,0,1,2.3.256,8.06,8.06,0,0,1,2.057.787,5.038,5.038,0,0,1,1.642,1.453,5.462,5.462,0,0,1,.934,2.142l-3.54.879a2.868,2.868,0,0,0-3.174-2.527,3.475,3.475,0,0,0-1.965.513,1.737,1.737,0,0,0-.769,1.55q0,.964,1.282,1.563a19.1,19.1,0,0,0,2.454.842q.72.22,1.172.366t1.135.427a7.889,7.889,0,0,1,1.111.543,8.22,8.22,0,0,1,.928.677,3.649,3.649,0,0,1,.787.879,4.752,4.752,0,0,1,.482,1.093,4.566,4.566,0,0,1,.2,1.361,5.348,5.348,0,0,1-.354,1.99,4.33,4.33,0,0,1-.97,1.5A5.636,5.636,0,0,1,330.92-.555a7.077,7.077,0,0,1-1.794.61A10.32,10.32,0,0,1,327.112.244Z" transform="translate(793 1407)" fill="#1ec488"/>
    <path id="Trazado_37029" data-name="Trazado 37029" d="M9.619-17.639A5.308,5.308,0,0,1,13.684-16a5.711,5.711,0,0,1,1.538,4.059A5.571,5.571,0,0,1,13.7-7.9,5.4,5.4,0,0,1,9.619-6.323H5.945V0H2.283V-17.639Zm-.61,8.252a2.691,2.691,0,0,0,2.014-.69,2.623,2.623,0,0,0,.671-1.91,2.6,2.6,0,0,0-.677-1.886,2.667,2.667,0,0,0-2.008-.7H5.945v5.188Zm19.519-5.029H21.985v4h5.8v3.186h-5.8v3.992h6.543V0H18.3V-17.639H28.528ZM41.614,0l-4.59-7.764H35.962V0H32.3V-17.639h6.4a7.4,7.4,0,0,1,2.563.409,4.432,4.432,0,0,1,1.776,1.135,4.862,4.862,0,0,1,1,1.666,6.1,6.1,0,0,1,.336,2.063,4.307,4.307,0,0,1-.964,2.9,4.86,4.86,0,0,1-2.771,1.52L45.947,0ZM35.962-14.6v4.211h2.161q2.747,0,2.747-2.1a1.912,1.912,0,0,0-.671-1.55,3.192,3.192,0,0,0-2.075-.562Zm13.391-4.687,3.479-1.55ZM48.633,0V-17.639h3.662V0ZM64.661.244a9.588,9.588,0,0,1-4.633-1.1,8.008,8.008,0,0,1-3.217-3.18A9.563,9.563,0,0,1,55.64-8.826a9.555,9.555,0,0,1,1.172-4.791,7.978,7.978,0,0,1,3.217-3.168,9.631,9.631,0,0,1,4.633-1.1,9.6,9.6,0,0,1,4.626,1.1,7.989,7.989,0,0,1,3.21,3.168,9.555,9.555,0,0,1,1.172,4.791A9.563,9.563,0,0,1,72.5-4.041a8.008,8.008,0,0,1-3.217,3.18A9.563,9.563,0,0,1,64.661.244ZM60.8-4.651a5.181,5.181,0,0,0,3.857,1.538,5.17,5.17,0,0,0,3.857-1.544,5.7,5.7,0,0,0,1.514-4.169,5.66,5.66,0,0,0-1.514-4.15,5.181,5.181,0,0,0-3.857-1.538A5.181,5.181,0,0,0,60.8-12.976a5.66,5.66,0,0,0-1.514,4.15A5.719,5.719,0,0,0,60.8-4.651ZM77.039,0V-17.639h6.384A9.953,9.953,0,0,1,87.1-17a6.779,6.779,0,0,1,2.637,1.8A7.833,7.833,0,0,1,91.3-12.427a11.466,11.466,0,0,1,.531,3.6A11.508,11.508,0,0,1,91.3-5.212,7.833,7.833,0,0,1,89.74-2.435,6.779,6.779,0,0,1,87.1-.635,9.953,9.953,0,0,1,83.423,0ZM80.7-3.235H83.24A4.333,4.333,0,0,0,86.8-4.669a6.429,6.429,0,0,0,1.172-4.156A6.429,6.429,0,0,0,86.8-12.982a4.333,4.333,0,0,0-3.564-1.434H80.7ZM103.076.244a9.588,9.588,0,0,1-4.633-1.1,8.008,8.008,0,0,1-3.217-3.18,9.563,9.563,0,0,1-1.172-4.785,9.555,9.555,0,0,1,1.172-4.791,7.978,7.978,0,0,1,3.217-3.168,9.631,9.631,0,0,1,4.633-1.1,9.6,9.6,0,0,1,4.626,1.1,7.989,7.989,0,0,1,3.21,3.168,9.555,9.555,0,0,1,1.172,4.791,9.563,9.563,0,0,1-1.172,4.785A8.008,8.008,0,0,1,107.7-.861,9.563,9.563,0,0,1,103.076.244Zm-3.857-4.9a5.181,5.181,0,0,0,3.857,1.538,5.17,5.17,0,0,0,3.857-1.544,5.7,5.7,0,0,0,1.514-4.169,5.66,5.66,0,0,0-1.514-4.15,5.181,5.181,0,0,0-3.857-1.538,5.181,5.181,0,0,0-3.857,1.538,5.66,5.66,0,0,0-1.514,4.15A5.719,5.719,0,0,0,99.219-4.651Zm22,4.9a8.522,8.522,0,0,1-4.9-1.349,5.41,5.41,0,0,1-2.38-3.778l3.784-.867a3.213,3.213,0,0,0,1.166,2.228,3.868,3.868,0,0,0,2.472.775,3.193,3.193,0,0,0,1.929-.543,1.832,1.832,0,0,0,.732-1.605A1.712,1.712,0,0,0,123.4-6.2a4.068,4.068,0,0,0-1.239-.8q-.616-.238-1.984-.653-.183-.061-.269-.085-.7-.22-1.123-.366t-1.056-.409a7.032,7.032,0,0,1-1.025-.513,7.508,7.508,0,0,1-.848-.635,3.325,3.325,0,0,1-.708-.812,4.312,4.312,0,0,1-.427-1.013,4.471,4.471,0,0,1-.171-1.257,4.722,4.722,0,0,1,.824-2.777,5.046,5.046,0,0,1,2.222-1.77,8.086,8.086,0,0,1,3.18-.592,10.045,10.045,0,0,1,2.3.256,8.06,8.06,0,0,1,2.057.787,5.038,5.038,0,0,1,1.642,1.453,5.462,5.462,0,0,1,.934,2.142l-3.54.879A2.868,2.868,0,0,0,121-14.893a3.475,3.475,0,0,0-1.965.513,1.737,1.737,0,0,0-.769,1.55q0,.964,1.282,1.563a19.1,19.1,0,0,0,2.454.842q.72.22,1.172.366t1.135.427a7.889,7.889,0,0,1,1.111.543,8.22,8.22,0,0,1,.928.677,3.649,3.649,0,0,1,.787.879,4.752,4.752,0,0,1,.482,1.093,4.566,4.566,0,0,1,.2,1.361,5.348,5.348,0,0,1-.354,1.99,4.33,4.33,0,0,1-.97,1.5,5.636,5.636,0,0,1-1.459,1.031,7.077,7.077,0,0,1-1.794.61A10.32,10.32,0,0,1,121.216.244Z" transform="translate(1255 1282)" fill="#082143"/>
  </g>
</svg>
