<svg xmlns="http://www.w3.org/2000/svg" width="534.096" height="431.57" viewBox="0 0 534.096 431.57">
  <g id="Grupo_16123" data-name="Grupo 16123" transform="translate(-5441.904 -5975.43)">
    <g id="Grupo_16090" data-name="Grupo 16090" transform="translate(4805 2188.43)">
      <path id="Trazado_33594" data-name="Trazado 33594" d="M20.5,0A20.5,20.5,0,1,1,0,20.5,20.5,20.5,0,0,1,20.5,0Z" transform="translate(715 4156)" fill="#1ec488"/>
      <path id="Trazado_33599" data-name="Trazado 33599" d="M19.2.867l-1.965.671L14.819-1.05A8.89,8.89,0,0,1,10.071.232,9.227,9.227,0,0,1,6.677-.385,8.138,8.138,0,0,1,3.949-2.118,7.8,7.8,0,0,1,2.136-4.907a10,10,0,0,1-.659-3.7,9.922,9.922,0,0,1,.659-3.68A7.808,7.808,0,0,1,3.949-15.07,8.138,8.138,0,0,1,6.677-16.8a9.227,9.227,0,0,1,3.394-.616,9.193,9.193,0,0,1,3.381.616A8.138,8.138,0,0,1,16.18-15.07,7.875,7.875,0,0,1,18-12.286a9.842,9.842,0,0,1,.665,3.68A8.723,8.723,0,0,1,16.3-2.246ZM3.65-8.606a8.148,8.148,0,0,0,.5,2.924A5.883,5.883,0,0,0,5.524-3.522,6.079,6.079,0,0,0,7.562-2.216a6.8,6.8,0,0,0,2.509.458,6.754,6.754,0,0,0,2.5-.458,6.094,6.094,0,0,0,2.032-1.306,5.82,5.82,0,0,0,1.367-2.161,8.238,8.238,0,0,0,.494-2.924,7.341,7.341,0,0,0-.861-3.632,5.727,5.727,0,0,0-2.295-2.319,6.706,6.706,0,0,0-3.241-.775,6.742,6.742,0,0,0-3.247.775,5.754,5.754,0,0,0-2.307,2.319A7.3,7.3,0,0,0,3.65-8.606Z" transform="translate(725 4184)" fill="#fff"/>
    </g>
    <g id="Grupo_16091" data-name="Grupo 16091" transform="translate(4748 2068.43)">
      <path id="Trazado_33595" data-name="Trazado 33595" d="M20.5,0A20.5,20.5,0,1,1,0,20.5,20.5,20.5,0,0,1,20.5,0Z" transform="translate(770 4156)" fill="#1ec488"/>
      <path id="Trazado_33600" data-name="Trazado 33600" d="M10.059.232A9.131,9.131,0,0,1,6.677-.385,8.166,8.166,0,0,1,3.961-2.118,7.732,7.732,0,0,1,2.155-4.907a10.088,10.088,0,0,1-.653-3.7,9.922,9.922,0,0,1,.659-3.68,7.913,7.913,0,0,1,1.807-2.789,7.974,7.974,0,0,1,2.71-1.733,9.212,9.212,0,0,1,3.381-.61,9.064,9.064,0,0,1,3.357.616,8.1,8.1,0,0,1,2.71,1.733,7.85,7.85,0,0,1,1.807,2.783,9.922,9.922,0,0,1,.659,3.68,10.018,10.018,0,0,1-.659,3.693,7.83,7.83,0,0,1-1.807,2.8,8.1,8.1,0,0,1-2.71,1.733A9.064,9.064,0,0,1,10.059.232Zm0-2.063a6.142,6.142,0,0,0,4.547-1.813,6.731,6.731,0,0,0,1.8-4.962,7.881,7.881,0,0,0-.494-2.856,5.884,5.884,0,0,0-1.355-2.124,5.945,5.945,0,0,0-2.014-1.294,6.753,6.753,0,0,0-2.484-.452,6.835,6.835,0,0,0-2.5.452A6,6,0,0,0,5.53-13.586a5.842,5.842,0,0,0-1.361,2.124,7.881,7.881,0,0,0-.494,2.856,8.015,8.015,0,0,0,.494,2.881A5.825,5.825,0,0,0,5.53-3.589a6.075,6.075,0,0,0,2.026,1.3A6.754,6.754,0,0,0,10.059-1.831Z" transform="translate(780 4184)" fill="#fff"/>
    </g>
    <g id="Grupo_16092" data-name="Grupo 16092" transform="translate(4693 1948.43)">
      <path id="Trazado_33596" data-name="Trazado 33596" d="M20.5,0A20.5,20.5,0,1,1,0,20.5,20.5,20.5,0,0,1,20.5,0Z" transform="translate(824 4156)" fill="#1ec488"/>
      <path id="Trazado_33601" data-name="Trazado 33601" d="M20.874,0H18.75L17.6-14.185,12.109,0H10.8L5.347-14.136,4.187,0H2.051L3.357-17.187H6.238l5.212,13.4,5.225-13.4H19.58Z" transform="translate(832 4184)" fill="#fff"/>
    </g>
    <g id="Grupo_16093" data-name="Grupo 16093" transform="translate(4638 1828.43)">
      <path id="Trazado_33597" data-name="Trazado 33597" d="M20.5,0A20.5,20.5,0,1,1,0,20.5,20.5,20.5,0,0,1,20.5,0Z" transform="translate(877 4156)" fill="#1ec488"/>
      <path id="Trazado_33602" data-name="Trazado 33602" d="M12.573,0,6.4-7.947H4.883V0H2.7V-17.187H4.883v7.263h1.5l5.945-7.263h2.686L8.264-9l7.117,9Z" transform="translate(890 4184)" fill="#fff"/>
    </g>
    <g id="Grupo_16094" data-name="Grupo 16094" transform="translate(4489 1888.43)">
      <path id="Trazado_33598" data-name="Trazado 33598" d="M20.5,0A20.5,20.5,0,1,1,0,20.5,20.5,20.5,0,0,1,20.5,0Z" transform="translate(1027 4156)" fill="#1ec488"/>
      <path id="Trazado_33603" data-name="Trazado 33603" d="M4.883-1.99h5.969V0H2.7V-17.187H4.883Z" transform="translate(1042 4184)" fill="#fff"/>
    </g>
    <g id="Grupo_16095" data-name="Grupo 16095" transform="translate(4439 2008.43)">
      <path id="Trazado_33604" data-name="Trazado 33604" d="M20.5,0A20.5,20.5,0,1,1,0,20.5,20.5,20.5,0,0,1,20.5,0Z" transform="translate(1079 4156)" fill="#1ec488"/>
      <path id="Trazado_33605" data-name="Trazado 33605" d="M14.246-17.187h2.173V0H14.111L4.846-13.9V0H2.7V-17.187H4.98L14.246-3.345Z" transform="translate(1091 4184)" fill="#fff"/>
    </g>
    <g id="Grupo_16096" data-name="Grupo 16096" transform="translate(4384 2128.43)">
      <path id="Trazado_33606" data-name="Trazado 33606" d="M20.5,0A20.5,20.5,0,1,1,0,20.5,20.5,20.5,0,0,1,20.5,0Z" transform="translate(1135 4156)" fill="#1ec488"/>
      <path id="Trazado_33607" data-name="Trazado 33607" d="M9.2-17.187a5.089,5.089,0,0,1,2.692.714,4.824,4.824,0,0,1,1.807,1.91,5.606,5.606,0,0,1,.629,2.649,5.216,5.216,0,0,1-1.422,3.741,4.88,4.88,0,0,1-3.7,1.5H4.883V0H2.7V-17.187ZM8.887-8.582A3.125,3.125,0,0,0,11.279-9.5a3.41,3.41,0,0,0,.867-2.435,3.42,3.42,0,0,0-.867-2.423A3.1,3.1,0,0,0,8.887-15.3h-4v6.714Z" transform="translate(1147 4184)" fill="#fff"/>
    </g>
    <path id="Trazado_37072" data-name="Trazado 37072" d="M1.9-17.932H4.773L13.831-3.406V-17.932h2.307V0H13.416L4.224-14.514V0H1.9Zm18.542,5.554v-1.685a8.951,8.951,0,0,0,3.32-.775,3.82,3.82,0,0,0,1.4-2.57H26.9V0H24.561V-12.378Zm32.312,2.344v2.051H40.027v-2.051Zm0,5.237V-2.71H40.027V-4.8Z" transform="translate(5440 6013.43)" fill="#082143"/>
    <path id="Trazado_37073" data-name="Trazado 37073" d="M1.9-17.932H4.773L13.831-3.406V-17.932h2.307V0H13.416L4.224-14.514V0H1.9ZM18.835,0a10.2,10.2,0,0,1,.934-3.931,7.56,7.56,0,0,1,3.168-3.04l2.344-1.355A11.034,11.034,0,0,0,27.49-9.888a3.21,3.21,0,0,0,1-2.319,3.238,3.238,0,0,0-.916-2.423,3.337,3.337,0,0,0-2.441-.9,3.19,3.19,0,0,0-3.125,1.709,6.118,6.118,0,0,0-.513,2.539H19.263A7.846,7.846,0,0,1,20.1-15q1.428-2.539,5.042-2.539a5.464,5.464,0,0,1,4.388,1.624A5.432,5.432,0,0,1,30.92-12.3a4.912,4.912,0,0,1-1.477,3.589,14.46,14.46,0,0,1-3.064,2.1l-1.672.928a10.832,10.832,0,0,0-1.88,1.257,4.58,4.58,0,0,0-1.538,2.356h9.546V0ZM52.759-10.034v2.051H40.027v-2.051Zm0,5.237V-2.71H40.027V-4.8Z" transform="translate(5440 6072.43)" fill="#082143"/>
    <path id="Trazado_37074" data-name="Trazado 37074" d="M1.9-17.932H4.773L13.831-3.406V-17.932h2.307V0H13.416L4.224-14.514V0H1.9ZM24.548.476a5.493,5.493,0,0,1-4.5-1.7,6.32,6.32,0,0,1-1.4-4.144h2.295a5.692,5.692,0,0,0,.635,2.466A3.339,3.339,0,0,0,24.67-1.526a4.049,4.049,0,0,0,2.783-.928A3.046,3.046,0,0,0,28.5-4.846a2.785,2.785,0,0,0-1.1-2.527,5.59,5.59,0,0,0-3.07-.72q-.22,0-.446.006t-.458.018V-10.01q.342.037.574.049t.5.012a4.587,4.587,0,0,0,2.026-.391,2.482,2.482,0,0,0,1.392-2.441,2.384,2.384,0,0,0-.928-2.014,3.462,3.462,0,0,0-2.161-.708,3.2,3.2,0,0,0-3.04,1.465,5.078,5.078,0,0,0-.525,2.295H19.092a6.593,6.593,0,0,1,.781-3.32Q21.216-17.5,24.6-17.5a6.4,6.4,0,0,1,4.138,1.19A4.185,4.185,0,0,1,30.2-12.866a3.848,3.848,0,0,1-.867,2.612,3.64,3.64,0,0,1-1.392.977A3.793,3.793,0,0,1,30.1-7.819a4.414,4.414,0,0,1,.775,2.643A5.386,5.386,0,0,1,29.224-1.1,6.5,6.5,0,0,1,24.548.476Zm28.21-10.51v2.051H40.027v-2.051Zm0,5.237V-2.71H40.027V-4.8Z" transform="translate(5440 6134.43)" fill="#082143"/>
    <path id="Trazado_37078" data-name="Trazado 37078" d="M1.9-17.932H4.773L13.831-3.406V-17.932h2.307V0H13.416L4.224-14.514V0H1.9ZM26.318-6.189v-7.922l-5.6,7.922ZM26.355,0V-4.272H18.689V-6.421L26.7-17.529h1.855v11.34h2.576v1.917H28.552V0Zm26.4-10.034v2.051H40.027v-2.051Zm0,5.237V-2.71H40.027V-4.8Z" transform="translate(5440 6193.43)" fill="#082143"/>
    <path id="Trazado_37080" data-name="Trazado 37080" d="M1.9-17.932H4.773L13.831-3.406V-17.932h2.307V0H13.416L4.224-14.514V0H1.9ZM21.143-4.456a3.046,3.046,0,0,0,1.746,2.6,4.213,4.213,0,0,0,1.807.366,3.391,3.391,0,0,0,2.893-1.245,4.472,4.472,0,0,0,.94-2.759,3.606,3.606,0,0,0-1.117-2.832,3.877,3.877,0,0,0-2.679-1,4.036,4.036,0,0,0-1.947.439A4.171,4.171,0,0,0,21.4-7.666l-1.9-.11,1.331-9.412h9.082v2.124H22.473l-.745,4.858a5.459,5.459,0,0,1,1.16-.7,5.887,5.887,0,0,1,2.258-.4,5.778,5.778,0,0,1,4.077,1.55A5.127,5.127,0,0,1,30.9-5.823a6.745,6.745,0,0,1-1.532,4.37Q27.832.439,24.475.439A6.227,6.227,0,0,1,20.7-.763,4.769,4.769,0,0,1,18.86-4.456Zm31.616-5.579v2.051H40.027v-2.051Zm0,5.237V-2.71H40.027V-4.8Z" transform="translate(5440 6255.43)" fill="#082143"/>
    <path id="Trazado_37086" data-name="Trazado 37086" d="M1.9-17.932H4.773L13.831-3.406V-17.932h2.307V0H13.416L4.224-14.514V0H1.9Zm23.462.378q2.93,0,4.083,1.52A5.126,5.126,0,0,1,30.6-12.9H28.43a4.007,4.007,0,0,0-.623-1.624,2.77,2.77,0,0,0-2.4-1.1,3.328,3.328,0,0,0-2.93,1.7,9.812,9.812,0,0,0-1.208,4.877,4.777,4.777,0,0,1,1.9-1.66,5.491,5.491,0,0,1,2.344-.488,5.7,5.7,0,0,1,3.833,1.4A5.215,5.215,0,0,1,30.981-5.6a6.352,6.352,0,0,1-1.55,4.218A5.461,5.461,0,0,1,25.012.452,5.667,5.667,0,0,1,20.776-1.41q-1.782-1.862-1.782-6.268a16.87,16.87,0,0,1,.793-5.53Q21.313-17.554,25.366-17.554ZM25.208-1.5A3.015,3.015,0,0,0,27.8-2.667a4.507,4.507,0,0,0,.861-2.753,4.706,4.706,0,0,0-.769-2.557,3.048,3.048,0,0,0-2.8-1.215,3.645,3.645,0,0,0-2.484.94A3.575,3.575,0,0,0,21.545-5.42a4.13,4.13,0,0,0,.97,2.789A3.36,3.36,0,0,0,25.208-1.5Zm27.551-8.533v2.051H40.027v-2.051Zm0,5.237V-2.71H40.027V-4.8Z" transform="translate(5440 6314.43)" fill="#082143"/>
    <path id="Trazado_37093" data-name="Trazado 37093" d="M1.9-17.932H4.773L13.831-3.406V-17.932h2.307V0H13.416L4.224-14.514V0H1.9Zm29.224.745v1.917a20.418,20.418,0,0,0-2.24,2.844,28.839,28.839,0,0,0-2.472,4.37A29.866,29.866,0,0,0,24.8-3.894Q24.451-2.686,23.889,0H21.46a29.915,29.915,0,0,1,3.662-9.961,31.534,31.534,0,0,1,3.516-5.017H18.97v-2.209Zm21.631,7.153v2.051H40.027v-2.051Zm0,5.237V-2.71H40.027V-4.8Z" transform="translate(5440 6376.43)" fill="#082143"/>
    <path id="Trazado_37075" data-name="Trazado 37075" d="M2.393-12.378v-1.685a8.951,8.951,0,0,0,3.32-.775,3.82,3.82,0,0,0,1.4-2.57H8.85V0H6.506V-12.378ZM16.821-4.1a3.2,3.2,0,0,0,.549,1.685,3.452,3.452,0,0,0,2.881,1.062A4.249,4.249,0,0,0,22.4-1.886a1.763,1.763,0,0,0,.928-1.642,1.4,1.4,0,0,0-.745-1.282,8.853,8.853,0,0,0-1.88-.623l-1.746-.439A8.515,8.515,0,0,1,16.492-6.8a2.773,2.773,0,0,1-1.416-2.466,3.768,3.768,0,0,1,1.337-3,5.332,5.332,0,0,1,3.595-1.147,4.991,4.991,0,0,1,4.26,1.733,3.762,3.762,0,0,1,.793,2.368H22.986a2.542,2.542,0,0,0-.525-1.355,3.348,3.348,0,0,0-2.625-.867,3.137,3.137,0,0,0-1.886.476A1.492,1.492,0,0,0,17.31-9.8a1.548,1.548,0,0,0,.842,1.367,5.061,5.061,0,0,0,1.44.537l1.453.354a11.232,11.232,0,0,1,3.174,1.111A2.941,2.941,0,0,1,25.5-3.784,4.037,4.037,0,0,1,24.176-.769,5.638,5.638,0,0,1,20.142.5Q17.224.5,16.01-.824a5.009,5.009,0,0,1-1.3-3.278Z" transform="translate(5662 6013.43)" fill="#082143"/>
    <path id="Trazado_37076" data-name="Trazado 37076" d="M.781,0a10.2,10.2,0,0,1,.934-3.931A7.56,7.56,0,0,1,4.883-6.97L7.227-8.325A11.034,11.034,0,0,0,9.436-9.888a3.21,3.21,0,0,0,1-2.319,3.238,3.238,0,0,0-.916-2.423,3.337,3.337,0,0,0-2.441-.9,3.19,3.19,0,0,0-3.125,1.709,6.118,6.118,0,0,0-.513,2.539H1.208A7.846,7.846,0,0,1,2.051-15q1.428-2.539,5.042-2.539a5.464,5.464,0,0,1,4.388,1.624A5.432,5.432,0,0,1,12.866-12.3a4.912,4.912,0,0,1-1.477,3.589,14.46,14.46,0,0,1-3.064,2.1l-1.672.928a10.832,10.832,0,0,0-1.88,1.257A4.58,4.58,0,0,0,3.235-2.075h9.546V0Zm16.04-4.1a3.2,3.2,0,0,0,.549,1.685,3.452,3.452,0,0,0,2.881,1.062A4.249,4.249,0,0,0,22.4-1.886a1.763,1.763,0,0,0,.928-1.642,1.4,1.4,0,0,0-.745-1.282,8.853,8.853,0,0,0-1.88-.623l-1.746-.439A8.515,8.515,0,0,1,16.492-6.8a2.773,2.773,0,0,1-1.416-2.466,3.768,3.768,0,0,1,1.337-3,5.332,5.332,0,0,1,3.595-1.147,4.991,4.991,0,0,1,4.26,1.733,3.762,3.762,0,0,1,.793,2.368H22.986a2.542,2.542,0,0,0-.525-1.355,3.348,3.348,0,0,0-2.625-.867,3.137,3.137,0,0,0-1.886.476A1.492,1.492,0,0,0,17.31-9.8a1.548,1.548,0,0,0,.842,1.367,5.061,5.061,0,0,0,1.44.537l1.453.354a11.232,11.232,0,0,1,3.174,1.111A2.941,2.941,0,0,1,25.5-3.784,4.037,4.037,0,0,1,24.176-.769,5.638,5.638,0,0,1,20.142.5Q17.224.5,16.01-.824a5.009,5.009,0,0,1-1.3-3.278Z" transform="translate(5662 6074.43)" fill="#082143"/>
    <path id="Trazado_37077" data-name="Trazado 37077" d="M6.494.476A5.493,5.493,0,0,1,2-1.227,6.32,6.32,0,0,1,.6-5.371H2.893a5.692,5.692,0,0,0,.635,2.466A3.339,3.339,0,0,0,6.616-1.526,4.049,4.049,0,0,0,9.4-2.454a3.046,3.046,0,0,0,1.05-2.393,2.785,2.785,0,0,0-1.1-2.527,5.59,5.59,0,0,0-3.07-.72q-.22,0-.446.006t-.458.018V-10.01q.342.037.574.049t.5.012a4.587,4.587,0,0,0,2.026-.391,2.482,2.482,0,0,0,1.392-2.441,2.384,2.384,0,0,0-.928-2.014A3.462,3.462,0,0,0,6.775-15.5a3.2,3.2,0,0,0-3.04,1.465,5.078,5.078,0,0,0-.525,2.295H1.038a6.593,6.593,0,0,1,.781-3.32Q3.162-17.5,6.543-17.5a6.4,6.4,0,0,1,4.138,1.19,4.185,4.185,0,0,1,1.465,3.448,3.848,3.848,0,0,1-.867,2.612,3.64,3.64,0,0,1-1.392.977,3.793,3.793,0,0,1,2.155,1.459,4.414,4.414,0,0,1,.775,2.643A5.386,5.386,0,0,1,11.169-1.1,6.5,6.5,0,0,1,6.494.476ZM16.821-4.1a3.2,3.2,0,0,0,.549,1.685,3.452,3.452,0,0,0,2.881,1.062A4.249,4.249,0,0,0,22.4-1.886a1.763,1.763,0,0,0,.928-1.642,1.4,1.4,0,0,0-.745-1.282,8.853,8.853,0,0,0-1.88-.623l-1.746-.439A8.515,8.515,0,0,1,16.492-6.8a2.773,2.773,0,0,1-1.416-2.466,3.768,3.768,0,0,1,1.337-3,5.332,5.332,0,0,1,3.595-1.147,4.991,4.991,0,0,1,4.26,1.733,3.762,3.762,0,0,1,.793,2.368H22.986a2.542,2.542,0,0,0-.525-1.355,3.348,3.348,0,0,0-2.625-.867,3.137,3.137,0,0,0-1.886.476A1.492,1.492,0,0,0,17.31-9.8a1.548,1.548,0,0,0,.842,1.367,5.061,5.061,0,0,0,1.44.537l1.453.354a11.232,11.232,0,0,1,3.174,1.111A2.941,2.941,0,0,1,25.5-3.784,4.037,4.037,0,0,1,24.176-.769,5.638,5.638,0,0,1,20.142.5Q17.224.5,16.01-.824a5.009,5.009,0,0,1-1.3-3.278Z" transform="translate(5662 6134.43)" fill="#082143"/>
    <path id="Trazado_37079" data-name="Trazado 37079" d="M8.264-6.189v-7.922l-5.6,7.922ZM8.3,0V-4.272H.635V-6.421L8.643-17.529H10.5v11.34h2.576v1.917H10.5V0Zm8.521-4.1a3.2,3.2,0,0,0,.549,1.685,3.452,3.452,0,0,0,2.881,1.062A4.249,4.249,0,0,0,22.4-1.886a1.763,1.763,0,0,0,.928-1.642,1.4,1.4,0,0,0-.745-1.282,8.853,8.853,0,0,0-1.88-.623l-1.746-.439A8.515,8.515,0,0,1,16.492-6.8a2.773,2.773,0,0,1-1.416-2.466,3.768,3.768,0,0,1,1.337-3,5.332,5.332,0,0,1,3.595-1.147,4.991,4.991,0,0,1,4.26,1.733,3.762,3.762,0,0,1,.793,2.368H22.986a2.542,2.542,0,0,0-.525-1.355,3.348,3.348,0,0,0-2.625-.867,3.137,3.137,0,0,0-1.886.476A1.492,1.492,0,0,0,17.31-9.8a1.548,1.548,0,0,0,.842,1.367,5.061,5.061,0,0,0,1.44.537l1.453.354a11.232,11.232,0,0,1,3.174,1.111A2.941,2.941,0,0,1,25.5-3.784,4.037,4.037,0,0,1,24.176-.769,5.638,5.638,0,0,1,20.142.5Q17.224.5,16.01-.824a5.009,5.009,0,0,1-1.3-3.278Z" transform="translate(5662 6195.43)" fill="#082143"/>
    <path id="Trazado_37081" data-name="Trazado 37081" d="M3.088-4.456a3.046,3.046,0,0,0,1.746,2.6,4.213,4.213,0,0,0,1.807.366A3.391,3.391,0,0,0,9.534-2.734a4.472,4.472,0,0,0,.94-2.759A3.606,3.606,0,0,0,9.357-8.325a3.877,3.877,0,0,0-2.679-1,4.036,4.036,0,0,0-1.947.439A4.171,4.171,0,0,0,3.345-7.666l-1.9-.11,1.331-9.412h9.082v2.124H4.419l-.745,4.858a5.459,5.459,0,0,1,1.16-.7,5.887,5.887,0,0,1,2.258-.4,5.778,5.778,0,0,1,4.077,1.55,5.127,5.127,0,0,1,1.672,3.931,6.745,6.745,0,0,1-1.532,4.37Q9.778.439,6.421.439a6.227,6.227,0,0,1-3.778-1.2A4.769,4.769,0,0,1,.806-4.456ZM16.821-4.1a3.2,3.2,0,0,0,.549,1.685,3.452,3.452,0,0,0,2.881,1.062A4.249,4.249,0,0,0,22.4-1.886a1.763,1.763,0,0,0,.928-1.642,1.4,1.4,0,0,0-.745-1.282,8.853,8.853,0,0,0-1.88-.623l-1.746-.439A8.515,8.515,0,0,1,16.492-6.8a2.773,2.773,0,0,1-1.416-2.466,3.768,3.768,0,0,1,1.337-3,5.332,5.332,0,0,1,3.595-1.147,4.991,4.991,0,0,1,4.26,1.733,3.762,3.762,0,0,1,.793,2.368H22.986a2.542,2.542,0,0,0-.525-1.355,3.348,3.348,0,0,0-2.625-.867,3.137,3.137,0,0,0-1.886.476A1.492,1.492,0,0,0,17.31-9.8a1.548,1.548,0,0,0,.842,1.367,5.061,5.061,0,0,0,1.44.537l1.453.354a11.232,11.232,0,0,1,3.174,1.111A2.941,2.941,0,0,1,25.5-3.784,4.037,4.037,0,0,1,24.176-.769,5.638,5.638,0,0,1,20.142.5Q17.224.5,16.01-.824a5.009,5.009,0,0,1-1.3-3.278Z" transform="translate(5662 6255.43)" fill="#082143"/>
    <path id="Trazado_37087" data-name="Trazado 37087" d="M7.312-17.554q2.93,0,4.083,1.52A5.126,5.126,0,0,1,12.549-12.9H10.376a4.007,4.007,0,0,0-.623-1.624,2.77,2.77,0,0,0-2.4-1.1,3.328,3.328,0,0,0-2.93,1.7A9.812,9.812,0,0,0,3.21-9.045a4.777,4.777,0,0,1,1.9-1.66,5.491,5.491,0,0,1,2.344-.488,5.7,5.7,0,0,1,3.833,1.4A5.215,5.215,0,0,1,12.927-5.6a6.352,6.352,0,0,1-1.55,4.218A5.461,5.461,0,0,1,6.958.452,5.667,5.667,0,0,1,2.722-1.41Q.94-3.271.94-7.678a16.87,16.87,0,0,1,.793-5.53Q3.259-17.554,7.312-17.554ZM7.153-1.5A3.015,3.015,0,0,0,9.747-2.667a4.507,4.507,0,0,0,.861-2.753,4.706,4.706,0,0,0-.769-2.557,3.048,3.048,0,0,0-2.8-1.215,3.645,3.645,0,0,0-2.484.94A3.575,3.575,0,0,0,3.491-5.42a4.13,4.13,0,0,0,.97,2.789A3.36,3.36,0,0,0,7.153-1.5Zm9.668-2.6a3.2,3.2,0,0,0,.549,1.685,3.452,3.452,0,0,0,2.881,1.062A4.249,4.249,0,0,0,22.4-1.886a1.763,1.763,0,0,0,.928-1.642,1.4,1.4,0,0,0-.745-1.282,8.853,8.853,0,0,0-1.88-.623l-1.746-.439A8.515,8.515,0,0,1,16.492-6.8a2.773,2.773,0,0,1-1.416-2.466,3.768,3.768,0,0,1,1.337-3,5.332,5.332,0,0,1,3.595-1.147,4.991,4.991,0,0,1,4.26,1.733,3.762,3.762,0,0,1,.793,2.368H22.986a2.542,2.542,0,0,0-.525-1.355,3.348,3.348,0,0,0-2.625-.867,3.137,3.137,0,0,0-1.886.476A1.492,1.492,0,0,0,17.31-9.8a1.548,1.548,0,0,0,.842,1.367,5.061,5.061,0,0,0,1.44.537l1.453.354a11.232,11.232,0,0,1,3.174,1.111A2.941,2.941,0,0,1,25.5-3.784,4.037,4.037,0,0,1,24.176-.769,5.638,5.638,0,0,1,20.142.5Q17.224.5,16.01-.824a5.009,5.009,0,0,1-1.3-3.278Z" transform="translate(5662 6316.43)" fill="#082143"/>
    <path id="Trazado_37094" data-name="Trazado 37094" d="M13.074-17.187v1.917a20.418,20.418,0,0,0-2.24,2.844,28.839,28.839,0,0,0-2.472,4.37A29.866,29.866,0,0,0,6.75-3.894Q6.4-2.686,5.835,0H3.406A29.915,29.915,0,0,1,7.068-9.961a31.534,31.534,0,0,1,3.516-5.017H.916v-2.209ZM16.821-4.1a3.2,3.2,0,0,0,.549,1.685,3.452,3.452,0,0,0,2.881,1.062A4.249,4.249,0,0,0,22.4-1.886a1.763,1.763,0,0,0,.928-1.642,1.4,1.4,0,0,0-.745-1.282,8.853,8.853,0,0,0-1.88-.623l-1.746-.439A8.515,8.515,0,0,1,16.492-6.8a2.773,2.773,0,0,1-1.416-2.466,3.768,3.768,0,0,1,1.337-3,5.332,5.332,0,0,1,3.595-1.147,4.991,4.991,0,0,1,4.26,1.733,3.762,3.762,0,0,1,.793,2.368H22.986a2.542,2.542,0,0,0-.525-1.355,3.348,3.348,0,0,0-2.625-.867,3.137,3.137,0,0,0-1.886.476A1.492,1.492,0,0,0,17.31-9.8a1.548,1.548,0,0,0,.842,1.367,5.061,5.061,0,0,0,1.44.537l1.453.354a11.232,11.232,0,0,1,3.174,1.111A2.941,2.941,0,0,1,25.5-3.784,4.037,4.037,0,0,1,24.176-.769,5.638,5.638,0,0,1,20.142.5Q17.224.5,16.01-.824a5.009,5.009,0,0,1-1.3-3.278Z" transform="translate(5657 6376.43)" fill="#082143"/>
    <path id="Trazado_37082" data-name="Trazado 37082" d="M.781,0a10.2,10.2,0,0,1,.934-3.931A7.56,7.56,0,0,1,4.883-6.97L7.227-8.325A11.034,11.034,0,0,0,9.436-9.888a3.21,3.21,0,0,0,1-2.319,3.238,3.238,0,0,0-.916-2.423,3.337,3.337,0,0,0-2.441-.9,3.19,3.19,0,0,0-3.125,1.709,6.118,6.118,0,0,0-.513,2.539H1.208A7.846,7.846,0,0,1,2.051-15q1.428-2.539,5.042-2.539a5.464,5.464,0,0,1,4.388,1.624A5.432,5.432,0,0,1,12.866-12.3a4.912,4.912,0,0,1-1.477,3.589,14.46,14.46,0,0,1-3.064,2.1l-1.672.928a10.832,10.832,0,0,0-1.88,1.257A4.58,4.58,0,0,0,3.235-2.075h9.546V0ZM21.033-1.477A3.135,3.135,0,0,0,23.59-2.765a6.129,6.129,0,0,0,1.019-3.851A7.189,7.189,0,0,0,24.158-9.3a3.117,3.117,0,0,0-3.125-2.161A3.116,3.116,0,0,0,17.908-9.18a9.047,9.047,0,0,0-.452,3.1A6.573,6.573,0,0,0,17.908-3.5,3.116,3.116,0,0,0,21.033-1.477ZM15.344-13.013H17.48v1.733a5.333,5.333,0,0,1,1.44-1.379,4.636,4.636,0,0,1,2.612-.732,4.912,4.912,0,0,1,3.772,1.7,6.977,6.977,0,0,1,1.55,4.865q0,4.272-2.234,6.1a5.047,5.047,0,0,1-3.3,1.16,4.474,4.474,0,0,1-2.478-.647,5.709,5.709,0,0,1-1.306-1.257V5.212h-2.2Z" transform="translate(5753 6074.43)" fill="#082143"/>
    <path id="Trazado_37083" data-name="Trazado 37083" d="M6.494.476A5.493,5.493,0,0,1,2-1.227,6.32,6.32,0,0,1,.6-5.371H2.893a5.692,5.692,0,0,0,.635,2.466A3.339,3.339,0,0,0,6.616-1.526,4.049,4.049,0,0,0,9.4-2.454a3.046,3.046,0,0,0,1.05-2.393,2.785,2.785,0,0,0-1.1-2.527,5.59,5.59,0,0,0-3.07-.72q-.22,0-.446.006t-.458.018V-10.01q.342.037.574.049t.5.012a4.587,4.587,0,0,0,2.026-.391,2.482,2.482,0,0,0,1.392-2.441,2.384,2.384,0,0,0-.928-2.014A3.462,3.462,0,0,0,6.775-15.5a3.2,3.2,0,0,0-3.04,1.465,5.078,5.078,0,0,0-.525,2.295H1.038a6.593,6.593,0,0,1,.781-3.32Q3.162-17.5,6.543-17.5a6.4,6.4,0,0,1,4.138,1.19,4.185,4.185,0,0,1,1.465,3.448,3.848,3.848,0,0,1-.867,2.612,3.64,3.64,0,0,1-1.392.977,3.793,3.793,0,0,1,2.155,1.459,4.414,4.414,0,0,1,.775,2.643A5.386,5.386,0,0,1,11.169-1.1,6.5,6.5,0,0,1,6.494.476ZM21.033-1.477A3.135,3.135,0,0,0,23.59-2.765a6.129,6.129,0,0,0,1.019-3.851A7.189,7.189,0,0,0,24.158-9.3a3.117,3.117,0,0,0-3.125-2.161A3.116,3.116,0,0,0,17.908-9.18a9.047,9.047,0,0,0-.452,3.1A6.573,6.573,0,0,0,17.908-3.5,3.116,3.116,0,0,0,21.033-1.477ZM15.344-13.013H17.48v1.733a5.333,5.333,0,0,1,1.44-1.379,4.636,4.636,0,0,1,2.612-.732,4.912,4.912,0,0,1,3.772,1.7,6.977,6.977,0,0,1,1.55,4.865q0,4.272-2.234,6.1a5.047,5.047,0,0,1-3.3,1.16,4.474,4.474,0,0,1-2.478-.647,5.709,5.709,0,0,1-1.306-1.257V5.212h-2.2Z" transform="translate(5753 6134.43)" fill="#082143"/>
    <path id="Trazado_37084" data-name="Trazado 37084" d="M8.264-6.189v-7.922l-5.6,7.922ZM8.3,0V-4.272H.635V-6.421L8.643-17.529H10.5v11.34h2.576v1.917H10.5V0ZM21.033-1.477A3.135,3.135,0,0,0,23.59-2.765a6.129,6.129,0,0,0,1.019-3.851A7.189,7.189,0,0,0,24.158-9.3a3.117,3.117,0,0,0-3.125-2.161A3.116,3.116,0,0,0,17.908-9.18a9.047,9.047,0,0,0-.452,3.1A6.573,6.573,0,0,0,17.908-3.5,3.116,3.116,0,0,0,21.033-1.477ZM15.344-13.013H17.48v1.733a5.333,5.333,0,0,1,1.44-1.379,4.636,4.636,0,0,1,2.612-.732,4.912,4.912,0,0,1,3.772,1.7,6.977,6.977,0,0,1,1.55,4.865q0,4.272-2.234,6.1a5.047,5.047,0,0,1-3.3,1.16,4.474,4.474,0,0,1-2.478-.647,5.709,5.709,0,0,1-1.306-1.257V5.212h-2.2Z" transform="translate(5753 6195.43)" fill="#082143"/>
    <path id="Trazado_37085" data-name="Trazado 37085" d="M3.088-4.456a3.046,3.046,0,0,0,1.746,2.6,4.213,4.213,0,0,0,1.807.366A3.391,3.391,0,0,0,9.534-2.734a4.472,4.472,0,0,0,.94-2.759A3.606,3.606,0,0,0,9.357-8.325a3.877,3.877,0,0,0-2.679-1,4.036,4.036,0,0,0-1.947.439A4.171,4.171,0,0,0,3.345-7.666l-1.9-.11,1.331-9.412h9.082v2.124H4.419l-.745,4.858a5.459,5.459,0,0,1,1.16-.7,5.887,5.887,0,0,1,2.258-.4,5.778,5.778,0,0,1,4.077,1.55,5.127,5.127,0,0,1,1.672,3.931,6.745,6.745,0,0,1-1.532,4.37Q9.778.439,6.421.439a6.227,6.227,0,0,1-3.778-1.2A4.769,4.769,0,0,1,.806-4.456ZM21.033-1.477A3.135,3.135,0,0,0,23.59-2.765a6.129,6.129,0,0,0,1.019-3.851A7.189,7.189,0,0,0,24.158-9.3a3.117,3.117,0,0,0-3.125-2.161A3.116,3.116,0,0,0,17.908-9.18a9.047,9.047,0,0,0-.452,3.1A6.573,6.573,0,0,0,17.908-3.5,3.116,3.116,0,0,0,21.033-1.477ZM15.344-13.013H17.48v1.733a5.333,5.333,0,0,1,1.44-1.379,4.636,4.636,0,0,1,2.612-.732,4.912,4.912,0,0,1,3.772,1.7,6.977,6.977,0,0,1,1.55,4.865q0,4.272-2.234,6.1a5.047,5.047,0,0,1-3.3,1.16,4.474,4.474,0,0,1-2.478-.647,5.709,5.709,0,0,1-1.306-1.257V5.212h-2.2Z" transform="translate(5753 6255.43)" fill="#082143"/>
    <path id="Trazado_37088" data-name="Trazado 37088" d="M7.312-17.554q2.93,0,4.083,1.52A5.126,5.126,0,0,1,12.549-12.9H10.376a4.007,4.007,0,0,0-.623-1.624,2.77,2.77,0,0,0-2.4-1.1,3.328,3.328,0,0,0-2.93,1.7A9.812,9.812,0,0,0,3.21-9.045a4.777,4.777,0,0,1,1.9-1.66,5.491,5.491,0,0,1,2.344-.488,5.7,5.7,0,0,1,3.833,1.4A5.215,5.215,0,0,1,12.927-5.6a6.352,6.352,0,0,1-1.55,4.218A5.461,5.461,0,0,1,6.958.452,5.667,5.667,0,0,1,2.722-1.41Q.94-3.271.94-7.678a16.87,16.87,0,0,1,.793-5.53Q3.259-17.554,7.312-17.554ZM7.153-1.5A3.015,3.015,0,0,0,9.747-2.667a4.507,4.507,0,0,0,.861-2.753,4.706,4.706,0,0,0-.769-2.557,3.048,3.048,0,0,0-2.8-1.215,3.645,3.645,0,0,0-2.484.94A3.575,3.575,0,0,0,3.491-5.42a4.13,4.13,0,0,0,.97,2.789A3.36,3.36,0,0,0,7.153-1.5Zm13.879.024A3.135,3.135,0,0,0,23.59-2.765a6.129,6.129,0,0,0,1.019-3.851A7.189,7.189,0,0,0,24.158-9.3a3.117,3.117,0,0,0-3.125-2.161A3.116,3.116,0,0,0,17.908-9.18a9.047,9.047,0,0,0-.452,3.1A6.573,6.573,0,0,0,17.908-3.5,3.116,3.116,0,0,0,21.033-1.477ZM15.344-13.013H17.48v1.733a5.333,5.333,0,0,1,1.44-1.379,4.636,4.636,0,0,1,2.612-.732,4.912,4.912,0,0,1,3.772,1.7,6.977,6.977,0,0,1,1.55,4.865q0,4.272-2.234,6.1a5.047,5.047,0,0,1-3.3,1.16,4.474,4.474,0,0,1-2.478-.647,5.709,5.709,0,0,1-1.306-1.257V5.212h-2.2Z" transform="translate(5753 6316.43)" fill="#082143"/>
    <path id="Trazado_37095" data-name="Trazado 37095" d="M13.074-17.187v1.917a20.418,20.418,0,0,0-2.24,2.844,28.839,28.839,0,0,0-2.472,4.37A29.866,29.866,0,0,0,6.75-3.894Q6.4-2.686,5.835,0H3.406A29.915,29.915,0,0,1,7.068-9.961a31.534,31.534,0,0,1,3.516-5.017H.916v-2.209Zm7.959,15.71A3.135,3.135,0,0,0,23.59-2.765a6.129,6.129,0,0,0,1.019-3.851A7.189,7.189,0,0,0,24.158-9.3a3.117,3.117,0,0,0-3.125-2.161A3.116,3.116,0,0,0,17.908-9.18a9.047,9.047,0,0,0-.452,3.1A6.573,6.573,0,0,0,17.908-3.5,3.116,3.116,0,0,0,21.033-1.477ZM15.344-13.013H17.48v1.733a5.333,5.333,0,0,1,1.44-1.379,4.636,4.636,0,0,1,2.612-.732,4.912,4.912,0,0,1,3.772,1.7,6.977,6.977,0,0,1,1.55,4.865q0,4.272-2.234,6.1a5.047,5.047,0,0,1-3.3,1.16,4.474,4.474,0,0,1-2.478-.647,5.709,5.709,0,0,1-1.306-1.257V5.212h-2.2Z" transform="translate(5748 6376.43)" fill="#082143"/>
    <path id="Trazado_37089" data-name="Trazado 37089" d="M6.494.476A5.493,5.493,0,0,1,2-1.227,6.32,6.32,0,0,1,.6-5.371H2.893a5.692,5.692,0,0,0,.635,2.466A3.339,3.339,0,0,0,6.616-1.526,4.049,4.049,0,0,0,9.4-2.454a3.046,3.046,0,0,0,1.05-2.393,2.785,2.785,0,0,0-1.1-2.527,5.59,5.59,0,0,0-3.07-.72q-.22,0-.446.006t-.458.018V-10.01q.342.037.574.049t.5.012a4.587,4.587,0,0,0,2.026-.391,2.482,2.482,0,0,0,1.392-2.441,2.384,2.384,0,0,0-.928-2.014A3.462,3.462,0,0,0,6.775-15.5a3.2,3.2,0,0,0-3.04,1.465,5.078,5.078,0,0,0-.525,2.295H1.038a6.593,6.593,0,0,1,.781-3.32Q3.162-17.5,6.543-17.5a6.4,6.4,0,0,1,4.138,1.19,4.185,4.185,0,0,1,1.465,3.448,3.848,3.848,0,0,1-.867,2.612,3.64,3.64,0,0,1-1.392.977,3.793,3.793,0,0,1,2.155,1.459,4.414,4.414,0,0,1,.775,2.643A5.386,5.386,0,0,1,11.169-1.1,6.5,6.5,0,0,1,6.494.476Zm10.413-6.86A6.48,6.48,0,0,0,17.8-2.869a3.122,3.122,0,0,0,2.856,1.416,3.009,3.009,0,0,0,2.509-1.312,6.2,6.2,0,0,0,.983-3.766A5.569,5.569,0,0,0,23.132-10.2a3.161,3.161,0,0,0-2.5-1.19,3.3,3.3,0,0,0-2.692,1.27A5.815,5.815,0,0,0,16.907-6.384Zm3.308-6.921a4.651,4.651,0,0,1,2.515.635,5.907,5.907,0,0,1,1.331,1.282v-6.6h2.112V0H24.194V-1.819A4.754,4.754,0,0,1,22.375-.073a5.206,5.206,0,0,1-2.4.537,4.87,4.87,0,0,1-3.784-1.837,7.183,7.183,0,0,1-1.6-4.889,8.439,8.439,0,0,1,1.459-4.95A4.776,4.776,0,0,1,20.215-13.306Z" transform="translate(5835 6134.43)" fill="#082143"/>
    <path id="Trazado_37090" data-name="Trazado 37090" d="M8.264-6.189v-7.922l-5.6,7.922ZM8.3,0V-4.272H.635V-6.421L8.643-17.529H10.5v11.34h2.576v1.917H10.5V0Zm8.606-6.384A6.48,6.48,0,0,0,17.8-2.869a3.122,3.122,0,0,0,2.856,1.416,3.009,3.009,0,0,0,2.509-1.312,6.2,6.2,0,0,0,.983-3.766A5.569,5.569,0,0,0,23.132-10.2a3.161,3.161,0,0,0-2.5-1.19,3.3,3.3,0,0,0-2.692,1.27A5.815,5.815,0,0,0,16.907-6.384Zm3.308-6.921a4.651,4.651,0,0,1,2.515.635,5.907,5.907,0,0,1,1.331,1.282v-6.6h2.112V0H24.194V-1.819A4.754,4.754,0,0,1,22.375-.073a5.206,5.206,0,0,1-2.4.537,4.87,4.87,0,0,1-3.784-1.837,7.183,7.183,0,0,1-1.6-4.889,8.439,8.439,0,0,1,1.459-4.95A4.776,4.776,0,0,1,20.215-13.306Z" transform="translate(5835 6195.43)" fill="#082143"/>
    <path id="Trazado_37091" data-name="Trazado 37091" d="M3.088-4.456a3.046,3.046,0,0,0,1.746,2.6,4.213,4.213,0,0,0,1.807.366A3.391,3.391,0,0,0,9.534-2.734a4.472,4.472,0,0,0,.94-2.759A3.606,3.606,0,0,0,9.357-8.325a3.877,3.877,0,0,0-2.679-1,4.036,4.036,0,0,0-1.947.439A4.171,4.171,0,0,0,3.345-7.666l-1.9-.11,1.331-9.412h9.082v2.124H4.419l-.745,4.858a5.459,5.459,0,0,1,1.16-.7,5.887,5.887,0,0,1,2.258-.4,5.778,5.778,0,0,1,4.077,1.55,5.127,5.127,0,0,1,1.672,3.931,6.745,6.745,0,0,1-1.532,4.37Q9.778.439,6.421.439a6.227,6.227,0,0,1-3.778-1.2A4.769,4.769,0,0,1,.806-4.456ZM16.907-6.384A6.48,6.48,0,0,0,17.8-2.869a3.122,3.122,0,0,0,2.856,1.416,3.009,3.009,0,0,0,2.509-1.312,6.2,6.2,0,0,0,.983-3.766A5.569,5.569,0,0,0,23.132-10.2a3.161,3.161,0,0,0-2.5-1.19,3.3,3.3,0,0,0-2.692,1.27A5.815,5.815,0,0,0,16.907-6.384Zm3.308-6.921a4.651,4.651,0,0,1,2.515.635,5.907,5.907,0,0,1,1.331,1.282v-6.6h2.112V0H24.194V-1.819A4.754,4.754,0,0,1,22.375-.073a5.206,5.206,0,0,1-2.4.537,4.87,4.87,0,0,1-3.784-1.837,7.183,7.183,0,0,1-1.6-4.889,8.439,8.439,0,0,1,1.459-4.95A4.776,4.776,0,0,1,20.215-13.306Z" transform="translate(5835 6255.43)" fill="#082143"/>
    <path id="Trazado_37092" data-name="Trazado 37092" d="M7.312-17.554q2.93,0,4.083,1.52A5.126,5.126,0,0,1,12.549-12.9H10.376a4.007,4.007,0,0,0-.623-1.624,2.77,2.77,0,0,0-2.4-1.1,3.328,3.328,0,0,0-2.93,1.7A9.812,9.812,0,0,0,3.21-9.045a4.777,4.777,0,0,1,1.9-1.66,5.491,5.491,0,0,1,2.344-.488,5.7,5.7,0,0,1,3.833,1.4A5.215,5.215,0,0,1,12.927-5.6a6.352,6.352,0,0,1-1.55,4.218A5.461,5.461,0,0,1,6.958.452,5.667,5.667,0,0,1,2.722-1.41Q.94-3.271.94-7.678a16.87,16.87,0,0,1,.793-5.53Q3.259-17.554,7.312-17.554ZM7.153-1.5A3.015,3.015,0,0,0,9.747-2.667a4.507,4.507,0,0,0,.861-2.753,4.706,4.706,0,0,0-.769-2.557,3.048,3.048,0,0,0-2.8-1.215,3.645,3.645,0,0,0-2.484.94A3.575,3.575,0,0,0,3.491-5.42a4.13,4.13,0,0,0,.97,2.789A3.36,3.36,0,0,0,7.153-1.5Zm9.753-4.883A6.48,6.48,0,0,0,17.8-2.869a3.122,3.122,0,0,0,2.856,1.416,3.009,3.009,0,0,0,2.509-1.312,6.2,6.2,0,0,0,.983-3.766A5.569,5.569,0,0,0,23.132-10.2a3.161,3.161,0,0,0-2.5-1.19,3.3,3.3,0,0,0-2.692,1.27A5.815,5.815,0,0,0,16.907-6.384Zm3.308-6.921a4.651,4.651,0,0,1,2.515.635,5.907,5.907,0,0,1,1.331,1.282v-6.6h2.112V0H24.194V-1.819A4.754,4.754,0,0,1,22.375-.073a5.206,5.206,0,0,1-2.4.537,4.87,4.87,0,0,1-3.784-1.837,7.183,7.183,0,0,1-1.6-4.889,8.439,8.439,0,0,1,1.459-4.95A4.776,4.776,0,0,1,20.215-13.306Z" transform="translate(5835 6316.43)" fill="#082143"/>
    <path id="Trazado_37096" data-name="Trazado 37096" d="M8.264-6.189v-7.922l-5.6,7.922ZM8.3,0V-4.272H.635V-6.421L8.643-17.529H10.5v11.34h2.576v1.917H10.5V0Zm7.764-15.063a3.918,3.918,0,0,1,.476-2,3.365,3.365,0,0,1,2.966-1.123q.208,0,.427.012t.5.037v2q-.342-.024-.494-.031t-.287-.006q-1,0-1.2.519a10.257,10.257,0,0,0-.2,2.643h2.173v1.733h-2.2V0H16.064V-11.279H14.246v-1.733h1.819Z" transform="translate(5917 6195.43)" fill="#082143"/>
    <path id="Trazado_37097" data-name="Trazado 37097" d="M3.088-4.456a3.046,3.046,0,0,0,1.746,2.6,4.213,4.213,0,0,0,1.807.366A3.391,3.391,0,0,0,9.534-2.734a4.472,4.472,0,0,0,.94-2.759A3.606,3.606,0,0,0,9.357-8.325a3.877,3.877,0,0,0-2.679-1,4.036,4.036,0,0,0-1.947.439A4.171,4.171,0,0,0,3.345-7.666l-1.9-.11,1.331-9.412h9.082v2.124H4.419l-.745,4.858a5.459,5.459,0,0,1,1.16-.7,5.887,5.887,0,0,1,2.258-.4,5.778,5.778,0,0,1,4.077,1.55,5.127,5.127,0,0,1,1.672,3.931,6.745,6.745,0,0,1-1.532,4.37Q9.778.439,6.421.439a6.227,6.227,0,0,1-3.778-1.2A4.769,4.769,0,0,1,.806-4.456ZM16.064-15.063a3.918,3.918,0,0,1,.476-2,3.365,3.365,0,0,1,2.966-1.123q.208,0,.427.012t.5.037v2q-.342-.024-.494-.031t-.287-.006q-1,0-1.2.519a10.257,10.257,0,0,0-.2,2.643h2.173v1.733h-2.2V0H16.064V-11.279H14.246v-1.733h1.819Z" transform="translate(5917 6255.43)" fill="#082143"/>
    <g id="Grupo_16097" data-name="Grupo 16097" transform="translate(4885 211.43)">
      <circle id="Elipse_1127" data-name="Elipse 1127" cx="4.5" cy="4.5" r="4.5" transform="translate(834 5764)" fill="red"/>
      <path id="Trazado_33628" data-name="Trazado 33628" d="M4218.5,4472.5l-85.719,50.977" transform="translate(-3380 1296)" fill="none" stroke="red" stroke-width="1"/>
      <path id="Polígono_5" data-name="Polígono 5" d="M6,0l6,11H0Z" transform="matrix(-0.574, -0.819, 0.819, -0.574, 747.936, 5830.57)" fill="#ff0a0a"/>
    </g>
    <g id="Grupo_16098" data-name="Grupo 16098" transform="translate(4885 273.43)">
      <circle id="Elipse_1127-2" data-name="Elipse 1127" cx="4.5" cy="4.5" r="4.5" transform="translate(834 5764)" fill="red"/>
      <path id="Trazado_33628-2" data-name="Trazado 33628" d="M4218.5,4472.5l-85.719,50.977" transform="translate(-3380 1296)" fill="none" stroke="red" stroke-width="1"/>
      <path id="Polígono_5-2" data-name="Polígono 5" d="M6,0l6,11H0Z" transform="matrix(-0.574, -0.819, 0.819, -0.574, 747.936, 5830.57)" fill="#ff0a0a"/>
    </g>
    <g id="Grupo_16099" data-name="Grupo 16099" transform="translate(4885 328.43)">
      <circle id="Elipse_1127-3" data-name="Elipse 1127" cx="4.5" cy="4.5" r="4.5" transform="translate(905 5716)" fill="red"/>
      <path id="Trazado_33628-3" data-name="Trazado 33628" d="M4289.5,4472.5l-156.719,98.977" transform="translate(-3380 1248)" fill="none" stroke="red" stroke-width="1"/>
      <path id="Polígono_5-3" data-name="Polígono 5" d="M6,0l6,11H0Z" transform="matrix(-0.574, -0.819, 0.819, -0.574, 747.936, 5830.57)" fill="#ff0a0a"/>
    </g>
    <g id="Grupo_16100" data-name="Grupo 16100" transform="translate(4885 394.43)">
      <circle id="Elipse_1127-4" data-name="Elipse 1127" cx="4.5" cy="4.5" r="4.5" transform="translate(907 5707)" fill="red"/>
      <path id="Trazado_33628-4" data-name="Trazado 33628" d="M4291.5,4472.5l-158.719,107.977" transform="translate(-3380 1239)" fill="none" stroke="red" stroke-width="1"/>
      <path id="Polígono_5-4" data-name="Polígono 5" d="M6,0l6,11H0Z" transform="matrix(-0.574, -0.819, 0.819, -0.574, 747.936, 5830.57)" fill="#ff0a0a"/>
    </g>
    <g id="Grupo_16101" data-name="Grupo 16101" transform="translate(4885 455.43)">
      <circle id="Elipse_1127-5" data-name="Elipse 1127" cx="4.5" cy="4.5" r="4.5" transform="translate(990 5646)" fill="red"/>
      <path id="Trazado_33628-5" data-name="Trazado 33628" d="M4374.5,4472.5l-241.719,168.977" transform="translate(-3380 1178)" fill="none" stroke="red" stroke-width="1"/>
      <path id="Polígono_5-5" data-name="Polígono 5" d="M6,0l6,11H0Z" transform="matrix(-0.574, -0.819, 0.819, -0.574, 747.936, 5830.57)" fill="#ff0a0a"/>
    </g>
    <g id="Grupo_16102" data-name="Grupo 16102" transform="translate(4885 515.43)">
      <circle id="Elipse_1127-6" data-name="Elipse 1127" cx="4.5" cy="4.5" r="4.5" transform="translate(994 5643)" fill="red"/>
      <path id="Trazado_33628-6" data-name="Trazado 33628" d="M4378.5,4472.5l-245.719,171.977" transform="translate(-3380 1175)" fill="none" stroke="red" stroke-width="1"/>
      <path id="Polígono_5-6" data-name="Polígono 5" d="M6,0l6,11H0Z" transform="matrix(-0.574, -0.819, 0.819, -0.574, 747.936, 5830.57)" fill="#ff0a0a"/>
    </g>
    <g id="Grupo_16103" data-name="Grupo 16103" transform="translate(4885 576.43)">
      <circle id="Elipse_1127-7" data-name="Elipse 1127" cx="4.5" cy="4.5" r="4.5" transform="translate(1071 5584)" fill="red"/>
      <path id="Trazado_33628-7" data-name="Trazado 33628" d="M4455.5,4472.5l-322.719,230.977" transform="translate(-3380 1116)" fill="none" stroke="red" stroke-width="1"/>
      <path id="Polígono_5-7" data-name="Polígono 5" d="M6,0l6,11H0Z" transform="matrix(-0.574, -0.819, 0.819, -0.574, 747.936, 5830.57)" fill="#ff0a0a"/>
    </g>
    <g id="Grupo_16104" data-name="Grupo 16104" transform="translate(4977 571.43)">
      <circle id="Elipse_1127-8" data-name="Elipse 1127" cx="4.5" cy="4.5" r="4.5" transform="translate(990 5641)" fill="red"/>
      <path id="Trazado_33628-8" data-name="Trazado 33628" d="M4374.956,4472.5l-242.173,174.038" transform="translate(-3380 1172.938)" fill="none" stroke="red" stroke-width="1"/>
      <path id="Polígono_5-8" data-name="Polígono 5" d="M6,0l6,11H0Z" transform="matrix(-0.574, -0.819, 0.819, -0.574, 747.936, 5830.57)" fill="#ff0a0a"/>
    </g>
  </g>
</svg>
