<svg xmlns="http://www.w3.org/2000/svg" xmlns:xlink="http://www.w3.org/1999/xlink" width="821.092" height="322.628" viewBox="0 0 821.092 322.628">
  <defs>
    <linearGradient id="linear-gradient" x1="0.5" y1="0.984" x2="0.5" y2="-0.272" gradientUnits="objectBoundingBox">
      <stop offset="0" stop-color="#df8f96"/>
      <stop offset="0.225" stop-color="#d56e78"/>
      <stop offset="0.572" stop-color="#c8434f"/>
      <stop offset="0.842" stop-color="#c02836"/>
      <stop offset="1" stop-color="#be1e2d"/>
    </linearGradient>
  </defs>
  <g id="Grupo_16058" data-name="Grupo 16058" transform="translate(1497.673 -6038.712)">
    <g id="Grupo_16057" data-name="Grupo 16057" transform="translate(-1524.146 5534.569)">
      <g id="Grupo_12920" data-name="Grupo 12920" transform="translate(468.654 504.143)">
        <g id="Grupo_12909" data-name="Grupo 12909">
          <g id="Grupo_12904" data-name="Grupo 12904" transform="translate(127.342 66.845)">
            <path id="Trazado_26398" data-name="Trazado 26398" d="M1034.194,631.755H994.408v3.428h39.786a1.729,1.729,0,1,0,0-3.428Z" transform="translate(-994.408 -630.02)" fill="#939598"/>
            <rect id="Rectángulo_2714" data-name="Rectángulo 2714" width="17.463" height="6.898" rx="3.449" transform="translate(30.792)" fill="#594a42"/>
          </g>
          <g id="Grupo_12905" data-name="Grupo 12905" transform="translate(147.834 22.283)">
            <rect id="Rectángulo_2715" data-name="Rectángulo 2715" width="61.258" height="244.221" fill="#e0e0e0"/>
            <path id="Trazado_26399" data-name="Trazado 26399" d="M1089.38,570.566c-1.387-5.26-3.405-12.91-6.158-12.885-.53,0-.963.376-1.8,1.119-2.077,1.832-2.877,3.8-4.171,7.407-.985,2.748-1.495,4.12-1.672,4.824-1.356,5.369-1.622,10.543-.357,13.673,1.211,3.227,3.954,4.411,7.362,4.011a8.964,8.964,0,0,0,7.318-5.721C1090.849,580.385,1091.167,577.343,1089.38,570.566Z" transform="translate(-1051.903 -551.192)" fill="#f9ed32"/>
            <path id="Trazado_26400" data-name="Trazado 26400" d="M1088.846,655.127a20.149,20.149,0,0,1-3.281-3,12.416,12.416,0,0,1-1.893-3.232c.175-.323.349-.67.517-1.042a15.56,15.56,0,0,0,.948-2.765c.714-2.91,1.344-5.56.833-8.65-.231-1.4-.482-2.793-1.506-3.077-.724-.2-1.2.327-3.15.549-1.394.159-1.668-.053-2.466.11a5.057,5.057,0,0,0-3.15,2.528c-1.234,2.139-.441,4.4,1.216,8.816.524,1.4,1.025,2.531,1.379,3.294a15.232,15.232,0,0,1-2.13,3.77c-1.713,2.234-3.188,2.941-4.437,4.123-3.667,3.472-4.431,10.133-.822,13.3,1.5,1.318,3.666,1.947,6.221,2.689a9.473,9.473,0,0,0,3.918.492,8.222,8.222,0,0,0,3.092-1.046,14.35,14.35,0,0,0,6.081-6.531C1091.341,662.638,1091.872,657.874,1088.846,655.127Z" transform="translate(-1049.199 -586.182)" fill="#ed1c24"/>
            <path id="Trazado_26401" data-name="Trazado 26401" d="M1087.68,740.164c.889-1.461,5.981-9.828,1.722-13.426-2.729-2.306-9-2.4-11.81-.2-2.59,2.036-.366,4.571-2.953,10.267-1.466,3.23-2.422,2.945-3.936,6.318a20.149,20.149,0,0,0-1.722,10.07c.526,5.113,2.794,4.765,4.183,10.662,1.42,6.034-.482,8.41,2.46,11.649,1.332,1.466,3.954,3.437,6.151,2.962,2.462-.533,3.245-3.89,3.691-5.923,1.177-5.371-.67-7.726-1.969-17.572-.578-4.377-.577-6.675.492-9.279C1085.029,743.16,1086.053,742.837,1087.68,740.164Z" transform="translate(-1049.354 -628.567)" fill="url(#linear-gradient)"/>
            <path id="Trazado_26402" data-name="Trazado 26402" d="M1090.035,859.832c-.359-1.816-1.355-6.853-4.011-8.6a8,8,0,0,0,2.449-4.935c.164-2.76-1.684-6.093-4.031-6.319-2.879-.279-6.227,4.139-6.656,8.071-.151,1.373-.076,3.9,1,5.2a9.95,9.95,0,0,0-3.151,6.735c.011,6.363,9.081,11.75,12.62,10.5C1091.884,869.194,1090.216,860.749,1090.035,859.832Z" transform="translate(-1052.476 -681.772)" fill="#474b7a"/>
            <path id="Trazado_26403" data-name="Trazado 26403" d="M1085.01,931.211c-.864,3.347-1.3,5.024-2.051,5.068-1.467.086-3.684-6.032-3.937-11.945-.125-2.937-.444-10.418,3.937-11.945a7.165,7.165,0,0,1,5.557.608c.93.564,2.1,1.7,1.743,2.616s-1.889.68-3.117,1.58c-1.651,1.21-.706,2.974-.984,7.5A31.716,31.716,0,0,1,1085.01,931.211Z" transform="translate(-1054.015 -715.134)" fill="#262262"/>
            <path id="Trazado_26404" data-name="Trazado 26404" d="M1090.6,983.66c.758-2.246-3.676-5.914-8.417-6.037-3.759-.1-8.069,2.023-8.04,4.256.029,2.305,4.674,3.979,8.04,4.256C1085.362,986.4,1089.94,985.62,1090.6,983.66Z" transform="translate(-1051.785 -745.452)" fill="#080828"/>
          </g>
          <g id="Grupo_12907" data-name="Grupo 12907" transform="translate(119.596 57.118)">
            <g id="Grupo_12906" data-name="Grupo 12906" transform="translate(0 2.14)">
              <path id="Trazado_26405" data-name="Trazado 26405" d="M1032.367,636.48H987.731a2.229,2.229,0,0,1-1.488-.534c-4.7-4.262-6.768-8.5-6.138-12.583.842-5.47,6.258-8.54,6.488-8.669a2.358,2.358,0,0,1,1.138-.284h44.635a1.59,1.59,0,1,1,0,3.09H988.425c-1.107.754-3.927,2.972-4.417,6.271-.448,3.016,1.112,6.25,4.638,9.62h43.721a1.59,1.59,0,1,1,0,3.09Z" transform="translate(-979.995 -614.41)" fill="#939598"/>
            </g>
            <rect id="Rectángulo_2716" data-name="Rectángulo 2716" width="17.463" height="6.898" rx="3.449" transform="translate(38.537)" fill="#594a42"/>
            <rect id="Rectángulo_2717" data-name="Rectángulo 2717" width="17.463" height="6.898" rx="3.449" transform="translate(38.537 19.453)" fill="#594a42"/>
          </g>
          <path id="Trazado_26406" data-name="Trazado 26406" d="M896.282,571.294h-77.4V504.143H807.52v67.151H783.35a4.984,4.984,0,0,0,0,6.286H807.52V809.641h11.36V577.579h77.4Z" transform="translate(-768.917 -504.143)" fill="#603913"/>
          <rect id="Rectángulo_2718" data-name="Rectángulo 2718" width="222.253" height="25.148" rx="12.574" transform="translate(24.651 297.479)" fill="#3c2415"/>
          <path id="Trazado_26407" data-name="Trazado 26407" d="M768.783,596.32c-2.855,0-5.339,4.373-6.618,10.82a1.806,1.806,0,0,0-.548-.089c-2.3,0-4.164,4.489-4.164,10.026s1.864,10.027,4.164,10.027a1.807,1.807,0,0,0,.548-.089c1.279,6.446,3.763,10.82,6.618,10.82,4.162,0,7.537-9.293,7.537-20.757S772.945,596.32,768.783,596.32Z" transform="translate(-757.453 -546.783)" fill="#594a42"/>
          <rect id="Rectángulo_2719" data-name="Rectángulo 2719" width="36.753" height="22.72" rx="11.36" transform="translate(28.774 58.934)" fill="#594a42"/>
          <g id="Grupo_12908" data-name="Grupo 12908" transform="translate(129.795 170.448)">
            <path id="Trazado_26408" data-name="Trazado 26408" d="M1022.666,948.341c-10.752,0-19.5-9.478-19.5-21.127V840.094a13.446,13.446,0,0,0-2.784-8.249,6.773,6.773,0,0,1-.851-6.836,5.835,5.835,0,0,1,5.354-3.7H1090.4a5.834,5.834,0,0,1,5.353,3.7,6.773,6.773,0,0,1-.851,6.836,13.447,13.447,0,0,0-2.784,8.249v87.119c0,11.649-8.747,21.127-19.5,21.127Z" transform="translate(-998.973 -821.309)" fill="#7fcae5" opacity="0.5"/>
            <path id="Trazado_26409" data-name="Trazado 26409" d="M1012.93,995.1v12.44c0,9.69,7.25,17.544,16.192,17.544h49.951c8.943,0,16.192-7.855,16.192-17.544V995.1Z" transform="translate(-1005.429 -901.702)" fill="#474d9e"/>
          </g>
          <circle id="Elipse_907" data-name="Elipse 907" cx="13.176" cy="13.176" r="13.176" transform="matrix(0.456, -0.89, 0.89, 0.456, 99.757, 76.02)" fill="#006838"/>
        </g>
        <g id="Grupo_12915" data-name="Grupo 12915" transform="translate(138.143 25.131)">
          <rect id="Rectángulo_2720" data-name="Rectángulo 2720" width="19.99" height="1.075"/>
        </g>
        <g id="Grupo_12916" data-name="Grupo 12916" transform="translate(115.535 224.259)">
          <rect id="Rectángulo_2721" data-name="Rectángulo 2721" width="18.453" height="1.075"/>
        </g>
        <g id="Grupo_12917" data-name="Grupo 12917" transform="translate(121.398 258.195)">
          <rect id="Rectángulo_2722" data-name="Rectángulo 2722" width="48.795" height="1.075"/>
        </g>
        <g id="Grupo_12918" data-name="Grupo 12918" transform="translate(215.542 279.168)">
          <rect id="Rectángulo_2723" data-name="Rectángulo 2723" width="19.581" height="1.075"/>
        </g>
        <g id="Grupo_12919" data-name="Grupo 12919" transform="translate(181.143 73.81)">
          <rect id="Rectángulo_2724" data-name="Rectángulo 2724" width="41.208" height="1.075"/>
        </g>
      </g>
      <g id="Grupo_12933" data-name="Grupo 12933" transform="translate(133.146 504.143)">
        <g id="Grupo_12921" data-name="Grupo 12921" transform="translate(127.342 66.845)">
          <path id="Trazado_26497" data-name="Trazado 26497" d="M409.887,631.755H370.1v3.428h39.786a1.729,1.729,0,1,0,0-3.428Z" transform="translate(-370.101 -630.02)" fill="#939598"/>
          <rect id="Rectángulo_2725" data-name="Rectángulo 2725" width="17.463" height="6.898" rx="3.449" transform="translate(30.792)" fill="#594a42"/>
        </g>
        <rect id="Rectángulo_2726" data-name="Rectángulo 2726" width="61.258" height="244.221" transform="translate(147.834 22.283)" fill="#e6e6e6"/>
        <path id="Trazado_26498" data-name="Trazado 26498" d="M466.294,983.66c.758-2.246-3.676-5.914-8.417-6.037-3.759-.1-8.069,2.023-8.04,4.256.029,2.305,4.674,3.979,8.04,4.256C461.055,986.4,465.633,985.62,466.294,983.66Z" transform="translate(-279.644 -723.169)"/>
        <g id="Grupo_12923" data-name="Grupo 12923" transform="translate(119.596 57.118)">
          <g id="Grupo_12922" data-name="Grupo 12922" transform="translate(0 2.14)">
            <path id="Trazado_26499" data-name="Trazado 26499" d="M408.06,636.48H363.424a2.229,2.229,0,0,1-1.488-.534c-4.7-4.262-6.768-8.5-6.138-12.583.842-5.47,6.258-8.54,6.488-8.669a2.358,2.358,0,0,1,1.138-.284H408.06a1.59,1.59,0,1,1,0,3.09H364.118c-1.107.754-3.927,2.972-4.418,6.271-.448,3.016,1.112,6.25,4.638,9.62H408.06a1.59,1.59,0,1,1,0,3.09Z" transform="translate(-355.688 -614.41)" fill="#939598"/>
          </g>
          <rect id="Rectángulo_2727" data-name="Rectángulo 2727" width="17.463" height="6.898" rx="3.449" transform="translate(38.537)" fill="#594a42"/>
          <rect id="Rectángulo_2728" data-name="Rectángulo 2728" width="17.463" height="6.898" rx="3.449" transform="translate(38.537 19.453)" fill="#594a42"/>
        </g>
        <path id="Trazado_26500" data-name="Trazado 26500" d="M271.975,571.294h-77.4V504.143h-11.36v67.151h-24.17a4.984,4.984,0,0,0,0,6.286h24.17V809.641h11.36V577.579h77.4Z" transform="translate(-144.609 -504.143)" fill="#603913"/>
        <rect id="Rectángulo_2729" data-name="Rectángulo 2729" width="222.253" height="25.148" rx="12.574" transform="translate(24.651 297.479)" fill="#3c2415"/>
        <path id="Trazado_26501" data-name="Trazado 26501" d="M144.476,596.32c-2.855,0-5.339,4.373-6.618,10.82a1.8,1.8,0,0,0-.548-.089c-2.3,0-4.164,4.489-4.164,10.026S135.01,627.1,137.31,627.1a1.807,1.807,0,0,0,.548-.089c1.279,6.446,3.763,10.82,6.618,10.82,4.162,0,7.537-9.293,7.537-20.757S148.638,596.32,144.476,596.32Z" transform="translate(-133.146 -546.783)" fill="#594a42"/>
        <rect id="Rectángulo_2730" data-name="Rectángulo 2730" width="36.753" height="22.72" rx="11.36" transform="translate(28.774 58.934)" fill="#594a42"/>
        <g id="Grupo_12924" data-name="Grupo 12924" transform="translate(129.795 170.448)">
          <path id="Trazado_26502" data-name="Trazado 26502" d="M398.359,948.341c-10.752,0-19.5-9.478-19.5-21.127V840.094a13.447,13.447,0,0,0-2.784-8.249,6.773,6.773,0,0,1-.851-6.836,5.834,5.834,0,0,1,5.353-3.7h85.514a5.834,5.834,0,0,1,5.353,3.7,6.773,6.773,0,0,1-.851,6.836,13.447,13.447,0,0,0-2.784,8.249v87.119c0,11.649-8.747,21.127-19.5,21.127Z" transform="translate(-374.666 -821.309)" fill="#7fcae5" opacity="0.5"/>
          <path id="Trazado_26503" data-name="Trazado 26503" d="M388.623,995.1v12.44c0,9.69,7.25,17.544,16.192,17.544h49.951c8.943,0,16.192-7.855,16.192-17.544V995.1Z" transform="translate(-381.122 -901.702)" fill="#474d9e"/>
        </g>
        <circle id="Elipse_908" data-name="Elipse 908" cx="13.176" cy="13.176" r="13.176" transform="translate(98.992 72.553) rotate(-51.964)" fill="#006838"/>
        <g id="Grupo_12929" data-name="Grupo 12929" transform="translate(138.143 25.131)">
          <rect id="Rectángulo_2731" data-name="Rectángulo 2731" width="19.99" height="1.075"/>
        </g>
        <g id="Grupo_12930" data-name="Grupo 12930" transform="translate(115.535 224.259)">
          <rect id="Rectángulo_2732" data-name="Rectángulo 2732" width="18.453" height="1.075"/>
        </g>
        <g id="Grupo_12931" data-name="Grupo 12931" transform="translate(28.774 258.195)">
          <rect id="Rectángulo_2733" data-name="Rectángulo 2733" width="141.418" height="1.075"/>
        </g>
        <g id="Grupo_12932" data-name="Grupo 12932" transform="translate(128.253 277.168)">
          <rect id="Rectángulo_2734" data-name="Rectángulo 2734" width="25.201" height="1.075"/>
        </g>
      </g>
      <g id="Grupo_12936" data-name="Grupo 12936" transform="translate(405.327 554.732)">
        <path id="Trazado_26535" data-name="Trazado 26535" d="M669.4,629.365V799.539h2.39V629.365h7.136l-8.331-31.087-8.331,31.087Z" transform="translate(-650.09 -598.279)"/>
      </g>
    </g>
    <path id="Trazado_37038" data-name="Trazado 37038" d="M1.327-12.911h2.5L7.541-2l3.683-10.916H13.7V0H12.041V-7.62q0-.4.018-1.31t.018-1.96L8.394,0H6.662L2.953-10.89v.4q0,.475.022,1.446T3-7.62V0H1.327ZM17.367-2.5a1.3,1.3,0,0,0,.5,1.081,1.857,1.857,0,0,0,1.187.4,3.608,3.608,0,0,0,1.617-.387,2.176,2.176,0,0,0,1.318-2.1V-4.79a2.707,2.707,0,0,1-.747.308,6.366,6.366,0,0,1-.9.176l-.958.123a3.664,3.664,0,0,0-1.292.36A1.4,1.4,0,0,0,17.367-2.5ZM21.2-5.7a.859.859,0,0,0,.729-.457,1.391,1.391,0,0,0,.105-.606,1.285,1.285,0,0,0-.576-1.173,3.089,3.089,0,0,0-1.648-.365,2.094,2.094,0,0,0-1.758.668,2.2,2.2,0,0,0-.378,1.1H16.2A2.718,2.718,0,0,1,17.328-8.96a4.637,4.637,0,0,1,2.518-.681,5.124,5.124,0,0,1,2.7.633A2.147,2.147,0,0,1,23.572-7.04v5.423a.694.694,0,0,0,.1.4.487.487,0,0,0,.426.149q.105,0,.237-.013t.281-.04V.044a4.406,4.406,0,0,1-.562.132A4.111,4.111,0,0,1,23.528.2a1.3,1.3,0,0,1-1.187-.58,2.239,2.239,0,0,1-.272-.87,4.025,4.025,0,0,1-1.389,1.1,4.3,4.3,0,0,1-2,.466,2.967,2.967,0,0,1-2.14-.8,2.642,2.642,0,0,1-.831-1.991,2.564,2.564,0,0,1,.817-2.03,3.889,3.889,0,0,1,2.145-.888Zm4.966-3.709h1.5v1.336a4.215,4.215,0,0,1,1.415-1.187,3.773,3.773,0,0,1,1.661-.36,2.739,2.739,0,0,1,2.707,1.4,4.962,4.962,0,0,1,.387,2.188V0H32.229V-5.933a3.212,3.212,0,0,0-.255-1.389A1.545,1.545,0,0,0,30.445-8.2a3.114,3.114,0,0,0-.923.114,2.377,2.377,0,0,0-1.143.773,2.329,2.329,0,0,0-.514.962,6.478,6.478,0,0,0-.119,1.419V0H26.165Zm13.641-.272a4.1,4.1,0,0,1,2.588.773,3.705,3.705,0,0,1,1.2,2.663H42.056a2.839,2.839,0,0,0-.642-1.446,2.027,2.027,0,0,0-1.608-.576,2.222,2.222,0,0,0-2.162,1.477,5.865,5.865,0,0,0-.422,2.364,4.449,4.449,0,0,0,.6,2.382,2.05,2.05,0,0,0,1.881.967,2.057,2.057,0,0,0,1.56-.6,3.311,3.311,0,0,0,.8-1.648h1.538A4.129,4.129,0,0,1,42.275-.593a4.113,4.113,0,0,1-2.7.866,3.6,3.6,0,0,1-2.944-1.349,5.164,5.164,0,0,1-1.1-3.371,5.678,5.678,0,0,1,1.2-3.858A3.891,3.891,0,0,1,39.806-9.686Zm5.37-3.27h1.582v4.816a4.568,4.568,0,0,1,1.011-1,3.41,3.41,0,0,1,1.907-.5,2.821,2.821,0,0,1,2.777,1.433,4.885,4.885,0,0,1,.4,2.171V0H51.223V-5.933a3.318,3.318,0,0,0-.264-1.521,1.685,1.685,0,0,0-1.617-.773,2.694,2.694,0,0,0-1.784.677,3.254,3.254,0,0,0-.8,2.558V0H45.176ZM56.4-2.5a1.3,1.3,0,0,0,.5,1.081,1.857,1.857,0,0,0,1.187.4A3.608,3.608,0,0,0,59.7-1.415a2.176,2.176,0,0,0,1.318-2.1V-4.79a2.707,2.707,0,0,1-.747.308,6.366,6.366,0,0,1-.9.176l-.958.123a3.664,3.664,0,0,0-1.292.36A1.4,1.4,0,0,0,56.4-2.5Zm3.832-3.2a.859.859,0,0,0,.729-.457,1.391,1.391,0,0,0,.105-.606,1.285,1.285,0,0,0-.576-1.173,3.089,3.089,0,0,0-1.648-.365,2.094,2.094,0,0,0-1.758.668,2.2,2.2,0,0,0-.378,1.1H55.23A2.718,2.718,0,0,1,56.36-8.96a4.637,4.637,0,0,1,2.518-.681,5.124,5.124,0,0,1,2.7.633A2.147,2.147,0,0,1,62.6-7.04v5.423a.694.694,0,0,0,.1.4.487.487,0,0,0,.426.149q.105,0,.237-.013t.281-.04V.044a4.406,4.406,0,0,1-.562.132A4.111,4.111,0,0,1,62.561.2a1.3,1.3,0,0,1-1.187-.58,2.239,2.239,0,0,1-.272-.87,4.025,4.025,0,0,1-1.389,1.1,4.3,4.3,0,0,1-2,.466,2.967,2.967,0,0,1-2.14-.8,2.642,2.642,0,0,1-.831-1.991,2.564,2.564,0,0,1,.817-2.03,3.889,3.889,0,0,1,2.145-.888ZM71.2-4.6a4.666,4.666,0,0,0,.642,2.531A2.248,2.248,0,0,0,73.9-1.046,2.166,2.166,0,0,0,75.7-1.991,4.462,4.462,0,0,0,76.412-4.7a4.009,4.009,0,0,0-.729-2.641,2.276,2.276,0,0,0-1.8-.857,2.378,2.378,0,0,0-1.938.914A4.186,4.186,0,0,0,71.2-4.6ZM73.582-9.58a3.349,3.349,0,0,1,1.811.457,4.253,4.253,0,0,1,.958.923v-4.755h1.521V0H76.447V-1.31a3.423,3.423,0,0,1-1.31,1.257,3.748,3.748,0,0,1-1.731.387A3.506,3.506,0,0,1,70.682-.989a5.172,5.172,0,0,1-1.151-3.52,6.076,6.076,0,0,1,1.05-3.564A3.439,3.439,0,0,1,73.582-9.58Zm10.547-.044a4.294,4.294,0,0,1,1.942.47A3.582,3.582,0,0,1,87.5-7.937a4.2,4.2,0,0,1,.633,1.661A10.868,10.868,0,0,1,88.277-4.2h-6.9a4.026,4.026,0,0,0,.677,2.3,2.266,2.266,0,0,0,1.96.866,2.534,2.534,0,0,0,1.978-.817,2.755,2.755,0,0,0,.6-1.1h1.556A3.276,3.276,0,0,1,87.737-1.8a4.111,4.111,0,0,1-.778,1.042,3.687,3.687,0,0,1-1.784.949,5.42,5.42,0,0,1-1.292.141A3.964,3.964,0,0,1,80.9-.945a4.976,4.976,0,0,1-1.222-3.582,5.41,5.41,0,0,1,1.23-3.683A4.059,4.059,0,0,1,84.129-9.624Zm2.522,4.166A4.1,4.1,0,0,0,86.2-7.1a2.3,2.3,0,0,0-2.171-1.143,2.406,2.406,0,0,0-1.828.787,2.972,2.972,0,0,0-.782,2Zm8.886-6.583h1.6v2.628h1.5v1.292h-1.5v6.144a.665.665,0,0,0,.334.659,1.42,1.42,0,0,0,.615.1q.114,0,.246,0t.308-.022V0a3.532,3.532,0,0,1-.567.114,5.39,5.39,0,0,1-.637.035,1.717,1.717,0,0,1-1.5-.567,2.519,2.519,0,0,1-.4-1.472V-8.121H94.263V-9.413h1.274Zm4.685,2.672h1.608V0h-1.608Zm0-3.542h1.608v1.793h-1.608Zm4,3.5h1.5v1.336a4.215,4.215,0,0,1,1.415-1.187,3.773,3.773,0,0,1,1.661-.36,2.739,2.739,0,0,1,2.707,1.4,4.962,4.962,0,0,1,.387,2.188V0h-1.608V-5.933a3.212,3.212,0,0,0-.255-1.389A1.545,1.545,0,0,0,108.5-8.2a3.114,3.114,0,0,0-.923.114,2.377,2.377,0,0,0-1.143.773,2.329,2.329,0,0,0-.514.962,6.478,6.478,0,0,0-.119,1.419V0h-1.582Zm10.327-2.628h1.6v2.628h1.5v1.292h-1.5v6.144a.665.665,0,0,0,.334.659,1.42,1.42,0,0,0,.615.1q.114,0,.246,0t.308-.022V0a3.532,3.532,0,0,1-.567.114,5.39,5.39,0,0,1-.637.035,1.717,1.717,0,0,1-1.5-.567,2.519,2.519,0,0,1-.4-1.472V-8.121h-1.274V-9.413h1.274Zm5.9,9.536a1.3,1.3,0,0,0,.5,1.081,1.857,1.857,0,0,0,1.187.4,3.608,3.608,0,0,0,1.617-.387,2.176,2.176,0,0,0,1.318-2.1V-4.79a2.707,2.707,0,0,1-.747.308,6.366,6.366,0,0,1-.9.176l-.958.123a3.664,3.664,0,0,0-1.292.36A1.4,1.4,0,0,0,120.445-2.5Zm3.832-3.2a.859.859,0,0,0,.729-.457,1.391,1.391,0,0,0,.105-.606,1.285,1.285,0,0,0-.576-1.173,3.089,3.089,0,0,0-1.648-.365,2.094,2.094,0,0,0-1.758.668,2.2,2.2,0,0,0-.378,1.1h-1.477a2.718,2.718,0,0,1,1.129-2.421,4.637,4.637,0,0,1,2.518-.681,5.124,5.124,0,0,1,2.7.633A2.147,2.147,0,0,1,126.65-7.04v5.423a.694.694,0,0,0,.1.4.487.487,0,0,0,.426.149q.105,0,.237-.013t.281-.04V.044a4.406,4.406,0,0,1-.562.132,4.111,4.111,0,0,1-.527.026,1.3,1.3,0,0,1-1.187-.58,2.239,2.239,0,0,1-.272-.87,4.025,4.025,0,0,1-1.389,1.1,4.3,4.3,0,0,1-2,.466,2.967,2.967,0,0,1-2.14-.8,2.642,2.642,0,0,1-.831-1.991,2.564,2.564,0,0,1,.817-2.03,3.889,3.889,0,0,1,2.145-.888Z" transform="translate(-1499 6302)" fill="#00223d"/>
    <path id="Trazado_37039" data-name="Trazado 37039" d="M2.1-2.953A2.3,2.3,0,0,0,2.5-1.74,2.485,2.485,0,0,0,4.57-.976a3.059,3.059,0,0,0,1.547-.382A1.27,1.27,0,0,0,6.785-2.54a1.011,1.011,0,0,0-.536-.923A6.374,6.374,0,0,0,4.9-3.911L3.639-4.228A6.131,6.131,0,0,1,1.863-4.9,2,2,0,0,1,.844-6.671a2.713,2.713,0,0,1,.962-2.162,3.839,3.839,0,0,1,2.588-.826A3.593,3.593,0,0,1,7.462-8.411a2.708,2.708,0,0,1,.571,1.705H6.539a1.83,1.83,0,0,0-.378-.976,2.41,2.41,0,0,0-1.89-.624,2.259,2.259,0,0,0-1.358.343,1.074,1.074,0,0,0-.461.905,1.114,1.114,0,0,0,.606.984A3.644,3.644,0,0,0,4.1-5.687l1.046.255a8.087,8.087,0,0,1,2.285.8A2.118,2.118,0,0,1,8.35-2.725,2.906,2.906,0,0,1,7.4-.554a4.059,4.059,0,0,1-2.9.914A3.9,3.9,0,0,1,1.516-.593,3.606,3.606,0,0,1,.58-2.953ZM13.9-1.02A2.182,2.182,0,0,0,16.053-2.21a5.933,5.933,0,0,0,.584-2.65A4.718,4.718,0,0,0,16.216-7a2.373,2.373,0,0,0-2.3-1.3A2.271,2.271,0,0,0,11.8-7.2a5.133,5.133,0,0,0-.659,2.672,4.465,4.465,0,0,0,.659,2.5A2.322,2.322,0,0,0,13.9-1.02Zm.062-8.666a4.262,4.262,0,0,1,3.076,1.213A4.736,4.736,0,0,1,18.29-4.9a6.122,6.122,0,0,1-1.107,3.762A4.006,4.006,0,0,1,13.746.343,3.88,3.88,0,0,1,10.661-.971,5.19,5.19,0,0,1,9.519-4.5a5.615,5.615,0,0,1,1.2-3.779A4.041,4.041,0,0,1,13.957-9.686Zm6.258-3.226H21.8V0H20.215Zm4.729,3.5,2.514,7.664,2.628-7.664h1.731L28.266,0H26.578L23.106-9.413ZM37.09-9.624a4.294,4.294,0,0,1,1.942.47,3.582,3.582,0,0,1,1.433,1.217A4.2,4.2,0,0,1,41.1-6.275,10.868,10.868,0,0,1,41.238-4.2h-6.9a4.026,4.026,0,0,0,.677,2.3,2.266,2.266,0,0,0,1.96.866,2.534,2.534,0,0,0,1.978-.817,2.755,2.755,0,0,0,.6-1.1h1.556A3.276,3.276,0,0,1,40.7-1.8,4.111,4.111,0,0,1,39.92-.756a3.687,3.687,0,0,1-1.784.949,5.42,5.42,0,0,1-1.292.141A3.964,3.964,0,0,1,33.864-.945a4.976,4.976,0,0,1-1.222-3.582,5.41,5.41,0,0,1,1.23-3.683A4.059,4.059,0,0,1,37.09-9.624Zm2.522,4.166A4.1,4.1,0,0,0,39.164-7.1a2.3,2.3,0,0,0-2.171-1.143,2.406,2.406,0,0,0-1.828.787,2.972,2.972,0,0,0-.782,2Zm3.568-3.955h1.5v1.336A4.215,4.215,0,0,1,46.1-9.264a3.773,3.773,0,0,1,1.661-.36,2.739,2.739,0,0,1,2.707,1.4,4.962,4.962,0,0,1,.387,2.188V0H49.245V-5.933a3.212,3.212,0,0,0-.255-1.389A1.545,1.545,0,0,0,47.461-8.2a3.114,3.114,0,0,0-.923.114,2.377,2.377,0,0,0-1.143.773,2.329,2.329,0,0,0-.514.962,6.478,6.478,0,0,0-.119,1.419V0H43.181Zm10.327-2.628h1.6v2.628h1.5v1.292h-1.5v6.144a.665.665,0,0,0,.334.659,1.42,1.42,0,0,0,.615.1q.114,0,.246,0t.308-.022V0a3.532,3.532,0,0,1-.567.114,5.39,5.39,0,0,1-.637.035,1.717,1.717,0,0,1-1.5-.567,2.519,2.519,0,0,1-.4-1.472V-8.121H52.233V-9.413h1.274Zm8.6,2.417a4.294,4.294,0,0,1,1.942.47,3.582,3.582,0,0,1,1.433,1.217,4.2,4.2,0,0,1,.633,1.661A10.868,10.868,0,0,1,66.261-4.2h-6.9a4.026,4.026,0,0,0,.677,2.3A2.266,2.266,0,0,0,62-1.037a2.534,2.534,0,0,0,1.978-.817,2.755,2.755,0,0,0,.6-1.1h1.556A3.276,3.276,0,0,1,65.72-1.8a4.111,4.111,0,0,1-.778,1.042,3.687,3.687,0,0,1-1.784.949,5.42,5.42,0,0,1-1.292.141A3.964,3.964,0,0,1,58.887-.945a4.976,4.976,0,0,1-1.222-3.582A5.41,5.41,0,0,1,58.9-8.209,4.059,4.059,0,0,1,62.112-9.624Zm2.522,4.166A4.1,4.1,0,0,0,64.187-7.1a2.3,2.3,0,0,0-2.171-1.143,2.406,2.406,0,0,0-1.828.787,2.972,2.972,0,0,0-.782,2Z" transform="translate(-1335 6321)" fill="#00223d"/>
    <path id="Trazado_37040" data-name="Trazado 37040" d="M8-5.291,6.038-11l-2.083,5.7Zm-2.874-7.62H7.1L11.786,0H9.87L8.561-3.867H3.454L2.057,0H.264ZM16.488-9.58a3.431,3.431,0,0,1,1.934.545,4.343,4.343,0,0,1,.914.9V-9.325h1.459V-.765a6.313,6.313,0,0,1-.527,2.83A3.786,3.786,0,0,1,16.55,3.981,4.56,4.56,0,0,1,13.992,3.3a2.656,2.656,0,0,1-1.16-2.131H14.44a1.79,1.79,0,0,0,.457.976,2.33,2.33,0,0,0,1.688.527,2.322,2.322,0,0,0,2.382-1.283,7.227,7.227,0,0,0,.308-2.7A3.1,3.1,0,0,1,18.132-.237a3.8,3.8,0,0,1-1.767.352A3.771,3.771,0,0,1,13.689-.971a4.774,4.774,0,0,1-1.147-3.59A5.437,5.437,0,0,1,13.7-8.253,3.574,3.574,0,0,1,16.488-9.58Zm2.848,4.834a3.924,3.924,0,0,0-.721-2.593,2.309,2.309,0,0,0-1.837-.844,2.268,2.268,0,0,0-2.285,1.564,6.134,6.134,0,0,0-.325,2.188,3.885,3.885,0,0,0,.646,2.421,2.085,2.085,0,0,0,1.736.831,2.437,2.437,0,0,0,2.4-1.538A4.961,4.961,0,0,0,19.336-4.746Zm5.423-4.667v6.249a2.635,2.635,0,0,0,.229,1.178,1.6,1.6,0,0,0,1.573.844,2.224,2.224,0,0,0,2.25-1.477,5.858,5.858,0,0,0,.325-2.171V-9.413h1.582V0H29.224l.018-1.389a3.191,3.191,0,0,1-.765.905,3.365,3.365,0,0,1-2.2.738A2.834,2.834,0,0,1,23.537-1.09a4,4,0,0,1-.4-1.925v-6.4ZM34.4-2.5a1.3,1.3,0,0,0,.5,1.081,1.857,1.857,0,0,0,1.187.4,3.608,3.608,0,0,0,1.617-.387,2.176,2.176,0,0,0,1.318-2.1V-4.79a2.707,2.707,0,0,1-.747.308,6.366,6.366,0,0,1-.9.176l-.958.123a3.664,3.664,0,0,0-1.292.36A1.4,1.4,0,0,0,34.4-2.5Zm3.832-3.2a.859.859,0,0,0,.729-.457,1.391,1.391,0,0,0,.105-.606,1.285,1.285,0,0,0-.576-1.173,3.089,3.089,0,0,0-1.648-.365,2.094,2.094,0,0,0-1.758.668,2.2,2.2,0,0,0-.378,1.1H33.231A2.718,2.718,0,0,1,34.361-8.96a4.637,4.637,0,0,1,2.518-.681,5.124,5.124,0,0,1,2.7.633A2.147,2.147,0,0,1,40.605-7.04v5.423a.694.694,0,0,0,.1.4.487.487,0,0,0,.426.149q.105,0,.237-.013t.281-.04V.044a4.406,4.406,0,0,1-.562.132A4.111,4.111,0,0,1,40.562.2a1.3,1.3,0,0,1-1.187-.58,2.239,2.239,0,0,1-.272-.87,4.025,4.025,0,0,1-1.389,1.1,4.3,4.3,0,0,1-2,.466,2.967,2.967,0,0,1-2.14-.8,2.642,2.642,0,0,1-.831-1.991,2.564,2.564,0,0,1,.817-2.03,3.889,3.889,0,0,1,2.145-.888Z" transform="translate(-1124 6313)" fill="#00223d"/>
    <path id="Trazado_37041" data-name="Trazado 37041" d="M1.538-12.911h5.81a3.938,3.938,0,0,1,2.777.971A3.524,3.524,0,0,1,11.18-9.211a3.968,3.968,0,0,1-.94,2.632A3.563,3.563,0,0,1,7.348-5.458H3.287V0H1.538ZM9.413-9.2a1.943,1.943,0,0,0-1.055-1.934,3.808,3.808,0,0,0-1.591-.272H3.287v4.474h3.48a3.326,3.326,0,0,0,1.912-.5A1.985,1.985,0,0,0,9.413-9.2Zm4.966,6.7a1.3,1.3,0,0,0,.5,1.081,1.857,1.857,0,0,0,1.187.4,3.608,3.608,0,0,0,1.617-.387A2.176,2.176,0,0,0,19-3.516V-4.79a2.707,2.707,0,0,1-.747.308,6.366,6.366,0,0,1-.9.176l-.958.123a3.664,3.664,0,0,0-1.292.36A1.4,1.4,0,0,0,14.379-2.5Zm3.832-3.2a.859.859,0,0,0,.729-.457,1.391,1.391,0,0,0,.105-.606,1.285,1.285,0,0,0-.576-1.173,3.089,3.089,0,0,0-1.648-.365,2.094,2.094,0,0,0-1.758.668,2.2,2.2,0,0,0-.378,1.1H13.21A2.718,2.718,0,0,1,14.339-8.96a4.637,4.637,0,0,1,2.518-.681,5.124,5.124,0,0,1,2.7.633A2.147,2.147,0,0,1,20.584-7.04v5.423a.694.694,0,0,0,.1.4.487.487,0,0,0,.426.149q.105,0,.237-.013t.281-.04V.044a4.406,4.406,0,0,1-.562.132A4.111,4.111,0,0,1,20.54.2a1.3,1.3,0,0,1-1.187-.58,2.239,2.239,0,0,1-.272-.87,4.025,4.025,0,0,1-1.389,1.1,4.3,4.3,0,0,1-2,.466,2.967,2.967,0,0,1-2.14-.8,2.642,2.642,0,0,1-.831-1.991,2.564,2.564,0,0,1,.817-2.03,3.889,3.889,0,0,1,2.145-.888Zm8.938,4.641a2.257,2.257,0,0,0,1.841-.927,4.413,4.413,0,0,0,.734-2.773A5.176,5.176,0,0,0,29.4-6.7a2.244,2.244,0,0,0-2.25-1.556A2.244,2.244,0,0,0,24.9-6.609a6.514,6.514,0,0,0-.325,2.232A4.732,4.732,0,0,0,24.9-2.522,2.243,2.243,0,0,0,27.149-1.063Zm-4.1-8.306h1.538v1.248a3.84,3.84,0,0,1,1.037-.993,3.338,3.338,0,0,1,1.881-.527,3.537,3.537,0,0,1,2.716,1.226,5.023,5.023,0,0,1,1.116,3.5q0,3.076-1.608,4.395A3.634,3.634,0,0,1,27.36.316a3.221,3.221,0,0,1-1.784-.466,4.111,4.111,0,0,1-.94-.905V3.753H23.054Zm14.054-.255a4.294,4.294,0,0,1,1.942.47,3.582,3.582,0,0,1,1.433,1.217,4.2,4.2,0,0,1,.633,1.661A10.868,10.868,0,0,1,41.256-4.2h-6.9a4.026,4.026,0,0,0,.677,2.3,2.266,2.266,0,0,0,1.96.866,2.534,2.534,0,0,0,1.978-.817,2.755,2.755,0,0,0,.6-1.1h1.556A3.276,3.276,0,0,1,40.715-1.8a4.111,4.111,0,0,1-.778,1.042,3.687,3.687,0,0,1-1.784.949,5.42,5.42,0,0,1-1.292.141A3.964,3.964,0,0,1,33.882-.945,4.976,4.976,0,0,1,32.66-4.526a5.41,5.41,0,0,1,1.23-3.683A4.059,4.059,0,0,1,37.107-9.624ZM39.63-5.458A4.1,4.1,0,0,0,39.182-7.1a2.3,2.3,0,0,0-2.171-1.143,2.406,2.406,0,0,0-1.828.787,2.972,2.972,0,0,0-.782,2Zm3.612-7.453h1.582V0H43.242ZM53.2-4.6a4.666,4.666,0,0,0,.642,2.531A2.248,2.248,0,0,0,55.9-1.046,2.166,2.166,0,0,0,57.7-1.991,4.462,4.462,0,0,0,58.412-4.7a4.009,4.009,0,0,0-.729-2.641,2.276,2.276,0,0,0-1.8-.857,2.378,2.378,0,0,0-1.938.914A4.186,4.186,0,0,0,53.2-4.6ZM55.582-9.58a3.349,3.349,0,0,1,1.811.457,4.253,4.253,0,0,1,.958.923v-4.755h1.521V0H58.447V-1.31a3.423,3.423,0,0,1-1.31,1.257,3.748,3.748,0,0,1-1.731.387A3.506,3.506,0,0,1,52.682-.989a5.172,5.172,0,0,1-1.151-3.52,6.076,6.076,0,0,1,1.05-3.564A3.439,3.439,0,0,1,55.582-9.58Zm10.547-.044a4.294,4.294,0,0,1,1.942.47A3.582,3.582,0,0,1,69.5-7.937a4.2,4.2,0,0,1,.633,1.661A10.868,10.868,0,0,1,70.277-4.2h-6.9a4.026,4.026,0,0,0,.677,2.3,2.266,2.266,0,0,0,1.96.866,2.534,2.534,0,0,0,1.978-.817,2.755,2.755,0,0,0,.6-1.1h1.556A3.276,3.276,0,0,1,69.737-1.8a4.111,4.111,0,0,1-.778,1.042,3.687,3.687,0,0,1-1.784.949,5.42,5.42,0,0,1-1.292.141A3.964,3.964,0,0,1,62.9-.945a4.976,4.976,0,0,1-1.222-3.582,5.41,5.41,0,0,1,1.23-3.683A4.059,4.059,0,0,1,66.129-9.624Zm2.522,4.166A4.1,4.1,0,0,0,68.2-7.1a2.3,2.3,0,0,0-2.171-1.143,2.406,2.406,0,0,0-1.828.787,2.972,2.972,0,0,0-.782,2Zm8.965-5.388a2.821,2.821,0,0,1,.343-1.441,2.423,2.423,0,0,1,2.136-.809q.149,0,.308.009t.36.026v1.441q-.246-.018-.356-.022t-.207,0q-.721,0-.861.374a7.385,7.385,0,0,0-.141,1.9h1.564v1.248H79.181V0H77.616V-8.121h-1.31V-9.369h1.31Zm4.667-.272v-1.793h1.582v1.793Zm0,1.749h1.582V0H82.283Zm3.981-3.542h1.582V0H86.265Zm4.271.87h1.6v2.628h1.5v1.292h-1.5v6.144a.665.665,0,0,0,.334.659,1.42,1.42,0,0,0,.615.1q.114,0,.246,0t.308-.022V0a3.532,3.532,0,0,1-.567.114,5.39,5.39,0,0,1-.637.035,1.717,1.717,0,0,1-1.5-.567,2.519,2.519,0,0,1-.4-1.472V-8.121H89.262V-9.413h1.274Zm4.729,2.628h1.5v1.626a3.592,3.592,0,0,1,.905-1.156,2.347,2.347,0,0,1,1.661-.681q.044,0,.149.009t.36.035v1.67a2.363,2.363,0,0,0-.259-.035q-.119-.009-.259-.009a2.258,2.258,0,0,0-1.837.769,2.684,2.684,0,0,0-.642,1.771V0H95.265ZM104.95-1.02a2.182,2.182,0,0,0,2.158-1.191,5.933,5.933,0,0,0,.584-2.65A4.718,4.718,0,0,0,107.271-7a2.373,2.373,0,0,0-2.3-1.3A2.271,2.271,0,0,0,102.858-7.2a5.133,5.133,0,0,0-.659,2.672,4.465,4.465,0,0,0,.659,2.5A2.322,2.322,0,0,0,104.95-1.02Zm.062-8.666a4.262,4.262,0,0,1,3.076,1.213A4.736,4.736,0,0,1,109.345-4.9a6.122,6.122,0,0,1-1.107,3.762A4.006,4.006,0,0,1,104.8.343a3.88,3.88,0,0,1-3.085-1.314A5.19,5.19,0,0,1,100.573-4.5a5.615,5.615,0,0,1,1.2-3.779A4.041,4.041,0,0,1,105.012-9.686Z" transform="translate(-1334 6056)" fill="#00223d"/>
    <path id="Trazado_37042" data-name="Trazado 37042" d="M1.538-12.911h5.81a3.938,3.938,0,0,1,2.777.971A3.524,3.524,0,0,1,11.18-9.211a3.968,3.968,0,0,1-.94,2.632A3.563,3.563,0,0,1,7.348-5.458H3.287V0H1.538ZM9.413-9.2a1.943,1.943,0,0,0-1.055-1.934,3.808,3.808,0,0,0-1.591-.272H3.287v4.474h3.48a3.326,3.326,0,0,0,1.912-.5A1.985,1.985,0,0,0,9.413-9.2Zm4.966,6.7a1.3,1.3,0,0,0,.5,1.081,1.857,1.857,0,0,0,1.187.4,3.608,3.608,0,0,0,1.617-.387A2.176,2.176,0,0,0,19-3.516V-4.79a2.707,2.707,0,0,1-.747.308,6.366,6.366,0,0,1-.9.176l-.958.123a3.664,3.664,0,0,0-1.292.36A1.4,1.4,0,0,0,14.379-2.5Zm3.832-3.2a.859.859,0,0,0,.729-.457,1.391,1.391,0,0,0,.105-.606,1.285,1.285,0,0,0-.576-1.173,3.089,3.089,0,0,0-1.648-.365,2.094,2.094,0,0,0-1.758.668,2.2,2.2,0,0,0-.378,1.1H13.21A2.718,2.718,0,0,1,14.339-8.96a4.637,4.637,0,0,1,2.518-.681,5.124,5.124,0,0,1,2.7.633A2.147,2.147,0,0,1,20.584-7.04v5.423a.694.694,0,0,0,.1.4.487.487,0,0,0,.426.149q.105,0,.237-.013t.281-.04V.044a4.406,4.406,0,0,1-.562.132A4.111,4.111,0,0,1,20.54.2a1.3,1.3,0,0,1-1.187-.58,2.239,2.239,0,0,1-.272-.87,4.025,4.025,0,0,1-1.389,1.1,4.3,4.3,0,0,1-2,.466,2.967,2.967,0,0,1-2.14-.8,2.642,2.642,0,0,1-.831-1.991,2.564,2.564,0,0,1,.817-2.03,3.889,3.889,0,0,1,2.145-.888Zm8.938,4.641a2.257,2.257,0,0,0,1.841-.927,4.413,4.413,0,0,0,.734-2.773A5.176,5.176,0,0,0,29.4-6.7a2.244,2.244,0,0,0-2.25-1.556A2.244,2.244,0,0,0,24.9-6.609a6.514,6.514,0,0,0-.325,2.232A4.732,4.732,0,0,0,24.9-2.522,2.243,2.243,0,0,0,27.149-1.063Zm-4.1-8.306h1.538v1.248a3.84,3.84,0,0,1,1.037-.993,3.338,3.338,0,0,1,1.881-.527,3.537,3.537,0,0,1,2.716,1.226,5.023,5.023,0,0,1,1.116,3.5q0,3.076-1.608,4.395A3.634,3.634,0,0,1,27.36.316a3.221,3.221,0,0,1-1.784-.466,4.111,4.111,0,0,1-.94-.905V3.753H23.054Zm14.054-.255a4.294,4.294,0,0,1,1.942.47,3.582,3.582,0,0,1,1.433,1.217,4.2,4.2,0,0,1,.633,1.661A10.868,10.868,0,0,1,41.256-4.2h-6.9a4.026,4.026,0,0,0,.677,2.3,2.266,2.266,0,0,0,1.96.866,2.534,2.534,0,0,0,1.978-.817,2.755,2.755,0,0,0,.6-1.1h1.556A3.276,3.276,0,0,1,40.715-1.8a4.111,4.111,0,0,1-.778,1.042,3.687,3.687,0,0,1-1.784.949,5.42,5.42,0,0,1-1.292.141A3.964,3.964,0,0,1,33.882-.945,4.976,4.976,0,0,1,32.66-4.526a5.41,5.41,0,0,1,1.23-3.683A4.059,4.059,0,0,1,37.107-9.624ZM39.63-5.458A4.1,4.1,0,0,0,39.182-7.1a2.3,2.3,0,0,0-2.171-1.143,2.406,2.406,0,0,0-1.828.787,2.972,2.972,0,0,0-.782,2Zm3.612-7.453h1.582V0H43.242ZM53.2-4.6a4.666,4.666,0,0,0,.642,2.531A2.248,2.248,0,0,0,55.9-1.046,2.166,2.166,0,0,0,57.7-1.991,4.462,4.462,0,0,0,58.412-4.7a4.009,4.009,0,0,0-.729-2.641,2.276,2.276,0,0,0-1.8-.857,2.378,2.378,0,0,0-1.938.914A4.186,4.186,0,0,0,53.2-4.6ZM55.582-9.58a3.349,3.349,0,0,1,1.811.457,4.253,4.253,0,0,1,.958.923v-4.755h1.521V0H58.447V-1.31a3.423,3.423,0,0,1-1.31,1.257,3.748,3.748,0,0,1-1.731.387A3.506,3.506,0,0,1,52.682-.989a5.172,5.172,0,0,1-1.151-3.52,6.076,6.076,0,0,1,1.05-3.564A3.439,3.439,0,0,1,55.582-9.58Zm10.547-.044a4.294,4.294,0,0,1,1.942.47A3.582,3.582,0,0,1,69.5-7.937a4.2,4.2,0,0,1,.633,1.661A10.868,10.868,0,0,1,70.277-4.2h-6.9a4.026,4.026,0,0,0,.677,2.3,2.266,2.266,0,0,0,1.96.866,2.534,2.534,0,0,0,1.978-.817,2.755,2.755,0,0,0,.6-1.1h1.556A3.276,3.276,0,0,1,69.737-1.8a4.111,4.111,0,0,1-.778,1.042,3.687,3.687,0,0,1-1.784.949,5.42,5.42,0,0,1-1.292.141A3.964,3.964,0,0,1,62.9-.945a4.976,4.976,0,0,1-1.222-3.582,5.41,5.41,0,0,1,1.23-3.683A4.059,4.059,0,0,1,66.129-9.624Zm2.522,4.166A4.1,4.1,0,0,0,68.2-7.1a2.3,2.3,0,0,0-2.171-1.143,2.406,2.406,0,0,0-1.828.787,2.972,2.972,0,0,0-.782,2Zm8.965-5.388a2.821,2.821,0,0,1,.343-1.441,2.423,2.423,0,0,1,2.136-.809q.149,0,.308.009t.36.026v1.441q-.246-.018-.356-.022t-.207,0q-.721,0-.861.374a7.385,7.385,0,0,0-.141,1.9h1.564v1.248H79.181V0H77.616V-8.121h-1.31V-9.369h1.31Zm4.667-.272v-1.793h1.582v1.793Zm0,1.749h1.582V0H82.283Zm3.981-3.542h1.582V0H86.265Zm4.271.87h1.6v2.628h1.5v1.292h-1.5v6.144a.665.665,0,0,0,.334.659,1.42,1.42,0,0,0,.615.1q.114,0,.246,0t.308-.022V0a3.532,3.532,0,0,1-.567.114,5.39,5.39,0,0,1-.637.035,1.717,1.717,0,0,1-1.5-.567,2.519,2.519,0,0,1-.4-1.472V-8.121H89.262V-9.413h1.274Zm4.729,2.628h1.5v1.626a3.592,3.592,0,0,1,.905-1.156,2.347,2.347,0,0,1,1.661-.681q.044,0,.149.009t.36.035v1.67a2.363,2.363,0,0,0-.259-.035q-.119-.009-.259-.009a2.258,2.258,0,0,0-1.837.769,2.684,2.684,0,0,0-.642,1.771V0H95.265ZM104.95-1.02a2.182,2.182,0,0,0,2.158-1.191,5.933,5.933,0,0,0,.584-2.65A4.718,4.718,0,0,0,107.271-7a2.373,2.373,0,0,0-2.3-1.3A2.271,2.271,0,0,0,102.858-7.2a5.133,5.133,0,0,0-.659,2.672,4.465,4.465,0,0,0,.659,2.5A2.322,2.322,0,0,0,104.95-1.02Zm.062-8.666a4.262,4.262,0,0,1,3.076,1.213A4.736,4.736,0,0,1,109.345-4.9a6.122,6.122,0,0,1-1.107,3.762A4.006,4.006,0,0,1,104.8.343a3.88,3.88,0,0,1-3.085-1.314A5.19,5.19,0,0,1,100.573-4.5a5.615,5.615,0,0,1,1.2-3.779A4.041,4.041,0,0,1,105.012-9.686Z" transform="translate(-990 6053)" fill="#00223d"/>
    <path id="Trazado_37043" data-name="Trazado 37043" d="M1.143,1.241H2.6v9.478H8.049V12H1.143Zm11.279,9.91a1.818,1.818,0,0,0,1.8-.992,4.944,4.944,0,0,0,.487-2.208,3.932,3.932,0,0,0-.352-1.787,1.978,1.978,0,0,0-1.919-1.084A1.892,1.892,0,0,0,10.679,6a4.278,4.278,0,0,0-.549,2.227,3.721,3.721,0,0,0,.549,2.087A1.935,1.935,0,0,0,12.422,11.15Zm.051-7.222a3.552,3.552,0,0,1,2.563,1.011,3.947,3.947,0,0,1,1.047,2.974,5.1,5.1,0,0,1-.923,3.135A3.338,3.338,0,0,1,12.3,12.286a3.233,3.233,0,0,1-2.571-1.095A4.325,4.325,0,0,1,8.774,8.25a4.679,4.679,0,0,1,1-3.149A3.368,3.368,0,0,1,12.473,3.929Zm5.962,5.61a1.917,1.917,0,0,0,.33,1.011,2.071,2.071,0,0,0,1.729.637,2.549,2.549,0,0,0,1.289-.319,1.058,1.058,0,0,0,.557-.985.842.842,0,0,0-.447-.769,5.312,5.312,0,0,0-1.128-.374l-1.047-.264a5.109,5.109,0,0,1-1.479-.557,1.664,1.664,0,0,1-.85-1.479,2.261,2.261,0,0,1,.8-1.8,3.2,3.2,0,0,1,2.157-.688A2.994,2.994,0,0,1,22.9,4.991a2.257,2.257,0,0,1,.476,1.421H22.134a1.525,1.525,0,0,0-.315-.813,2.009,2.009,0,0,0-1.575-.52,1.882,1.882,0,0,0-1.132.286.9.9,0,0,0-.385.754.929.929,0,0,0,.505.82,3.037,3.037,0,0,0,.864.322l.872.212a6.739,6.739,0,0,1,1.9.667,1.765,1.765,0,0,1,.769,1.589,2.422,2.422,0,0,1-.795,1.809,3.383,3.383,0,0,1-2.421.762,3.248,3.248,0,0,1-2.479-.795,3.005,3.005,0,0,1-.78-1.967Zm14.194,1.575a1.881,1.881,0,0,0,1.534-.773,3.677,3.677,0,0,0,.612-2.311A4.313,4.313,0,0,0,34.5,6.419a1.986,1.986,0,0,0-3.75.073,5.428,5.428,0,0,0-.271,1.86A3.944,3.944,0,0,0,30.754,9.9,1.87,1.87,0,0,0,32.629,11.114ZM29.216,4.192H30.5v1.04a3.2,3.2,0,0,1,.864-.828,2.782,2.782,0,0,1,1.567-.439,2.947,2.947,0,0,1,2.263,1.022,4.186,4.186,0,0,1,.93,2.919,4.482,4.482,0,0,1-1.34,3.662,3.028,3.028,0,0,1-1.978.7,2.684,2.684,0,0,1-1.487-.388,3.426,3.426,0,0,1-.784-.754v4.006H29.216Zm8.445,0H39V12h-1.34Zm0-2.952H39V2.735h-1.34Zm6.1,2.776a2.859,2.859,0,0,1,1.611.454,3.619,3.619,0,0,1,.762.747V4.229h1.216v7.134a5.261,5.261,0,0,1-.439,2.358,3.155,3.155,0,0,1-3.1,1.6,3.8,3.8,0,0,1-2.131-.568,2.214,2.214,0,0,1-.967-1.776h1.34a1.492,1.492,0,0,0,.381.813,2.411,2.411,0,0,0,3.391-.63,6.022,6.022,0,0,0,.256-2.249,2.587,2.587,0,0,1-.952.894,3.415,3.415,0,0,1-3.7-.612A3.978,3.978,0,0,1,40.474,8.2a4.531,4.531,0,0,1,.963-3.076A2.978,2.978,0,0,1,43.762,4.017Zm2.373,4.028a3.27,3.27,0,0,0-.6-2.161A1.924,1.924,0,0,0,44,5.181a1.89,1.89,0,0,0-1.9,1.3,5.112,5.112,0,0,0-.271,1.824,3.237,3.237,0,0,0,.538,2.018,1.738,1.738,0,0,0,1.447.692,2.031,2.031,0,0,0,2-1.282A4.134,4.134,0,0,0,46.135,8.045Zm3.2-3.889h1.3V5.269a4.382,4.382,0,0,1,.85-.842,2.555,2.555,0,0,1,1.479-.447,2.328,2.328,0,0,1,1.509.461,2.412,2.412,0,0,1,.586.776A2.85,2.85,0,0,1,56.1,4.284a2.881,2.881,0,0,1,1.333-.3,2.18,2.18,0,0,1,2.153,1.143,3.735,3.735,0,0,1,.308,1.655V12h-1.37V6.551a1.269,1.269,0,0,0-.392-1.077,1.551,1.551,0,0,0-.956-.293,1.9,1.9,0,0,0-1.337.52,2.284,2.284,0,0,0-.56,1.736V12h-1.34V6.88a2.66,2.66,0,0,0-.19-1.165,1.161,1.161,0,0,0-1.121-.549,1.934,1.934,0,0,0-1.359.579,2.836,2.836,0,0,0-.612,2.095V12H49.336ZM65.1,3.98a3.578,3.578,0,0,1,1.619.392A2.985,2.985,0,0,1,67.91,5.386a3.5,3.5,0,0,1,.527,1.384A9.057,9.057,0,0,1,68.555,8.5h-5.75a3.355,3.355,0,0,0,.564,1.915A1.888,1.888,0,0,0,65,11.136a2.111,2.111,0,0,0,1.648-.681,2.3,2.3,0,0,0,.5-.916h1.3a2.73,2.73,0,0,1-.341.963,3.426,3.426,0,0,1-.648.868,3.072,3.072,0,0,1-1.487.791,4.517,4.517,0,0,1-1.077.117,3.3,3.3,0,0,1-2.483-1.066,4.146,4.146,0,0,1-1.018-2.985,4.508,4.508,0,0,1,1.025-3.069A3.383,3.383,0,0,1,65.1,3.98Zm2.1,3.472a3.416,3.416,0,0,0-.374-1.37,1.915,1.915,0,0,0-1.809-.952,2.005,2.005,0,0,0-1.523.656,2.476,2.476,0,0,0-.652,1.666Zm2.974-3.3h1.252V5.269A3.513,3.513,0,0,1,72.6,4.28a3.145,3.145,0,0,1,1.384-.3,2.282,2.282,0,0,1,2.256,1.165,4.135,4.135,0,0,1,.322,1.824V12h-1.34V7.056A2.677,2.677,0,0,0,75.015,5.9a1.288,1.288,0,0,0-1.274-.732,2.6,2.6,0,0,0-.769.1,1.981,1.981,0,0,0-.952.645,1.94,1.94,0,0,0-.428.8,5.4,5.4,0,0,0-.1,1.183V12H70.173Zm8.606-2.19h1.333v2.19h1.252V5.232H80.112v5.12a.554.554,0,0,0,.278.549,1.183,1.183,0,0,0,.513.081q.1,0,.205,0t.256-.018V12a2.943,2.943,0,0,1-.472.1,4.491,4.491,0,0,1-.531.029,1.431,1.431,0,0,1-1.252-.472,2.1,2.1,0,0,1-.33-1.227V5.232H77.717V4.156h1.062ZM85.8,11.15a1.818,1.818,0,0,0,1.8-.992,4.944,4.944,0,0,0,.487-2.208,3.932,3.932,0,0,0-.352-1.787,1.978,1.978,0,0,0-1.919-1.084A1.892,1.892,0,0,0,84.053,6,4.278,4.278,0,0,0,83.5,8.228a3.721,3.721,0,0,0,.549,2.087A1.935,1.935,0,0,0,85.8,11.15Zm.051-7.222a3.552,3.552,0,0,1,2.563,1.011,3.947,3.947,0,0,1,1.047,2.974,5.1,5.1,0,0,1-.923,3.135,3.338,3.338,0,0,1-2.864,1.238A3.233,3.233,0,0,1,83.1,11.191a4.325,4.325,0,0,1-.952-2.941,4.679,4.679,0,0,1,1-3.149A3.368,3.368,0,0,1,85.847,3.929Zm5.962,5.61a1.917,1.917,0,0,0,.33,1.011,2.071,2.071,0,0,0,1.729.637,2.549,2.549,0,0,0,1.289-.319,1.058,1.058,0,0,0,.557-.985.842.842,0,0,0-.447-.769,5.312,5.312,0,0,0-1.128-.374l-1.047-.264a5.109,5.109,0,0,1-1.479-.557,1.664,1.664,0,0,1-.85-1.479,2.261,2.261,0,0,1,.8-1.8,3.2,3.2,0,0,1,2.157-.688,2.994,2.994,0,0,1,2.556,1.04,2.257,2.257,0,0,1,.476,1.421H95.508a1.525,1.525,0,0,0-.315-.813,2.009,2.009,0,0,0-1.575-.52,1.882,1.882,0,0,0-1.132.286.9.9,0,0,0-.385.754.929.929,0,0,0,.505.82,3.037,3.037,0,0,0,.864.322l.872.212a6.739,6.739,0,0,1,1.9.667,1.765,1.765,0,0,1,.769,1.589,2.422,2.422,0,0,1-.795,1.809A3.383,3.383,0,0,1,93.8,12.3a3.248,3.248,0,0,1-2.479-.795,3.005,3.005,0,0,1-.78-1.967ZM.967,24.192h1.34V32H.967Zm0-2.952h1.34v1.494H.967ZM4.3,24.156H5.552v1.113a3.513,3.513,0,0,1,1.179-.989,3.145,3.145,0,0,1,1.384-.3,2.282,2.282,0,0,1,2.256,1.165,4.135,4.135,0,0,1,.322,1.824V32H9.353V27.056A2.677,2.677,0,0,0,9.141,25.9a1.288,1.288,0,0,0-1.274-.732,2.6,2.6,0,0,0-.769.1,1.981,1.981,0,0,0-.952.645,1.94,1.94,0,0,0-.428.8,5.4,5.4,0,0,0-.1,1.183V32H4.3Zm9.177,4.014a3.888,3.888,0,0,0,.535,2.109,1.873,1.873,0,0,0,1.714.85,1.805,1.805,0,0,0,1.505-.787,3.718,3.718,0,0,0,.59-2.26,3.341,3.341,0,0,0-.608-2.2,1.9,1.9,0,0,0-1.5-.714,1.982,1.982,0,0,0-1.615.762A3.489,3.489,0,0,0,13.477,28.169Zm1.985-4.153a2.791,2.791,0,0,1,1.509.381,3.544,3.544,0,0,1,.8.769V21.2h1.267V32H17.849V30.909a2.852,2.852,0,0,1-1.091,1.047,3.124,3.124,0,0,1-1.443.322,2.922,2.922,0,0,1-2.271-1.1,4.31,4.31,0,0,1-.959-2.933,5.064,5.064,0,0,1,.875-2.97A2.865,2.865,0,0,1,15.461,24.017Zm5.522.176h1.34V32h-1.34Zm0-2.952h1.34v1.494h-1.34Zm3.977,2.915,2.095,6.387,2.19-6.387h1.443L27.729,32H26.323L23.43,24.156Zm6.855.037h1.34V32h-1.34Zm0-2.952h1.34v1.494h-1.34Zm4.167,6.929a3.888,3.888,0,0,0,.535,2.109,1.873,1.873,0,0,0,1.714.85,1.805,1.805,0,0,0,1.505-.787,3.718,3.718,0,0,0,.59-2.26,3.341,3.341,0,0,0-.608-2.2,1.9,1.9,0,0,0-1.5-.714,1.982,1.982,0,0,0-1.615.762A3.489,3.489,0,0,0,35.984,28.169Zm1.985-4.153a2.791,2.791,0,0,1,1.509.381,3.544,3.544,0,0,1,.8.769V21.2h1.267V32H40.356V30.909a2.852,2.852,0,0,1-1.091,1.047,3.124,3.124,0,0,1-1.443.322,2.922,2.922,0,0,1-2.271-1.1,4.31,4.31,0,0,1-.959-2.933,5.064,5.064,0,0,1,.875-2.97A2.865,2.865,0,0,1,37.969,24.017Zm6.841.139v5.208a2.2,2.2,0,0,0,.19.981,1.329,1.329,0,0,0,1.311.7,1.853,1.853,0,0,0,1.875-1.23,4.882,4.882,0,0,0,.271-1.809V24.156h1.318V32H48.53l.015-1.157a2.659,2.659,0,0,1-.637.754,2.8,2.8,0,0,1-1.831.615,2.362,2.362,0,0,1-2.285-1.121,3.337,3.337,0,0,1-.33-1.6V24.156Zm8.035,5.757a1.086,1.086,0,0,0,.417.9,1.548,1.548,0,0,0,.989.33,3.006,3.006,0,0,0,1.348-.322,1.814,1.814,0,0,0,1.1-1.75V28.008a2.255,2.255,0,0,1-.623.256,5.3,5.3,0,0,1-.747.146l-.8.1a3.053,3.053,0,0,0-1.077.3A1.17,1.17,0,0,0,52.844,29.913Zm3.193-2.666a.716.716,0,0,0,.608-.381,1.159,1.159,0,0,0,.088-.505,1.071,1.071,0,0,0-.48-.978,2.574,2.574,0,0,0-1.373-.3,1.745,1.745,0,0,0-1.465.557,1.831,1.831,0,0,0-.315.916H51.87a2.265,2.265,0,0,1,.941-2.018,3.864,3.864,0,0,1,2.1-.568,4.27,4.27,0,0,1,2.249.527,1.789,1.789,0,0,1,.857,1.641v4.519a.579.579,0,0,0,.084.33.406.406,0,0,0,.355.125q.088,0,.2-.011t.234-.033v.974a3.672,3.672,0,0,1-.469.11,3.426,3.426,0,0,1-.439.022,1.084,1.084,0,0,1-.989-.483,1.866,1.866,0,0,1-.227-.725,3.354,3.354,0,0,1-1.157.916,3.58,3.58,0,0,1-1.663.388,2.472,2.472,0,0,1-1.783-.663,2.2,2.2,0,0,1-.692-1.659,2.137,2.137,0,0,1,.681-1.692,3.241,3.241,0,0,1,1.787-.74Zm4.175-6.006h1.318V32H60.212Zm6.563,2.739a3.578,3.578,0,0,1,1.619.392,2.985,2.985,0,0,1,1.194,1.014,3.5,3.5,0,0,1,.527,1.384,9.057,9.057,0,0,1,.117,1.729h-5.75a3.355,3.355,0,0,0,.564,1.915,1.888,1.888,0,0,0,1.633.721,2.111,2.111,0,0,0,1.648-.681,2.3,2.3,0,0,0,.5-.916h1.3a2.73,2.73,0,0,1-.341.963,3.426,3.426,0,0,1-.648.868,3.072,3.072,0,0,1-1.487.791,4.517,4.517,0,0,1-1.077.117,3.3,3.3,0,0,1-2.483-1.066,4.146,4.146,0,0,1-1.018-2.985,4.508,4.508,0,0,1,1.025-3.069A3.383,3.383,0,0,1,66.775,23.98Zm2.1,3.472a3.416,3.416,0,0,0-.374-1.37,1.915,1.915,0,0,0-1.809-.952,2.005,2.005,0,0,0-1.523.656,2.476,2.476,0,0,0-.652,1.666Zm3.757,2.087a1.917,1.917,0,0,0,.33,1.011,2.071,2.071,0,0,0,1.729.637,2.549,2.549,0,0,0,1.289-.319,1.058,1.058,0,0,0,.557-.985.842.842,0,0,0-.447-.769,5.312,5.312,0,0,0-1.128-.374l-1.047-.264a5.109,5.109,0,0,1-1.479-.557,1.664,1.664,0,0,1-.85-1.479,2.261,2.261,0,0,1,.8-1.8,3.2,3.2,0,0,1,2.157-.688,2.994,2.994,0,0,1,2.556,1.04,2.257,2.257,0,0,1,.476,1.421H76.333a1.525,1.525,0,0,0-.315-.813,2.009,2.009,0,0,0-1.575-.52,1.882,1.882,0,0,0-1.132.286.9.9,0,0,0-.385.754.929.929,0,0,0,.505.82,3.037,3.037,0,0,0,.864.322l.872.212a6.739,6.739,0,0,1,1.9.667,1.765,1.765,0,0,1,.769,1.589,2.422,2.422,0,0,1-.795,1.809,3.383,3.383,0,0,1-2.421.762,3.248,3.248,0,0,1-2.479-.795,3.005,3.005,0,0,1-.78-1.967Zm11.528-5.383,2.095,6.387,2.19-6.387H89.89L86.931,32H85.525l-2.893-7.844Zm6.855.037h1.34V32h-1.34Zm0-2.952h1.34v1.494h-1.34Zm4.343,8.672a1.086,1.086,0,0,0,.417.9,1.548,1.548,0,0,0,.989.33,3.006,3.006,0,0,0,1.348-.322,1.814,1.814,0,0,0,1.1-1.75V28.008a2.255,2.255,0,0,1-.623.256,5.3,5.3,0,0,1-.747.146l-.8.1a3.053,3.053,0,0,0-1.077.3A1.17,1.17,0,0,0,95.361,29.913Zm3.193-2.666a.716.716,0,0,0,.608-.381,1.159,1.159,0,0,0,.088-.505,1.071,1.071,0,0,0-.48-.978,2.574,2.574,0,0,0-1.373-.3,1.745,1.745,0,0,0-1.465.557,1.831,1.831,0,0,0-.315.916h-1.23a2.265,2.265,0,0,1,.941-2.018,3.864,3.864,0,0,1,2.1-.568,4.27,4.27,0,0,1,2.249.527,1.789,1.789,0,0,1,.857,1.641v4.519a.579.579,0,0,0,.084.33.406.406,0,0,0,.355.125q.088,0,.2-.011t.234-.033v.974a3.672,3.672,0,0,1-.469.11,3.426,3.426,0,0,1-.439.022,1.084,1.084,0,0,1-.989-.483,1.866,1.866,0,0,1-.227-.725,3.354,3.354,0,0,1-1.157.916,3.58,3.58,0,0,1-1.663.388,2.472,2.472,0,0,1-1.783-.663,2.2,2.2,0,0,1-.692-1.659,2.137,2.137,0,0,1,.681-1.692,3.241,3.241,0,0,1,1.787-.74Zm5.457-4.482h-1.318V21.241h1.318Zm-2.563,11.221a2.624,2.624,0,0,0,1.066-.157q.179-.128.179-.8V24.192h1.318v8.972a2.367,2.367,0,0,1-.278,1.282,1.925,1.925,0,0,1-1.75.718q-.1,0-.2-.007t-.333-.029Zm5.588-4.072a1.086,1.086,0,0,0,.417.9,1.548,1.548,0,0,0,.989.33,3.006,3.006,0,0,0,1.348-.322,1.814,1.814,0,0,0,1.1-1.75V28.008a2.255,2.255,0,0,1-.623.256,5.3,5.3,0,0,1-.747.146l-.8.1a3.053,3.053,0,0,0-1.077.3A1.17,1.17,0,0,0,107.036,29.913Zm3.193-2.666a.716.716,0,0,0,.608-.381,1.159,1.159,0,0,0,.088-.505,1.071,1.071,0,0,0-.48-.978,2.574,2.574,0,0,0-1.373-.3,1.745,1.745,0,0,0-1.465.557,1.831,1.831,0,0,0-.315.916h-1.23A2.265,2.265,0,0,1,107,24.533a3.864,3.864,0,0,1,2.1-.568,4.27,4.27,0,0,1,2.249.527,1.789,1.789,0,0,1,.857,1.641v4.519a.579.579,0,0,0,.084.33.406.406,0,0,0,.355.125q.088,0,.2-.011t.234-.033v.974a3.672,3.672,0,0,1-.469.11,3.426,3.426,0,0,1-.439.022,1.084,1.084,0,0,1-.989-.483,1.866,1.866,0,0,1-.227-.725,3.354,3.354,0,0,1-1.157.916,3.58,3.58,0,0,1-1.663.388,2.472,2.472,0,0,1-1.783-.663,2.2,2.2,0,0,1-.692-1.659,2.137,2.137,0,0,1,.681-1.692,3.241,3.241,0,0,1,1.787-.74Zm4.138-3.091h1.252v1.113a3.513,3.513,0,0,1,1.179-.989,3.145,3.145,0,0,1,1.384-.3,2.282,2.282,0,0,1,2.256,1.165,4.135,4.135,0,0,1,.322,1.824V32h-1.34V27.056a2.677,2.677,0,0,0-.212-1.157,1.288,1.288,0,0,0-1.274-.732,2.6,2.6,0,0,0-.769.1,1.981,1.981,0,0,0-.952.645,1.94,1.94,0,0,0-.428.8,5.4,5.4,0,0,0-.1,1.183V32h-1.318Zm13.521,5.757a1.086,1.086,0,0,0,.417.9,1.548,1.548,0,0,0,.989.33,3.006,3.006,0,0,0,1.348-.322,1.814,1.814,0,0,0,1.1-1.75V28.008a2.255,2.255,0,0,1-.623.256,5.3,5.3,0,0,1-.747.146l-.8.1a3.053,3.053,0,0,0-1.077.3A1.17,1.17,0,0,0,127.888,29.913Zm3.193-2.666a.716.716,0,0,0,.608-.381,1.159,1.159,0,0,0,.088-.505,1.071,1.071,0,0,0-.48-.978,2.574,2.574,0,0,0-1.373-.3,1.745,1.745,0,0,0-1.465.557,1.831,1.831,0,0,0-.315.916h-1.23a2.265,2.265,0,0,1,.941-2.018,3.864,3.864,0,0,1,2.1-.568,4.27,4.27,0,0,1,2.249.527,1.789,1.789,0,0,1,.857,1.641v4.519a.579.579,0,0,0,.084.33.406.406,0,0,0,.355.125q.088,0,.2-.011t.234-.033v.974a3.672,3.672,0,0,1-.469.11,3.426,3.426,0,0,1-.439.022,1.084,1.084,0,0,1-.989-.483,1.866,1.866,0,0,1-.227-.725,3.354,3.354,0,0,1-1.157.916,3.58,3.58,0,0,1-1.663.388A2.472,2.472,0,0,1,127.2,31.6a2.2,2.2,0,0,1-.692-1.659,2.137,2.137,0,0,1,.681-1.692,3.241,3.241,0,0,1,1.787-.74ZM1.8,48.169a3.888,3.888,0,0,0,.535,2.109,1.873,1.873,0,0,0,1.714.85,1.805,1.805,0,0,0,1.505-.787,3.718,3.718,0,0,0,.59-2.26,3.341,3.341,0,0,0-.608-2.2,1.9,1.9,0,0,0-1.5-.714,1.982,1.982,0,0,0-1.615.762A3.489,3.489,0,0,0,1.8,48.169Zm1.985-4.153A2.791,2.791,0,0,1,5.3,44.4a3.544,3.544,0,0,1,.8.769V41.2H7.361V52H6.174V50.909a2.852,2.852,0,0,1-1.091,1.047,3.124,3.124,0,0,1-1.443.322,2.922,2.922,0,0,1-2.271-1.1A4.31,4.31,0,0,1,.41,48.243a5.064,5.064,0,0,1,.875-2.97A2.865,2.865,0,0,1,3.787,44.017Zm5.522.176h1.34V52H9.309Zm0-2.952h1.34v1.494H9.309Zm3.662,1.721a2.351,2.351,0,0,1,.286-1.2,2.019,2.019,0,0,1,1.78-.674q.125,0,.256.007t.3.022v1.2q-.205-.015-.3-.018t-.172,0q-.6,0-.718.311a6.154,6.154,0,0,0-.117,1.586h1.3v1.04H14.275V52h-1.3V45.232H11.88v-1.04h1.091Zm7.1,1.018a3.578,3.578,0,0,1,1.619.392,2.985,2.985,0,0,1,1.194,1.014,3.5,3.5,0,0,1,.527,1.384,9.057,9.057,0,0,1,.117,1.729h-5.75a3.355,3.355,0,0,0,.564,1.915,1.888,1.888,0,0,0,1.633.721,2.111,2.111,0,0,0,1.648-.681,2.3,2.3,0,0,0,.5-.916h1.3a2.73,2.73,0,0,1-.341.963,3.426,3.426,0,0,1-.648.868,3.072,3.072,0,0,1-1.487.791,4.517,4.517,0,0,1-1.077.117,3.3,3.3,0,0,1-2.483-1.066,4.146,4.146,0,0,1-1.018-2.985A4.508,4.508,0,0,1,17.4,45.159,3.383,3.383,0,0,1,20.076,43.98Zm2.1,3.472a3.416,3.416,0,0,0-.374-1.37A1.915,1.915,0,0,0,20,45.13a2.005,2.005,0,0,0-1.523.656,2.476,2.476,0,0,0-.652,1.666Zm3.01-3.3H26.44v1.355a2.994,2.994,0,0,1,.754-.963,1.956,1.956,0,0,1,1.384-.568q.037,0,.125.007l.3.029v1.392a1.969,1.969,0,0,0-.216-.029q-.1-.007-.216-.007a1.881,1.881,0,0,0-1.531.641,2.237,2.237,0,0,0-.535,1.476V52H25.188Zm8.225-.176a3.578,3.578,0,0,1,1.619.392,2.985,2.985,0,0,1,1.194,1.014,3.5,3.5,0,0,1,.527,1.384A9.057,9.057,0,0,1,36.87,48.5h-5.75a3.355,3.355,0,0,0,.564,1.915,1.888,1.888,0,0,0,1.633.721,2.111,2.111,0,0,0,1.648-.681,2.3,2.3,0,0,0,.5-.916h1.3a2.73,2.73,0,0,1-.341.963,3.426,3.426,0,0,1-.648.868,3.072,3.072,0,0,1-1.487.791,4.517,4.517,0,0,1-1.077.117,3.3,3.3,0,0,1-2.483-1.066,4.146,4.146,0,0,1-1.018-2.985,4.508,4.508,0,0,1,1.025-3.069A3.383,3.383,0,0,1,33.413,43.98Zm2.1,3.472a3.416,3.416,0,0,0-.374-1.37,1.915,1.915,0,0,0-1.809-.952,2.005,2.005,0,0,0-1.523.656,2.476,2.476,0,0,0-.652,1.666Zm2.974-3.3h1.252v1.113a3.513,3.513,0,0,1,1.179-.989,3.145,3.145,0,0,1,1.384-.3,2.282,2.282,0,0,1,2.256,1.165,4.135,4.135,0,0,1,.322,1.824V52h-1.34V47.056A2.677,2.677,0,0,0,43.33,45.9a1.288,1.288,0,0,0-1.274-.732,2.6,2.6,0,0,0-.769.1,1.981,1.981,0,0,0-.952.645,1.94,1.94,0,0,0-.428.8,5.4,5.4,0,0,0-.1,1.183V52H38.489Zm8.606-2.19h1.333v2.19H49.68v1.077H48.428v5.12a.554.554,0,0,0,.278.549,1.183,1.183,0,0,0,.513.081q.1,0,.205,0t.256-.018V52a2.943,2.943,0,0,1-.472.1,4.491,4.491,0,0,1-.531.029,1.431,1.431,0,0,1-1.252-.472,2.1,2.1,0,0,1-.33-1.227V45.232H46.033V44.156h1.062Zm7.17,2.014a3.578,3.578,0,0,1,1.619.392,2.985,2.985,0,0,1,1.194,1.014,3.5,3.5,0,0,1,.527,1.384,9.057,9.057,0,0,1,.117,1.729h-5.75a3.355,3.355,0,0,0,.564,1.915,1.888,1.888,0,0,0,1.633.721,2.111,2.111,0,0,0,1.648-.681,2.3,2.3,0,0,0,.5-.916h1.3a2.73,2.73,0,0,1-.341.963,3.426,3.426,0,0,1-.648.868,3.072,3.072,0,0,1-1.487.791,4.517,4.517,0,0,1-1.077.117,3.3,3.3,0,0,1-2.483-1.066,4.146,4.146,0,0,1-1.018-2.985,4.508,4.508,0,0,1,1.025-3.069A3.383,3.383,0,0,1,54.265,43.98Zm2.1,3.472a3.416,3.416,0,0,0-.374-1.37,1.915,1.915,0,0,0-1.809-.952,2.005,2.005,0,0,0-1.523.656,2.476,2.476,0,0,0-.652,1.666Zm3.757,2.087a1.917,1.917,0,0,0,.33,1.011,2.071,2.071,0,0,0,1.729.637,2.549,2.549,0,0,0,1.289-.319,1.058,1.058,0,0,0,.557-.985.842.842,0,0,0-.447-.769,5.312,5.312,0,0,0-1.128-.374l-1.047-.264a5.109,5.109,0,0,1-1.479-.557,1.664,1.664,0,0,1-.85-1.479,2.261,2.261,0,0,1,.8-1.8,3.2,3.2,0,0,1,2.157-.688,2.994,2.994,0,0,1,2.556,1.04,2.257,2.257,0,0,1,.476,1.421H63.823a1.525,1.525,0,0,0-.315-.813,2.009,2.009,0,0,0-1.575-.52,1.882,1.882,0,0,0-1.132.286.9.9,0,0,0-.385.754.929.929,0,0,0,.505.82,3.037,3.037,0,0,0,.864.322l.872.212a6.739,6.739,0,0,1,1.9.667,1.765,1.765,0,0,1,.769,1.589,2.422,2.422,0,0,1-.795,1.809,3.383,3.383,0,0,1-2.421.762,3.248,3.248,0,0,1-2.479-.795,3.005,3.005,0,0,1-.78-1.967Zm11.719-1.37a3.888,3.888,0,0,0,.535,2.109,1.873,1.873,0,0,0,1.714.85,1.805,1.805,0,0,0,1.505-.787,3.718,3.718,0,0,0,.59-2.26,3.341,3.341,0,0,0-.608-2.2,1.9,1.9,0,0,0-1.5-.714,1.982,1.982,0,0,0-1.615.762A3.489,3.489,0,0,0,71.843,48.169Zm1.985-4.153a2.791,2.791,0,0,1,1.509.381,3.544,3.544,0,0,1,.8.769V41.2H77.4V52H76.216V50.909a2.852,2.852,0,0,1-1.091,1.047,3.124,3.124,0,0,1-1.443.322,2.922,2.922,0,0,1-2.271-1.1,4.31,4.31,0,0,1-.959-2.933,5.064,5.064,0,0,1,.875-2.97A2.865,2.865,0,0,1,73.828,44.017Zm5.522.176h1.34V52h-1.34Zm0-2.952h1.34v1.494h-1.34Zm4.116,8.3a1.917,1.917,0,0,0,.33,1.011,2.071,2.071,0,0,0,1.729.637,2.549,2.549,0,0,0,1.289-.319,1.058,1.058,0,0,0,.557-.985.842.842,0,0,0-.447-.769,5.312,5.312,0,0,0-1.128-.374l-1.047-.264a5.109,5.109,0,0,1-1.479-.557,1.664,1.664,0,0,1-.85-1.479,2.261,2.261,0,0,1,.8-1.8,3.2,3.2,0,0,1,2.157-.688,2.994,2.994,0,0,1,2.556,1.04,2.257,2.257,0,0,1,.476,1.421H87.166a1.525,1.525,0,0,0-.315-.813,2.009,2.009,0,0,0-1.575-.52,1.882,1.882,0,0,0-1.132.286.9.9,0,0,0-.385.754.929.929,0,0,0,.505.82,3.037,3.037,0,0,0,.864.322l.872.212a6.739,6.739,0,0,1,1.9.667,1.765,1.765,0,0,1,.769,1.589,2.422,2.422,0,0,1-.795,1.809,3.383,3.383,0,0,1-2.421.762,3.248,3.248,0,0,1-2.479-.795,3.005,3.005,0,0,1-.78-1.967Zm6.98-7.573H91.78v2.19h1.252v1.077H91.78v5.12a.554.554,0,0,0,.278.549,1.183,1.183,0,0,0,.513.081q.1,0,.205,0t.256-.018V52a2.943,2.943,0,0,1-.472.1,4.491,4.491,0,0,1-.531.029,1.431,1.431,0,0,1-1.252-.472,2.1,2.1,0,0,1-.33-1.227V45.232H89.385V44.156h1.062Zm4.915,7.947a1.086,1.086,0,0,0,.417.9,1.548,1.548,0,0,0,.989.33,3.006,3.006,0,0,0,1.348-.322,1.814,1.814,0,0,0,1.1-1.75V48.008a2.255,2.255,0,0,1-.623.256,5.3,5.3,0,0,1-.747.146l-.8.1a3.053,3.053,0,0,0-1.077.3A1.17,1.17,0,0,0,95.361,49.913Zm3.193-2.666a.716.716,0,0,0,.608-.381,1.159,1.159,0,0,0,.088-.505,1.071,1.071,0,0,0-.48-.978,2.574,2.574,0,0,0-1.373-.3,1.745,1.745,0,0,0-1.465.557,1.831,1.831,0,0,0-.315.916h-1.23a2.265,2.265,0,0,1,.941-2.018,3.864,3.864,0,0,1,2.1-.568,4.27,4.27,0,0,1,2.249.527,1.789,1.789,0,0,1,.857,1.641v4.519a.579.579,0,0,0,.084.33.406.406,0,0,0,.355.125q.088,0,.2-.011t.234-.033v.974a3.672,3.672,0,0,1-.469.11,3.426,3.426,0,0,1-.439.022,1.084,1.084,0,0,1-.989-.483,1.866,1.866,0,0,1-.227-.725,3.354,3.354,0,0,1-1.157.916,3.58,3.58,0,0,1-1.663.388,2.472,2.472,0,0,1-1.783-.663,2.2,2.2,0,0,1-.692-1.659,2.137,2.137,0,0,1,.681-1.692,3.241,3.241,0,0,1,1.787-.74Zm4.138-3.091h1.252v1.113a3.513,3.513,0,0,1,1.179-.989,3.145,3.145,0,0,1,1.384-.3,2.282,2.282,0,0,1,2.256,1.165,4.135,4.135,0,0,1,.322,1.824V52h-1.34V47.056a2.677,2.677,0,0,0-.212-1.157,1.288,1.288,0,0,0-1.274-.732,2.6,2.6,0,0,0-.769.1,1.981,1.981,0,0,0-.952.645,1.94,1.94,0,0,0-.428.8,5.4,5.4,0,0,0-.1,1.183V52h-1.318Zm11.367-.227a3.42,3.42,0,0,1,2.157.645,3.088,3.088,0,0,1,1,2.219h-1.282a2.366,2.366,0,0,0-.535-1.2,1.689,1.689,0,0,0-1.34-.48,1.852,1.852,0,0,0-1.8,1.23,4.888,4.888,0,0,0-.352,1.97,3.708,3.708,0,0,0,.5,1.985,1.931,1.931,0,0,0,2.867.3,2.759,2.759,0,0,0,.663-1.373h1.282a3.1,3.1,0,0,1-3.347,3,3,3,0,0,1-2.454-1.124,4.3,4.3,0,0,1-.916-2.809,4.732,4.732,0,0,1,1-3.215A3.242,3.242,0,0,1,114.06,43.929Zm4.475.264h1.34V52h-1.34Zm0-2.952h1.34v1.494h-1.34Zm4.343,8.672a1.086,1.086,0,0,0,.417.9,1.548,1.548,0,0,0,.989.33,3.006,3.006,0,0,0,1.348-.322,1.814,1.814,0,0,0,1.1-1.75V48.008a2.255,2.255,0,0,1-.623.256,5.3,5.3,0,0,1-.747.146l-.8.1a3.053,3.053,0,0,0-1.077.3A1.17,1.17,0,0,0,122.878,49.913Zm3.193-2.666a.716.716,0,0,0,.608-.381,1.159,1.159,0,0,0,.088-.505,1.071,1.071,0,0,0-.48-.978,2.574,2.574,0,0,0-1.373-.3,1.745,1.745,0,0,0-1.465.557,1.831,1.831,0,0,0-.315.916H121.9a2.265,2.265,0,0,1,.941-2.018,3.864,3.864,0,0,1,2.1-.568,4.27,4.27,0,0,1,2.249.527,1.789,1.789,0,0,1,.857,1.641v4.519a.579.579,0,0,0,.084.33.406.406,0,0,0,.355.125q.088,0,.2-.011t.234-.033v.974a3.672,3.672,0,0,1-.469.11,3.426,3.426,0,0,1-.439.022,1.084,1.084,0,0,1-.989-.483,1.866,1.866,0,0,1-.227-.725,3.354,3.354,0,0,1-1.157.916,3.58,3.58,0,0,1-1.663.388,2.472,2.472,0,0,1-1.783-.663,2.2,2.2,0,0,1-.692-1.659,2.137,2.137,0,0,1,.681-1.692,3.241,3.241,0,0,1,1.787-.74Zm4.922,2.292a1.917,1.917,0,0,0,.33,1.011,2.071,2.071,0,0,0,1.729.637,2.549,2.549,0,0,0,1.289-.319,1.058,1.058,0,0,0,.557-.985.842.842,0,0,0-.447-.769,5.312,5.312,0,0,0-1.128-.374l-1.047-.264a5.109,5.109,0,0,1-1.479-.557,1.664,1.664,0,0,1-.85-1.479,2.261,2.261,0,0,1,.8-1.8,3.2,3.2,0,0,1,2.157-.688,2.994,2.994,0,0,1,2.556,1.04,2.257,2.257,0,0,1,.476,1.421h-1.245a1.525,1.525,0,0,0-.315-.813,2.009,2.009,0,0,0-1.575-.52,1.882,1.882,0,0,0-1.132.286.9.9,0,0,0-.385.754.929.929,0,0,0,.505.82,3.037,3.037,0,0,0,.864.322l.872.212a6.739,6.739,0,0,1,1.9.667,1.765,1.765,0,0,1,.769,1.589,2.422,2.422,0,0,1-.795,1.809,3.383,3.383,0,0,1-2.421.762,3.248,3.248,0,0,1-2.479-.795,3.005,3.005,0,0,1-.78-1.967ZM.967,61.2H2.285v4.014a3.806,3.806,0,0,1,.842-.835,2.842,2.842,0,0,1,1.589-.417,2.351,2.351,0,0,1,2.314,1.194,4.071,4.071,0,0,1,.33,1.809V72H6.006V67.056a2.765,2.765,0,0,0-.22-1.267,1.4,1.4,0,0,0-1.348-.645,2.245,2.245,0,0,0-1.487.564,2.712,2.712,0,0,0-.667,2.131V72H.967Zm9.353,8.708a1.086,1.086,0,0,0,.417.9,1.548,1.548,0,0,0,.989.33,3.006,3.006,0,0,0,1.348-.322,1.814,1.814,0,0,0,1.1-1.75V68.008a2.255,2.255,0,0,1-.623.256,5.3,5.3,0,0,1-.747.146l-.8.1a3.053,3.053,0,0,0-1.077.3A1.17,1.17,0,0,0,10.32,69.913Zm3.193-2.666a.716.716,0,0,0,.608-.381,1.159,1.159,0,0,0,.088-.505,1.071,1.071,0,0,0-.48-.978,2.574,2.574,0,0,0-1.373-.3,1.745,1.745,0,0,0-1.465.557,1.831,1.831,0,0,0-.315.916H9.346a2.265,2.265,0,0,1,.941-2.018,3.864,3.864,0,0,1,2.1-.568,4.27,4.27,0,0,1,2.249.527,1.789,1.789,0,0,1,.857,1.641v4.519a.579.579,0,0,0,.084.33.406.406,0,0,0,.355.125q.088,0,.2-.011t.234-.033v.974a3.672,3.672,0,0,1-.469.11,3.426,3.426,0,0,1-.439.022,1.084,1.084,0,0,1-.989-.483,1.866,1.866,0,0,1-.227-.725,3.354,3.354,0,0,1-1.157.916,3.58,3.58,0,0,1-1.663.388A2.472,2.472,0,0,1,9.635,71.6a2.2,2.2,0,0,1-.692-1.659,2.137,2.137,0,0,1,.681-1.692,3.241,3.241,0,0,1,1.787-.74Zm7.163-3.318a3.42,3.42,0,0,1,2.157.645,3.088,3.088,0,0,1,1,2.219H22.551a2.366,2.366,0,0,0-.535-1.2,1.689,1.689,0,0,0-1.34-.48,1.852,1.852,0,0,0-1.8,1.23,4.888,4.888,0,0,0-.352,1.97,3.708,3.708,0,0,0,.5,1.985,1.931,1.931,0,0,0,2.867.3,2.759,2.759,0,0,0,.663-1.373h1.282a3.44,3.44,0,0,1-1.1,2.281,3.428,3.428,0,0,1-2.249.721A3,3,0,0,1,18.032,71.1a4.3,4.3,0,0,1-.916-2.809,4.732,4.732,0,0,1,1-3.215A3.242,3.242,0,0,1,20.676,63.929Zm4.475.264h1.34V72h-1.34Zm0-2.952h1.34v1.494h-1.34Zm4.343,8.672a1.086,1.086,0,0,0,.417.9,1.548,1.548,0,0,0,.989.33,3.006,3.006,0,0,0,1.348-.322,1.814,1.814,0,0,0,1.1-1.75V68.008a2.255,2.255,0,0,1-.623.256,5.3,5.3,0,0,1-.747.146l-.8.1a3.053,3.053,0,0,0-1.077.3A1.17,1.17,0,0,0,29.495,69.913Zm3.193-2.666a.716.716,0,0,0,.608-.381,1.159,1.159,0,0,0,.088-.505,1.071,1.071,0,0,0-.48-.978,2.574,2.574,0,0,0-1.373-.3,1.745,1.745,0,0,0-1.465.557,1.831,1.831,0,0,0-.315.916h-1.23a2.265,2.265,0,0,1,.941-2.018,3.864,3.864,0,0,1,2.1-.568,4.27,4.27,0,0,1,2.249.527,1.789,1.789,0,0,1,.857,1.641v4.519a.579.579,0,0,0,.084.33.406.406,0,0,0,.355.125q.088,0,.2-.011t.234-.033v.974a3.672,3.672,0,0,1-.469.11,3.426,3.426,0,0,1-.439.022,1.084,1.084,0,0,1-.989-.483,1.866,1.866,0,0,1-.227-.725,3.354,3.354,0,0,1-1.157.916,3.58,3.58,0,0,1-1.663.388A2.472,2.472,0,0,1,28.81,71.6a2.2,2.2,0,0,1-.692-1.659A2.137,2.137,0,0,1,28.8,68.25a3.241,3.241,0,0,1,1.787-.74ZM42,69.913a1.086,1.086,0,0,0,.417.9,1.548,1.548,0,0,0,.989.33,3.006,3.006,0,0,0,1.348-.322,1.814,1.814,0,0,0,1.1-1.75V68.008a2.255,2.255,0,0,1-.623.256,5.3,5.3,0,0,1-.747.146l-.8.1a3.053,3.053,0,0,0-1.077.3A1.17,1.17,0,0,0,42,69.913ZM45.2,67.247a.716.716,0,0,0,.608-.381,1.159,1.159,0,0,0,.088-.505,1.071,1.071,0,0,0-.48-.978,2.574,2.574,0,0,0-1.373-.3,1.745,1.745,0,0,0-1.465.557,1.831,1.831,0,0,0-.315.916H41.03a2.265,2.265,0,0,1,.941-2.018,3.864,3.864,0,0,1,2.1-.568,4.27,4.27,0,0,1,2.249.527,1.789,1.789,0,0,1,.857,1.641v4.519a.579.579,0,0,0,.084.33.406.406,0,0,0,.355.125q.088,0,.2-.011t.234-.033v.974a3.672,3.672,0,0,1-.469.11,3.426,3.426,0,0,1-.439.022,1.084,1.084,0,0,1-.989-.483,1.866,1.866,0,0,1-.227-.725,3.354,3.354,0,0,1-1.157.916,3.58,3.58,0,0,1-1.663.388A2.472,2.472,0,0,1,41.32,71.6a2.2,2.2,0,0,1-.692-1.659,2.137,2.137,0,0,1,.681-1.692,3.241,3.241,0,0,1,1.787-.74Zm4.175-3.091h1.252v1.355a2.994,2.994,0,0,1,.754-.963,1.956,1.956,0,0,1,1.384-.568q.037,0,.125.007l.3.029v1.392a1.969,1.969,0,0,0-.216-.029q-.1-.007-.216-.007a1.881,1.881,0,0,0-1.531.641,2.237,2.237,0,0,0-.535,1.476V72H49.373Zm5,0H55.62v1.355a2.994,2.994,0,0,1,.754-.963,1.956,1.956,0,0,1,1.384-.568q.037,0,.125.007l.3.029v1.392a1.969,1.969,0,0,0-.216-.029q-.1-.007-.216-.007a1.881,1.881,0,0,0-1.531.641,2.237,2.237,0,0,0-.535,1.476V72H54.368Zm4.958.037h1.34V72h-1.34Zm0-2.952h1.34v1.494h-1.34Zm3.23-.037h1.282v3.9a2.873,2.873,0,0,1,2.336-1.157,3.056,3.056,0,0,1,2.377,1.007,4.29,4.29,0,0,1,.912,2.97,5.094,5.094,0,0,1-.9,3.091,2.922,2.922,0,0,1-2.5,1.23,2.559,2.559,0,0,1-1.509-.432,3.644,3.644,0,0,1-.784-.82v1H62.556Zm3.428,9.88a1.762,1.762,0,0,0,1.6-.85,4.183,4.183,0,0,0,.531-2.241,3.679,3.679,0,0,0-.531-2.051,1.749,1.749,0,0,0-1.564-.813,2.181,2.181,0,0,0-1.578.667,2.993,2.993,0,0,0-.677,2.2,4.856,4.856,0,0,0,.278,1.794A1.923,1.923,0,0,0,65.984,71.084Zm6.028-1.172a1.086,1.086,0,0,0,.417.9,1.548,1.548,0,0,0,.989.33,3.006,3.006,0,0,0,1.348-.322,1.814,1.814,0,0,0,1.1-1.75V68.008a2.255,2.255,0,0,1-.623.256,5.3,5.3,0,0,1-.747.146l-.8.1a3.053,3.053,0,0,0-1.077.3A1.17,1.17,0,0,0,72.012,69.913Zm3.193-2.666a.716.716,0,0,0,.608-.381,1.159,1.159,0,0,0,.088-.505,1.071,1.071,0,0,0-.48-.978,2.574,2.574,0,0,0-1.373-.3,1.745,1.745,0,0,0-1.465.557,1.831,1.831,0,0,0-.315.916h-1.23a2.265,2.265,0,0,1,.941-2.018,3.864,3.864,0,0,1,2.1-.568,4.27,4.27,0,0,1,2.249.527,1.789,1.789,0,0,1,.857,1.641v4.519a.579.579,0,0,0,.084.33.406.406,0,0,0,.355.125q.088,0,.2-.011t.234-.033v.974a3.672,3.672,0,0,1-.469.11,3.426,3.426,0,0,1-.439.022,1.084,1.084,0,0,1-.989-.483,1.866,1.866,0,0,1-.227-.725,3.354,3.354,0,0,1-1.157.916,3.58,3.58,0,0,1-1.663.388,2.472,2.472,0,0,1-1.783-.663,2.2,2.2,0,0,1-.692-1.659,2.137,2.137,0,0,1,.681-1.692,3.241,3.241,0,0,1,1.787-.74Zm9.141.923a3.888,3.888,0,0,0,.535,2.109,1.873,1.873,0,0,0,1.714.85,1.805,1.805,0,0,0,1.505-.787,3.718,3.718,0,0,0,.59-2.26,3.341,3.341,0,0,0-.608-2.2,1.9,1.9,0,0,0-1.5-.714,1.982,1.982,0,0,0-1.615.762A3.489,3.489,0,0,0,84.346,68.169Zm1.985-4.153a2.791,2.791,0,0,1,1.509.381,3.544,3.544,0,0,1,.8.769V61.2H89.9V72H88.718V70.909a2.852,2.852,0,0,1-1.091,1.047,3.124,3.124,0,0,1-1.443.322,2.922,2.922,0,0,1-2.271-1.1,4.31,4.31,0,0,1-.959-2.933,5.064,5.064,0,0,1,.875-2.97A2.865,2.865,0,0,1,86.331,64.017Zm8.789-.037a3.578,3.578,0,0,1,1.619.392,2.985,2.985,0,0,1,1.194,1.014,3.5,3.5,0,0,1,.527,1.384,9.057,9.057,0,0,1,.117,1.729h-5.75a3.355,3.355,0,0,0,.564,1.915,1.888,1.888,0,0,0,1.633.721,2.111,2.111,0,0,0,1.648-.681,2.3,2.3,0,0,0,.5-.916h1.3a2.73,2.73,0,0,1-.341.963,3.426,3.426,0,0,1-.648.868,3.072,3.072,0,0,1-1.487.791,4.517,4.517,0,0,1-1.077.117,3.3,3.3,0,0,1-2.483-1.066,4.146,4.146,0,0,1-1.018-2.985,4.508,4.508,0,0,1,1.025-3.069A3.383,3.383,0,0,1,95.12,63.98Zm2.1,3.472a3.416,3.416,0,0,0-.374-1.37,1.915,1.915,0,0,0-1.809-.952,2.005,2.005,0,0,0-1.523.656,2.476,2.476,0,0,0-.652,1.666Zm3.01-6.211h1.318V72h-1.318Zm10.774,9.873a1.881,1.881,0,0,0,1.534-.773,3.677,3.677,0,0,0,.612-2.311,4.313,4.313,0,0,0-.271-1.611,1.986,1.986,0,0,0-3.75.073,5.428,5.428,0,0,0-.271,1.86,3.944,3.944,0,0,0,.271,1.545A1.87,1.87,0,0,0,111.006,71.114Zm-3.413-6.921h1.282v1.04a3.2,3.2,0,0,1,.864-.828,2.782,2.782,0,0,1,1.567-.439,2.947,2.947,0,0,1,2.263,1.022,4.186,4.186,0,0,1,.93,2.919,4.482,4.482,0,0,1-1.34,3.662,3.028,3.028,0,0,1-1.978.7,2.684,2.684,0,0,1-1.487-.388,3.426,3.426,0,0,1-.784-.754v4.006h-1.318Zm9.456,5.72a1.086,1.086,0,0,0,.417.9,1.548,1.548,0,0,0,.989.33,3.006,3.006,0,0,0,1.348-.322,1.814,1.814,0,0,0,1.1-1.75V68.008a2.255,2.255,0,0,1-.623.256,5.3,5.3,0,0,1-.747.146l-.8.1a3.053,3.053,0,0,0-1.077.3A1.17,1.17,0,0,0,117.048,69.913Zm3.193-2.666a.716.716,0,0,0,.608-.381,1.159,1.159,0,0,0,.088-.505,1.071,1.071,0,0,0-.48-.978,2.574,2.574,0,0,0-1.373-.3,1.745,1.745,0,0,0-1.465.557,1.831,1.831,0,0,0-.315.916h-1.23a2.265,2.265,0,0,1,.941-2.018,3.864,3.864,0,0,1,2.1-.568,4.27,4.27,0,0,1,2.249.527,1.789,1.789,0,0,1,.857,1.641v4.519a.579.579,0,0,0,.084.33.406.406,0,0,0,.355.125q.088,0,.2-.011t.234-.033v.974a3.672,3.672,0,0,1-.469.11,3.426,3.426,0,0,1-.439.022,1.084,1.084,0,0,1-.989-.483,1.866,1.866,0,0,1-.227-.725,3.354,3.354,0,0,1-1.157.916,3.58,3.58,0,0,1-1.663.388,2.472,2.472,0,0,1-1.783-.663,2.2,2.2,0,0,1-.692-1.659,2.137,2.137,0,0,1,.681-1.692,3.241,3.241,0,0,1,1.787-.74Zm7.449,3.867a1.881,1.881,0,0,0,1.534-.773,3.677,3.677,0,0,0,.612-2.311,4.313,4.313,0,0,0-.271-1.611,1.986,1.986,0,0,0-3.75.073,5.428,5.428,0,0,0-.271,1.86,3.944,3.944,0,0,0,.271,1.545A1.87,1.87,0,0,0,127.69,71.114Zm-3.413-6.921h1.282v1.04a3.2,3.2,0,0,1,.864-.828,2.782,2.782,0,0,1,1.567-.439,2.947,2.947,0,0,1,2.263,1.022,4.186,4.186,0,0,1,.93,2.919,4.482,4.482,0,0,1-1.34,3.662,3.028,3.028,0,0,1-1.978.7,2.684,2.684,0,0,1-1.487-.388,3.426,3.426,0,0,1-.784-.754v4.006h-1.318Zm11.711-.212a3.578,3.578,0,0,1,1.619.392,2.985,2.985,0,0,1,1.194,1.014,3.5,3.5,0,0,1,.527,1.384,9.057,9.057,0,0,1,.117,1.729H133.7a3.355,3.355,0,0,0,.564,1.915,1.888,1.888,0,0,0,1.633.721,2.111,2.111,0,0,0,1.648-.681,2.3,2.3,0,0,0,.5-.916h1.3A2.73,2.73,0,0,1,139,70.5a3.426,3.426,0,0,1-.648.868,3.072,3.072,0,0,1-1.487.791,4.517,4.517,0,0,1-1.077.117,3.3,3.3,0,0,1-2.483-1.066,4.146,4.146,0,0,1-1.018-2.985,4.508,4.508,0,0,1,1.025-3.069A3.383,3.383,0,0,1,135.989,63.98Zm2.1,3.472a3.416,3.416,0,0,0-.374-1.37,1.915,1.915,0,0,0-1.809-.952,2.005,2.005,0,0,0-1.523.656,2.476,2.476,0,0,0-.652,1.666Zm3.01-6.211h1.318V72H141.1Z" transform="translate(-819 6101)" fill="#00223d"/>
    <path id="Trazado_37044" data-name="Trazado 37044" d="M2.391-12.911l3.709,11,3.665-11h1.96L7.014,0H5.159L.457-12.911ZM13.052-2.5a1.3,1.3,0,0,0,.5,1.081,1.857,1.857,0,0,0,1.187.4,3.608,3.608,0,0,0,1.617-.387,2.176,2.176,0,0,0,1.318-2.1V-4.79a2.707,2.707,0,0,1-.747.308,6.366,6.366,0,0,1-.9.176l-.958.123a3.664,3.664,0,0,0-1.292.36A1.4,1.4,0,0,0,13.052-2.5Zm3.832-3.2a.859.859,0,0,0,.729-.457,1.391,1.391,0,0,0,.105-.606,1.285,1.285,0,0,0-.576-1.173A3.089,3.089,0,0,0,15.5-8.306a2.094,2.094,0,0,0-1.758.668,2.2,2.2,0,0,0-.378,1.1H11.883A2.718,2.718,0,0,1,13.012-8.96a4.637,4.637,0,0,1,2.518-.681,5.124,5.124,0,0,1,2.7.633A2.147,2.147,0,0,1,19.257-7.04v5.423a.694.694,0,0,0,.1.4.487.487,0,0,0,.426.149q.105,0,.237-.013t.281-.04V.044a4.406,4.406,0,0,1-.562.132A4.111,4.111,0,0,1,19.213.2a1.3,1.3,0,0,1-1.187-.58,2.239,2.239,0,0,1-.272-.87,4.025,4.025,0,0,1-1.389,1.1,4.3,4.3,0,0,1-2,.466,2.967,2.967,0,0,1-2.14-.8A2.642,2.642,0,0,1,11.4-2.47a2.564,2.564,0,0,1,.817-2.03,3.889,3.889,0,0,1,2.145-.888ZM22.79-2.953a2.3,2.3,0,0,0,.4,1.213,2.485,2.485,0,0,0,2.074.765,3.059,3.059,0,0,0,1.547-.382,1.27,1.27,0,0,0,.668-1.182,1.011,1.011,0,0,0-.536-.923,6.374,6.374,0,0,0-1.354-.448l-1.257-.316A6.131,6.131,0,0,1,22.553-4.9a2,2,0,0,1-1.02-1.775A2.713,2.713,0,0,1,22.5-8.833a3.839,3.839,0,0,1,2.588-.826,3.593,3.593,0,0,1,3.067,1.248,2.708,2.708,0,0,1,.571,1.705H27.229a1.83,1.83,0,0,0-.378-.976,2.41,2.41,0,0,0-1.89-.624,2.259,2.259,0,0,0-1.358.343,1.074,1.074,0,0,0-.461.905,1.114,1.114,0,0,0,.606.984,3.644,3.644,0,0,0,1.037.387l1.046.255a8.087,8.087,0,0,1,2.285.8,2.118,2.118,0,0,1,.923,1.907,2.906,2.906,0,0,1-.954,2.171,4.059,4.059,0,0,1-2.9.914,3.9,3.9,0,0,1-2.975-.954,3.606,3.606,0,0,1-.936-2.36ZM34.585-1.02A2.182,2.182,0,0,0,36.743-2.21a5.933,5.933,0,0,0,.584-2.65A4.718,4.718,0,0,0,36.905-7a2.373,2.373,0,0,0-2.3-1.3A2.271,2.271,0,0,0,32.493-7.2a5.133,5.133,0,0,0-.659,2.672,4.465,4.465,0,0,0,.659,2.5A2.322,2.322,0,0,0,34.585-1.02Zm.062-8.666a4.262,4.262,0,0,1,3.076,1.213A4.736,4.736,0,0,1,38.979-4.9a6.122,6.122,0,0,1-1.107,3.762A4.006,4.006,0,0,1,34.436.343,3.88,3.88,0,0,1,31.351-.971,5.19,5.19,0,0,1,30.208-4.5a5.615,5.615,0,0,1,1.2-3.779A4.041,4.041,0,0,1,34.646-9.686ZM46.863-4.6A4.666,4.666,0,0,0,47.5-2.065a2.248,2.248,0,0,0,2.057,1.02,2.166,2.166,0,0,0,1.806-.945A4.462,4.462,0,0,0,52.075-4.7a4.009,4.009,0,0,0-.729-2.641,2.276,2.276,0,0,0-1.8-.857,2.378,2.378,0,0,0-1.938.914A4.186,4.186,0,0,0,46.863-4.6ZM49.245-9.58a3.349,3.349,0,0,1,1.811.457,4.253,4.253,0,0,1,.958.923v-4.755h1.521V0H52.11V-1.31A3.423,3.423,0,0,1,50.8-.053a3.748,3.748,0,0,1-1.731.387A3.506,3.506,0,0,1,46.345-.989a5.172,5.172,0,0,1-1.151-3.52,6.076,6.076,0,0,1,1.05-3.564A3.439,3.439,0,0,1,49.245-9.58Zm10.547-.044a4.294,4.294,0,0,1,1.942.47,3.582,3.582,0,0,1,1.433,1.217A4.2,4.2,0,0,1,63.8-6.275,10.868,10.868,0,0,1,63.94-4.2h-6.9a4.026,4.026,0,0,0,.677,2.3,2.266,2.266,0,0,0,1.96.866,2.534,2.534,0,0,0,1.978-.817,2.755,2.755,0,0,0,.6-1.1h1.556A3.276,3.276,0,0,1,63.4-1.8a4.111,4.111,0,0,1-.778,1.042,3.687,3.687,0,0,1-1.784.949,5.42,5.42,0,0,1-1.292.141A3.964,3.964,0,0,1,56.566-.945a4.976,4.976,0,0,1-1.222-3.582,5.41,5.41,0,0,1,1.23-3.683A4.059,4.059,0,0,1,59.792-9.624Zm2.522,4.166A4.1,4.1,0,0,0,61.866-7.1,2.3,2.3,0,0,0,59.7-8.244a2.406,2.406,0,0,0-1.828.787,2.972,2.972,0,0,0-.782,2ZM1.371,7.089H3.12V18.462H9.659V20H1.371ZM12.384,17.5a1.3,1.3,0,0,0,.5,1.081,1.857,1.857,0,0,0,1.187.4,3.608,3.608,0,0,0,1.617-.387,2.176,2.176,0,0,0,1.318-2.1V15.21a2.707,2.707,0,0,1-.747.308,6.366,6.366,0,0,1-.9.176l-.958.123a3.664,3.664,0,0,0-1.292.36A1.4,1.4,0,0,0,12.384,17.5Zm3.832-3.2a.859.859,0,0,0,.729-.457,1.391,1.391,0,0,0,.105-.606,1.285,1.285,0,0,0-.576-1.173,3.089,3.089,0,0,0-1.648-.365,2.094,2.094,0,0,0-1.758.668,2.2,2.2,0,0,0-.378,1.1H11.215a2.718,2.718,0,0,1,1.129-2.421,4.637,4.637,0,0,1,2.518-.681,5.124,5.124,0,0,1,2.7.633,2.147,2.147,0,0,1,1.028,1.969v5.423a.694.694,0,0,0,.1.4.487.487,0,0,0,.426.149q.105,0,.237-.013t.281-.04v1.169a4.406,4.406,0,0,1-.562.132,4.111,4.111,0,0,1-.527.026,1.3,1.3,0,0,1-1.187-.58,2.239,2.239,0,0,1-.272-.87,4.025,4.025,0,0,1-1.389,1.1,4.3,4.3,0,0,1-2,.466,2.967,2.967,0,0,1-2.14-.8,2.642,2.642,0,0,1-.831-1.991,2.564,2.564,0,0,1,.817-2.03,3.889,3.889,0,0,1,2.145-.888Zm4.843-7.251H22.6v4.685a3.447,3.447,0,0,1,2.8-1.389,3.667,3.667,0,0,1,2.852,1.208,5.148,5.148,0,0,1,1.094,3.564,6.112,6.112,0,0,1-1.081,3.709,3.507,3.507,0,0,1-3,1.477,3.071,3.071,0,0,1-1.811-.519,4.372,4.372,0,0,1-.94-.984V20H21.059ZM25.172,18.9a2.114,2.114,0,0,0,1.92-1.02,5.02,5.02,0,0,0,.637-2.689,4.414,4.414,0,0,0-.637-2.461,2.1,2.1,0,0,0-1.876-.976,2.617,2.617,0,0,0-1.894.8,3.592,3.592,0,0,0-.813,2.637,5.827,5.827,0,0,0,.334,2.153A2.308,2.308,0,0,0,25.172,18.9Zm9.756.079a2.182,2.182,0,0,0,2.158-1.191,5.933,5.933,0,0,0,.584-2.65A4.718,4.718,0,0,0,37.248,13a2.373,2.373,0,0,0-2.3-1.3A2.271,2.271,0,0,0,32.836,12.8a5.133,5.133,0,0,0-.659,2.672,4.465,4.465,0,0,0,.659,2.5A2.322,2.322,0,0,0,34.928,18.98Zm.062-8.666a4.262,4.262,0,0,1,3.076,1.213A4.736,4.736,0,0,1,39.322,15.1a6.122,6.122,0,0,1-1.107,3.762,4.006,4.006,0,0,1-3.437,1.485,3.88,3.88,0,0,1-3.085-1.314A5.19,5.19,0,0,1,30.551,15.5a5.615,5.615,0,0,1,1.2-3.779A4.041,4.041,0,0,1,34.989,10.314Zm6.258.272h1.5v1.626a3.592,3.592,0,0,1,.905-1.156,2.347,2.347,0,0,1,1.661-.681q.044,0,.149.009t.36.035v1.67a2.363,2.363,0,0,0-.259-.035q-.119-.009-.259-.009a2.258,2.258,0,0,0-1.837.769,2.684,2.684,0,0,0-.642,1.771V20H41.247ZM48.41,17.5a1.3,1.3,0,0,0,.5,1.081,1.857,1.857,0,0,0,1.187.4,3.608,3.608,0,0,0,1.617-.387,2.176,2.176,0,0,0,1.318-2.1V15.21a2.707,2.707,0,0,1-.747.308,6.366,6.366,0,0,1-.9.176l-.958.123a3.664,3.664,0,0,0-1.292.36A1.4,1.4,0,0,0,48.41,17.5Zm3.832-3.2a.859.859,0,0,0,.729-.457,1.391,1.391,0,0,0,.105-.606,1.285,1.285,0,0,0-.576-1.173,3.089,3.089,0,0,0-1.648-.365,2.094,2.094,0,0,0-1.758.668,2.2,2.2,0,0,0-.378,1.1H47.241a2.718,2.718,0,0,1,1.129-2.421,4.637,4.637,0,0,1,2.518-.681,5.124,5.124,0,0,1,2.7.633,2.147,2.147,0,0,1,1.028,1.969v5.423a.694.694,0,0,0,.1.4.487.487,0,0,0,.426.149q.105,0,.237-.013t.281-.04v1.169a4.406,4.406,0,0,1-.562.132,4.111,4.111,0,0,1-.527.026,1.3,1.3,0,0,1-1.187-.58,2.239,2.239,0,0,1-.272-.87,4.025,4.025,0,0,1-1.389,1.1,4.3,4.3,0,0,1-2,.466,2.967,2.967,0,0,1-2.14-.8,2.642,2.642,0,0,1-.831-1.991,2.564,2.564,0,0,1,.817-2.03,3.889,3.889,0,0,1,2.145-.888Zm5.282-6.337h1.6v2.628h1.5v1.292h-1.5v6.144a.665.665,0,0,0,.334.659,1.42,1.42,0,0,0,.615.1q.114,0,.246,0t.308-.022V20a3.532,3.532,0,0,1-.567.114,5.39,5.39,0,0,1-.637.035,1.717,1.717,0,0,1-1.5-.567,2.519,2.519,0,0,1-.4-1.472V11.879H56.25V10.587h1.274Zm8.42,11.021A2.182,2.182,0,0,0,68.1,17.79a5.933,5.933,0,0,0,.584-2.65A4.718,4.718,0,0,0,68.265,13a2.373,2.373,0,0,0-2.3-1.3A2.271,2.271,0,0,0,63.853,12.8a5.133,5.133,0,0,0-.659,2.672,4.465,4.465,0,0,0,.659,2.5A2.322,2.322,0,0,0,65.944,18.98Zm.062-8.666a4.262,4.262,0,0,1,3.076,1.213A4.736,4.736,0,0,1,70.339,15.1a6.122,6.122,0,0,1-1.107,3.762,4.006,4.006,0,0,1-3.437,1.485,3.88,3.88,0,0,1-3.085-1.314A5.19,5.19,0,0,1,61.567,15.5a5.615,5.615,0,0,1,1.2-3.779A4.041,4.041,0,0,1,66.006,10.314Zm6.258.272h1.5v1.626a3.592,3.592,0,0,1,.905-1.156,2.347,2.347,0,0,1,1.661-.681q.044,0,.149.009t.36.035v1.67a2.363,2.363,0,0,0-.259-.035q-.119-.009-.259-.009a2.258,2.258,0,0,0-1.837.769,2.684,2.684,0,0,0-.642,1.771V20H72.264Zm5.95.044h1.608V20H78.214Zm0-3.542h1.608V8.882H78.214ZM85.948,18.98a2.182,2.182,0,0,0,2.158-1.191,5.933,5.933,0,0,0,.584-2.65A4.718,4.718,0,0,0,88.269,13a2.373,2.373,0,0,0-2.3-1.3A2.271,2.271,0,0,0,83.856,12.8a5.133,5.133,0,0,0-.659,2.672,4.465,4.465,0,0,0,.659,2.5A2.322,2.322,0,0,0,85.948,18.98Zm.062-8.666a4.262,4.262,0,0,1,3.076,1.213A4.736,4.736,0,0,1,90.343,15.1a6.122,6.122,0,0,1-1.107,3.762A4.006,4.006,0,0,1,85.8,20.343a3.88,3.88,0,0,1-3.085-1.314A5.19,5.19,0,0,1,81.571,15.5a5.615,5.615,0,0,1,1.2-3.779A4.041,4.041,0,0,1,86.01,10.314Z" transform="translate(-998 6230)" fill="#00223d"/>
    <path id="Trazado_37045" data-name="Trazado 37045" d="M1.327-12.911h2.5L7.541-2l3.683-10.916H13.7V0H12.041V-7.62q0-.4.018-1.31t.018-1.96L8.394,0H6.662L2.953-10.89v.4q0,.475.022,1.446T3-7.62V0H1.327ZM17.367-2.5a1.3,1.3,0,0,0,.5,1.081,1.857,1.857,0,0,0,1.187.4,3.608,3.608,0,0,0,1.617-.387,2.176,2.176,0,0,0,1.318-2.1V-4.79a2.707,2.707,0,0,1-.747.308,6.366,6.366,0,0,1-.9.176l-.958.123a3.664,3.664,0,0,0-1.292.36A1.4,1.4,0,0,0,17.367-2.5ZM21.2-5.7a.859.859,0,0,0,.729-.457,1.391,1.391,0,0,0,.105-.606,1.285,1.285,0,0,0-.576-1.173,3.089,3.089,0,0,0-1.648-.365,2.094,2.094,0,0,0-1.758.668,2.2,2.2,0,0,0-.378,1.1H16.2A2.718,2.718,0,0,1,17.328-8.96a4.637,4.637,0,0,1,2.518-.681,5.124,5.124,0,0,1,2.7.633A2.147,2.147,0,0,1,23.572-7.04v5.423a.694.694,0,0,0,.1.4.487.487,0,0,0,.426.149q.105,0,.237-.013t.281-.04V.044a4.406,4.406,0,0,1-.562.132A4.111,4.111,0,0,1,23.528.2a1.3,1.3,0,0,1-1.187-.58,2.239,2.239,0,0,1-.272-.87,4.025,4.025,0,0,1-1.389,1.1,4.3,4.3,0,0,1-2,.466,2.967,2.967,0,0,1-2.14-.8,2.642,2.642,0,0,1-.831-1.991,2.564,2.564,0,0,1,.817-2.03,3.889,3.889,0,0,1,2.145-.888Zm4.966-3.709h1.5v1.336a4.215,4.215,0,0,1,1.415-1.187,3.773,3.773,0,0,1,1.661-.36,2.739,2.739,0,0,1,2.707,1.4,4.962,4.962,0,0,1,.387,2.188V0H32.229V-5.933a3.212,3.212,0,0,0-.255-1.389A1.545,1.545,0,0,0,30.445-8.2a3.114,3.114,0,0,0-.923.114,2.377,2.377,0,0,0-1.143.773,2.329,2.329,0,0,0-.514.962,6.478,6.478,0,0,0-.119,1.419V0H26.165Zm13.641-.272a4.1,4.1,0,0,1,2.588.773,3.705,3.705,0,0,1,1.2,2.663H42.056a2.839,2.839,0,0,0-.642-1.446,2.027,2.027,0,0,0-1.608-.576,2.222,2.222,0,0,0-2.162,1.477,5.865,5.865,0,0,0-.422,2.364,4.449,4.449,0,0,0,.6,2.382,2.05,2.05,0,0,0,1.881.967,2.057,2.057,0,0,0,1.56-.6,3.311,3.311,0,0,0,.8-1.648h1.538A4.129,4.129,0,0,1,42.275-.593a4.113,4.113,0,0,1-2.7.866,3.6,3.6,0,0,1-2.944-1.349,5.164,5.164,0,0,1-1.1-3.371,5.678,5.678,0,0,1,1.2-3.858A3.891,3.891,0,0,1,39.806-9.686Zm5.37-3.27h1.582v4.816a4.568,4.568,0,0,1,1.011-1,3.41,3.41,0,0,1,1.907-.5,2.821,2.821,0,0,1,2.777,1.433,4.885,4.885,0,0,1,.4,2.171V0H51.223V-5.933a3.318,3.318,0,0,0-.264-1.521,1.685,1.685,0,0,0-1.617-.773,2.694,2.694,0,0,0-1.784.677,3.254,3.254,0,0,0-.8,2.558V0H45.176ZM56.4-2.5a1.3,1.3,0,0,0,.5,1.081,1.857,1.857,0,0,0,1.187.4A3.608,3.608,0,0,0,59.7-1.415a2.176,2.176,0,0,0,1.318-2.1V-4.79a2.707,2.707,0,0,1-.747.308,6.366,6.366,0,0,1-.9.176l-.958.123a3.664,3.664,0,0,0-1.292.36A1.4,1.4,0,0,0,56.4-2.5Zm3.832-3.2a.859.859,0,0,0,.729-.457,1.391,1.391,0,0,0,.105-.606,1.285,1.285,0,0,0-.576-1.173,3.089,3.089,0,0,0-1.648-.365,2.094,2.094,0,0,0-1.758.668,2.2,2.2,0,0,0-.378,1.1H55.23A2.718,2.718,0,0,1,56.36-8.96a4.637,4.637,0,0,1,2.518-.681,5.124,5.124,0,0,1,2.7.633A2.147,2.147,0,0,1,62.6-7.04v5.423a.694.694,0,0,0,.1.4.487.487,0,0,0,.426.149q.105,0,.237-.013t.281-.04V.044a4.406,4.406,0,0,1-.562.132A4.111,4.111,0,0,1,62.561.2a1.3,1.3,0,0,1-1.187-.58,2.239,2.239,0,0,1-.272-.87,4.025,4.025,0,0,1-1.389,1.1,4.3,4.3,0,0,1-2,.466,2.967,2.967,0,0,1-2.14-.8,2.642,2.642,0,0,1-.831-1.991,2.564,2.564,0,0,1,.817-2.03,3.889,3.889,0,0,1,2.145-.888ZM2.162,15.4A4.666,4.666,0,0,0,2.8,17.935a2.248,2.248,0,0,0,2.057,1.02,2.166,2.166,0,0,0,1.806-.945A4.462,4.462,0,0,0,7.374,15.3a4.009,4.009,0,0,0-.729-2.641,2.276,2.276,0,0,0-1.8-.857,2.378,2.378,0,0,0-1.938.914A4.186,4.186,0,0,0,2.162,15.4ZM4.544,10.42a3.349,3.349,0,0,1,1.811.457,4.253,4.253,0,0,1,.958.923V7.045H8.833V20H7.409V18.69A3.423,3.423,0,0,1,6.1,19.947a3.748,3.748,0,0,1-1.731.387,3.506,3.506,0,0,1-2.725-1.323,5.172,5.172,0,0,1-1.151-3.52,6.076,6.076,0,0,1,1.05-3.564A3.439,3.439,0,0,1,4.544,10.42Zm10.547-.044a4.294,4.294,0,0,1,1.942.47,3.582,3.582,0,0,1,1.433,1.217,4.2,4.2,0,0,1,.633,1.661,10.868,10.868,0,0,1,.141,2.074h-6.9a4.026,4.026,0,0,0,.677,2.3,2.266,2.266,0,0,0,1.96.866,2.534,2.534,0,0,0,1.978-.817,2.755,2.755,0,0,0,.6-1.1h1.556A3.276,3.276,0,0,1,18.7,18.2a4.111,4.111,0,0,1-.778,1.042,3.687,3.687,0,0,1-1.784.949,5.42,5.42,0,0,1-1.292.141,3.964,3.964,0,0,1-2.979-1.279,4.976,4.976,0,0,1-1.222-3.582,5.41,5.41,0,0,1,1.23-3.683A4.059,4.059,0,0,1,15.091,10.376Zm2.522,4.166a4.1,4.1,0,0,0-.448-1.644,2.3,2.3,0,0,0-2.171-1.143,2.406,2.406,0,0,0-1.828.787,2.972,2.972,0,0,0-.782,2ZM26.5,7.959h1.6v2.628h1.5v1.292H28.1v6.144a.665.665,0,0,0,.334.659,1.42,1.42,0,0,0,.615.1q.114,0,.246,0t.308-.022V20a3.532,3.532,0,0,1-.567.114,5.39,5.39,0,0,1-.637.035,1.717,1.717,0,0,1-1.5-.567,2.519,2.519,0,0,1-.4-1.472V11.879H25.225V10.587H26.5Zm4.685,2.672h1.608V20H31.184Zm0-3.542h1.608V8.882H31.184Zm4,3.5h1.5v1.336A4.215,4.215,0,0,1,38.1,10.736a3.773,3.773,0,0,1,1.661-.36,2.739,2.739,0,0,1,2.707,1.4,4.962,4.962,0,0,1,.387,2.188V20H41.247V14.067a3.212,3.212,0,0,0-.255-1.389,1.545,1.545,0,0,0-1.529-.879,3.114,3.114,0,0,0-.923.114,2.377,2.377,0,0,0-1.143.773,2.329,2.329,0,0,0-.514.962,6.478,6.478,0,0,0-.119,1.419V20H35.183ZM45.51,7.959h1.6v2.628h1.5v1.292h-1.5v6.144a.665.665,0,0,0,.334.659,1.42,1.42,0,0,0,.615.1q.114,0,.246,0t.308-.022V20a3.532,3.532,0,0,1-.567.114,5.39,5.39,0,0,1-.637.035,1.717,1.717,0,0,1-1.5-.567,2.519,2.519,0,0,1-.4-1.472V11.879H44.235V10.587H45.51Zm5.9,9.536a1.3,1.3,0,0,0,.5,1.081,1.857,1.857,0,0,0,1.187.4,3.608,3.608,0,0,0,1.617-.387,2.176,2.176,0,0,0,1.318-2.1V15.21a2.707,2.707,0,0,1-.747.308,6.366,6.366,0,0,1-.9.176l-.958.123a3.664,3.664,0,0,0-1.292.36A1.4,1.4,0,0,0,51.407,17.5Zm3.832-3.2a.859.859,0,0,0,.729-.457,1.391,1.391,0,0,0,.105-.606,1.285,1.285,0,0,0-.576-1.173,3.089,3.089,0,0,0-1.648-.365,2.094,2.094,0,0,0-1.758.668,2.2,2.2,0,0,0-.378,1.1H50.238a2.718,2.718,0,0,1,1.129-2.421,4.637,4.637,0,0,1,2.518-.681,5.124,5.124,0,0,1,2.7.633,2.147,2.147,0,0,1,1.028,1.969v5.423a.694.694,0,0,0,.1.4.487.487,0,0,0,.426.149q.105,0,.237-.013t.281-.04v1.169a4.406,4.406,0,0,1-.562.132,4.111,4.111,0,0,1-.527.026,1.3,1.3,0,0,1-1.187-.58,2.239,2.239,0,0,1-.272-.87,4.025,4.025,0,0,1-1.389,1.1,4.3,4.3,0,0,1-2,.466,2.967,2.967,0,0,1-2.14-.8,2.642,2.642,0,0,1-.831-1.991,2.564,2.564,0,0,1,.817-2.03,3.889,3.889,0,0,1,2.145-.888Z" transform="translate(-998 6292)" fill="#00223d"/>
    <path id="Trazado_37046" data-name="Trazado 37046" d="M2.1-2.953A2.3,2.3,0,0,0,2.5-1.74,2.485,2.485,0,0,0,4.57-.976a3.059,3.059,0,0,0,1.547-.382A1.27,1.27,0,0,0,6.785-2.54a1.011,1.011,0,0,0-.536-.923A6.374,6.374,0,0,0,4.9-3.911L3.639-4.228A6.131,6.131,0,0,1,1.863-4.9,2,2,0,0,1,.844-6.671a2.713,2.713,0,0,1,.962-2.162,3.839,3.839,0,0,1,2.588-.826A3.593,3.593,0,0,1,7.462-8.411a2.708,2.708,0,0,1,.571,1.705H6.539a1.83,1.83,0,0,0-.378-.976,2.41,2.41,0,0,0-1.89-.624,2.259,2.259,0,0,0-1.358.343,1.074,1.074,0,0,0-.461.905,1.114,1.114,0,0,0,.606.984A3.644,3.644,0,0,0,4.1-5.687l1.046.255a8.087,8.087,0,0,1,2.285.8A2.118,2.118,0,0,1,8.35-2.725,2.906,2.906,0,0,1,7.4-.554a4.059,4.059,0,0,1-2.9.914A3.9,3.9,0,0,1,1.516-.593,3.606,3.606,0,0,1,.58-2.953ZM13.9-1.02A2.182,2.182,0,0,0,16.053-2.21a5.933,5.933,0,0,0,.584-2.65A4.718,4.718,0,0,0,16.216-7a2.373,2.373,0,0,0-2.3-1.3A2.271,2.271,0,0,0,11.8-7.2a5.133,5.133,0,0,0-.659,2.672,4.465,4.465,0,0,0,.659,2.5A2.322,2.322,0,0,0,13.9-1.02Zm.062-8.666a4.262,4.262,0,0,1,3.076,1.213A4.736,4.736,0,0,1,18.29-4.9a6.122,6.122,0,0,1-1.107,3.762A4.006,4.006,0,0,1,13.746.343,3.88,3.88,0,0,1,10.661-.971,5.19,5.19,0,0,1,9.519-4.5a5.615,5.615,0,0,1,1.2-3.779A4.041,4.041,0,0,1,13.957-9.686Zm6.258-3.226H21.8V0H20.215Zm4.729,3.5,2.514,7.664,2.628-7.664h1.731L28.266,0H26.578L23.106-9.413ZM37.09-9.624a4.294,4.294,0,0,1,1.942.47,3.582,3.582,0,0,1,1.433,1.217A4.2,4.2,0,0,1,41.1-6.275,10.868,10.868,0,0,1,41.238-4.2h-6.9a4.026,4.026,0,0,0,.677,2.3,2.266,2.266,0,0,0,1.96.866,2.534,2.534,0,0,0,1.978-.817,2.755,2.755,0,0,0,.6-1.1h1.556A3.276,3.276,0,0,1,40.7-1.8,4.111,4.111,0,0,1,39.92-.756a3.687,3.687,0,0,1-1.784.949,5.42,5.42,0,0,1-1.292.141A3.964,3.964,0,0,1,33.864-.945a4.976,4.976,0,0,1-1.222-3.582,5.41,5.41,0,0,1,1.23-3.683A4.059,4.059,0,0,1,37.09-9.624Zm2.522,4.166A4.1,4.1,0,0,0,39.164-7.1a2.3,2.3,0,0,0-2.171-1.143,2.406,2.406,0,0,0-1.828.787,2.972,2.972,0,0,0-.782,2Zm3.568-3.955h1.5v1.336A4.215,4.215,0,0,1,46.1-9.264a3.773,3.773,0,0,1,1.661-.36,2.739,2.739,0,0,1,2.707,1.4,4.962,4.962,0,0,1,.387,2.188V0H49.245V-5.933a3.212,3.212,0,0,0-.255-1.389A1.545,1.545,0,0,0,47.461-8.2a3.114,3.114,0,0,0-.923.114,2.377,2.377,0,0,0-1.143.773,2.329,2.329,0,0,0-.514.962,6.478,6.478,0,0,0-.119,1.419V0H43.181Zm10.327-2.628h1.6v2.628h1.5v1.292h-1.5v6.144a.665.665,0,0,0,.334.659,1.42,1.42,0,0,0,.615.1q.114,0,.246,0t.308-.022V0a3.532,3.532,0,0,1-.567.114,5.39,5.39,0,0,1-.637.035,1.717,1.717,0,0,1-1.5-.567,2.519,2.519,0,0,1-.4-1.472V-8.121H52.233V-9.413h1.274Zm8.6,2.417a4.294,4.294,0,0,1,1.942.47,3.582,3.582,0,0,1,1.433,1.217,4.2,4.2,0,0,1,.633,1.661A10.868,10.868,0,0,1,66.261-4.2h-6.9a4.026,4.026,0,0,0,.677,2.3A2.266,2.266,0,0,0,62-1.037a2.534,2.534,0,0,0,1.978-.817,2.755,2.755,0,0,0,.6-1.1h1.556A3.276,3.276,0,0,1,65.72-1.8a4.111,4.111,0,0,1-.778,1.042,3.687,3.687,0,0,1-1.784.949,5.42,5.42,0,0,1-1.292.141A3.964,3.964,0,0,1,58.887-.945a4.976,4.976,0,0,1-1.222-3.582A5.41,5.41,0,0,1,58.9-8.209,4.059,4.059,0,0,1,62.112-9.624Zm2.522,4.166A4.1,4.1,0,0,0,64.187-7.1a2.3,2.3,0,0,0-2.171-1.143,2.406,2.406,0,0,0-1.828.787,2.972,2.972,0,0,0-.782,2Z" transform="translate(-812 6322)" fill="#00223d"/>
    <path id="Trazado_37047" data-name="Trazado 37047" d="M2.391-12.911l3.709,11,3.665-11h1.96L7.014,0H5.159L.457-12.911ZM13.052-2.5a1.3,1.3,0,0,0,.5,1.081,1.857,1.857,0,0,0,1.187.4,3.608,3.608,0,0,0,1.617-.387,2.176,2.176,0,0,0,1.318-2.1V-4.79a2.707,2.707,0,0,1-.747.308,6.366,6.366,0,0,1-.9.176l-.958.123a3.664,3.664,0,0,0-1.292.36A1.4,1.4,0,0,0,13.052-2.5Zm3.832-3.2a.859.859,0,0,0,.729-.457,1.391,1.391,0,0,0,.105-.606,1.285,1.285,0,0,0-.576-1.173A3.089,3.089,0,0,0,15.5-8.306a2.094,2.094,0,0,0-1.758.668,2.2,2.2,0,0,0-.378,1.1H11.883A2.718,2.718,0,0,1,13.012-8.96a4.637,4.637,0,0,1,2.518-.681,5.124,5.124,0,0,1,2.7.633A2.147,2.147,0,0,1,19.257-7.04v5.423a.694.694,0,0,0,.1.4.487.487,0,0,0,.426.149q.105,0,.237-.013t.281-.04V.044a4.406,4.406,0,0,1-.562.132A4.111,4.111,0,0,1,19.213.2a1.3,1.3,0,0,1-1.187-.58,2.239,2.239,0,0,1-.272-.87,4.025,4.025,0,0,1-1.389,1.1,4.3,4.3,0,0,1-2,.466,2.967,2.967,0,0,1-2.14-.8A2.642,2.642,0,0,1,11.4-2.47a2.564,2.564,0,0,1,.817-2.03,3.889,3.889,0,0,1,2.145-.888ZM22.79-2.953a2.3,2.3,0,0,0,.4,1.213,2.485,2.485,0,0,0,2.074.765,3.059,3.059,0,0,0,1.547-.382,1.27,1.27,0,0,0,.668-1.182,1.011,1.011,0,0,0-.536-.923,6.374,6.374,0,0,0-1.354-.448l-1.257-.316A6.131,6.131,0,0,1,22.553-4.9a2,2,0,0,1-1.02-1.775A2.713,2.713,0,0,1,22.5-8.833a3.839,3.839,0,0,1,2.588-.826,3.593,3.593,0,0,1,3.067,1.248,2.708,2.708,0,0,1,.571,1.705H27.229a1.83,1.83,0,0,0-.378-.976,2.41,2.41,0,0,0-1.89-.624,2.259,2.259,0,0,0-1.358.343,1.074,1.074,0,0,0-.461.905,1.114,1.114,0,0,0,.606.984,3.644,3.644,0,0,0,1.037.387l1.046.255a8.087,8.087,0,0,1,2.285.8,2.118,2.118,0,0,1,.923,1.907,2.906,2.906,0,0,1-.954,2.171,4.059,4.059,0,0,1-2.9.914,3.9,3.9,0,0,1-2.975-.954,3.606,3.606,0,0,1-.936-2.36ZM34.585-1.02A2.182,2.182,0,0,0,36.743-2.21a5.933,5.933,0,0,0,.584-2.65A4.718,4.718,0,0,0,36.905-7a2.373,2.373,0,0,0-2.3-1.3A2.271,2.271,0,0,0,32.493-7.2a5.133,5.133,0,0,0-.659,2.672,4.465,4.465,0,0,0,.659,2.5A2.322,2.322,0,0,0,34.585-1.02Zm.062-8.666a4.262,4.262,0,0,1,3.076,1.213A4.736,4.736,0,0,1,38.979-4.9a6.122,6.122,0,0,1-1.107,3.762A4.006,4.006,0,0,1,34.436.343,3.88,3.88,0,0,1,31.351-.971,5.19,5.19,0,0,1,30.208-4.5a5.615,5.615,0,0,1,1.2-3.779A4.041,4.041,0,0,1,34.646-9.686ZM46.863-4.6A4.666,4.666,0,0,0,47.5-2.065a2.248,2.248,0,0,0,2.057,1.02,2.166,2.166,0,0,0,1.806-.945A4.462,4.462,0,0,0,52.075-4.7a4.009,4.009,0,0,0-.729-2.641,2.276,2.276,0,0,0-1.8-.857,2.378,2.378,0,0,0-1.938.914A4.186,4.186,0,0,0,46.863-4.6ZM49.245-9.58a3.349,3.349,0,0,1,1.811.457,4.253,4.253,0,0,1,.958.923v-4.755h1.521V0H52.11V-1.31A3.423,3.423,0,0,1,50.8-.053a3.748,3.748,0,0,1-1.731.387A3.506,3.506,0,0,1,46.345-.989a5.172,5.172,0,0,1-1.151-3.52,6.076,6.076,0,0,1,1.05-3.564A3.439,3.439,0,0,1,49.245-9.58Zm10.547-.044a4.294,4.294,0,0,1,1.942.47,3.582,3.582,0,0,1,1.433,1.217A4.2,4.2,0,0,1,63.8-6.275,10.868,10.868,0,0,1,63.94-4.2h-6.9a4.026,4.026,0,0,0,.677,2.3,2.266,2.266,0,0,0,1.96.866,2.534,2.534,0,0,0,1.978-.817,2.755,2.755,0,0,0,.6-1.1h1.556A3.276,3.276,0,0,1,63.4-1.8a4.111,4.111,0,0,1-.778,1.042,3.687,3.687,0,0,1-1.784.949,5.42,5.42,0,0,1-1.292.141A3.964,3.964,0,0,1,56.566-.945a4.976,4.976,0,0,1-1.222-3.582,5.41,5.41,0,0,1,1.23-3.683A4.059,4.059,0,0,1,59.792-9.624Zm2.522,4.166A4.1,4.1,0,0,0,61.866-7.1,2.3,2.3,0,0,0,59.7-8.244a2.406,2.406,0,0,0-1.828.787,2.972,2.972,0,0,0-.782,2ZM1.371,7.089H3.12V18.462H9.659V20H1.371ZM12.384,17.5a1.3,1.3,0,0,0,.5,1.081,1.857,1.857,0,0,0,1.187.4,3.608,3.608,0,0,0,1.617-.387,2.176,2.176,0,0,0,1.318-2.1V15.21a2.707,2.707,0,0,1-.747.308,6.366,6.366,0,0,1-.9.176l-.958.123a3.664,3.664,0,0,0-1.292.36A1.4,1.4,0,0,0,12.384,17.5Zm3.832-3.2a.859.859,0,0,0,.729-.457,1.391,1.391,0,0,0,.105-.606,1.285,1.285,0,0,0-.576-1.173,3.089,3.089,0,0,0-1.648-.365,2.094,2.094,0,0,0-1.758.668,2.2,2.2,0,0,0-.378,1.1H11.215a2.718,2.718,0,0,1,1.129-2.421,4.637,4.637,0,0,1,2.518-.681,5.124,5.124,0,0,1,2.7.633,2.147,2.147,0,0,1,1.028,1.969v5.423a.694.694,0,0,0,.1.4.487.487,0,0,0,.426.149q.105,0,.237-.013t.281-.04v1.169a4.406,4.406,0,0,1-.562.132,4.111,4.111,0,0,1-.527.026,1.3,1.3,0,0,1-1.187-.58,2.239,2.239,0,0,1-.272-.87,4.025,4.025,0,0,1-1.389,1.1,4.3,4.3,0,0,1-2,.466,2.967,2.967,0,0,1-2.14-.8,2.642,2.642,0,0,1-.831-1.991,2.564,2.564,0,0,1,.817-2.03,3.889,3.889,0,0,1,2.145-.888Zm4.843-7.251H22.6v4.685a3.447,3.447,0,0,1,2.8-1.389,3.667,3.667,0,0,1,2.852,1.208,5.148,5.148,0,0,1,1.094,3.564,6.112,6.112,0,0,1-1.081,3.709,3.507,3.507,0,0,1-3,1.477,3.071,3.071,0,0,1-1.811-.519,4.372,4.372,0,0,1-.94-.984V20H21.059ZM25.172,18.9a2.114,2.114,0,0,0,1.92-1.02,5.02,5.02,0,0,0,.637-2.689,4.414,4.414,0,0,0-.637-2.461,2.1,2.1,0,0,0-1.876-.976,2.617,2.617,0,0,0-1.894.8,3.592,3.592,0,0,0-.813,2.637,5.827,5.827,0,0,0,.334,2.153A2.308,2.308,0,0,0,25.172,18.9Zm9.756.079a2.182,2.182,0,0,0,2.158-1.191,5.933,5.933,0,0,0,.584-2.65A4.718,4.718,0,0,0,37.248,13a2.373,2.373,0,0,0-2.3-1.3A2.271,2.271,0,0,0,32.836,12.8a5.133,5.133,0,0,0-.659,2.672,4.465,4.465,0,0,0,.659,2.5A2.322,2.322,0,0,0,34.928,18.98Zm.062-8.666a4.262,4.262,0,0,1,3.076,1.213A4.736,4.736,0,0,1,39.322,15.1a6.122,6.122,0,0,1-1.107,3.762,4.006,4.006,0,0,1-3.437,1.485,3.88,3.88,0,0,1-3.085-1.314A5.19,5.19,0,0,1,30.551,15.5a5.615,5.615,0,0,1,1.2-3.779A4.041,4.041,0,0,1,34.989,10.314Zm6.258.272h1.5v1.626a3.592,3.592,0,0,1,.905-1.156,2.347,2.347,0,0,1,1.661-.681q.044,0,.149.009t.36.035v1.67a2.363,2.363,0,0,0-.259-.035q-.119-.009-.259-.009a2.258,2.258,0,0,0-1.837.769,2.684,2.684,0,0,0-.642,1.771V20H41.247ZM48.41,17.5a1.3,1.3,0,0,0,.5,1.081,1.857,1.857,0,0,0,1.187.4,3.608,3.608,0,0,0,1.617-.387,2.176,2.176,0,0,0,1.318-2.1V15.21a2.707,2.707,0,0,1-.747.308,6.366,6.366,0,0,1-.9.176l-.958.123a3.664,3.664,0,0,0-1.292.36A1.4,1.4,0,0,0,48.41,17.5Zm3.832-3.2a.859.859,0,0,0,.729-.457,1.391,1.391,0,0,0,.105-.606,1.285,1.285,0,0,0-.576-1.173,3.089,3.089,0,0,0-1.648-.365,2.094,2.094,0,0,0-1.758.668,2.2,2.2,0,0,0-.378,1.1H47.241a2.718,2.718,0,0,1,1.129-2.421,4.637,4.637,0,0,1,2.518-.681,5.124,5.124,0,0,1,2.7.633,2.147,2.147,0,0,1,1.028,1.969v5.423a.694.694,0,0,0,.1.4.487.487,0,0,0,.426.149q.105,0,.237-.013t.281-.04v1.169a4.406,4.406,0,0,1-.562.132,4.111,4.111,0,0,1-.527.026,1.3,1.3,0,0,1-1.187-.58,2.239,2.239,0,0,1-.272-.87,4.025,4.025,0,0,1-1.389,1.1,4.3,4.3,0,0,1-2,.466,2.967,2.967,0,0,1-2.14-.8,2.642,2.642,0,0,1-.831-1.991,2.564,2.564,0,0,1,.817-2.03,3.889,3.889,0,0,1,2.145-.888Zm5.282-6.337h1.6v2.628h1.5v1.292h-1.5v6.144a.665.665,0,0,0,.334.659,1.42,1.42,0,0,0,.615.1q.114,0,.246,0t.308-.022V20a3.532,3.532,0,0,1-.567.114,5.39,5.39,0,0,1-.637.035,1.717,1.717,0,0,1-1.5-.567,2.519,2.519,0,0,1-.4-1.472V11.879H56.25V10.587h1.274Zm8.42,11.021A2.182,2.182,0,0,0,68.1,17.79a5.933,5.933,0,0,0,.584-2.65A4.718,4.718,0,0,0,68.265,13a2.373,2.373,0,0,0-2.3-1.3A2.271,2.271,0,0,0,63.853,12.8a5.133,5.133,0,0,0-.659,2.672,4.465,4.465,0,0,0,.659,2.5A2.322,2.322,0,0,0,65.944,18.98Zm.062-8.666a4.262,4.262,0,0,1,3.076,1.213A4.736,4.736,0,0,1,70.339,15.1a6.122,6.122,0,0,1-1.107,3.762,4.006,4.006,0,0,1-3.437,1.485,3.88,3.88,0,0,1-3.085-1.314A5.19,5.19,0,0,1,61.567,15.5a5.615,5.615,0,0,1,1.2-3.779A4.041,4.041,0,0,1,66.006,10.314Zm6.258.272h1.5v1.626a3.592,3.592,0,0,1,.905-1.156,2.347,2.347,0,0,1,1.661-.681q.044,0,.149.009t.36.035v1.67a2.363,2.363,0,0,0-.259-.035q-.119-.009-.259-.009a2.258,2.258,0,0,0-1.837.769,2.684,2.684,0,0,0-.642,1.771V20H72.264Zm5.95.044h1.608V20H78.214Zm0-3.542h1.608V8.882H78.214ZM85.948,18.98a2.182,2.182,0,0,0,2.158-1.191,5.933,5.933,0,0,0,.584-2.65A4.718,4.718,0,0,0,88.269,13a2.373,2.373,0,0,0-2.3-1.3A2.271,2.271,0,0,0,83.856,12.8a5.133,5.133,0,0,0-.659,2.672,4.465,4.465,0,0,0,.659,2.5A2.322,2.322,0,0,0,85.948,18.98Zm.062-8.666a4.262,4.262,0,0,1,3.076,1.213A4.736,4.736,0,0,1,90.343,15.1a6.122,6.122,0,0,1-1.107,3.762A4.006,4.006,0,0,1,85.8,20.343a3.88,3.88,0,0,1-3.085-1.314A5.19,5.19,0,0,1,81.571,15.5a5.615,5.615,0,0,1,1.2-3.779A4.041,4.041,0,0,1,86.01,10.314Z" transform="translate(-1334.877 6230)" fill="#00223d"/>
  </g>
</svg>
